<svg xmlns="http://www.w3.org/2000/svg" xml:space="preserve" viewBox="0 0 118.3 109.8">  <style>    .st0{fill:#333}  </style>  <path d="M18.8 66.7c.6-3.8.5-7.6-.2-11.5 1.7-.3 1.8 2.6 3.6 1.5 1.4-.8 1.3-2.2 1.3-3.5 0-9.3-.2-18.6.4-27.9.2-2.5-.5-5-1.9-7.1-1.5-2.2-.6-2.8 1.7-2.8 5.8 0 11.7.1 17.5-.2 2.8-.1 6.2 2.1 8.3-1.9.5-1 1.3.7 1.7 1.5 2.5 4.6 1.5 9.4.5 14.1-.3 1.4-.9 2.7-1.4 4.2 2.7.4 5.3.7 8 1.1-2-6.5-1.4-7.7 4.5-7.8-3.8 4.9.2 6.4 3.5 7.6 6.7 2.4 10.3 6.9 10.8 13.9 0 .1-.1.4-.2.4-.3.1-.6 0-.9 0-1.2-3.9-5.7-3.4-8.1-5.9-2.5-2.7-5.9-2.7-9.2-1.9-10.4 2.6-13.6 9.7-9.3 20.5-.3.2-.5.4-.8.6-6-10-3.5-15.6 11.7-25.5-3.4-1.7-6.9-1.2-10.2-1.5-1.6-.1-2.8 3.7-4.8.3-.3-.6-3.2.3-5.8.7 3.4-3 8.5.3 10-4.5 1.1-3.6 2.4-7.2 1.8-10.9-2.7.3-5.1.5-7.5 1-3.8.8-6.6 2.8-6.2 7.1 1.2 14.1 0 28.2.5 42.3.1 2.8-.3 4.7-3.2 5.4 1 .2 2 .3 2.9.5-1.8.7-3.5 1.4-6.1 2.4 5.1.5 10-.6 11 5.4-1.4-.7-2.2-2.7-4.2-1.8V88c0 3.1 1.3 5 4.4 5.6 13.4 2.7 32.2-1.7 39.9-17.4-3.1-1.8-6.1-1.2-9 .3-2.8 1.5-5.5 3.1-8.4 4.3-4 1.7-8.8 2.3-11.9-.6-3.9-3.6-8.3-4.2-12.9-5.1 2-1.9 4-.4 5.9.1 5.2 1.5 9.8 1.7 12.9-3.8.4-.7 1-1.5 1.9-1.3 5.3 1.4 5-7.1 10.3-5.9.5.1.3-1.7.1-2.7-.2-1-.7-2.1.3-2.8 3.7-2.7 1.1-5.1-.2-7.6-1-1.9-3.1-2.9-4.8-4.8 3.7-.3 5.9 1.6 8.3 3 3.8 6 3.4 8.9-2.6 18.6 4.4-.4 8.8-1.3 12 3.9 3.5-10.4 2.8-19.9-.6-29.4-4.5-12.5-14-19-26.7-21.3-1.8-.3-4.3.2-3.9-3.1.3-3.3 2.8-2.3 4.5-2.3 6.2.1 12.3 1.1 18.1 3.2 21.1 7.9 30.5 28.3 23.8 51.9C96.1 84 87.6 92.6 74.2 96.1c-1.6.4-3.2.7-4.9 1.1-.8.2-1.7.5-1.7 1.5-.1 1.1.8 1.5 1.6 1.5 10-.6 19 7 29.4 3.1-5.6 4.2-11.3 2.6-17.1.7-4.8-1.6-9.7-3.2-15.3-.5 2 1.2 5.5.4 4 3.8-.9 2-2.8 3-5 2.2-2.7-1-2.5-3.2-1.5-5.4 2.3-5.3 1.8-6.2-4.4-6.1-12.1.2-24.3.5-37.1 0 3.9-11.6 1.7-23.4 1.9-35 0-1.2 1-3.5-1.2-3.6-1.8-.1-1.2 2-1.3 3.2-.2 1.7-.4 3.3-1.7 4.6-.7-.2-.9-.4-1.1-.5zM67.2 71c-.7.4-1.5.7-2 1.3-.8 1-3 2-1.3 3.4 1.3 1 2.7-.7 3.6-1.7.4-.4 0-1.7-.1-2.6.4-.2.8-.5 1.2-.7-.1-.1-.2-.4-.3-.4-.3.2-.7.4-1.1.7zm21.3-26.1c-.2-.9.4-2.1-1-2.5-.1 1 .1 1.9.9 2.6l1.2 16.5c.8-5.7 1-11.3-1.1-16.6zm-62.4-9.6V75c.3-3.6.6-5.7.7-7.8.4-10.7.6-21.3-.7-31.9zm6 33.8c1.4-8.5-.6-16.9.6-25.3-2.7 8.3-.4 16.9-.6 25.3zm-2.4-3.2v-23c-2.2 9.2.5 18.4 0 23zm40.7 6.2c3.4-.2 5.7-.3 8-.5-2.5-1.6-4.9-2-8 .5zm15.7-34.7c-.1-.3-.3-.5-.4-.8-.1.1-.4.2-.3.3.1.3.2.5.4.8l.3-.3zm1 2.2-.3-.3c-.1.1-.3.2-.3.3 0 .1.2.2.2.3.2-.2.3-.2.4-.3z" class="st0"></path>  <path d="M6.3 16c-4.2 5.3-3.4 11.6 2 15 3.2 2.1 3.9 5.6 5.8 8.5 1.1 1.8 1.9 4.5 4.6 1.5.8-.9 1.5-.6 2 .2.9 1.6 1.8 4.5.4 5-5 1.8-4.4 6.5-6.2 10-.9 1.7-2.2 3.1-4.4 2.5-1.9-.6-3-2-3.2-4-.1-1.2-.4-2.2 1.7-1.9 3.2.5 3.6-1.6 2.3-3.8-1.4-2.4-3-4.8-4.8-6.9-5-6-5.2-12.6-3.3-19.7.8-3.2-.2-7 3.3-9.2l-.3-.2v3.1l.1-.1zm105.9 75c.5-1.4 1-2.8 1.4-4.2.8-3.1 2.2-6-1-8.9-3.2-2.9-2.4-8.4-6.3-11.2-.3-.2 0-1.2.1-1.9.1-.8.5-2 .2-2.4-4.7-5.6-1.4-7.4 3.8-8.5.7-.1 1.3-1.1 1.6-1.8 1-2 1.5-4.3-.6-5.9-2.7-1.9-3.7.7-5 2.7C104 47 103 44.8 104 42c.9-2.4 3-3.5 5.6-3.3 3.2.3 5 2.2 5.8 5.3 1.5 6.4-1 11.3-7.5 14.3 9.4 6.6 11.6 22.1 4.9 33-.3-.1-.5-.2-.6-.3z" class="st0"></path>  <path d="M6.4 13.1c-.3-3 2.2-4.3 3.8-5.9 9.3-9.3 27.1-10.9 38.3 3.6-.2.3-.5.5-.7.8-4.9-5.1-10.4-7.5-17.1-3.1-.9.6-2.1 1.2-2.8-.5-.4-.9-1.3-1.5-1.9-.8-2.8 2.7-6 0-8.9.8h.1c1.1-2.3 3.5-3.1 5.3-4.7.8-.2 2.1.2 2.3-1.2-1.1-.5-2.1-.4-3.1.2-15 5-17.4 15.7-6.5 29.3-5.7-2.8-7.3-5.7-8.9-15.6l-.1.2c1.2-1.1 1.7-2.1 0-3.1h.2zm90.4 1.4c2.2-.8 1.4-3.5 3.1-4.7 2-1.4 3-5.8 6.7-1.8.6.7 2.8-.1 4.4-.3.2 2.9-2.6 3.3-4.2 5.1 6 1.9 11.3 4.2 11.5 11.4.1 4.4-1.9 7.8-6 9.5-3.7 1.6-7.4 1.9-10.3-1.8.6-.4 1.2-.8 1.9-1.2 3 2.1 5.9 2.3 8.3-.7 2.5-3.1 3-6.5.4-10-3.7-4.9-8-6.2-14.9-4.4-.4-.5-.7-.8-.9-1.1zM52 4.8c4.2-5.1 10.3-6.2 16.4-3 3.2 1.7 5.8 4.4 9.8 4.5 2.4.1 1.9 1.7.9 3.1-.4.5-.9.9-1.5 1.3-3.3 2.1-5.9-.9-8.7-1-2.2-.1-4.1 4.2-7.7 3-1.3-.5-2.4-1.3-2.5-2.8-.1-1.2.3-2.4 1.3-3.1 1.3-.7 3.1-1.6 2.6 1.2-.2 1.1-.5 2.1.9 2 1.6-.1 2.2-1.4 2.3-2.8.3-3.9-4.9-6.8-8.8-4.9-1.6.8-2.9 2.2-4.3 3.3-.1-.1-.4-.5-.7-.8zm49.3 90.8c-2.7 1.5-5.1 3.5-8.6 3.9.4-1.6 2.1-2.1 2-3.8-.3-3.9 1.6-5.4 5.5-4.8 1.3.2 3.6-.7 2.9-1.7-4.2-5.4 1.8-5.3 3.8-8.3 1.2 6.7-2.2 10.7-5.4 14.9l-.2-.2zm-68.4 9.1c-5.5 5.8-16.1 4.8-20.4-2.1-4-6.3-2.6-17 4.2-23.4-5.4 9.3-7.1 17.6.1 24.8 4.7 4.8 10.7 3.2 16.3.8l-.2-.1zm60.4-88.8c-2.5-1-1-3.1-1.2-4.6-.4-3.3-3-4.8-5.6-3.1-.9.6-2.2 1.7 0 2.2 1.1.3 2 .5 1.4 1.8-.5 1.1-1.6 1.8-2.9 1.6-1.1-.2-1.6-1.1-1.7-2.2-.3-2 .5-3.6 2.2-4.7 1.8-1.2 3.8-1.2 5.7-.3 2 .9 2.8 2.6 2.8 4.8.1 1.7-1.6 3-.9 4.7l.2-.2zm-46.5 89c5.2.3 8.3-1.6 10.9-4.6.5-.6 1.1-1.5 2-.7.9.8 0 1.3-.5 1.9-3 3.2-6.2 6.1-10.9 6.1-1.7 0-3.4-.8-3.2-2.9.1-1.6 1.4-2.2 2.8-2.3.8-.1 1.9.1 1.8 1.1 0 1.2-1.6.2-2.9 1.4z" class="st0"></path>  <path d="M8.6 75.8c3.2-1.5 6.4-2.9 9.2.6 2.6 3.2 2.1 8-1.2 12-.2-.2-.4-.4-.5-.6 1.6-3.4 2.1-6.9.2-10.4-.7-1.3-1.8-1.8-3.3-1.6-1.8.3-1.3 1.4-.8 2.5.3.7 0 1.3-.6 1.6-.8.4-1.6.1-2.2-.5-1.2-1-.8-2.4-.8-3.6 0-.1 0 0 0 0zm-.4 15c1.1 4.5.2 8.1-2.9 11-2.1 2-5.1 1-5.3-1.5-.1-.8 0-2.2 1-1.8 7 2.4 5.1-3.8 6.5-6.7.1-.3.3-.5.7-1zm96.1 14.2c2.8.9 5 .9 5.1-2.9.1-1.4.6-2.6 2.1-3 .9-.2 1.7-.1 2.2.7 1 1.5.2 2.9-.5 4.2-2 3.6-5.3 4.2-9.7 1.7.4-.3.6-.5.8-.7zM93.2 16l1.8-.3c.2.2.4.5.6.7-.8.6-1.5 1.2-2.2 1.8.2 1.3 1 .8 1.5.6 1.4-.6 3-1.3 4.1.2.9 1.2.8 2.6-1.2 2.6-.6 0-1.3-.5-1.9-.4-2.7.4-5 2.4-8.3 1.6 1.1-3 4.8-3.9 5.8-6.8-.1-.1-.2 0-.2 0zm8.8 15.7c-1.7-2.1-2.3-4.4-1.1-6.9 1-2 3-2.6 5.1-2.4 2.8.2 4.6 1.6 3.6 5.1-1.9-.8-3.4-2.8-5.4-1.4-1.8 1.2-1.2 2.8-.4 4.4l-1.8 1.2z" class="st0"></path>  <path d="M9.9 69.5c-.3 2.1-3.2 3.7-1.4 6.3l.1-.1c-3.1 2.4-1.4 5.4-1 8.2.1 1.2.9 2.3 1.8 4.2C4 83.7 4.2 76.2 9 68.8c.3.2.6.5.9.7zm68.5-9.8c1.1-6.7-1.6-14 2.2-20.4-1.4 6.7 1.2 13.8-2.2 20.4zm25.2 45.9c-2.7-1.9-2.9-4.5-2.1-7.4.2-.8 2.1-1.9-.2-2.6l.1.1c1 3.1 1.9 6.2 2.9 9.3-.2.2-.4.4-.7.6zM15.7 32.2c2.7-.3 4.5.5 7.1 1.8-3.3 1.3-5 0-7.1-1.8zM52.9 5.8c-.8 1.5-1.6 2.9-2.9 5.2-.8-3.4.5-4.9 2-6.2.3.3.6.7.9 1zM14.2 63c1-1.3 1.8-2.6 3.8-3.1.5 2.8-2 2.9-3.2 3.9-.2-.3-.4-.5-.6-.8z" class="st0"></path>  <path d="M9 68.8c.7-1.6 1.8-2.9 3.9-3.4-1 1.3-2 2.7-3 4-.3-.1-.6-.4-.9-.6zm98.3 29.3c-.5 1.1-1.4 1.6-2.6 1.9-.2-1.8 1.4-1.8 2-2.6.3.3.4.5.6.7zM33 104.8c1-.7 2.4-1 2.7-2.4.3 2.3-.8 2.8-2.8 2.3l.1.1zm6-4.1c.3-.6.9-1.2 1.4-.6.5.7-.4.9-1 1l-.4-.4zM16.6 88.4c-.5.6-1.3 1.5-1.8.8-.6-.9.6-1.2 1.3-1.4.2.2.4.4.5.6zm81-73c-.7.4-1.3.7-2 1.1-.2-.2-.4-.5-.6-.7.6-.4 1.2-.9 1.8-1.3.2.3.5.6.8.9zm-58.7 87c-1.1.2-2.1.9-3.2-.1 1.1 0 2.1-.6 3.2.1zm70.6-5.9c-1.2-1.2.4-2 .4-3v-.1c1.1 1.2.3 2-.5 2.9l.1.2zm3.1-5.2c-.3.7-.4 1.6-1.3 1.7-.2-.9.1-1.6.9-2.1.1.2.3.3.4.4zM14.8 63.8c-.6.5-1.3 1.6-1.8 1.1-.9-1.1.5-1.4 1.2-1.9.2.3.4.5.6.8zm4.6 3.4c-.2.2-.3.4-.5.6-.1-.4-.1-.7-.2-1.1.3.1.5.3.7.5z" class="st0"></path>  <path d="M109.9 93.5c.5-.1.9-.3 1.4-.4-.3.8-.7 1.3-1.4.4 0-.1 0 0 0 0zm-.5 2.8c-.4.2-.7.5-1.1.7-.1-.2-.2-.3-.4-.5.5-.4.9-1.3 1.5-.1.1.1 0-.1 0-.1zm-2.6 1.1c.4-.3.8-.6 1.1-.9.1.2.2.3.4.5-.3.4-.6.7-.9 1.1-.3-.2-.4-.4-.6-.7zm-67.9 5c-.6-.6-.7-1.2 0-1.7.1.1.2.2.3.4 0 .4-.2.9-.3 1.3zm9.6-91.6c.5.4 1.3.8.6 1.5-.7.7-.9-.4-1.4-.7.4-.3.6-.6.8-.8zM17.1 8c.1.2.3.4.4.6-.2.1-.4.1-.6.2.1-.3.2-.5.3-.8h-.1zm33.8 54.4c1.4.9 2.7 1.9 4.5 1.8 2.4-.1 4.4-1 4.8-3.5.5-2.7-1.6-3.3-3.7-3.6-.9-.1-2.2.3-2.5-.9-.4-1.3.5-2.3 1.3-3 2.8-2.4 6-3.1 9.1-.8 3.1 2.4 2.5 5.6.6 8.5-3.5 5.5-9.4 6.3-14.9 2.2.3-.2.5-.4.8-.7zm-4.2 3.2c-1.4 1.7-.1 3 .5 4.5.4.9.2 1.7-.8 1.9-1.2.2-2-.4-1.7-1.7.4-1.9 1.1-3.8.7-5.8-1.9.3-1.1 1.9-1.7 2.7-.8 1-1.7.9-2.5.1-.8-.7-.6-1.7.2-2 2-.8 2.7-2.8 4.2-4.2 2.1 1.1 1.7 2.8 1.1 4.5zm2.7 2.3c1.1.6 2.7.7 2.7 2.4 0 .4-.9 1.2-1.3 1.2-1.7-.2-1.2-2.1-2.1-3 .2-.2.5-.4.7-.6zM41.2 45c.6-1.4 1.3-2.6 2.9-3.2.3 2-1.3 2.8-2.4 4-.2-.3-.4-.6-.5-.8z" class="st0"></path>  <path d="M41.7 45.7c-.5.7-.9 1.6-2 1.8-.4-1.4.6-1.9 1.5-2.5.1.2.3.5.5.7zm5 20c2.3-1 2.2 1 2.8 2.2-.2.2-.5.4-.7.6-.8-1-1.4-1.9-2.1-2.8 0-.1 0 0 0 0zM46.2 40c-.4.4-.9.8-1.4 1.2-.1-.3-.4-.7-.3-.8.4-.5.8-1 1.3-1.4.1.2.2.5.4 1zm4 23.1c-.5-.5-1-1-1.5-1.6.3-.2.5-.4.8-.6l1.5 1.5c-.4.3-.6.5-.8.7zm-1.5 24.4c3.3-2.7 7-3.7 11.2-2.4 2.7.8 4.1 2.6 3 5.8-3-6-5.8-6.6-13.5-2.8-.3-.2-.5-.4-.7-.6zM47 89.6v.1c.5-.7 1.1-1.5 1.6-2.2.2.2.5.4.7.6-.5.9-1 1.8-2.3 1.5z" class="st0"></path></svg>