<svg xmlns="http://www.w3.org/2000/svg" xml:space="preserve" viewBox="0 0 248.5 52.5">  <style>    .st0{fill:#a9c1a3}.st1{fill:#727040}.st2{fill:#f8dfdd}.st3{fill:#febd64}.st4{fill:#af4c54}.st5{fill:#4d89b4}.st6{fill:#74517e}  </style>  <path d="M57 18.9c-4.7.2-9.5.3-14.2.2-2.4 0-4.7-.1-7.1-.2l-7.1-.2c-4.7-.1-9.5 0-14.2.1-4.9 0-9.7.2-14.4.5v.2c4.7.3 9.5.5 14.2.6 4.7.1 9.5.2 14.2.1l7.1-.2c2.4-.1 4.7-.2 7.1-.2 4.7-.1 9.5 0 14.2.2 1.6.1 3.2.1 4.8.2v-1.3c-1.4-.1-3 0-4.6 0zm163-.5c-4.7 0-9.5.1-14.2.1-4.7.1-9.5.2-14.2.4-1.6.1-3.2.1-4.8.1v.7c1.6 0 3.2.1 4.8.1 4.7.2 9.5.3 14.2.4 4.7.1 9.5.1 14.2.1 9.5-.1 19-.3 28.5-.9v-.2c-9.5-.5-19-.7-28.5-.8z"></path>  <path d="M86.9 38.3c.1 0 .2.1.3.2 0-.1-.1-.2-.1-.3 0 .1-.1.1-.2.1zM86 18.7c0 .1.1.3.2.4.1 0 .2.1.3.2.1.1.2.3.2.5 0 .1 0 .2.1.3.1.1.2.3.3.4.2.3.4.4.8 0 .7-.7 1.3-.6 1.7.3.3.8.9 1.5 1.4 2.2-.1-.7-.1-1.4 0-2.1.1-.6.2-1.1.8-1.2h.5c-.4-1.2-.7-2.5-1-3.8-.1-.5-.2-1-.5-1.4-.3-.4-.5-1-1.1-.9-.6.1-.5.7-.6 1.2-.4 1.8-1.8 2.6-3.6 1.9l-1.5-.6c-.3-.1-.5-.2-.6-.6 0 .1-.1.1-.1.2-.1.2-.2.3-.3.3v1.2c-1-1.4-1.9-2.7-2.9-4 0 .1-.1.3-.3.4-.2.2-.5.4-.8.4-1.2.3-2.4.5-3.5.5-.1.3-.2.5-.3.7-.2.6-.2 1.3-1.2 1.1-.2 0-1 .3-1 .9 0 1.7-.2 3.5.5 5.2 1.4 3.3 3.3 6.2 6.9 7.6.9.3 1.6 1 2.1 1.7-.1-.9-.2-1.7-.3-2.6.3.1.4.3.5.5.3 1.4.5 2.8.8 4.2.3 1.3.8 2.4 1.6 3.2-1.2-1.7-1.1-3.7-1-5.7.1.2.1.3.2.5.3 2 .6 4 2.3 5.2-.3-.6-.5-1.1-.8-1.7.1-.1.3-.2.4-.2.9 1.3 1.4 3 2.8 4.1l-.1-.1c-.1-.3-.2-.6-.2-.9 0-2.9.1-5.9-1.9-8.3-.2-.2-.3-.4 0-.6.2-.2.4 0 .6.1.5.4.8.9 1.1 1.4.4.7.7 1.5.8 2.2l.4.4v.1c.2.3.4.5.6.9 0 .1.1.1.1.2.9 1.4 1.8 2.6 2.7 3.8.7.9 1.3 1.8 2.1 2.7 0-.1-.1-.2-.1-.3-.1-.2-.3-.4-.5-.6-2.3-2.9-4.2-6.1-5.6-9.5-.6-1.4-1.1-2.8-1.9-4.1-.7-1-.9-2.2-1.1-3.4 0-.2 0-.4.1-.6-.2-.5-.4-1-.5-1.4 0-.1-.1-.3-.1-.4l-.1-.1c-.3-.5-.5-1-.6-1.6 0-.2 0-.4.1-.5 0-.1-.1-.3-.1-.4.1-.1.2-.1.4-.2 0 .1.1.3.1.4.4-.2.6 0 .7.3zm-3.9 6.8c-1-1.2-1.7-1.7-1.8-1.6-.7.6-1.1 1.3-.2 2.2-.3-.1-.4-.2-.5-.3-.2-.2-.3-.6-.7-.3-.4.3 0 .6.2.8.3.3.7.5.7 1-.4 0-.6-.3-.8-.5-1-1.5-2.4-2.5-3.6-3.8-1.2-1.4-1.4-2.9-1.6-4.6 0-.3 0-.6.3-.7.3-.1.1.5.7.4-1.1-1.5.6-1.6 1.2-2.3.2-.3.4.2.4.4.1.4.1.9.1 1.3.1-.5.1-.9.1-1.3 0-.3-.1-.8 0-1.1.3-.5.3.1.5.1 0 0 .1 0 .1-.1.1-.2.1-.3.2-.5 0-.1.1-.1.1-.2.1 0 .1 0 .2.1.2.1.3.3.5.2.2-.1.2-.5.4-.6.2-.1.4 0 .5.2.4.4.8.7 1.1 1.1.4.3.4.7.6 1.2.4 1.1 1.2 2.2.2 3.4-.1.1 0 .3.1.5.3.6.3 1 0 1.7-.3.6-.4 1.4.3 2 .5.2.8.6.7 1.3zM75.8 13l-.1-.1c-.4.1-.8.1-1.1.1.4.1.8.1 1.2 0zm4.7-7.1s-.1-.1-.2-.1h-.1s0 .1-.1.1c.2-.1.3 0 .4 0zM78 38.1c.3-.4.7-.8 1-1.2-.5-.2-.4-.7-.3-1.1 0-.9.2-1.8.2-2.8 0-.5-.1-1-.8-1.1-.8-.2-1.3-.6-1.4-1.4-.6 1.3-.5 2.7-.6 4.1 0 .4 0 .9-.1 1.3 0 .1-.1.2-.1.4.6-.2 1.1-.6 1.6-1.1.2.9.3 1.8.5 2.9z" class="st0"></path>  <path d="M80.1 9.4C80 9 80 8.6 80 8.2c-.1-.6.1-1.2.6-1.6.1-.1.1-.3.1-.4-.2-.1-.3-.2-.5-.3-.3.4-.7.4-1.1-.1-.4-.5-.8-.9-1.5-1-.4-.1-.9 0-1.3-.2-.9-.4-2 .1-2.6.7-1.4 1.3-1.2 2.9-1.1 4.6 0 .4.1.7.1 1.1 0 .3-.1.7-.4.8 0 .4.1.6.2.7.1 0 .2 0 .3.1.4.1.9.1 1.3.1h1.3c-.4-.6-.4-1.4-.1-2.2.4.1.1.5.5.7.1-.3.2-.5.3-.9.3.8.6 1.5.6 2.2 1-.2 1.9-.4 2.7-.9.1-.6.1-1.4.3-1.4.1 0 .2 0 .4-.1 0-.1 0-.3.1-.4-.1-.2-.1-.3-.1-.3zm-2.2-2c-.5-.1-.9-.2-1.4-.4 0-.1 0-.2.1-.3.8.2 2-.3 2.4 1-.8.8-1 .3-1.1-.3zM75 35.9c0-1.5.2-3.1.8-4.5.2-.4.3-.8.8-1.1v-.8c-1.3 1.2-1.8 2.7-1.9 4.5 0 .8-.2 1.6-.4 2.5.3 0 .5 0 .8-.1-.1 0-.1-.3-.1-.5zm15 3.4c.5-.3.6-.8.5-1.4-.3-.9-.5-1.9-.7-2.9 0-.1-.1-.1-.1-.2.1 1.6.2 3 .3 4.5zM70.6 19.2c-.3.2-.6.2-1 .2-1.7.1-2.9-.8-3.7-2.1-.1-.2-.2-.3-.3-.3-.1 0-.2-.1-.3-.1-.2 0-.3.1-.5.1-.2.1-.5.1-.7.2l-.2.2v.2c0 .1.1.3.1.4.1-.4.3-.8.9-.8.6-.1.9.4 1 .9.2 1.3 1 2.1 2.1 2.7.5.3 1 .7 1.5 1.1.1 0 .1.1.1.1.1-.1.2-.2.4-.2.3 0 .3.3.3.6 0 .2 0 .5.1.7.1.2.2.4.2.7v.1h.1c.1.2.2.3.3.5h.3v-1.6h.1c.1.4.2.9.2 1.3.2-.2.3-.5.3-.9v-.1c-.7-1.1-1.1-2.5-1.3-3.9zm4 17.8.1.1s0-.1.1-.1c-.1.1-.1.1-.2 0zm2.1-.7c-.7.2-1.2.6-1.6 1 .1 0 .2.1.3.1.3-.2.6-.5 1-.6.1-.2.2-.3.3-.5zm.6-.1zm5.2-20.6c-.2-.3-.5-.5-.7-.8.3.3.5.6.7.8 0 .1 0 .1 0 0zm4.5-1.3v.2c.1-.1 0-.2 0-.2zm.2-1.4v.1c.1.2.1.4.2.5 0-.1 0-.2-.1-.4-.1 0-.1-.1-.1-.2zm2.1 26.5s-.1 0 0 0c-.1 0-.1 0 0 0z" class="st0"></path>  <path d="M77.3 13c.7-.2 1.3-.4 2-.6.1 0 .2-.1.3-.1-.1-.2-.2-.3-.3-.5-.9.3-1.7.6-2.7.8.1.4.3.5.7.4zm3.5.5c-.7-1-.9-2.1-.8-3.3h-.2c-.2 1.4.3 2.4 1 3.3zm-5.7.9h-1.7c.6.2 1.1.3 1.7 0zm3.6 24c.1-.1.1-.2.2-.3.4 0 .7-.4.9-.8.1-.1.1-.2.2-.3h-.5c-.4.5-.7 1-1.2 1.5.2.2.3 0 .4-.1zm8.6.4c-1.3-.4-2.3-1.2-3.1-2.2.6 1.2 1.5 2.1 3.1 2.2zm10.9-22.9.6-.9c-.3.4-.7.8-.9 1.2-1.2 2.1-2 4.2-1.4 6.6.2.7.5 1.4.9 2-1.2-2.7-1.1-5.7.8-8.9zm16.2.8c.2-.3.1-.5-.1-.7-.7-.8-1.6-.6-2.4-.4-.3.2-.6.5-.8.8-.2.2-.4.5-.4.7-.1.8.2 1.5.6 2.1.8.5 1.5 1.2 2.8.7-.6-.3-1-.5-1.4-.9-.8-.6-1-1.8-.5-2.6.2-.3.5-.5.8-.5.3 0 .5.3.6.6v.3c.1 0 .2-.1.4-.2v.5c.1 0 .3-.2.4-.4zm-7.9-7.9 1.8-.6c.1-.1.2-.1.4-.1-2.9 0-5.1 1.3-7 3.6.5-.5 1.1-.9 1.7-1.4.9-.7 2-1.1 3.1-1.5z" class="st0"></path>  <path d="M108.7 33.4c-2.6-1.8-5.1-3.9-6.2-7-1.4-3.9-2.3-7.7.8-11.6 2.1-2.6 6.5-3.6 9.5-2.1.5.1.9.2 1.4.3.8.1 1.3.9 1.8 1.5.1.1.1.2.1.2l.3.3c1 1.4.9 2.8-.3 4.2 4.3-1.5 3.5-6.3 1.3-8.2-2.5-2.1-5.4-2.3-8.5-1.7-.4.1-.8.3-1-.2-.2 0-.4.1-.5.1-1.7.3-3.2.9-4.3 2.3-.1.2-.3.3-.5.4-2 1.3-3.3 3.2-4.2 5.4-.5 1.2-1 2.5-1 3.7.1 2.3.9 4.5 2.4 6.4l2.1 2.4c1.1 1 2.3 2 3.6 2.8 1.1.7 1.8 2 2.8 2.8 2.7 2.1 5.7 3.8 8.5 5.6 1.7 1.1 2.9 2.5 3.9 4.1.5.5.9 1.1 1.2 1.7-.7-2.1-1.8-3.9-3.3-5.7-2.9-3.1-6.5-5.3-9.9-7.7zM123.9 48c-.2.6-.2 1.2-.2 1.8 0 .4 0 .9.5 1.1-.1-1.3.2-2.5.6-3.7.3-1.1.6-2.1 1.2-3.2-.2.3-.3.5-.5.8-.4.7-.9 1.5-1.2 2.3-.3-.8-.8-1.5-1.2-2.3-.2-.3-.3-.5-.5-.8.5 1 .9 2.1 1.2 3.2 0 .3.1.5.1.8z" class="st0"></path>  <path d="M102.9 20.7c.1 1.3.1 2.7.2 4-.3-.5-.7-1.1-.8-1.7-.1-.7 0-1.5 0-2.2.1-4 2.6-7 6.6-7.6.4-.1.9-.1 1.3-.1.2 0 .5-.1.8-.1.5 0 .9.1 1.3.2.4-.1.9-.1 1.2 0-.2-.2-.5-.3-.7-.4-3-1.4-7.3-.5-9.5 2.1-3.2 3.8-2.2 7.6-.8 11.6 1.1 3.1 3.6 5.2 6.2 7 3.5 2.4 7.1 4.6 9.9 7.8 1.5 1.7 2.6 3.6 3.3 5.7.8 1.4 1.3 3 1.5 4.8.4-2.6-.4-4.7-1.5-6.7-2.1-3.6-5.2-6.3-8.5-8.7-3.1-2.3-6.1-4.6-8.5-7.8l-1.5-2.1c.1-.1.2-.1.3-.2.1.1.1.2.2.3 1.5 2.7 3.7 4.8 6 6.7 3.6 3.1 7.9 5.3 10.8 9.2 1.2 1.5 2.2 3.1 2.8 4.8-.3-1.1-.6-2.1-1.2-3.2-.1-.3-.3-.5-.4-.8-1.8-3.1-4.4-5.5-7.2-7.6-1.6-1.2-3.4-2.2-5-3.4-3.2-2.4-5.7-5.3-6.2-9.6-.2-1.8-.1-3.5.8-5l.3-.6c.4-1.2 1-2.1 1.8-2.7-1.9 1.1-3.7 3.3-3.5 6.3z" class="st1"></path>  <path d="M124 52.2c-.3-.1-.5-.1-.8-.2 0 0 0-.1 0 0-.1-1-.3-2-.6-2.9.1.5.2 1.1.3 1.6.1.6.1 1.2.4 1.8.7.1.9-.1.8-.7v.1c.1.1 0 .1-.1.3zM75.8 28.3c-.3-.2-.5-.5-.8-.7.4.5.8.9 1.3 1.4l.1.1.1-.1c-.2-.3-.5-.5-.7-.7zm4.6 1.7c-3.6-1.4-5.4-4.3-6.9-7.6-.7-1.7-.5-3.4-.5-5.2 0-.6.8-.9 1-.9 1.1.2 1.1-.6 1.3-1.2.1-.2.1-.4.3-.7h-.4c-.6.3-1.1.2-1.6 0-.3 0-.6 0-.9-.1h-.5c-.3.1-.5.3-.7.6-.2.8-.4 1.5-.4 2.3v.7c.1 3.5 1.6 6.4 4.1 8.7 2.3 2.1 5 3.8 7.4 5.6 0-.2 0-.4-.1-.6-.6-.6-1.3-1.2-2.1-1.6zm-.4 7c.3-.1.5-.2.8-.5.7-.8.8-1.8.8-2.9v-.8c-.2-.2-.3-.4-.5-.6.1 1.9-.6 3.3-1.5 4.7.1.2.2.2.4.1z" class="st1"></path>  <path d="M76.7 29.9v.5h.1c0 .1-.1.1-.1.2.1.7.6 1.2 1.4 1.4.7.1.8.6.8 1.1 0 .9-.1 1.8-.2 2.8 0 .4-.1.9.3 1.1 1.1-1.4 1.8-2.8 1.5-4.6-.1-.4-.4-.8-.7-1.1-.9-.7-1.9-1.3-2.8-1.9-.1.1-.2.2-.3.2v.3zm10.8-.6c-.2-.2-.4-.3-.6-.1-.2.2-.1.4 0 .6 2 2.5 1.9 5.4 1.9 8.3 0 .3.1.6.2.9 0 .1 0 .1.1.1l.2.2h.1c0-2.5.3-4.9-1.1-7.1.4.2.8.4 1.2.7-.1-.8-.4-1.5-.8-2.2-.4-.4-.7-1-1.2-1.4z" class="st1"></path>  <path d="M80.1 41.1c-.7.2-1.4.2-2.2.2h3.3c-.1-.1-.2-.1-.3-.1-.2-.1-.5-.1-.8-.1zm-1.6 1.8c-.9.2-1.6.2-2.4 0 .3.3.8.4 1.1.4.8-.2 1.5-.3 2.3-.4-.4-.1-.7-.1-1 0z" class="st2"></path>  <path d="M81.5 24.1c-.7-.6-.6-1.4-.3-2 .4-.6.3-1.1 0-1.7-.1-.1-.1-.4-.1-.5 1-1.2.1-2.3-.2-3.4-.2-.5-.2-.9-.6-1.2-.4-.4-.8-.7-1.1-1.1-.1-.1-.4-.3-.5-.2-.2.1-.2.5-.4.6-.2.1-.3-.1-.5-.2-.1 0-.1-.1-.2-.1s-.1.1-.1.2c-.1.2-.1.3-.2.5 0 0 0 .1-.1.1-.3 0-.3-.7-.5-.1-.1.3 0 .8 0 1.1 0 .4 0 .9-.1 1.3 0-.4-.1-.9-.1-1.3 0-.2-.2-.6-.4-.4-.6.7-2.3.7-1.2 2.3-.5.1-.3-.5-.7-.4-.3.1-.4.4-.3.7.2 1.7.4 3.2 1.6 4.6 1.2 1.3 2.6 2.4 3.6 3.8.2.2.3.5.8.5 0-.5-.5-.7-.7-1-.2-.3-.6-.5-.2-.8.4-.3.5.1.7.3.1.1.2.2.5.3-.8-.9-.5-1.6.2-2.2.1-.1.8.5 1.8 1.6 0-.6-.3-1-.7-1.3zM88.2 41c0 .1.2.2.3.4.1-.3.2-.4.4-.5-.2-.1-.2-.2-.2-.4V40h-.2c-.1.2-.2.6-.3 1z" class="st3"></path>  <path d="M87.8 39c-.3 0-.5.1-.7.2-.3.8-.6 1.5-1 2.4-.4 0-.9-.1-1.5-.1h-.1c-.3 0-.5 0-.9-.1h-.1c-1.4.1-1.8.7-1.5 2.2 0 .1.1.1.1.2.9-.6 1.9-1.2 2.8-1.8-.6 1.1-.7 2.1.1 3.2.7-.8 2.2-1 1.8-2.8 1.2 1 2.4.8 3.6.3 0-.4 0-.8-.1-1.3-.1-.1-.3-.2-.4-.3-.4.1-.8.3-1.2.4-.2.2-.5.4-.7.6-.1-.1-.2-.1-.3-.2.2-.5.4-1 .6-1.4.1-.8 0-1.3-.5-1.5z" class="st3"></path>  <path d="M86.4 39.7c-.3.7-.6 1.2-1.1 1.5.1 0 .3 0 .4-.1.5-.3.8-1.2 1.3-1.8-.2 0-.4.2-.6.4 0-.1 0-.1 0 0zm.6 3.8-.6.9c-.3.3-.5.6-.8.9.5-.1.8-.5 1.1-.9.2-.3.3-.5.5-.6-.1-.1-.2-.3-.2-.3zm-4.6.5c.4.2.9.1 1.2-.2l.1-.1c-.1-.1-.1-.3-.2-.4-.6-.1-.9.2-1.1.7zM77 40.1c-.6-.4-.4-.8-.2-1.2.2-.5.4-.9.6-1.4-.1-.1-.1-.2-.2-.4-.5.8-.9 1.6-1.1 2 .5.6.9 1 1.3 1.5-.1-.1-.2-.3-.4-.5zm-2.6 2.4c.1-.1.2-.2.2-.3-.1-.1-.2-.1-.3-.2.1.2.1.4.1.5z" class="st3"></path>  <path d="M70.3 42.3c.7-.2 1.4-.2 1.7-1.2.1-.3.5-.5 1-1-.4 1-.7 1.8-1 2.6.2 0 .3 0 .5.2 1.5.2 1.5.1 1.8-1.1.9-.2 1.8-.4 3-.7 0 0 0-.1.1-.2-.7-.5-1.2-.9-1.8-1.3.5-.9 1-1.9 1.6-3-.2 0-.4.1-.6.2-.1 0-.1.1-.2.1-.4.2-.7.4-1 .6-.6.5-1 1.1-1.4 1.7-.5.7-1 1.3-2 1.1-2.1.8-2.1.8-1.7 2z" class="st3"></path>  <path d="M70.5 42.8c.2.1.6.2 1 .1.1 0 .2-.1.3-.1-.1-.2-.2-.5-.3-.8-.4.2-.7.5-1 .8zm3.6.3c-.3.2-.6.3-1.1.2.3.3.8.2 1.1-.2zm-3.5-2.8c.2-.1.5-.2.7-.3-.2 0-.4.1-.7.3zm-.4-27.7c-.1 0-.3-.1-.4-.1-.3-.1-.7 0-.9.3-.1.2-.1.3 0 .4.7.2 1.3.3 2 .4 0-.4.1-.7.1-.9-.1 0-.2 0-.4-.1l.1.1c-.1 0-.3 0-.5-.1zM70 14c.4.1.8.2 1.3.2-.6-.2-1.2-.3-1.8-.5.2.2.3.3.5.3zm6-3.8c-.1.4-.2.6-.3.9-.3-.2-.1-.7-.5-.7-.3.9-.3 1.6.1 2.2.4 0 .8-.1 1.2-.1.1-.9-.2-1.5-.5-2.3zm-3.4 4.2c-.3 0-.7-.1-1.1-.1.2 0 .4 0 .5.1h.6zm2.9 0c1.2-.1 2.4-.3 3.5-.5.3-.1.6-.3.8-.4.1-.1.2-.2.3-.4-.2-.2-.4-.5-.5-.7-.1 0-.2 0-.3.1-.7.2-1.3.4-2 .6-.4.1-.6.1-.7-.2-.3.1-.6.1-.9.2l.1.1c-.4.1-.9.1-1.3 0-1 .1-2 0-3-.3h-.1c.3.5.7.9 1.1 1 1.1.1 2.3.2 3.4.1 1.3-.1 2.5-.5 3.7-.8-1.5.8-3.1 1.2-4.7 1.3h.2c.1-.1.3-.1.4-.1zm5.6-3.9c-.1-.1-.3-.2-.4-.2.1 0 .2.1.4.2z" class="st3"></path>  <path d="M83.4 8.9c.2.9 0 1.7-.8 2.3 1.3-2.4-.1-3.6-1.7-4.7-.2.1-.3.1-.4.2-.4.3-.6.9-.5 1.5 0 .4 0 .8.1 1.2l.3.6c.3 0 .6.1.8.2.4.3.6.9.9 1.3l-.1.1c.2.4.5.5.9.2 1.3-1.2 1.5-3.2.4-4.6-.5-.6-1.1-1-1.8-.9.9.5 1.6 1.5 1.9 2.6zm.8 22.9c0-.2-.1-.3-.2-.5-.1 2-.2 4 1 5.7.5.5 1.1 1 1.9 1.3.1 0 .1 0 .2-.1l-.6-1.2c-1.7-1.2-2-3.2-2.3-5.2zm-8.1 2.9c0-1.4-.1-2.8.6-4.1 0-.1.1-.1.1-.2h-.1c-.5.2-.7.7-.8 1.1-.6 1.4-.8 2.9-.8 4.5 0 .2 0 .5.2.6.2 0 .5-.1.7-.2V36c.1-.5.1-.9.1-1.3z" class="st3"></path>  <path d="M109.6 16.2c.5-1.3 1.5-2 3.2-2.1-.5-.2-.8-.5-1.1-.5-.2 0-.4-.1-.6-.1-.8.3-1.5.7-2 1.5-1.2 2-.9 3.8.9 5.4.2.2.5.4.7.5-1.1-1.1-1.7-3.1-1.1-4.7zm-1.3-8c.2-.1.5-.1.7-.2-.1 0-.2 0-.3.1-.2 0-.3 0-.4.1z" class="st4"></path>  <path d="M108.7 9.4c3.1-.6 6-.4 8.5 1.7 2.2 1.8 3 6.7-1.3 8.2 1.3-1.5 1.3-2.8.3-4.2l-.3-.3c-.7-.9-1.5-1.4-2.5-1.6-.4-.1-.8 0-1.2 0h-.2c-.1 0-.2 0-.3.1.4.1.8.3 1.1.6.2.2.5.1.7.3.8.5 1.8.9 2.4 1.6.7.8.8 1.9-.4 2.9-.6.4-1.8.3-2.3-.4-.2-.3-.2-.8-.2-1.2 0-.1.2-.2.4-.3v-.3c-.1-.3-.2-.6-.6-.6-.4 0-.6.2-.8.5-.5.7-.2 1.9.5 2.6.4.3.8.5 1.4.9-1.3.6-2-.1-2.8-.7-.7-.4-1-1.1-.8-1.9.2-.8.7-1.4 1.5-1.6.8-.2 1.7-.4 2.4.4.2.2.3.5.1.7-.1.2-.3.4-.6.4v.1c-.1.7.4.9.8.8.2 0 .5-.6.5-.9 0-1-.6-1.7-1.5-1.9-.5-.1-1-.1-1.4-.2-1-.2-1.5.4-1.9 1.1-.8 1.3-.1 3.7 1.2 4.4 3.5 2.1 7.3-.1 8.8-3.5.2-.4.2-.9.2-1.3.1-1.1-.1-2-.4-2.9-.2-.4-.3-.7-.5-1.1-1.3-2.1-3.7-3.3-6.4-3.5-1.9-.1-3.7.4-5.5.8.4.5.8.3 1.1.3zm10.7 24.9c-.2.1-.3.2-.5.3 0 .6.2 1.1.4 1.6-.1-.2-.1-.5-.1-.7 0-.4.1-.8.2-1.2zm2 4.2c0 .1.1.2.1.3v-.2l-.1-.1zm1.7-11.7c.2-.6.4-1.2.5-1.8-.3.5-.4 1.1-.5 1.8zm-31.6-1.3c-.6-.8-1.4-1.2-2.3-1.6.4.3.7.7 1.1 1.1.4.4.7.8 1.3 1 .3.1.5.2.8.1 0 0 0-.1-.1-.1-.3-.1-.6-.3-.8-.5zm-6-5 .1.1c-.2-.7-.4-1.5-.5-2.2-.1.2-.1.4-.1.6 0 .5.2 1.1.5 1.5zm5.5 2.4c-.6-.7-1.1-1.4-1.4-2.2-.4-.9-1-1-1.7-.3-.4.4-.5.3-.8 0-.1-.1-.2-.3-.3-.4-.2-.3-.4-.6-.6-1-.1-.1-.1-.3-.2-.4-.1-.3-.3-.5-.6-.4.8 2.3 1.5 4.7 4.3 5.5-.5-1-1-1.9-1.5-2.8.1-.1.2-.1.3-.2 1 1.5 1.8 3.1 3.3 4.4-.4-.6-.7-1.4-.8-2.2zm-21.8 2.2c.3.3.6.5.8.6 0-.3.1-.5.1-.8-.1.1-.2.1-.3.2-.2.1-.4.1-.6 0zm1-2c0-.2 0-.5-.1-.7 0-.2 0-.5-.3-.6-.2 0-.3.1-.4.2.3.4.6.7.8 1.1z" class="st4"></path>  <path d="M117 24.2c-.4-.1-.9 0-1.4.3.1-.1.3-.1.4-.2.3 0 .7-.1 1-.1zm2.8.8c.1 0 .1-.1.2-.1 0 .1-.1.1-.2.1zm-.2.1h.1c-.5.1-1.2 0-1.9-.5l.2.2c.4.6.9.5 1.6.3zm1.5-1.5c-.3.6-.6 1-1 1.2.5-.2.8-.7 1-1.2z" class="st5"></path>  <path d="M120.9 25.4c-.9.7-2.4.7-3.1-.2-.5-.6-1-.5-1.5-.3-2.8.9-3 3.1-2.7 5.6.1.6.8 1.2 1.3 1.8.1-.1.2-.1.2-.2-.5-2.4.5-5.9 1.9-6.7-1.7 2.2-2 4.9-1.2 6.9.2.1.4.4.5.7.1.2.1.4.2.5.2.3.5.5.7.7.4-.7.9-1.3 1.1-2.1.2-.7.2-1.5.3-2.2.1 0 .2 0 .4-.1.1.4.3.7.3 1.1.1 1.3-.6 2.2-1.3 3.2-.1.2-.2.3-.3.4.3.1.7 0 1.1-.2.2-.1.3-.2.5-.3.1-.5.3-1 .5-1.5.6-1.2 1.5-1.9 2.8-2.1-.3-1.4 0-2.7.4-3.9.1-.6.3-1.2.5-1.8l.3-1.5.1.1s.1.1.1.2c.1.1.2.2.2.3.1-.2.1-.4.3-.5l.3 1.5c.3.6.4 1.2.5 1.8.4 1.3.6 2.5.4 3.9 1.3.2 2.3.9 2.8 2.1.2.5.4 1 .5 1.5.2.1.3.2.5.3.4.2.8.2 1.1.2-.1-.1-.2-.2-.3-.4-.7-1-1.3-2-1.3-3.2 0-.4.2-.7.3-1.1.1 0 .2 0 .4.1.1.7.1 1.5.3 2.2.2.7.7 1.4 1.1 2.1.3-.2.5-.4.7-.7.1-.2.2-.3.2-.5.1-.4.3-.6.5-.7.8-2 .5-4.7-1.2-6.9 1.5.8 2.5 4.3 1.9 6.7.1.1.2.1.2.2.4-.6 1.2-1.1 1.3-1.8.3-2.5 0-4.7-2.7-5.6-.6-.2-1.1-.3-1.5.3-.7.9-2.2.9-3.1.2-1-.8-1.6-2.8-1-4.2 0-.2-.1-.5-.1-.7-.1-.9-.7-1.4-1.6-1.5-.3-.1-.5 0-.7 0-.2-.1-.4-.1-.7 0-.8.2-1.4.7-1.6 1.5 0 .2-.1.5-.1.7.8 1.3.3 3.3-.7 4.1z" class="st5"></path>  <path d="M119.8 34c.7-.6 1.4-1.3 1.6-2.3 0-.2.1-.3.2-.4-.2.1-.4.3-.6.5-.6.7-1 1.4-1.2 2.2zM88 24.5c1.7 2.5 3.2 5 5.1 7.3 1.7 2.2 3.7 4.2 5.7 6.2 3.1 3.3 6.4 6.4 10.5 8.4 1.7.8 3.5 1.4 5.3 2 .4.1.9.2 1.4.2 0 0 .1 0 .1-.1-3.4-.6-6.3-2.1-9.1-4.1-5.4-3.9-9.9-8.6-13.9-13.9-.8-1-1.6-2-2.4-2.9-1.1-1.2-1.9-2.7-2.6-4.1-.1-.1-.1-.2-.2-.4-.2-.1-.4-.2-.6-.4.3.8.4 1.4.7 1.8z" class="st5"></path>  <path d="M86.1 23.1c.2 1.2.4 2.4 1.1 3.4.8 1.3 1.3 2.7 1.9 4.1 1.4 3.5 3.3 6.6 5.6 9.5.2.2.4.4.5.6 0 .1.1.2.1.3.1.3.3.6.4.9 1 1.1 2.1 2.1 3.4 3.1 1.1.7 2.3 1.4 3.4 2.1 2.7 1.7 5.7 2.4 8.8 2.6h.6c.2 0 .4 0 .5-.1.6-.1 1.2-.2 1.9-.3.3-.1.5-.2.8-.3-.4-.2-.8-.2-1.2-.3-5-1.2-9.2-3.8-12.9-7.2-4-3.6-7.6-7.4-10.7-11.8-1.6-2.3-3.1-4.6-4.2-7.2v.6zm-16.3 7.7c.3-.2.3-.7.2-1-.1-1.1-.4-2.1-.8-3.1.5 1.3.8 2.7.6 4.1z" class="st5"></path>  <path d="M64.8 12.1c.1.4.4.7.6 1.1.4.7.8 1.3 1.1 2 .1.3 0 .6 0 .9-.4-.8-.7-1.6-1.1-2.3-.3-.6-.7-1.3-1.1-1.9-.3-.4-.7-.7-1.2-.9-.4-.2-.8-.1-1.2.2-.1.1-.1.2-.2.3-.5 1.1-1 2.2-1.3 3.4-.3 1.8 0 3.6.9 5.3 1 1.9 2.5 3.5 3.8 5.2.3.3.5.5.7.9.1.1.1.2.2.3 1 1.3 2.1 2.6 3.2 4-.2-3-.8-5.5-3-7.4-.6-.5-1.3-1.1-1.9-1.7-.7-.6-.8-1.2-.3-1.8-.1-.3-.2-.7-.3-1.1 0-.2 0-.3.1-.5 0-.1-.1-.3-.1-.4v-.2c0-.1.1-.2.2-.2.2-.1.5-.1.7-.2.2-.1.4-.1.5-.1.1 0 .2 0 .3.1l.3.3c.9 1.3 2 2.2 3.7 2.1.4 0 .7-.1 1-.2 0 0 .1 0 .1-.1-.1-.5-.1-1.1-.1-1.6 0-.9-.6-1-1.2-1h-2.5v-.2h3.4c-.7-.3-1.4-.5-2.2-.4-.5.1-.8-.1-1.1-.6-.5-1.1-1.3-2-1.5-3.3-.1-.8-.6-1.5-1.6-1.6-.3 0-.6 0-.8.1 1.2-.1 1.5.3 1.9 1.5zm-2.3.3c-.2 1-.6 2.3-.6 3.6 0 1.3.5 2.6.7 3.7-1.5-1.4-1.5-6.4-.1-7.3zm8.5 4.9v.7-.7zm15.9-5c.2.2.2.4.3.6 0 .1 0 .2.1.3 0 .1 0 .3.1.4.1.3.2.7.2 1 .2 1.1-.7 1.6-1.7 1.1-.3-.2-.6-.4-.8-.6-.5-.5-1.1-.5-1.5-.2-.1.1-.1.3-.1.5.1.3.3.5.6.6l1.5.6c1.7.6 3.1-.2 3.6-1.9.1-.4 0-1.1.6-1.2.6-.1.8.5 1.1.9.3.4.4.9.5 1.4.2 1.3.5 2.6 1 3.8.3.1.6.4.7.8.3.7.5 1.4.7 2.1.1.1.1.2.2.3.1.1.2.3.2.5s.1.5.1.7c.6 1.6 1.4 3.1 2.4 4.4.5.7 1 1.3 1.5 2-2-4.5-3.6-9.2-4.9-13.9-.6-2.2-1.8-4.2-3.4-5.8-.3-.3-.5-.5-.8-.6-.1 0-.2-.1-.4-.1h-.2c-.7 0-1.3.4-1.8.8-.4.3-.4.7-.2 1.1h.1c.1 0 .2.2.3.4zm6 1.7c-.3-.5-.6-.9-.9-1.4.6.9 1.1 1.8 1.5 2.7-.2-.4-.4-.8-.6-1.3zm5.4 17.6c.3.3.6.6.9.8-.1-.1-.2-.3-.2-.4-.4-.3-.8-.7-1.2-1 .1.2.3.4.5.6z" class="st5"></path>  <path d="M85.5 15c.1.1.3.2.4.3.3.1.7.2.8.1.2-.2.3-.6.3-.8-.2.1-.6.1-1.2-.1-.5-.2-1.1-.3-1.6-.1.4 0 .8.2 1.3.6zm-5.2-9.7c-.2-1.4-.9-2.3-2.3-2.6-1.5-.4-2.9-.9-4.5-1.4-.1.6-.1 1.4-.2 2.1H73c0-.4-.2-.8-.3-1.2-.5.8-1 1.5-1.3 2.3-.1.2-.1.4-.1.5-.1.6-.1 1.3-.2 2-.2-.4-.3-.7-.4-.9-.4.4-.4 1.1-.3 1.9-.1.6 0 1.2.7 1.7.4.3.3.9.5 1.3.1.3.2.7.6.7h.1c.3-.1.4-.4.4-.8s-.1-.7-.1-1.1c-.2-1.6-.3-3.2 1.1-4.6.7-.6 1.7-1.1 2.6-.7.4.2.9.1 1.3.2.7.1 1.1.5 1.5 1 .4.6.8.5 1.1.1 0 0 0-.1.1-.1l.1-.1c.4-.5.3-1.1.1-1.7-.4-.8-1-1.5-1.8-1.7-1.2-.4-2.4-.7-3.6-1 .9.5 1.8.7 2.8 1 1.7.4 2.6 1.5 2.4 3.1zm-8.6-2.5c-.1.3-.2.6-.2 1 .4-.8.8-1.5 1.2-2.3-.5.3-.9.8-1 1.3z" class="st5"></path>  <path d="m92.9 26.2-.6-.3s0 .1.1.1c.2.3.4.6.7.9.2.3.5.5.7.8-.2-.3-.4-.7-.5-1.1l-.4-.4zm1.4-2.3c-.1-.3-.2-.7-.3-1 0-.1-.1-.3-.1-.4-.2-.7-.5-1.4-.7-2.1-.1-.3-.4-.6-.7-.8-.2-.1-.3-.1-.5 0-.6.1-.8.7-.8 1.2-.1.8-.1 1.5 0 2.1.1.8.4 1.6.8 2.3.4.4.9.7 1.4 1-.3-1.2-.6-2.2-.9-3.1.1 0 .2-.1.3-.1.8 1.8 1.3 3.7 2.4 5.3.4.6 1 1.2 1.5 1.7.1.1.2.1.3.2.4.2.7.5 1 .8.4.3.8.7 1.2 1-.2-.5-.5-1.1-.7-1.6-.5-.7-1-1.3-1.5-2-1.4-1.4-2.1-2.9-2.7-4.5zm.6 27.7c.9.1 1.7-.2 2-.9-.5.5-1.2.8-2 .9zm-1.4-3.9c0 .1.1.2.1.2 0-.1-.1-.1-.1-.2zm-1.4-1.2c-.9-.6-2-1-3.1-1.2 1 .5 2 .9 3.1 1.2z" class="st6"></path>  <path d="M89 44.6c3 .7 6.6 3.3 6.2 4.8-.2-.1-.4-.2-.6-.4-.2-.1-.4-.3-.5-.3-.1.2-.3.3-.4.5-.2.2-.3.5-.4.7 0 .3.1.5.2.7.5.7 1.8.6 2.7 0 .7-.4 1.1-1 1-1.8-.2-.8-.6-1.6-1.2-2.3-.6-.5-1.2-.9-2-1.1-2.1-.7-4.3-1.2-6.5-1.6-.1.2-.1.3 0 .4.5 0 1 .3 1.5.4zm-25-25c0-.1.1-.1.2-.2.2.5 1.1 1.7 2.2 2.9.9.6 1.7 1.2 2.2 2.2 0 0 0 .1.1.1.2.2.4.4.6.5.2.1.4.1.6 0 .1 0 .2-.1.3-.2.1-.3.1-.7.2-1h.1v-.1c-.1-.2-.1-.4-.2-.7-.2-.4-.4-.8-.8-1.1l-.1-.1c-.5-.4-1-.8-1.5-1.1-1.1-.6-1.9-1.4-2.1-2.7-.1-.5-.4-1-1-.9-.5.1-.7.4-.9.8 0 .2-.1.3-.1.5 0 .4.1.8.2 1.1z" class="st6"></path>  <path d="M101.8 34.9c-.2-.1-.3-.2-.5-.3.1.2.2.5.2.7.1-.1.2-.3.3-.4z"></path>  <path d="M114.4 48.4c-1.8-.6-3.6-1.1-5.3-2-4.1-2-7.4-5.1-10.5-8.4-1.9-2-3.9-4-5.7-6.2-1.8-2.3-3.4-4.8-5.1-7.3-.3-.4-.4-1-.8-1.7.2.1.4.3.6.4.5.3 1 .5 1.4.7.9.4 1.7.8 2.3 1.6.2.2.4.3.7.4l.6.3c.2.1.4.3.4.4.1.4.3.7.5 1.1.6 1.1 1.5 1.9 2.5 2.7 1 .8 1.7 1.8 2.7 2.6.7.6 1.5 1.1 2.3 1.5-.1-.5-.3-1-.6-1.4-2-3.1-3.2-6.5-4.6-9.9-.8-2-1.4-4.1-2-6.2-.2-.6-.4-1.3-.7-1.8-.4-1-.9-1.8-1.5-2.7l-1.5-2.1c-.7-.9-1.7-1.2-2.8-1-.4.1-.7.5-1 .8.9-.7 1.7-.8 2.5-.4.3.1.5.3.8.6 1.6 1.7 2.8 3.6 3.4 5.8 1.3 4.8 2.9 9.4 4.9 13.9.2.5.5 1.1.7 1.6.1.1.1.3.2.4-.3-.3-.6-.6-.9-.8-.6-.5-1.2-1.1-1.8-1.6-.6-.5-1.1-1.1-1.5-1.7-1.1-1.6-1.6-3.5-2.4-5.3-.1 0-.2.1-.3.1.3 1 .5 1.9.9 3.1-.5-.3-1-.6-1.4-1-1.5-1.3-2.3-2.9-3.3-4.4-.1.1-.2.1-.3.2.5.9 1 1.8 1.5 2.8-2.8-.8-3.5-3.2-4.3-5.5 0-.1-.1-.3-.1-.4-.1.1-.2.1-.4.2 0 .1.1.3.1.4.2.7.3 1.5.5 2.2 0 .1.1.3.1.4.2.5.3 1 .5 1.4 1 2.6 2.6 4.9 4.2 7.2 3.1 4.4 6.7 8.3 10.7 11.8 3.7 3.4 7.9 6 12.9 7.2.4.1.8.1 1.2.3.1 0 .2.1.3.1-.3.1-.7.1-1 .2-.6.1-1.2.2-1.9.3-.2 0-.4.1-.5.1-3.7.4-6.9-1-9.9-2.8-1-.6-2-1.3-2.9-2-1.2-.9-2.3-2-3.4-3.1-2-2.2-3.8-4.7-5.2-7.4 0-.1-.1-.1-.1-.2l-.6-.9c-.1-.1-.2-.3-.4-.4-.3-.3-.7-.5-1.2-.7 1.4 2.2 1.1 4.6 1.1 7.1 0 0-.1 0-.1-.1-.1-.1-.2-.1-.2-.2-1.4-1.1-1.9-2.8-2.8-4.1-.1.1-.3.2-.4.2.3.6.5 1.1.8 1.7l.6 1.2c0 .1.1.2.1.3-.1 0-.2-.1-.3-.2-.5.2-1.1-.2-1.7-.8-.8-.9-1.3-1.9-1.6-3.2-.3-1.4-.5-2.8-.8-4.2 0-.2-.2-.4-.5-.5.1.9.2 1.7.3 2.6 0 .2 0 .4.1.6-2.5-1.8-5.1-3.5-7.4-5.6-2.5-2.3-4.1-5.3-4.1-8.7v-.7c0-.8.2-1.5.4-2.3.1-.2.1-.5.2-.7.4.1.7.1 1.1.1.3 0 .6 0 .9.1h1.5c1.7-.1 3.2-.6 4.7-1.3-1.2.3-2.5.7-3.7.8-1.1.1-2.3.1-3.4-.1-.4-.1-.8-.5-1.1-1h.2c1 .3 2 .3 3 .3.4 0 .8-.1 1.1-.1.3-.1.6-.1.9-.2.9-.2 1.8-.5 2.7-.8.1.2.2.3.3.5.2.2.4.5.5.7 1 1.3 1.9 2.7 2.9 4v-1.2c0-.2 0-.5.1-.6.1-.2.2-.3.3-.4.4-.3.9-.3 1.5.2.3.2.5.4.8.6.9.5 1.9-.1 1.7-1.1-.1-.3-.1-.7-.2-1-.1-.2-.1-.4-.2-.5-.1-.2-.2-.5-.3-.7-.1-.2-.1-.4-.2-.6h-.3c.1.3.1.6.2.8.2.6.4 1.1.5 1.7v.3c0 .3-.1.6-.3.8-.1.1-.5 0-.8-.1-.2 0-.3-.2-.4-.3-.5-.4-.9-.6-1.3-.7-.6-.1-1 .3-1.7 1.3 0 0 0 .1-.1.1l-.6-.9c-.4-.5-.7-.9-1.1-1.4-.7-.9-1.1-1.9-1-3.3h.9c.2.1.3.1.4.2.3.3.5.8.7 1.4.1-.1.2-.1.3-.2l.1-.1c-.3-.5-.5-1.1-.9-1.3-.3-.2-.6-.3-.9-.3H80c-.1 0-.3 0-.4.1-.2 0-.2.8-.3 1.4-.8.4-1.7.7-2.7.9-.4.1-.8.1-1.2.1h-1.3c-.4 0-.9-.1-1.3-.1-.1 0-.2 0-.3-.1-.7-.2-1.2-.5-1.1-1.5 0-.3-.2-.7-.4-1-1-1.2-1.1-2.5-.3-3.9V6c.1.2.2.5.4.9.1-.8.1-1.4.2-2 0-.2.1-.4.1-.5.3-.8.8-1.5 1.3-2.3.1.5.3.9.4 1.3h.3c.1-.7.1-1.5.2-2.1 1.6.5 3 1 4.5 1.4 1.4.4 2.1 1.3 2.3 2.7.2-1.6-.6-2.7-2.5-3.2-.9-.2-1.9-.5-2.8-1C74.5.9 74 .5 73.5 0c-.3.5-.5 1-.8 1.5-.4.8-.8 1.5-1.2 2.3-.5 1.1-1.1 2.1-1.6 3.2-.4.9-.4 2 .4 2.8.9.8.6 1.7.7 2.6v.4c0 .3 0 .6-.1.9-.6-.1-1.3-.3-2-.4h-.2c-.2-.1-.4-.5-.4-.5.1-.2.4-.5.6-.5.4.1.8.3 1.2.4.2.1.3.1.5.2l-.1-.1c-.5-.5-1-1-1.8-.9-.3 0-.6.4-.7.7-.1.3.1.8.3.9.4.1.7.2 1.1.3.6.2 1.1.3 1.8.5-.2.6-.4 1.4-.6 2h-3.9v.2h2.5c.6 0 1.2.2 1.2 1 0 .6 0 1.1.1 1.6v.1c.2 1.4.6 2.7 1.2 3.9.8 1.6 1.9 3.1 3.3 4.5.2.2.5.5.8.7.2.2.5.4.8.7l-.1.1c-1.9 1.4-2.2 3.4-2.1 5.6 0 .7-.5 1.5-.7 2.3.2 0 .6 0 1 .1h.2s0 .1-.1.1c-.6 1-1.2 1.9-1.8 2.8.9-.6 1.4-1.7 2.2-2.6.4-.5.9-.8 1.6-1 .2 0 .4-.1.6-.1-.1.1-.1.2-.2.3-.6 1.1-1.1 2.1-1.6 3 .6.5 1.1.8 1.8 1.3l.1.1h-.2c-1.2.3-2.1.5-3 .7-.3 1.2-.3 1.3-1.9 1.2-.2 0-.3 0-.5-.1v-.1c.3-.8.6-1.6 1-2.6-.5.4-.9.6-1 1-.2 1-1 1-1.7 1.2-.4-1.2-.4-1.2 1.7-2.1h.1c0-.1-.1-.2-.1-.3-.2.1-.4.1-.6.2-.2.1-.5.2-.7.3-.2.1-.3.1-.5.2s-.4.3-.5.3c-.3 0 0 .1 0 .8 0 .7-.9 1.1-.3 1 .1.3.3.6.3.8.3-.2.5-.4.8-.6.3-.3.6-.5 1-.8.1.3.2.5.3.8.3.8.5 1.5.8 2.2.1 0 .2-.1.3-.1l-.3-1.5h.5c.4 0 .8 0 1.1-.2.2-.1.3-.3.3-.6v-.5c.1.1.2.1.3.2.5.3 1 .6 1.5.7.7.2 1.5.3 2.4 0 .3-.1.6-.1 1-.1.6 0 1.1.1 1.7.2.2 0 .3.4.4.6.2.3.3.7.6 1 .1-.2.2-.5.3-.7.2-.5.6-.8 1.1-.8.1.1.1.3.2.4.4.9.8 1.8 1.1 2.5.3-.3.5-.6.8-.9.3-.3.5-.6.8-.9l.6-.9s.1.3.2.3h.2c2.2.4 4.3 1 6.5 1.6.8.2 1.5.6 2 1.1.5.5.9 1.1 1.1 1.8 0 .2.1.3.1.5.1.7-.3 1.3-1 1.8-1 .6-2.2.7-2.7 0-.1-.2-.2-.4-.2-.7 0-.3 0-.6.1-.8.2-.4.4-.4.7-.3.2.1.4.2.5.3.2.1.4.2.6.4.5-1.5-3.2-4.1-6.2-4.8-.4-.1-1-.4-1.5-.3-.3 0-.5.2-.8.4.8.2 1.5.4 2.3.6 1.1.3 2.2.6 3.1 1.2.5.3 1 .7 1.4 1.2l.2.2c-.1.1-.3.2-.4.2-1.2.8-1.2 2.4.1 3.1.5.3 1 .4 1.6.3.8-.1 1.5-.4 2-.9l.1-.1c.8-1 .6-2.7-.5-3.8-1.3-1.4-3-1.8-4.7-2.3-.8-.2-1.6-.6-2.4-.9 0-.1 0-.2.1-.3h2.1c-.2-.3-.5-.5-.6-.8-.2-.2-.3-.5-.4-.7-.2-.3-.3-.9-.5-1-.4-.1-.8-.2-1.2 0-.2.1-.3.2-.4.5-.1-.1-.4-.3-.3-.4.1-.4.3-.8.4-1.1h.2c.5.1 1 .2 1.3.3 0-.3 0-.6-.1-.9-.1-1.5-.2-2.9-.3-4.5 0 .1.1.1.1.2 1.4 2 2.6 3.9 3.9 5.7 2.8 3.7 6.4 6.5 10.8 8.1 1.8.7 3.8 1.3 5.7 1.4 2.3.1 4.6-.4 6.8-1.4-.4 0-.7-.1-1.1-.1-.7 0-1.2-.1-1.7-.2zM75.9 36.3c-.2.1-.4.2-.7.2-.2 0-.5.1-.8.1.1-.9.3-1.7.4-2.5 0-1.8.6-3.4 1.9-4.5.1-.1.2-.2.3-.2.9.6 1.9 1.2 2.8 1.9.3.3.7.7.7 1.1.3 1.8-.4 3.2-1.5 4.6-.3.4-.6.8-1 1.2-.2-1.1-.4-2-.5-2.9-.5.4-1 .8-1.6 1zm12.2 4c-.2.5-.4 1-.6 1.4.1.1.2.1.3.2.2-.2.5-.4.7-.6.4-.1.8-.2 1.2-.4.1 0 .3-.1.4-.1v.4c0 .5.1.9.1 1.3-1.2.6-2.3.7-3.6-.3.4 1.8-1.1 2-1.8 2.8-.8-1-.7-2.1-.1-3.2-.9.6-1.9 1.2-2.8 1.8h-.1v-.2c-.3-1.4.1-2.1 1.5-2.2h.1c.3 0 .6 0 .9.1h.1c.5 0 1.1.1 1.5.1.4-.9.7-1.7 1-2.4 0 0 0-.1.1-.1l-.2.2c-.5.6-.7 1.5-1.3 1.8-.1.1-.3.1-.4.1-.6.1-1.5-.2-2.2-.2-.5 0-1 .3-1.6.4h-3.6l-.6-.6c-.4-.4-.8-.9-1.3-1.5.2-.4.7-1.2 1.1-2 .1.1.1.2.2.4.3.4.5.8.7 1.3l.2-.2 1.2-1.5c.9-1.4 1.6-2.9 1.5-4.7.2.2.3.4.5.6.7.8 1.4 1.5 1.9 2.3.2.5.5.9.8 1.3.8 1 1.8 1.8 3.1 2.2h.1c.1 0 .3.1.4.2.8.2.9.7.6 1.3z"></path>  <path d="M71.1 22.9v1.7h-.2c0-.1-.1-.1-.1-.2-.1-.2-.2-.3-.3-.5h-.2c-.1.4-.1.7-.2 1 0 .3-.1.6-.1.8-.2-.1-.5-.3-.8-.6-.2-.2-.4-.3-.6-.5-.7-.7-1.5-1.5-2.2-2.3-1.1-1.2-2-2.4-2.2-2.9l-.2.2c-.4.6-.3 1.2.3 1.8.6.6 1.3 1.1 1.9 1.7 2.2 1.9 2.8 4.4 3 7.4-1.2-1.4-2.2-2.7-3.2-4-.2-.2-.4-.5-.6-.7-.1-.1-.2-.3-.3-.4-1.3-1.7-2.8-3.4-3.8-5.2-.9-1.7-1.2-3.5-.9-5.3.2-1.1.6-2.1 1.1-3.2.1-.2.2-.3.4-.5.3-.3.7-.3 1.2-.2.4.2.9.5 1.2.9.4.6.8 1.2 1.1 1.9.4.7.7 1.5 1.1 2.3 0-.3.1-.7 0-.9-.3-.7-.7-1.4-1.1-2-.2-.4-.4-.7-.6-1.1-.4-1.2-.7-1.5-1.7-1.7h-.4c-1-.1-1.3.7-1.6 1.3-1.7 3.3-1.6 6.6.3 9.7 1 1.6 2.3 3 3.4 4.6 1.6 2.2 3.7 4.1 4.4 6.9.4-.7.6-1.4.7-2.1.2-1.4-.2-2.7-.6-4.1-.1-.2-.1-.4-.2-.6.7.4 1.3.7 1.9 1.1.1-.1.1-.2.2-.2-.2-.6-.5-1.2-.7-1.8.1 0 .1-.1.2-.1.3.3.7.5 1.2.9-.1-.6-.2-1.2-.3-1.7-.1-.5-.2-.9-.2-1.3-.2-.1-.2-.1-.3-.1zm49.1 2s-.1 0-.1.1c-.1 0-.1.1-.2.1 0 0-.1 0-.2.1h-.1c-.6.2-1.2.2-1.6-.4l-.2-.2c-.2-.2-.5-.3-.8-.3-.3 0-.6 0-1 .2-.1 0-.3.1-.4.2-3 1.3-4.1 5.2-2.2 7.8.3.4.9.6 1.4.9.3.2.7.4 1 .7.2.2.3.5.5.7.7.8 1 .8 1.4.2.1-.1.2-.2.3-.4.7-1 1.3-2 1.3-3.2 0-.4-.2-.7-.3-1.1-.1 0-.2 0-.4.1-.1.7-.1 1.5-.3 2.2-.2.7-.7 1.4-1.1 2.1-.3-.2-.5-.4-.7-.7-.3-.4-.5-.8-.7-1.2-.8-2-.5-4.7 1.2-6.9-1.5.8-2.5 4.3-1.9 6.7-.1.1-.2.1-.2.2-.4-.6-1.2-1.1-1.3-1.8-.3-2.5 0-4.7 2.7-5.6.6-.2 1.1-.3 1.5.3.7.9 2.2.9 3.1.2 1-.8 1.6-2.8 1-4.2v-.1c-.2.6-.3 1.1-.5 1.7-.1.3-.1.5-.2.7-.3.1-.6.6-1 .9zm3.2 17.6v-1.1c-.4-.5-.8-1.1-1.1-1.7-.4-.6-.1-1.1.4-1.6.4-.4.5-1 .8-1.5-.1-.1-.3-.1-.4-.2-.1 0-.2 0-.2.1-.3.8-.8 1.5-1.8 1.3-.6-.1-1.4-1.6-1.5-2.4-.1-.5 0-.9.1-1.4.2-.8.6-1.5 1.2-2.1.2-.2.4-.4.6-.5.5-.3 1-.2 1.8.3h.3V31c-.9-1.7-.6-3.4.1-5 .1-.2.2-.4.2-.6 0-.3 0-.6-.1-.9 0-.3 0-.5.1-.7 0 0-.1-.1-.1-.2l-.1-.1-.3 1.5c-.2.6-.4 1.2-.5 1.8-.4 1.3-.6 2.5-.4 3.9-1.3.2-2.3.9-2.8 2.1-.2.5-.4 1-.5 1.5-.1.4-.2.8-.2 1.2 0 .2 0 .4.1.7.3.9 1.2 1.9 2.1 2.3l.1.1v.2c0 1.5.9 2.4 1.7 3.5.1.1.2.2.2.3.2 0 .2-.1.2-.1z"></path>  <path d="M62.5 12.4c-1.5.9-1.5 5.9.1 7.3-.2-1.1-.6-2.4-.6-3.7-.1-1.2.3-2.5.5-3.6zm17.6-6.6c.2.1.3.2.5.3.1.1.2.2.4.2 1.6 1.1 2.9 2.3 1.7 4.7.7-.6 1-1.4.8-2.3-.3-1.1-1-2-1.9-2.6-.3-.2-.6-.3-1-.4-.2.2-.3.1-.5.1zm-3.5 1c0 .1 0 .2-.1.3.4.1.8.2 1.4.4.1.5.3 1 1 .3-.4-1.3-1.5-.8-2.3-1z"></path>  <path d="M172.4 34.7c0-1.4.1-2.8-.6-4.1-.1.7-.6 1.2-1.4 1.4-.7.1-.8.6-.8 1.1 0 .9.1 1.8.2 2.8 0 .4.1.9-.3 1.1.3.4.6.8 1 1.2.2-1.1.4-2 .5-2.9.5.5 1 .9 1.6 1.1-.1-.1-.1-.2-.1-.4-.1-.5-.1-.9-.1-1.3zm1.4 2.5.1-.1c-.1 0-.1 0-.1.1-.1-.1-.1-.1 0 0zM171.2 13c.4.1.6.1.7-.2-.9-.2-1.8-.5-2.7-.8-.1.2-.2.3-.3.5.1 0 .2 0 .3.1.7 0 1.3.2 2 .4zm-4.6 1.9c-.2.3-.5.5-.7.8 0 0 0 .1.1.1.2-.4.4-.7.6-.9zm-2.3 21.7c-.8 1-1.8 1.8-3.1 2.2 1.6-.1 2.5-1 3.1-2.2zm4.2.4c.1.1.1.2.2.3.2.4.5.8.9.8.1.1.1.2.2.3.1.1.2.3.4.2l-1.2-1.5c-.2 0-.3 0-.5-.1zm-7.1-22.5v-.2c.1 0 0 .1 0 .2zm13.6-.1h-1.7c.7.3 1.2.2 1.7 0zm-1.1-1.3c-.4 0-.8-.1-1.1-.1l-.1.1h1.2z" class="st0"></path>  <path d="M165.1 15.6c0-.1-.1-.1-.1-.2-.1.3-.3.5-.6.6l-1.5.6c-1.7.6-3.1-.2-3.6-1.9-.1-.4 0-1.1-.6-1.2-.6-.1-.8.5-1.1.9-.3.4-.4.9-.5 1.4-.2 1.3-.5 2.6-1 3.8.2-.1.3-.1.5 0 .6.1.8.7.8 1.2.1.8.1 1.5 0 2.1.6-.7 1.1-1.4 1.4-2.2.4-.9 1-1 1.7-.3.4.4.5.3.8 0 .1-.1.2-.3.3-.4 0-.1 0-.2.1-.3 0-.2.1-.3.2-.5.1-.1.2-.2.3-.2.1-.1.1-.3.2-.4.1-.3.3-.5.6-.4 0-.1.1-.3.1-.4.1.1.2.1.4.2 0 .1-.1.3-.1.4.1.1.1.3.1.5-.1.5-.2 1.1-.6 1.6l-.1.1c0 .1-.1.3-.1.4-.2.5-.3 1-.5 1.4.1.2.1.4.1.6-.2 1.2-.4 2.4-1.1 3.4-.8 1.3-1.3 2.7-1.9 4.1-1.4 3.5-3.3 6.6-5.6 9.5-.2.2-.4.4-.5.6 0 .1-.1.2-.1.3l2.1-2.7c.9-1.2 1.8-2.5 2.7-3.8 0-.1.1-.1.1-.2l.6-.9v-.1c.1-.1.2-.3.4-.4.1-.8.4-1.5.8-2.2.3-.5.6-1.1 1.1-1.4.2-.2.4-.3.6-.1.2.2.1.4 0 .6-2 2.5-1.9 5.4-1.9 8.3 0 .3-.1.6-.2.9 0 .1 0 .1-.1.1 1.4-1.1 1.9-2.8 2.8-4.1.1.1.3.2.4.2-.3.6-.5 1.1-.8 1.7 1.8-1.2 2-3.2 2.3-5.2 0-.2.1-.3.2-.5.1 2 .2 4-1 5.7.8-.9 1.3-1.9 1.6-3.2.3-1.4.5-2.8.8-4.2 0-.2.2-.4.5-.5-.1.9-.2 1.7-.3 2.6.5-.8 1.2-1.4 2.1-1.7 3.6-1.4 5.4-4.3 6.9-7.6.7-1.7.5-3.4.5-5.2 0-.6-.8-.9-1-.9-1.1.2-1.1-.6-1.3-1.2-.1-.2-.1-.4-.3-.7-1.2-.1-2.4-.3-3.5-.5-.3-.1-.6-.3-.8-.4-.1-.1-.2-.2-.3-.4-1 1.3-1.9 2.7-2.9 4v-1.2l-.1-.1zm1.9 8.5c.7-.6.6-1.4.3-2-.4-.6-.3-1.1 0-1.7.1-.1.1-.4.1-.5-1-1.2-.1-2.3.2-3.4.2-.5.2-.9.6-1.2.4-.4.8-.7 1.1-1.1.1-.1.4-.3.5-.2.2.1.2.5.4.6.2.1.3-.1.5-.2.1 0 .1-.1.2-.1s.1.1.1.2c.1.2.1.3.2.5 0 0 0 .1.1.1.3 0 .3-.7.5-.1.1.3 0 .8 0 1.1 0 .4 0 .9.1 1.3 0-.4.1-.9.1-1.3 0-.2.2-.6.4-.4.6.7 2.3.7 1.2 2.3.5.1.3-.5.7-.4.3.1.4.4.3.7-.2 1.7-.4 3.2-1.6 4.6-1.2 1.3-2.6 2.4-3.6 3.8-.2.2-.3.5-.8.5 0-.5.5-.7.7-1 .2-.3.6-.5.2-.8-.4-.3-.5.1-.7.3-.1.1-.2.2-.5.3.8-.9.5-1.6-.2-2.2-.1-.1-.8.5-1.8 1.6 0-.6.3-1 .7-1.3zm6.7 10c0-1.8-.6-3.4-1.9-4.5v.8c.5.2.7.7.8 1.1.6 1.4.8 2.9.8 4.5 0 .2 0 .5-.2.6.2 0 .5.1.8.1-.1-1-.3-1.8-.3-2.6zm2.2-23.3c0-.4.1-.7.1-1.1.2-1.6.3-3.2-1.1-4.6-.7-.6-1.7-1.1-2.6-.7-.4.2-.9.1-1.3.2-.7.1-1.1.5-1.5 1-.4.6-.8.5-1.1.1-.2.1-.3.2-.5.3 0 .2 0 .3.1.4.5.4.6.9.6 1.6 0 .4 0 .8-.1 1.2v.2c0 .2 0 .3.1.4.1 0 .3 0 .4.1.2 0 .2.8.3 1.4.8.4 1.7.7 2.7.9 0-.7.3-1.4.6-2.2.1.4.2.6.3.9.3-.2.1-.7.5-.7.3.9.3 1.6-.1 2.2h1.3c.4 0 .9-.1 1.3-.1.1 0 .2 0 .3-.1.1-.1.2-.4.2-.7-.4 0-.5-.3-.5-.7zm-5.3-3.4c-.1.6-.4 1.1-1.1.4.4-1.3 1.5-.8 2.4-1 0 .1 0 .2.1.3-.4.1-.8.2-1.4.3z" class="st0"></path>  <path d="M161.3 13.2c0 .1 0 .3-.1.4.1-.2.1-.4.2-.5V13c-.1 0-.1.1-.1.2zm7-7.5h-.1c-.1 0-.1.1-.2.1.1.1.2 0 .3-.1 0 .1 0 .1 0 0zm3.5 30.6c.1.1.2.3.4.5.4.2.7.4 1 .6.1 0 .2 0 .3-.1-.5-.4-1-.8-1.7-1zm-12.6 3.1h.1-.1zm-.5-4.4c-.2 1-.4 1.9-.6 2.9-.1.5-.1 1 .4 1.4.1-1.5.2-2.9.3-4.5 0 .1-.1.2-.1.2zm12.5 1.2zm-9.9 2c0 .1-.1.2-.1.3.1 0 .2-.1.3-.2 0 0-.1 0-.2-.1zm16.1-15.3v1.6h.3c.1-.2.2-.3.3-.5h.1v-.1c.1-.2.1-.4.2-.7 0-.2 0-.5.1-.7 0-.2 0-.5.3-.6.2 0 .3.1.4.2l.1-.1c.5-.4 1-.8 1.5-1.1 1.1-.6 1.9-1.4 2.1-2.7.1-.5.4-1 1-.9.5.1.7.4.9.8 0-.1.1-.3.1-.4v-.2c-.1-.1-.1-.2-.2-.2-.2-.1-.5-.1-.7-.2-.2-.1-.4-.1-.5-.1-.1 0-.2 0-.3.1l-.3.3c-.9 1.3-2 2.2-3.7 2.1-.4 0-.7-.1-1-.2h-.1c-.2 1.4-.6 2.7-1.2 3.9v.1c.1.4.2.7.3.9.1-.5.2-.9.2-1.3h.1zm-8.7-12.7h-.2c.1 1.2-.1 2.2-.8 3.3.7-.9 1.2-1.9 1-3.3zm-28.9-.8c-3.1-.6-6-.4-8.5 1.7-2.2 1.8-3 6.7 1.3 8.2-1.3-1.5-1.3-2.8-.3-4.2l.3-.3c0-.1 0-.2.1-.2.5-.6 1-1.4 1.8-1.5.5-.1.9-.2 1.4-.3 3-1.4 7.3-.5 9.5 2.1 3.2 3.8 2.2 7.6.8 11.6-1.1 3.1-3.6 5.2-6.2 7-3.5 2.4-7.1 4.6-9.9 7.8-1.5 1.7-2.6 3.6-3.3 5.7.4-.6.8-1.2 1.2-1.7 1-1.6 2.2-3 3.9-4.1 2.9-1.9 5.9-3.5 8.5-5.6 1.1-.8 1.7-2 2.8-2.8 1.3-.8 2.5-1.8 3.6-2.8.7-.8 1.4-1.5 2.1-2.4 1.5-1.9 2.3-4 2.4-6.4 0-1.2-.5-2.5-1-3.7-.9-2.2-2.2-4.1-4.2-5.4-.2-.1-.4-.2-.5-.4-1.1-1.3-2.6-2-4.3-2.3-.2 0-.4-.1-.5-.1-.3.3-.7.1-1 .1z" class="st0"></path>  <path d="m140.2 8.2 1.8.6c1.1.4 2.2.8 3.2 1.5.6.4 1.1.9 1.7 1.4-1.9-2.3-4.1-3.6-7-3.6.1 0 .2 0 .3.1zm11 16.6c.4-.6.7-1.3.9-2 .6-2.5-.1-4.6-1.4-6.6-.3-.4-.6-.9-.9-1.2l.6.9c1.8 3.2 1.9 6.2.8 8.9zM135 16.5c.1-.3.2-.6.6-.6.4 0 .6.2.8.5.5.7.2 1.9-.5 2.6-.4.3-.8.5-1.4.9 1.3.6 2-.1 2.8-.7.4-.6.7-1.3.6-2.1 0-.2-.2-.5-.4-.7-.3-.3-.5-.6-.8-.8-.8-.2-1.7-.4-2.4.4-.2.2-.3.5-.1.7.1.2.3.4.6.4v-.5c.1.1.2.1.4.2-.2-.1-.2-.2-.2-.3z" class="st0"></path>  <path d="M125.3 52c-.3.1-.5.1-.8.2-.1-.1-.1-.2-.2-.3v-.1c0 .6.2.8.8.7.3-.5.3-1.2.4-1.8.1-.6.2-1.1.3-1.6-.2.8-.4 1.8-.5 2.9 0-.1 0 0 0 0z" class="st1"></path>  <path d="M127.6 42.5c2.9-3.9 7.2-6.2 10.8-9.2 2.3-2 4.5-4.1 6-6.7.1-.1.1-.2.2-.3.1.1.2.1.3.2l-1.5 2.1c-2.3 3.1-5.3 5.5-8.5 7.8-3.3 2.4-6.4 5.1-8.5 8.7-1.2 2-1.9 4.1-1.5 6.7.2-1.8.7-3.4 1.5-4.8.7-2.1 1.8-3.9 3.3-5.7 2.9-3.2 6.5-5.4 9.9-7.8 2.6-1.8 5.1-3.9 6.2-7 1.4-3.9 2.3-7.7-.8-11.6-2.1-2.6-6.5-3.6-9.5-2.1-.3.1-.5.3-.7.4.4-.1.8 0 1.2 0 .4-.1.8-.2 1.3-.2.3 0 .5 0 .8.1.4 0 .9.1 1.3.1 3.9.6 6.5 3.6 6.6 7.6 0 .8.1 1.5 0 2.2-.1.6-.4 1.2-.8 1.7.1-1.3.2-2.7.2-4 .2-3-1.6-5.2-3.9-6.4.8.6 1.4 1.5 1.8 2.7l.3.6c.9 1.6 1 3.3.8 5-.5 4.2-3 7.2-6.2 9.6-1.6 1.2-3.4 2.2-5 3.4-2.8 2.2-5.4 4.5-7.2 7.6-.2.3-.3.5-.4.8-.5 1-.9 2.1-1.2 3.2 1-1.7 2.1-3.2 3.2-4.7zm45.1-14.2c-.2.2-.5.4-.8.7l.1.1.1-.1c.5-.4.9-.9 1.3-1.4-.2.3-.5.5-.7.7zm-4.9 8.3c.2.3.5.4.8.5h.5c-.9-1.4-1.6-2.9-1.5-4.7-.2.2-.3.4-.5.6v.8c-.2.9-.1 1.9.7 2.8z" class="st1"></path>  <path d="M169.8 35.8c0-.9-.2-1.8-.2-2.8 0-.5.1-1 .8-1.1.8-.2 1.3-.6 1.4-1.4 0-.1-.1-.1-.1-.2h.1v-.8c-.1-.1-.2-.2-.3-.2-.9.6-1.9 1.2-2.8 1.9-.3.3-.7.7-.7 1.1-.3 1.8.4 3.2 1.5 4.6.4-.2.3-.7.3-1.1zm3.6-21.4h-.4c.1.3.2.5.3.7.2.6.2 1.4 1.3 1.2.2 0 1 .3 1 .9 0 1.7.2 3.5-.5 5.2-1.4 3.3-3.3 6.2-6.9 7.6-.9.3-1.6 1-2.1 1.7 0 .2 0 .4-.1.6 2.5-1.8 5.1-3.5 7.4-5.6 2.5-2.3 4.1-5.3 4.1-8.7v-.7c0-.8-.2-1.5-.4-2.3-.2-.3-.4-.5-.7-.6h-.5c-.3 0-.6 0-.9.1-.5.1-1 .2-1.6-.1zm-13.7 23.8c0-2.9-.1-5.9 1.9-8.3.2-.2.3-.4 0-.6-.2-.2-.4 0-.6.1-.5.4-.8.9-1.1 1.4-.4.7-.7 1.5-.8 2.2.3-.3.7-.5 1.2-.7-1.4 2.2-1.1 4.6-1.1 7.1h.1c.1-.1.2-.1.2-.2l.1-.1c.1-.3.1-.6.1-.9z" class="st1"></path>  <path d="M170 42.9c-.3-.1-.6-.1-1-.1.8.1 1.5.3 2.3.4.3.1.7-.1 1.1-.4-.7.3-1.5.4-2.4.1zm-2.4-1.7c-.1 0-.2.1-.3.1h3.3c-.7 0-1.5 0-2.2-.2-.3 0-.6 0-.8.1z" class="st2"></path>  <path d="M168.1 23.9c.7.6 1.1 1.3.2 2.2.3-.1.4-.2.5-.3.2-.2.3-.6.7-.3.4.3 0 .6-.2.8-.3.3-.7.5-.7 1 .4 0 .6-.3.8-.5 1-1.5 2.4-2.5 3.6-3.8 1.2-1.4 1.4-2.9 1.6-4.6 0-.3 0-.6-.3-.7-.3-.1-.1.5-.7.4 1.1-1.5-.6-1.6-1.2-2.3-.2-.3-.4.2-.4.4-.1.4-.1.9-.1 1.3-.1-.5-.1-.9-.1-1.3 0-.3.1-.8 0-1.1-.3-.5-.3.1-.5.1 0 0-.1 0-.1-.1-.1-.2-.1-.3-.2-.5 0-.1-.1-.1-.1-.2-.1 0-.1 0-.2.1-.2.1-.3.3-.5.2-.2-.1-.2-.5-.4-.6-.2-.1-.4 0-.5.2-.4.4-.8.7-1.1 1.1-.4.3-.4.7-.6 1.2-.4 1.1-1.2 2.2-.2 3.4.1.1 0 .3-.1.5-.3.6-.3 1 0 1.7.3.6.4 1.4-.3 2-.3.3-.7.7-.6 1.4 1-1.3 1.6-1.9 1.7-1.7zm-6 15.8c0-.1 0-.1 0 0-.2-.2-.4-.3-.6-.4.5.6.7 1.5 1.3 1.8.1.1.3.1.4.1-.4-.4-.8-.9-1.1-1.5zm2.9 3.5c-.1.1-.1.3-.2.4l.1.1c.3.4.8.4 1.2.2-.2-.4-.5-.7-1.1-.7z" class="st3"></path>  <path d="M160.7 39c-.5.3-.6.7-.3 1.4.2.5.4 1 .6 1.4-.1.1-.2.1-.3.2-.2-.2-.5-.4-.7-.6-.4-.1-.8-.2-1.2-.4-.2.1-.3.1-.4.3 0 .5-.1.9-.1 1.3 1.2.6 2.3.7 3.6-.3-.4 1.8 1.1 2 1.8 2.8.8-1 .7-2.1.1-3.2.9.6 1.9 1.2 2.8 1.8 0-.1.1-.1.1-.2.3-1.4-.1-2.1-1.5-2.2h-.1c-.3.1-.6.1-.9.1h-.1c-.5 0-1.1.1-1.5.1-.4-.9-.7-1.7-1-2.4-.4-.1-.6-.1-.9-.1z" class="st3"></path>  <path d="M161.5 43.5s-.1.3-.2.3c.2.2.4.4.5.6.3.5.6.9 1.1.9-.3-.3-.5-.6-.8-.9l-.6-.9zm-1.5-2.2c.1-.1.4-.3.3-.4-.1-.4-.3-.8-.4-1.1h-.2v.5c0 .3 0 .4-.2.4.2.2.4.4.5.6zm11.9-4.6c-.2-.1-.4-.2-.6-.2.6 1.1 1.1 2.1 1.6 3-.6.5-1.1.8-1.8 1.3 0 .1 0 .1.1.2 1.2.3 2.1.5 3 .7.3 1.2.3 1.3 1.8 1.1.2-.1.3-.2.5-.2-.3-.8-.6-1.6-1-2.6.5.4.9.6 1 1 .2 1 1 1 1.7 1.2.4-1.2.4-1.2-1.7-2.1-1 .2-1.5-.3-2-1.1-.4-.6-.9-1.2-1.4-1.7-.3-.2-.6-.5-1-.6 0 .1-.1 0-.2 0zm3.6 6.7c-.4 0-.8 0-1.1-.2.3.3.7.4 1.1.2z" class="st3"></path>  <path d="M176.8 42.7c.1 0 .2 0 .3.1.4.1.7.1 1-.1-.3-.3-.6-.5-1-.8-.1.3-.2.6-.3.8zm-2.7-.7c-.1.1-.2.1-.3.2.1.1.2.2.2.3.1-.1.1-.3.1-.5zm3-2c.2.1.5.2.7.3-.2-.2-.4-.3-.7-.3zm-6-2.5c.2.5.4.9.7 1.4.2.5.3.8-.2 1.2-.2.2-.3.3-.4.5.4-.4.8-.9 1.3-1.5-.2-.4-.7-1.2-1.1-2-.2.2-.2.3-.3.4zm8.4-24.2c.1-.1.1-.3 0-.4-.2-.4-.6-.5-.9-.3-.1.1-.3.1-.4.1-.2.1-.3.1-.5.2l.1-.1c-.1 0-.2 0-.4.1 0 .3 0 .6.1.9.7-.2 1.3-.4 2-.5zm-1 .7c.2 0 .3-.1.5-.2-.6.2-1.1.3-1.8.5.4-.1.9-.2 1.3-.3zm-5.3-3.7c-.4.1-.1.5-.5.7-.1-.3-.2-.5-.3-.9-.3.8-.6 1.5-.6 2.2.4.1.8.1 1.2.1.5-.5.5-1.3.2-2.1zm-4.6 3.1c.2.2.5.4.8.4 1.2.3 2.4.5 3.5.5h.6c-1.7-.1-3.2-.6-4.7-1.3 1.2.3 2.5.7 3.7.8 1.1.1 2.3.1 3.4-.1.4-.1.8-.5 1.1-1h-.1c-1 .3-2 .3-3 .3h-1.3l.1-.1c-.3-.1-.6-.1-.9-.2-.1.3-.3.3-.7.2-.7-.2-1.3-.4-2-.6-.1 0-.2-.1-.3-.1-.2.2-.4.5-.5.7.1.3.2.4.3.5zm7.8.9c.2 0 .4 0 .5-.1-.4.1-.7.1-1.1.1.3.1.4.1.6 0zm-9.1-4.1c.2-.1.5-.2.8-.2.2-.2.3-.4.3-.6.1-.3.1-.7.1-1.2.1-.6-.1-1.2-.6-1.6-.1-.1-.3-.2-.4-.2-1.6 1.1-2.9 2.3-1.7 4.7-.7-.6-1-1.4-.8-2.3.3-1.1 1-2 1.9-2.6-.7-.1-1.4.3-1.8.9-1.1 1.4-.9 3.4.4 4.6.4.4.7.2.9-.2l-.1-.1c.4-.3.6-.9 1-1.2z" class="st3"></path>  <path d="M167.8 10.2c-.2.1-.3.1-.4.2.1 0 .3-.1.4-.2zm-3.4 21.1c-.1.2-.1.3-.2.5-.3 2-.6 4-2.3 5.2l-.6 1.2c.1.1.1.1.2.1.8-.3 1.4-.8 1.9-1.3 1.2-1.7 1.1-3.7 1-5.7zm9.1 4.6c0-1.5-.2-3.1-.8-4.5-.2-.4-.3-.8-.8-1.1h-.1c0 .1.1.1.1.2.6 1.3.5 2.7.6 4.1 0 .4 0 .9.1 1.3 0 .1.1.2.1.4.2.1.4.2.7.2.1-.1.1-.4.1-.6z" class="st3"></path>  <path d="M136.3 13.2c-.4-.1-.9-.1-1.2 0-1 .1-1.8.7-2.5 1.6l-.3.3c-1 1.4-.9 2.8.3 4.2-4.3-1.5-3.5-6.3-1.3-8.2 2.5-2.1 5.4-2.3 8.5-1.7.4.1.8.3 1-.2-1.8-.4-3.6-.9-5.5-.8-2.7.2-5.1 1.4-6.4 3.5-.2.4-.4.7-.5 1.1-.3.8-.5 1.8-.4 2.9 0 .4.1.9.2 1.3 1.5 3.5 5.3 5.6 8.8 3.5 1.3-.8 2-3.1 1.2-4.4-.4-.7-.9-1.3-1.9-1.1-.5.1-.9.1-1.4.2-.9.2-1.6.9-1.5 1.9 0 .3.3.9.5.9.4 0 1-.1.8-.8v-.1c-.2 0-.4-.2-.6-.4-.2-.3-.1-.5.1-.7.7-.8 1.6-.6 2.4-.4.8.2 1.3.8 1.5 1.6.2.8-.2 1.5-.8 1.9-.8.5-1.5 1.2-2.8.7.6-.3 1-.5 1.4-.9.8-.6 1-1.8.5-2.6-.2-.3-.5-.5-.8-.5-.3 0-.5.3-.6.6v.3c.2.1.4.2.4.3 0 .4 0 .9-.2 1.2-.5.7-1.8.8-2.3.4-1.2-1-1.2-2.1-.4-2.9.6-.7 1.6-1.1 2.4-1.6.2-.1.6-.1.7-.3.3-.3.7-.5 1.1-.6-.1 0-.2 0-.3-.1 0-.1-.1-.1-.1-.1z" class="st4"></path>  <path d="M135.7 14.1c1.7.1 2.8.8 3.2 2.1.5 1.6 0 3.6-1.1 4.6.3-.2.5-.3.7-.5 1.8-1.5 2.1-3.4.9-5.4-.5-.8-1.2-1.2-2-1.5-.2 0-.4 0-.6.1-.3.1-.6.3-1.1.6zm4.5-5.9c-.2-.1-.3-.1-.4-.1-.1 0-.2 0-.3-.1.3.1.5.2.7.2zm-10.9 27.3c0 .2 0 .4-.1.7.3-.5.4-1 .4-1.6-.2-.1-.3-.2-.5-.3.1.4.2.8.2 1.2zm-2.3 3.3c0-.1.1-.2.1-.3l-.1.1v.2zM124.9 25c.2.6.4 1.2.5 1.8-.1-.7-.2-1.3-.5-1.8zm-.3 18.5c.4-.1.4-.4.4-.8.1-.1.2-.3.2-.4l-.6 1.2z" class="st4"></path>  <path d="M124.1 43.6c-.1-.7.1-1.3.6-1.9.5-.6 1-1.3 1.4-2 .4-.6.1-1.1-.4-1.6-.4-.4-.5-1-.8-1.5.1-.1.3-.1.4-.2.1 0 .2 0 .2.1.3.8.8 1.5 1.8 1.3.6-.1 1.4-1.6 1.5-2.4.1-.5 0-.9-.1-1.4-.7-.6-1.4-1.3-1.6-2.3 0-.2-.1-.3-.2-.4-.5-.3-1-.2-1.8.3-.1.1-.4 0-.7 0 1.4-1.9 1.1-3.8.3-5.7-.2-.6-.6-1.3-.4-1.9-.1-.1-.1-.2-.2-.3-.1.2-.2.5-.1.7 0 .3.1.6.1.9-.1.2-.2.4-.2.6-.7 1.7-1 3.3-.1 5v.7h-.3c-.7-.5-1.2-.6-1.8-.3-.1.1-.2.2-.2.4-.2 1-.9 1.6-1.6 2.3-.1.4-.1.9-.1 1.4.1.8.9 2.2 1.5 2.4 1 .2 1.5-.5 1.8-1.3 0 0 .1-.1.2-.1.1.1.3.1.4.2-.3.5-.4 1.1-.8 1.5-.5.5-.8 1-.4 1.6.3.6.7 1.1 1.1 1.7v1.3c-.1-.1-.1-.2-.2-.3.1.1.2.3.2.4 0 .3.1.6.4.8h.1c-.1 0 0 0 0 0zM157 25.5c-.2.2-.4.3-.7.4 0 0 0 .1-.1.1.2.1.5 0 .8-.1.5-.2.9-.6 1.3-1 .3-.4.7-.8 1.1-1.1-1 .5-1.8.9-2.4 1.7zm6.5-6.5c0-.2 0-.4-.1-.5-.2.7-.3 1.5-.5 2.2l.1-.1c.3-.5.5-1.1.5-1.6z" class="st4"></path>  <path d="M162.5 18.7c0 .1-.1.3-.2.4-.2.3-.4.7-.6 1-.1.1-.2.3-.3.4-.2.3-.4.4-.8 0-.7-.7-1.3-.6-1.7.3-.3.8-.9 1.5-1.4 2.2-.1.8-.4 1.6-.8 2.3 1.5-1.3 2.3-2.9 3.3-4.4.1.1.2.1.3.2-.5.9-1 1.8-1.5 2.8 2.8-.8 3.5-3.2 4.3-5.5-.3-.2-.5 0-.6.3zm16.2 6.4c-.1 0-.2-.1-.3-.2 0 .3.1.6.1.8.2-.1.5-.3.8-.6-.2.1-.4.1-.6 0zm.4-3c-.1-.1-.2-.2-.4-.2-.3 0-.3.3-.3.6 0 .2 0 .5-.1.7.2-.5.4-.8.8-1.1z" class="st4"></path>  <path d="M128.3 24.9c-.4-.2-.7-.7-1-1.2.3.4.6.9 1 1.2zm2.3-.1.2-.2c-.7.5-1.4.7-1.9.5h.1c.6.2 1.1.3 1.6-.3zm-2.2.1c.1 0 .1.1.2.1 0 0-.1 0-.2-.1zm4.1-.5c.1 0 .3.1.4.2-.5-.3-.9-.4-1.4-.3.3-.1.7 0 1 .1zm-5.4 7.3c.2 1 .9 1.6 1.6 2.3-.2-.8-.6-1.5-1.2-2.1-.2-.2-.4-.4-.6-.5.1.1.2.2.2.3zm12.2 14.7c4.1-2 7.4-5.1 10.5-8.4 1.9-2 3.9-4 5.7-6.2 1.8-2.3 3.4-4.8 5.1-7.3.3-.4.4-1 .8-1.7-.2.1-.4.3-.6.4-.1.1-.1.2-.2.4-.7 1.5-1.5 2.9-2.6 4.1-.8.9-1.6 1.9-2.4 2.9-4 5.2-8.5 10-13.9 13.9-2.8 2-5.7 3.5-9.1 4.1 0 0 .1 0 .1.1.5 0 1-.1 1.4-.2 1.7-.7 3.5-1.2 5.2-2.1z" class="st5"></path>  <path d="M153.3 40.7c.1-.2.3-.4.5-.6 2.3-2.9 4.2-6.1 5.6-9.5.6-1.4 1.1-2.8 1.9-4.1.7-1 .9-2.2 1.1-3.4 0-.2 0-.4-.1-.6-1 2.6-2.6 4.9-4.2 7.2-3.1 4.4-6.7 8.3-10.7 11.8-3.7 3.4-7.9 6-12.9 7.2-.4.1-.8.1-1.2.3.3.1.5.2.8.3.6.1 1.2.2 1.9.3.2 0 .4.1.5.1h.6c3.1-.2 6.1-.9 8.8-2.6 1.1-.7 2.3-1.4 3.4-2.1 1.2-.9 2.3-2 3.4-3.1.2-.3.3-.6.4-.9.1-.1.1-.2.2-.3zm28.4-24.2h-2.5c-.6 0-1.2.2-1.2 1 0 .6 0 1.1-.1 1.6 0 0 .1 0 .1.1.3.2.6.2 1 .2 1.7.1 2.9-.8 3.7-2.1.1-.2.2-.3.3-.3.1-.1.2-.1.3-.1.2 0 .3.1.5.1.2.1.5.1.7.2.1 0 .2.1.2.2v.2c0 .1-.1.3-.1.4 0 .2.1.3.1.5-.1.4-.2.7-.3 1.1.4.6.3 1.2-.3 1.8-.6.6-1.3 1.1-1.9 1.7-2.2 1.9-2.8 4.4-3 7.4 1.2-1.4 2.2-2.7 3.2-4 .1-.1.1-.2.2-.3.2-.3.4-.6.7-.9 1.3-1.7 2.8-3.4 3.8-5.2.9-1.7 1.2-3.5.9-5.3-.3-1.2-.8-2.3-1.3-3.4 0-.1-.1-.2-.2-.3-.3-.3-.7-.3-1.2-.2-.4.2-.9.5-1.2.9-.4.6-.8 1.2-1.1 1.9-.4.7-.7 1.5-1.1 2.3 0-.3-.1-.7 0-.9.3-.7.7-1.4 1.1-2 .2-.4.4-.7.6-1.1.4-1.2.7-1.5 1.7-1.7-.3-.1-.5-.1-.8-.1-1 .1-1.5.8-1.6 1.6-.2 1.3-1 2.2-1.5 3.3-.2.5-.5.6-1.1.6-.8-.1-1.5.1-2.2.4h3.4c.2.2.2.3.2.4zm4.8-.5c0-1.3-.4-2.5-.6-3.6 1.5.9 1.5 5.9-.1 7.3.3-1.1.7-2.4.7-3.7z" class="st5"></path>  <path d="M179.2 26.7c-.4.9-.7 1.9-.8 3.1 0 .4-.1.8.2 1-.1-1.4.2-2.8.6-4.1zm-1.7-8.8v-.7.7zm-21-5.2c-.3.4-.6.9-.9 1.4-.2.4-.4.9-.6 1.3.4-1 .9-1.9 1.5-2.7 0-.1 0-.1 0 0zm-1.4 3.7c-1.3 4.8-2.9 9.4-4.9 13.9.5-.7 1-1.3 1.5-2 1.1-1.4 1.8-2.8 2.4-4.4 0-.2.1-.5.1-.7 0-.2.1-.3.2-.5.1-.1.1-.2.2-.3.2-.7.5-1.4.7-2.1.1-.3.4-.6.7-.8.4-1.2.7-2.5 1-3.8.1-.5.2-1 .5-1.4.3-.4.5-1 1.1-.9.6.1.5.7.6 1.2.4 1.8 1.8 2.6 3.6 1.9l1.5-.6c.3-.1.5-.2.6-.6 0-.2 0-.3-.1-.5-.4-.3-.9-.3-1.5.2-.3.2-.5.4-.8.6-.9.5-1.9-.1-1.7-1.1.1-.3.1-.7.2-1 0-.1 0-.2.1-.4 0-.1 0-.2.1-.3.1-.2.1-.4.3-.6.1-.2.1-.4.2-.6h.1c.2-.4.2-.8-.2-1.1-.5-.4-1.2-.8-1.8-.8h-.2c-.1 0-.2 0-.4.1-.3.1-.5.3-.8.6-1.5 1.9-2.7 3.8-3.3 6zM149.5 32c-.1.1-.1.3-.2.4.3-.3.6-.6.9-.8.2-.2.3-.4.5-.6-.4.3-.8.6-1.2 1z" class="st5"></path>  <path d="M161.7 15.4c.1.1.5 0 .8-.1.2 0 .3-.2.4-.3.5-.4.9-.6 1.3-.7-.5-.2-1.1-.1-1.6.1-.6.2-1 .3-1.2.1 0 .3.1.7.3.9zm15.1-12.6c-.1-.5-.5-1-1-1.3.4.8.8 1.5 1.2 2.3 0-.4-.1-.7-.2-1zm-8.4 3c.3.4.7.5 1.1-.1.4-.5.8-.9 1.5-1 .4-.1.9 0 1.3-.2.9-.4 2 .1 2.6.7 1.4 1.3 1.2 2.9 1.1 4.6 0 .4-.1.7-.1 1.1 0 .3.1.7.4.8h.1c.4.1.5-.3.6-.7.2-.4.1-1 .5-1.3.7-.5.7-1.1.7-1.7 0-.7.1-1.4-.3-1.9-.1.2-.2.5-.4.9-.1-.8-.1-1.4-.2-2 0-.2-.1-.4-.1-.5-.3-.8-.8-1.5-1.3-2.3-.2.5-.3.9-.4 1.2h-.3c-.1-.7-.1-1.5-.2-2.1-1.6.5-3 1-4.5 1.4-1.4.4-2.1 1.3-2.3 2.7-.2-1.6.6-2.7 2.5-3.2.9-.2 1.9-.5 2.8-1-1.2.3-2.4.6-3.6 1-.8.3-1.4.9-1.8 1.7-.2.6-.3 1.1.1 1.7 0 .1.1.1.2.2-.1 0-.1 0 0 0z" class="st5"></path>  <path d="M155.6 26.2c-.2.1-.4.3-.4.4-.1.4-.3.7-.5 1.1.3-.3.5-.5.7-.8.3-.3.5-.6.7-.9 0 0 0-.1.1-.1l-.6.3z" class="st6"></path>  <path d="M157.5 22.9c.1-.7.1-1.4 0-2.1-.1-.6-.2-1.1-.8-1.2h-.5c-.3.1-.6.4-.7.8-.3.7-.5 1.4-.7 2.1 0 .1-.1.3-.1.4-.1.3-.2.7-.3 1-.6 1.6-1.4 3.1-2.4 4.4-.5.7-1 1.3-1.5 2-.2.5-.5 1.1-.7 1.6.4-.3.8-.7 1.2-1 .3-.3.7-.6 1-.8.1-.1.2-.1.3-.2.6-.5 1.1-1.1 1.5-1.7 1.1-1.6 1.6-3.5 2.4-5.3.1 0 .2.1.3.1-.3 1-.5 1.9-.9 3.1.5-.3 1-.6 1.4-1 .1-.6.4-1.4.5-2.2zm-5.9 27.8c.4.7 1.1 1.1 2 .9-.8-.1-1.5-.4-2-.9zm1-4.2c-.6.7-1.1 1.5-1.2 2.3-.1.7.3 1.3 1 1.8 1 .6 2.2.7 2.7 0 .1-.2.2-.4.2-.7-.1-.2-.2-.4-.4-.7-.1-.2-.4-.3-.4-.5-.2.1-.4.2-.5.3-.2.1-.4.2-.6.4-.5-1.5 3.2-4.1 6.1-4.8.4-.1 1-.4 1.5-.3.1-.1.1-.2 0-.4-2.2.4-4.3 1-6.5 1.6-.7.2-1.3.5-1.9 1z" class="st6"></path>  <path d="M159.5 45.3c-1.1.3-2.2.6-3.1 1.2 1.1-.3 2.1-.7 3.1-1.2zm-4.6 2.6c0-.1.1-.2.1-.2-.1.1-.1.1-.1.2zM184.7 18c-.1-.4-.3-.8-.9-.8-.6-.1-.9.4-1 .9-.2 1.3-1 2.1-2.1 2.7-.5.3-1 .7-1.5 1.1-.1 0-.1.1-.1.1-.3.3-.6.7-.8 1.1-.1.2-.2.4-.2.7v.1h.1c.1.4.1.7.2 1 .1.1.2.1.3.2.2.1.4.1.6 0 .2-.2.4-.3.6-.5 0 0 0-.1.1-.1.5-1 1.3-1.6 2.2-2.2 1.1-1.2 2-2.4 2.2-2.9l.2.2c.1-.3.2-.7.3-1.1-.1-.1-.2-.3-.2-.5z" class="st6"></path>  <path d="M147 35.3c.1-.2.2-.5.2-.7-.2.1-.3.2-.5.3.1.1.2.3.3.4z"></path>  <path d="M177.9 19.2c.1-.5.1-1.1.1-1.6 0-.9.6-1 1.2-1h2.5v-.2h-3.9c-.2-.6-.4-1.5-.6-2 .6-.2 1.2-.3 1.8-.5.4-.1.7-.2 1.1-.3.2-.1.4-.6.3-.9-.1-.3-.4-.7-.7-.7-.8-.1-1.4.4-1.8.9l-.1.1c.2 0 .3-.1.5-.2.4-.1.8-.3 1.2-.4.2 0 .5.3.6.5 0 .1-.2.5-.4.5h-.2c-.7.2-1.3.3-2 .4 0-.4-.1-.7-.1-.9v-.4c.1-.9-.1-1.8.7-2.6.9-.9.9-2 .5-2.9-.5-1.1-1-2.1-1.6-3.2-.4-.8-.8-1.5-1.2-2.3-.3-.5-.5-1-.8-1.5-.5.5-1 .9-1.6 1.2-.9.5-1.8.7-2.8 1-1.9.5-2.7 1.5-2.5 3.2.2-1.4.9-2.3 2.3-2.7 1.5-.4 2.9-.9 4.5-1.4.1.6.1 1.4.2 2.1h.3c.1-.4.3-.8.4-1.2.5.8 1 1.5 1.3 2.3.1.2.1.4.1.5.1.6.1 1.3.2 2 .2-.4.3-.7.4-.9V6c.8 1.3.7 2.6-.3 3.9-.2.3-.4.7-.4 1 .1 1-.4 1.3-1.1 1.5-.1 0-.2 0-.3.1-.4.1-.9.1-1.3.1h-1.3c-.4 0-.8-.1-1.2-.1-1-.2-1.9-.4-2.7-.9-.1-.6-.1-1.4-.3-1.4-.1 0-.2 0-.4-.1h-.4c-.3 0-.6.1-.8.2-.4.3-.6.9-.9 1.3l.1.1c.1.1.2.1.3.2.1-.6.3-1.1.7-1.4.1-.1.3-.2.4-.2.2-.1.4-.1.7 0h.2c.2 1.3-.3 2.3-1 3.3-.3.5-.7.9-1.1 1.4l-.6.9s0-.1-.1-.1c-.7-1-1.1-1.4-1.7-1.3-.3.1-.7.3-1.3.7-.1.1-.3.2-.4.3-.3.1-.7.2-.8.1-.2-.2-.3-.6-.3-.8v-.3c.1-.6.3-1.1.5-1.7.1-.3.1-.6.2-.8h-.3c-.1.2-.1.4-.2.6-.1.2-.2.5-.3.7-.1.2-.1.4-.2.5-.1.3-.2.7-.2 1-.2 1.1.7 1.6 1.7 1.1.3-.2.6-.4.8-.6.5-.5 1.1-.5 1.5-.2.1.1.2.2.3.4.1.2.1.4.1.6v1.2c1-1.4 1.9-2.7 2.9-4 .2-.2.4-.5.5-.7.1-.2.2-.3.3-.5.9.3 1.7.6 2.7.8.3.1.6.1.9.2.4.1.8.1 1.1.1 1 .1 2 0 3-.3h.2c-.3.5-.7.9-1.1 1-1.1.1-2.3.2-3.4.1-1.3-.1-2.5-.5-3.7-.8 1.5.8 3.1 1.2 4.7 1.3h1.5c.3 0 .6 0 .9-.1.3 0 .7-.1 1.1-.1 0 .2.1.5.2.7.2.8.4 1.5.4 2.3v.7c-.1 3.5-1.6 6.4-4.1 8.7-2.3 2.1-5 3.8-7.4 5.6 0-.2 0-.4.1-.6.1-.9.2-1.7.3-2.6-.3.1-.4.3-.5.5-.3 1.4-.5 2.8-.8 4.2-.3 1.3-.8 2.4-1.6 3.2-.5.5-1.1 1-1.9 1.3-.1 0-.2.1-.3.2 0-.1.1-.2.1-.3l.6-1.2c.3-.6.5-1.1.8-1.7-.1-.1-.3-.2-.4-.2-.9 1.3-1.4 3-2.8 4.1l-.2.2s-.1 0-.1.1c0-2.5-.3-4.9 1.1-7.1-.4.2-.8.4-1.2.7l-.4.4c-.2.3-.4.5-.6.9 0 .1-.1.1-.1.2-1.5 2.7-3.2 5.2-5.2 7.4-1 1.1-2.1 2.1-3.4 3.1-.9.7-1.9 1.4-2.9 2-3.1 1.8-6.3 3.2-9.9 2.8-.2 0-.4 0-.5-.1-.6-.1-1.2-.2-1.9-.3-.3-.1-.7-.1-1-.2.1-.1.2-.1.3-.1.4-.2.8-.2 1.2-.3 5-1.2 9.2-3.8 12.9-7.2 4-3.6 7.6-7.4 10.7-11.8 1.6-2.3 3.1-4.6 4.2-7.2.2-.5.4-1 .5-1.4 0-.1.1-.3.1-.4.2-.7.4-1.5.5-2.2 0-.1.1-.3.1-.4-.1-.1-.2-.1-.4-.2 0 .1-.1.3-.1.4-.8 2.3-1.5 4.7-4.3 5.5.5-1 1-1.9 1.5-2.8-.1-.1-.2-.1-.3-.2-1 1.5-1.8 3.1-3.3 4.4-.4.4-.9.7-1.4 1 .3-1.2.6-2.2.9-3.1-.1 0-.2-.1-.3-.1-.8 1.8-1.3 3.7-2.4 5.3-.4.6-1 1.2-1.5 1.7-.6.6-1.2 1.1-1.8 1.6-.3.3-.6.6-.9.8.1-.1.1-.3.2-.4.2-.5.5-1.1.7-1.6 2-4.5 3.6-9.2 4.9-13.9.6-2.2 1.8-4.2 3.4-5.8.3-.3.5-.5.8-.6.8-.4 1.6-.3 2.5.4-.3-.3-.6-.7-1-.8-1.1-.2-2.1.1-2.8 1l-1.5 2.1c-.6.9-1.1 1.8-1.5 2.7-.3.6-.5 1.2-.7 1.8-.6 2.1-1.2 4.2-2 6.2-1.4 3.4-2.6 6.8-4.6 9.9-.3.4-.4.9-.6 1.4.8-.5 1.6-1 2.3-1.5 1-.8 1.7-1.9 2.7-2.6 1-.8 1.9-1.6 2.5-2.7.2-.3.4-.7.5-1.1.1-.2.3-.3.4-.4l.6-.3c.3-.1.6-.2.7-.4.6-.8 1.4-1.2 2.3-1.6.5-.2 1-.4 1.4-.7.2-.1.4-.2.6-.4-.3.8-.5 1.3-.8 1.7-1.7 2.5-3.2 5-5.1 7.3-1.7 2.2-3.7 4.2-5.7 6.2-3.1 3.3-6.4 6.4-10.5 8.4-1.7.8-3.5 1.4-5.3 2-.4.1-.9.2-1.4.2-.4 0-.8.1-1.1.1 2.2 1 4.5 1.5 6.8 1.4 1.9-.1 3.9-.7 5.7-1.4 4.4-1.6 8-4.3 10.8-8.1 1.3-1.8 2.5-3.6 3.9-5.7 0-.1.1-.1.1-.2-.1 1.6-.2 3-.3 4.5 0 .3 0 .6-.1.9.3-.1.8-.2 1.3-.3h.2c.1.3.3.7.4 1.1 0 .1-.2.2-.3.4-.1-.3-.2-.4-.4-.5-.3-.2-.8-.1-1.2 0-.2 0-.3.6-.5 1-.1.3-.2.5-.4.7-.2.3-.4.5-.6.8h2.1c0 .1 0 .2.1.3l-2.4.9c-1.7.5-3.4.9-4.7 2.3-1.1 1.1-1.3 2.8-.5 3.8l.1.1c.5.5 1.3.9 2 .9.6.1 1.2 0 1.6-.3 1.2-.7 1.3-2.3.1-3.1-.1-.1-.2-.2-.4-.2l.2-.2c.4-.5.9-.9 1.4-1.2.9-.6 2-1 3.1-1.2.8-.2 1.5-.4 2.3-.6-.2-.3-.5-.4-.8-.4-.5-.1-1.1.2-1.5.3-3 .7-6.6 3.3-6.1 4.8.2-.1.4-.2.6-.4.2-.1.4-.3.5-.3.3-.1.6 0 .7.3.1.2.1.5.1.8 0 .3-.1.5-.2.7-.5.7-1.8.6-2.7 0-.7-.4-1.1-1-1-1.8 0-.1 0-.3.1-.5.2-.8.6-1.3 1.1-1.8.6-.5 1.2-.9 2-1.1 2.1-.7 4.3-1.2 6.5-1.6h.2c.1 0 .1-.2.2-.3l.6.9c.3.3.5.6.8.9.2.3.5.6.8.9.3-.7.7-1.6 1.1-2.5.1-.1.1-.3.2-.4.6 0 .9.3 1.1.8.1.2.2.4.3.7.3-.3.4-.7.6-1 .1-.2.2-.6.4-.6.6-.1 1.1-.2 1.7-.2.3 0 .7 0 1 .1.9.2 1.6.2 2.4 0 .5-.2 1-.4 1.5-.7.1-.1.2-.1.3-.2v.5c0 .3.2.5.3.6.3.2.6.3 1.1.2h.5c-.1.6-.2 1-.3 1.5.1 0 .2.1.3.1.2-.7.5-1.4.8-2.2.1-.2.2-.5.3-.8.3.3.6.5 1 .8.3.2.5.4.8.6.1-.2.2-.5.3-.8.5 0-.3-.3-.3-1s.3-.8 0-.8c-.2 0-.4-.2-.5-.3-.2-.1-.3-.1-.5-.2s-.5-.2-.7-.3c-.2-.1-.4-.1-.6-.2 0 .1-.1.2-.1.3h.1c2.1 1 2.1 1 1.7 2.1-.7-.2-1.4-.2-1.7-1.2-.1-.3-.5-.5-1-1 .4 1 .7 1.8 1 2.6v.1c-.2 0-.4 0-.5.1-1.5.2-1.5.1-1.8-1.1-.9-.2-1.8-.4-3-.7h-.2c.1 0 .1-.1.1-.1.7-.5 1.2-.9 1.8-1.3-.5-.9-1-1.9-1.6-3-.1-.1-.1-.2-.2-.3.2 0 .4.1.6.1.7.2 1.2.6 1.6 1 .8.8 1.2 1.9 2.2 2.6-.6-.9-1.2-1.8-1.8-2.8 0 0 0-.1-.1-.1h.2c.4 0 .8 0 1-.1-.3-.8-.7-1.5-.7-2.3 0-2.2-.3-4.2-2.1-5.6l-.1-.1c.3-.3.5-.5.8-.7.3-.2.5-.5.7-.7 1.4-1.4 2.5-2.8 3.3-4.5.2-1.7.6-3.1.8-4.5-.1 0 0 0 0 0zm-6.7 21.5-.6.6H167c-.5 0-1-.3-1.6-.4-.7 0-1.5.2-2.2.2-.1 0-.3 0-.4-.1-.5-.3-.8-1.2-1.3-1.8 0-.1-.1-.1-.2-.2 0 0 0 .1.1.1.3.8.6 1.5 1 2.4.4 0 .9-.1 1.5-.1h.1c.3 0 .6-.1.9-.1h.1c1.4.1 1.8.7 1.5 2.2v.2h-.1c-.9-.6-1.9-1.2-2.8-1.8.6 1.1.7 2.1-.1 3.2-.7-.8-2.2-1-1.8-2.8-1.2 1-2.4.8-3.6.3 0-.4 0-.8.1-1.3v-.4c.1 0 .3.1.4.1.4.1.8.3 1.2.4.2.2.5.4.7.6.1-.1.2-.1.3-.2-.2-.5-.4-1-.6-1.4-.3-.7-.2-1.1.3-1.4.1-.1.2-.1.4-.2h.1c1.3-.4 2.3-1.2 3.1-2.2.3-.4.6-.9.8-1.3.4-.8 1.1-1.5 1.9-2.3.2-.2.3-.4.5-.6-.1 1.9.6 3.3 1.5 4.7.4.5.7 1 1.2 1.5l.2.2c.3-.4.5-.8.7-1.3.1-.1.1-.2.2-.4.5.8.9 1.6 1.1 2-.3.6-.7 1.1-1 1.6zm2.1-4.2c-.2 0-.5-.1-.7-.2-.6-.2-1.1-.6-1.6-1.1-.2.9-.3 1.8-.5 2.9-.3-.4-.7-.8-1-1.2-1.1-1.4-1.8-2.8-1.5-4.6.1-.4.4-.8.7-1.1.9-.7 1.9-1.3 2.8-1.9.1.1.2.2.3.2 1.3 1.2 1.8 2.7 1.9 4.5 0 .8.2 1.6.4 2.5-.3.1-.6.1-.8 0z"></path>  <path d="M149 28.4c.9-1.1 1.7-2.3 2.2-3.6 1.1-2.7 1-5.7-.9-9l-.6-.9c-.8-1.2-1.8-2.3-2.9-3.3-.5-.5-1.1-.9-1.7-1.4-.9-.7-2.1-1.1-3.2-1.5l-1.8-.6c-.2-.1-.5-.1-.7-.2-.4-.1-.7-.2-1.1-.3-.3 0-.7.1-1 0-1.9-.3-3.7 0-5.5.7-2.9 1.1-4.5 3.6-4.7 6.8-.1 2.3 1 3.9 2.6 5.3 2.1 2 5.5 2.2 7.8.4.1 0 .1-.1.2-.2 1.1-1 1.7-3 1.1-4.6-.5-1.3-1.5-2-3.2-2.1.5-.2.8-.5 1.1-.5.2 0 .4-.1.6-.1 1.4-.1 3 .2 4.3.8 2.3 1.2 4 3.4 3.9 6.4-.1 1.3-.1 2.7-.2 4 .3-.5.7-1.1.8-1.7.1-.7 0-1.5 0-2.2-.1-4-2.6-7-6.6-7.6-.4-.1-.9-.1-1.3-.1-.5 0-1.1 0-1.6.2-.4.1-.8.3-1.1.6-.2.2-.5.1-.7.3-.8.5-1.8.9-2.4 1.6-.7.8-.8 1.9.4 2.9.6.4 1.8.3 2.3-.4.2-.3.2-.8.2-1.2 0-.1-.2-.2-.4-.3-.1 0-.2-.1-.4-.2v.6c.1.7-.4.9-.8.8-.2 0-.5-.6-.5-.9 0-1 .6-1.7 1.5-1.9.5-.1 1-.1 1.4-.2 1-.2 1.5.4 1.9 1.1.8 1.3.1 3.7-1.2 4.4-3.5 2.1-7.3-.1-8.8-3.5-.2-.4-.2-.9-.2-1.3-.1-1.1.1-2 .4-2.9.1-.4.3-.7.5-1.1 1.3-2.1 3.7-3.3 6.4-3.5 1.9-.1 3.7.4 5.5.8.2 0 .4.1.5.1 1.7.3 3.2.9 4.3 2.3.1.2.3.3.5.4 2 1.3 3.3 3.2 4.2 5.4.5 1.2 1 2.5 1 3.7-.1 2.3-.9 4.5-2.4 6.4l-2.1 2.4c-2.6 2.7-5.5 5-8.6 7.2-3.1 2.2-6.1 4.4-9 6.9-.5.4-.9.9-1.3 1.3-.5.5-.9 1.1-1.2 1.7-.8 1.4-1.3 3-1.5 4.8-.4-2.6.4-4.7 1.5-6.7 2.1-3.6 5.2-6.3 8.5-8.7 3.1-2.3 6.1-4.6 8.5-7.8l1.5-2.1c-.1-.1-.2-.1-.3-.2-.1.1-.1.2-.2.3-1.5 2.7-3.7 4.8-6 6.7-3.6 3.1-7.9 5.3-10.8 9.2-1.2 1.5-2.2 3.1-2.8 4.8-.4 1.1-.6 2.3-.6 3.7-.5-.2-.4-.6-.5-1.1 0-.6 0-1.2.2-1.8-.1-.3-.2-.5-.3-.8-.6-1.7-1.7-3.2-2.8-4.8-2.9-3.9-7.2-6.2-10.8-9.2-2.3-2-4.5-4.1-6-6.7-.1-.1-.1-.2-.2-.3-.1.1-.2.1-.3.2l1.5 2.1c2.3 3.1 5.3 5.5 8.5 7.8 3.3 2.4 6.4 5.1 8.5 8.7 1.2 2 1.9 4.1 1.5 6.7-.2-1.8-.7-3.4-1.5-4.8-.4-.6-.8-1.2-1.2-1.7-.4-.5-.8-.9-1.3-1.3-2.9-2.4-6-4.6-9-6.9-3-2.2-6-4.5-8.6-7.2-.7-.8-1.4-1.5-2.1-2.4-1.5-1.9-2.3-4-2.4-6.4 0-1.2.5-2.5 1-3.7.9-2.2 2.2-4.1 4.2-5.4.2-.1.4-.2.5-.4 1.1-1.3 2.6-2 4.3-2.3.2 0 .4-.1.5-.1 1.8-.4 3.6-.9 5.5-.8 2.7.2 5.1 1.4 6.4 3.5.2.3.4.7.5 1.1.3.8.5 1.8.4 2.9 0 .4-.1.9-.2 1.3-1.5 3.5-5.3 5.6-8.8 3.5-1.3-.8-2-3.1-1.2-4.4.4-.7.9-1.3 1.9-1.1.5.1.9.1 1.4.2.9.2 1.6.9 1.5 1.9 0 .3-.3.9-.5.9-.4 0-1-.1-.8-.8v-.6c-.1.1-.2.1-.4.2s-.4.2-.4.3c0 .4 0 .9.2 1.2.5.7 1.8.8 2.3.4 1.2-1 1.2-2.1.4-2.9-.6-.7-1.6-1.1-2.4-1.6-.2-.1-.6-.1-.7-.3-.3-.3-.7-.5-1.1-.6-.5-.2-1.1-.2-1.6-.2-.4 0-.9.1-1.3.1-3.9.6-6.5 3.6-6.6 7.6 0 .8-.1 1.5 0 2.2.1.6.4 1.2.8 1.7-.1-1.3-.2-2.7-.2-4-.2-3 1.6-5.2 3.9-6.4 1.3-.7 2.8-1 4.3-.8.2 0 .4 0 .6.1.3.1.6.3 1.1.5-1.7.1-2.8.8-3.2 2.1-.5 1.6 0 3.6 1.1 4.6l.2.2c2.3 1.8 5.7 1.5 7.8-.4 1.6-1.4 2.7-3 2.6-5.3-.2-3.2-1.8-5.7-4.7-6.8-1.8-.7-3.6-1-5.5-.7-.3.1-.7 0-1 0-.4.1-.7.2-1.1.3-.2.1-.5.1-.7.2l-1.8.6c-1.1.4-2.2.8-3.2 1.5-.6.4-1.1.9-1.7 1.4-1.1 1-2.1 2.1-2.9 3.3l-.6.9c-1.9 3.2-2 6.2-.9 9 .5 1.2 1.3 2.4 2.2 3.6 3 3.7 6.9 6.4 10.8 9.1 2.9 2.1 5.9 4.1 8.7 6.4 1.7 1.4 2.9 3.1 3.6 5 .3.9.5 1.9.6 2.9.3.1.5.1.8.2.1-.1.1-.2.2-.3v-.1c0-.2 0-.3.1-.5 0 .2 0 .3.1.5v.1c0 .1.1.2.2.3.3-.1.5-.1.8-.2 0 0 0-.1 0 0 .1-1 .3-2 .6-2.9.7-2 1.9-3.7 3.6-5 2.8-2.3 5.7-4.4 8.7-6.4 3.7-2.7 7.6-5.4 10.6-9.1zm38.5-16.7c-.4-.7-.7-1.4-1.6-1.3h-.4c-1 .1-1.3.5-1.7 1.7-.1.4-.4.7-.6 1.1-.4.7-.8 1.3-1.1 2-.1.3 0 .6 0 .9.4-.8.7-1.6 1.1-2.3.3-.6.7-1.3 1.1-1.9.3-.4.7-.7 1.2-.9.4-.2.8-.1 1.2.2.1.1.3.3.4.5.6 1.1.9 2.1 1.1 3.2.3 1.8 0 3.6-.9 5.3-1 1.9-2.5 3.5-3.8 5.2-.1.1-.2.3-.3.4-.2.2-.4.5-.6.7-1 1.3-2.1 2.6-3.2 4 .2-3 .8-5.5 3-7.4.6-.5 1.3-1.1 1.9-1.7.7-.6.8-1.2.3-1.8 0-.1-.1-.1-.2-.2-.2.5-1.1 1.7-2.2 2.9-.7.8-1.5 1.7-2.2 2.3-.2.2-.4.4-.6.5-.3.3-.6.5-.8.6 0-.3-.1-.5-.1-.8-.1-.3-.1-.7-.2-1h-.2c-.1.2-.2.3-.3.5 0 .1-.1.1-.1.2h-.2v-1.7h-.1c-.1.4-.2.9-.2 1.3-.1.5-.2 1.1-.3 1.7.5-.4.9-.7 1.2-.9.1 0 .1.1.2.1-.2.6-.5 1.2-.7 1.8.1.1.1.2.2.2.6-.4 1.3-.7 1.9-1.1-.1.2-.1.4-.2.6-.4 1.4-.8 2.7-.6 4.1.1.7.3 1.4.7 2.1.6-2.9 2.8-4.7 4.4-6.9 1.1-1.6 2.4-3 3.4-4.6 1.6-3.1 1.8-6.4.1-9.6z"></path>  <path d="M127.6 25.4c.9.7 2.4.7 3.1-.2.5-.6 1-.5 1.5-.3 2.8.9 3 3.1 2.7 5.6-.1.6-.8 1.2-1.3 1.8-.1-.1-.2-.1-.2-.2.5-2.4-.5-5.9-1.9-6.7 1.7 2.2 2 4.9 1.2 6.9-.2.5-.4.9-.7 1.2-.2.3-.5.5-.7.7-.4-.7-.9-1.3-1.1-2.1-.2-.7-.2-1.5-.3-2.2-.1 0-.2 0-.4-.1-.1.4-.3.7-.3 1.1-.1 1.3.6 2.2 1.3 3.2.1.2.2.3.3.4.5.6.7.6 1.4-.2.2-.2.3-.5.5-.7.3-.3.7-.4 1-.7.5-.3 1.1-.5 1.4-.9 1.9-2.7.8-6.5-2.2-7.8-.1-.1-.3-.1-.4-.2-.3-.1-.7-.2-1-.2-.3 0-.5.1-.8.3l-.2.2c-.5.6-1 .6-1.6.4h-.1c-.1 0-.1 0-.2-.1-.1 0-.1-.1-.2-.1 0 0-.1 0-.1-.1-.5-.3-.8-.7-1-1.2-.1-.2-.2-.5-.2-.7-.2-.6-.3-1.1-.5-1.7v.1c-.5 1.7 0 3.7 1 4.5zm1.5 8.9c-.1-.5-.3-1-.5-1.5-.6-1.2-1.5-1.9-2.8-2.1.3-1.4 0-2.7-.4-3.9-.2-.6-.4-1.2-.5-1.8l-.3-1.5c-.1.2-.2.4-.3.5-.2.7.1 1.3.4 1.9.7 1.9 1.1 3.7-.3 5.7.3 0 .6.1.7 0 .7-.5 1.2-.6 1.8-.3.2.1.4.3.6.5.6.6 1 1.3 1.2 2.1.1.4.1.9.1 1.4-.1.8-.9 2.2-1.5 2.4-1 .2-1.5-.5-1.8-1.3 0 0-.1-.1-.2-.1-.1.1-.3.1-.4.2.3.5.4 1.1.8 1.5.5.5.8 1 .4 1.6-.4.7-.9 1.4-1.4 2-.5.6-.8 1.2-.6 1.9h-.3c.1.2.2.5.2.8 0-.1.1-.2.1-.3 0 .1.1.2.1.3.1-.3.1-.5.2-.8.2-.4.4-.8.7-1.2.8-1.1 1.7-2.1 1.7-3.5v-.2s.1 0 .1-.1c1-.4 1.8-1.4 2.1-2.3.1-.2.1-.5.1-.7.2-.4.1-.8 0-1.2zM186 12.4c.2 1 .6 2.3.6 3.6 0 1.3-.5 2.6-.7 3.7 1.5-1.4 1.5-6.4.1-7.3zm-20.9-3.5c-.2.9 0 1.7.8 2.3-1.3-2.4.1-3.6 1.7-4.7.1-.1.2-.2.4-.2.2-.1.3-.2.5-.3-.1 0-.2 0-.4.1-.4.1-.7.2-1 .4-1 .3-1.7 1.3-2 2.4zm4.5-1.1c.7.7.9.2 1.1-.4.5-.1.9-.2 1.4-.4 0-.1 0-.2-.1-.3-.9.3-2.1-.2-2.4 1.1z"></path></svg>