<svg xmlns="http://www.w3.org/2000/svg" xml:space="preserve" viewBox="0 0 57.6 1015.4">  <style>    .st0{fill:#a9c1a3}.st1{fill:#af4c54}.st2{fill:#febd64}  </style>  <path d="M56.6 22.7c.3-.1.2-.4-.1-.5-1.9-.2-2.8-3.4-3.5-4.9-.6-1.2-1.1-2.7-2.2-3.6-1.4-1.1-3.6-1.2-5-.2 0 0-.1 0-.1.1-.2 0-.4.1-.5.4-.1.2-.2.4-.2.6l-.1.1c-.1.1 0 .2 0 .3-.5 2.3.6 5.2 2.4 6.7 2.8 2.5 6 2 9.3 1zm-22.3-6.6c2.7-1.9 3.4-5.4 2-8.3v-.1c-.1-.3-.6-.1-.6.2 0 1 0 1.9-.1 2.9s-.5 1.9-.9 2.8c-.1.2 0 .4.1.5-.3.5-.6 1.1-.9 1.6-.1.3.2.6.4.4zm-6.8 15.4c-2.3-7.2-8.9-11.3-14.1-16.1-.3-.2-.6-.2-.8-.1-1.4-1.9-3.3-3.5-3.9-5.8-1-4.2 1.4-7.8 5.9-7.6.6 0 .7-.9.1-1-.4-.1-.8-.2-1.1-.2-.1-.2-.2-.3-.4-.3-1.1-.1-2.1-.1-3.2.2-.2 0-.3.1-.3.2-1.1.4-2.2 1-3 2.1-1.5 2-2 4.6-1.6 7.1.9 5.1 5.4 9.3 9.9 12.1 0 .1 0 .3.2.4l.1.1c2.9 2.4 7.6 3.3 9.8 6.6.1.1.2.2.3.2.5.8 1.1 1.6 1.6 2.4.2.1.6 0 .5-.3zm2 6.3c.1 0 .4 0 .5-.1 1.6-1 1.8-2.3 2.2-4 .3-1.3.6-2.5 1.4-3.6.7-1 2.6-2.5 3.9-1.9h.1c.4.3.8.7 1.1 1 .1.1.4 0 .4-.2-.2-3.3-4.6-3.1-6.7-1.7-1.2.8-2.1 2-2.5 3.4-.6 2.1-1 4.7-.9 6.8 0 .3.3.4.5.3zm-1.1.8c.9-1.2-.2-3-.7-4.2-.1-.2-.3-.3-.4-.3l-.1-.1c-.1-.1-.2-.1-.3-.1-.7-.5-1.5-.9-2.4-.4-.5.3-.9.9-1.1 1.5-.8-.8-1.7-1.5-2.7-2.1-.4-.2-1.1.1-1 .6.1 1.4 1 2.8 1.8 3.8.8 1.2 1.4 2.5 3 2.8 1.3.3 3.1-.4 3.9-1.5z" class="st0"></path>  <path d="M41.7 56.1c-.8 1.3-2.7 1.5-3.6 2.7.1-1.2-.3-2.5-1.1-3.5 0 .8-.5 1.6-.8 2.3-.4.8-.5 1.7-.6 2.6-.1.8-.1 1.6.1 2.4.2.8.7 1.5 1.4 1.9.8.4 1.8.4 2.7.1 2.2-.7 4-2.6 4.5-4.9-1.4.9-3.1 1.2-4.7 1 .2 0 .6-.3.7-.5.2-.3.3-.6.5-.9.3-.7.5-1.4.6-2.1.2-.3.3-.7.3-1.1z" class="st1"></path>  <path d="M40 61c1.1-1.3 1.5-3 1.7-4.7l-3.6 2.4c-.1-.8-.2-1.5-.2-2.3 0-.8.2-1.5.5-2.2.6-1.1 1.7-1.8 2.8-2.5 1-.7 2.1-1.5 2.4-2.8.9 2.2 1.2 4.7.8 7-.1.6-.2 1.3-.3 1.9-.1.5-.1.9-.1 1.4-.1.4-.3.6-.7.8-.5.3-1 .5-1.6.7-.3.1-.6.2-.9.2-.2 0-.3 0-.5.1H40z" class="st2"></path>  <path d="M28.3 80.8c1.9-3.8 3.1-8.1 3.9-12.3 0 0 .1 0 .1-.1.8-.7 1.6-1.5 2.4-2.2.7-.6 1.3-1.1 1.7-1.9.1-.3-.2-.6-.4-.3-1.1 1.1-2.4 2-3.6 3 .1-.8.2-1.6.3-2.3.6-4.4.8-9.3-.1-13.8.1-.1.2-.3.2-.5-.8-4-1.8-8-2.9-11.9-1.1-3.9-2.5-8-1.6-12.1 1.6-8.1 8.9-12 16.6-11.5.3 0 .3-.4.1-.5-7-2-14.5 2.6-17 9.2-1.5 3.8-1.1 7.8-.1 11.7 1.1 4.2 2.3 8.4 3.2 12.7-.1.1-.1.2-.1.3.3 1.6.5 3.3.7 4.9-1.8-2.6-5.3-3.9-8.6-2.9-4.1 1.2-5.7 6.3-2.9 9.7 2.2 2.7 8.2 2.2 7.8-2.1-.2-2.5-2.7-3-4.2-1.9 0 .1-.1.2-.1.3-.3.4-.4.7-.5 1.1.4-.7.9-1.2 1.7-1.3 2-.2 3 2.2 1.9 3.7-.4.6-1.2 1-2.1 1.1-.4.2-1 .1-1.9-.1-1.3-.4-2.1-1.5-2.5-2.6-1-2.6.2-5.5 2.8-6.5 3.9-1.5 8.3 1 8.9 5.1.2 2.6.1 5.3-.2 8-.7 5.5-2.6 10.6-3.9 16 0 .1.3.2.4 0zm-27.4 63c-.3.1-.2.4.1.5 1.9.2 2.8 3.4 3.5 4.9.6 1.2 1.1 2.7 2.2 3.6 1.4 1.1 3.6 1.2 5 .2 0 0 .1 0 .1-.1.2 0 .4-.1.5-.4.1-.2.2-.4.2-.6l.1-.1c.1-.1 0-.2 0-.3.5-2.3-.6-5.2-2.4-6.7-2.7-2.5-6-2-9.3-1zm22.3 6.6c-2.7 1.9-3.4 5.4-2 8.3v.1c.1.3.6.1.6-.2 0-1 0-1.9.1-2.9s.5-1.9.9-2.8c.1-.2 0-.4-.1-.5.3-.5.6-1.1.9-1.6.2-.3-.1-.6-.4-.4zm6.9-15.4c2.3 7.2 8.9 11.3 14.1 16.1.3.2.6.2.8.1 1.4 1.9 3.3 3.5 3.9 5.8 1 4.2-1.4 7.8-5.9 7.6-.6 0-.7.9-.1 1 .4.1.8.2 1.1.2.1.2.2.3.4.3 1.1.1 2.1.1 3.2-.2.2 0 .3-.1.3-.2 1.1-.4 2.2-1 3-2.1 1.5-2 2-4.6 1.6-7.1-.9-5.1-5.4-9.3-9.9-12.1 0-.1 0-.3-.2-.4l-.1-.1c-2.9-2.4-7.6-3.3-9.8-6.6-.1-.1-.2-.2-.3-.2-.5-.8-1.1-1.6-1.6-2.4-.2-.1-.6 0-.5.3zm-2.1-6.3c-.1 0-.4 0-.5.1-1.6 1-1.8 2.3-2.2 4-.3 1.3-.6 2.5-1.4 3.6-.7 1-2.6 2.5-3.9 1.9h-.1c-.4-.3-.8-.7-1.1-1-.1-.1-.4 0-.4.2.2 3.3 4.6 3.1 6.7 1.7 1.2-.8 2.1-2 2.5-3.4.6-2.1 1-4.7.9-6.8.1-.3-.2-.4-.5-.3zm1.2-.8c-.9 1.2.2 3 .7 4.2.1.2.3.3.4.3l.1.1c.1.1.2.1.3.1.7.5 1.5.9 2.4.4.5-.3.9-.9 1.1-1.5.8.8 1.7 1.5 2.7 2.1.4.2 1.1-.1 1-.6-.1-1.4-1-2.8-1.8-3.8-.8-1.2-1.4-2.5-3-2.8-1.4-.3-3.1.4-3.9 1.5z" class="st0"></path>  <path d="M15.9 110.4c.8-1.3 2.7-1.5 3.6-2.7-.1 1.2.3 2.5 1.1 3.5 0-.8.5-1.6.8-2.3.4-.8.5-1.7.6-2.6.1-.8.1-1.6-.1-2.4-.2-.8-.7-1.5-1.4-1.9-.8-.4-1.8-.4-2.7-.1-2.2.7-4 2.6-4.5 4.9 1.4-.9 3.1-1.2 4.7-1-.2 0-.6.3-.7.5-.2.3-.3.6-.5.9-.3.7-.5 1.4-.6 2.1-.3.3-.3.7-.3 1.1z" class="st1"></path>  <path d="M17.6 105.5c-1.1 1.3-1.5 3-1.7 4.7l3.6-2.4c.1.8.2 1.5.2 2.3 0 .8-.2 1.5-.5 2.2-.6 1.1-1.7 1.8-2.8 2.5-1 .7-2.1 1.5-2.4 2.8-.9-2.2-1.2-4.7-.8-7 .1-.6.2-1.3.3-1.9.1-.5.1-.9.1-1.4.1-.4.3-.6.7-.8.5-.3 1-.5 1.6-.7.3-.1.6-.2.9-.2.2 0 .3 0 .5-.1h.3z" class="st2"></path>  <path d="M29.3 85.7c-1.9 3.8-3.1 8.1-3.9 12.3 0 0-.1 0-.1.1-.8.7-1.6 1.5-2.4 2.2-.7.6-1.3 1.1-1.7 1.9-.1.3.2.6.4.3 1.1-1.1 2.4-2 3.6-3-.1.8-.2 1.6-.3 2.3-.6 4.4-.8 9.3.1 13.8-.1.1-.2.3-.2.5.8 4 1.8 8 2.9 11.9 1.1 3.9 2.5 8 1.6 12.1-1.6 8.1-8.9 12-16.6 11.5-.3 0-.3.4-.1.5 7 2 14.5-2.6 17-9.2 1.5-3.8 1.1-7.8.1-11.7-1.1-4.2-2.3-8.4-3.2-12.7.1-.1.1-.2.1-.3-.3-1.6-.5-3.3-.7-4.9 1.8 2.6 5.3 3.9 8.6 2.9 4.1-1.2 5.7-6.3 2.9-9.7-2.2-2.7-8.2-2.2-7.8 2.1.2 2.5 2.7 3 4.2 1.9 0-.1.1-.2.1-.3.3-.4.4-.7.5-1.1-.4.7-.9 1.2-1.7 1.3-2 .2-3-2.2-1.9-3.7.4-.6 1.2-1 2.1-1.1.4-.2 1-.1 1.9.1 1.3.4 2.1 1.5 2.5 2.6 1 2.6-.2 5.5-2.8 6.5-3.9 1.5-8.3-1-8.9-5.1-.2-2.6-.1-5.3.2-8 .7-5.5 2.6-10.6 3.9-16 0-.1-.3-.2-.4 0zm27.3 106.6c.3-.1.2-.4-.1-.5-1.9-.2-2.8-3.4-3.5-4.9-.6-1.2-1.1-2.7-2.2-3.6-1.4-1.1-3.6-1.2-5-.2 0 0-.1 0-.1.1-.2 0-.4.1-.5.4-.1.2-.2.4-.2.6l-.1.1c-.1.1 0 .2 0 .3-.5 2.3.6 5.2 2.4 6.7 2.8 2.5 6 2.1 9.3 1zm-22.3-6.5c2.7-1.9 3.4-5.4 2-8.3v-.1c-.1-.3-.6-.1-.6.2 0 1 0 1.9-.1 2.9s-.5 1.9-.9 2.8c-.1.2 0 .4.1.5-.3.5-.6 1.1-.9 1.6-.1.2.2.6.4.4zm-6.8 15.4c-2.3-7.2-8.9-11.3-14.1-16.1-.3-.2-.6-.2-.8-.1-1.4-1.9-3.3-3.5-3.9-5.8-1-4.2 1.4-7.8 5.9-7.6.6 0 .7-.9.1-1-.4-.1-.8-.2-1.1-.2-.1-.2-.2-.3-.4-.3-1.1-.1-2.1-.1-3.2.2-.2 0-.3.1-.3.2-1.1.4-2.2 1-3 2.1-1.5 2-2 4.6-1.6 7.1.9 5.1 5.4 9.3 9.9 12.1 0 .1 0 .3.2.4l.1.1c2.9 2.4 7.6 3.3 9.8 6.6.1.1.2.2.3.2.5.8 1.1 1.6 1.6 2.4.2 0 .6-.1.5-.3zm2 6.3c.1 0 .4 0 .5-.1 1.6-1 1.8-2.3 2.2-4 .3-1.3.6-2.5 1.4-3.6.7-1 2.6-2.5 3.9-1.9h.1c.4.3.8.7 1.1 1 .1.1.4 0 .4-.2-.2-3.3-4.6-3.1-6.7-1.7-1.2.8-2.1 2-2.5 3.4-.6 2.1-1 4.7-.9 6.8 0 .2.3.4.5.3zm-1.1.8c.9-1.2-.2-3-.7-4.2-.1-.2-.3-.3-.4-.3l-.1-.1c-.1-.1-.2-.1-.3-.1-.7-.5-1.5-.9-2.4-.4-.5.3-.9.9-1.1 1.5-.8-.8-1.7-1.5-2.7-2.1-.4-.2-1.1.1-1 .6.1 1.4 1 2.8 1.8 3.8.8 1.2 1.4 2.5 3 2.8 1.3.2 3.1-.4 3.9-1.5z" class="st0"></path>  <path d="M41.7 225.7c-.8 1.3-2.7 1.5-3.6 2.7.1-1.2-.3-2.5-1.1-3.5 0 .8-.5 1.6-.8 2.3-.4.8-.5 1.7-.6 2.6-.1.8-.1 1.6.1 2.4.2.8.7 1.5 1.4 1.9.8.4 1.8.4 2.7.1 2.2-.7 4-2.6 4.5-4.9-1.4.9-3.1 1.2-4.7 1 .2 0 .6-.3.7-.5.2-.3.3-.6.5-.9.3-.7.5-1.4.6-2.1.2-.2.3-.6.3-1.1z" class="st1"></path>  <path d="M40 230.7c1.1-1.3 1.5-3 1.7-4.7l-3.6 2.4c-.1-.8-.2-1.5-.2-2.3 0-.8.2-1.5.5-2.2.6-1.1 1.7-1.8 2.8-2.5 1-.7 2.1-1.5 2.4-2.8.9 2.2 1.2 4.7.8 7-.1.6-.2 1.3-.3 1.9-.1.5-.1.9-.1 1.4-.1.4-.3.6-.7.8-.5.3-1 .5-1.6.7-.3.1-.6.2-.9.2-.2 0-.3 0-.5.1.1 0-.3-.1-.3 0z" class="st2"></path>  <path d="M28.3 250.5c1.9-3.8 3.1-8.1 3.9-12.3 0 0 .1 0 .1-.1.8-.7 1.6-1.5 2.4-2.2.7-.6 1.3-1.1 1.7-1.9.1-.3-.2-.6-.4-.3-1.1 1.1-2.4 2-3.6 3 .1-.8.2-1.6.3-2.3.6-4.4.8-9.3-.1-13.8.1-.1.2-.3.2-.5-.8-4-1.8-8-2.9-11.9-1.1-3.9-2.5-8-1.6-12.1 1.6-8.1 8.9-12 16.6-11.5.3 0 .3-.4.1-.5-7-2-14.5 2.6-17 9.2-1.5 3.8-1.1 7.8-.1 11.7 1.1 4.2 2.3 8.4 3.2 12.7-.1.1-.1.2-.1.3.3 1.6.5 3.3.7 4.9-1.8-2.6-5.3-3.9-8.6-2.9-4.1 1.2-5.7 6.3-2.9 9.7 2.2 2.7 8.2 2.2 7.8-2.1-.2-2.5-2.7-3-4.2-1.9 0 .1-.1.2-.1.3-.3.4-.4.7-.5 1.1.4-.7.9-1.2 1.7-1.3 2-.2 3 2.2 1.9 3.7-.4.6-1.2 1-2.1 1.1-.4.2-1 .1-1.9-.1-1.3-.4-2.1-1.5-2.5-2.6-1-2.6.2-5.5 2.8-6.5 3.9-1.5 8.3 1 8.9 5.1.2 2.6.1 5.3-.2 8-.7 5.5-2.6 10.6-3.9 16 0 0 .3.2.4 0zm-27.4 63c-.3.1-.2.4.1.5 1.9.2 2.8 3.4 3.5 4.9.6 1.2 1.1 2.7 2.2 3.6 1.4 1.1 3.6 1.2 5 .2 0 0 .1 0 .1-.1.2 0 .4-.1.5-.4.1-.2.2-.4.2-.6l.1-.1c.1-.1 0-.2 0-.3.5-2.3-.6-5.2-2.4-6.7-2.7-2.5-6-2-9.3-1zm22.3 6.5c-2.7 1.9-3.4 5.4-2 8.3v.1c.1.3.6.1.6-.2 0-1 0-1.9.1-2.9s.5-1.9.9-2.8c.1-.2 0-.4-.1-.5.3-.5.6-1.1.9-1.6.2-.2-.1-.5-.4-.4zm6.9-15.4c2.3 7.2 8.9 11.3 14.1 16.1.3.2.6.2.8.1 1.4 1.9 3.3 3.5 3.9 5.8 1 4.2-1.4 7.8-5.9 7.6-.6 0-.7.9-.1 1 .4.1.8.2 1.1.2.1.2.2.3.4.3 1.1.1 2.1.1 3.2-.2.2 0 .3-.1.3-.2 1.1-.4 2.2-1 3-2.1 1.5-2 2-4.6 1.6-7.1-.9-5.1-5.4-9.3-9.9-12.1 0-.1 0-.3-.2-.4l-.1-.1c-2.9-2.4-7.6-3.3-9.8-6.6-.1-.1-.2-.2-.3-.2-.5-.8-1.1-1.6-1.6-2.4-.2 0-.6.1-.5.3zm-2.1-6.2c-.1 0-.4 0-.5.1-1.6 1-1.8 2.3-2.2 4-.3 1.3-.6 2.5-1.4 3.6-.7 1-2.6 2.5-3.9 1.9h-.1c-.4-.3-.8-.7-1.1-1-.1-.1-.4 0-.4.2.2 3.3 4.6 3.1 6.7 1.7 1.2-.8 2.1-2 2.5-3.4.6-2.1 1-4.7.9-6.8.1-.3-.2-.5-.5-.3zm1.2-.9c-.9 1.2.2 3 .7 4.2.1.2.3.3.4.3l.1.1c.1.1.2.1.3.1.7.5 1.5.9 2.4.4.5-.3.9-.9 1.1-1.5.8.8 1.7 1.5 2.7 2.1.4.2 1.1-.1 1-.6-.1-1.4-1-2.8-1.8-3.8-.8-1.2-1.4-2.5-3-2.8-1.4-.2-3.1.5-3.9 1.5z" class="st0"></path>  <path d="M15.9 280.1c.8-1.3 2.7-1.5 3.6-2.7-.1 1.2.3 2.5 1.1 3.5 0-.8.5-1.6.8-2.3.4-.8.5-1.7.6-2.6.1-.8.1-1.6-.1-2.4-.2-.8-.7-1.5-1.4-1.9-.8-.4-1.8-.4-2.7-.1-2.2.7-4 2.6-4.5 4.9 1.4-.9 3.1-1.2 4.7-1-.2 0-.6.3-.7.5-.2.3-.3.6-.5.9-.3.7-.5 1.4-.6 2.1-.3.2-.3.7-.3 1.1z" class="st1"></path>  <path d="M17.6 275.1c-1.1 1.3-1.5 3-1.7 4.7l3.6-2.4c.1.8.2 1.5.2 2.3 0 .8-.2 1.5-.5 2.2-.6 1.1-1.7 1.8-2.8 2.5-1 .7-2.1 1.5-2.4 2.8-.9-2.2-1.2-4.7-.8-7 .1-.6.2-1.3.3-1.9.1-.5.1-.9.1-1.4.1-.4.3-.6.7-.8.5-.3 1-.5 1.6-.7.3-.1.6-.2.9-.2.2 0 .3 0 .5-.1-.1.1.3.1.3 0z" class="st2"></path>  <path d="M29.3 255.3c-1.9 3.8-3.1 8.1-3.9 12.3 0 0-.1 0-.1.1-.8.7-1.6 1.5-2.4 2.2-.7.6-1.3 1.1-1.7 1.9-.1.3.2.6.4.3 1.1-1.1 2.4-2 3.6-3-.1.8-.2 1.6-.3 2.3-.6 4.4-.8 9.3.1 13.8-.1.1-.2.3-.2.5.8 4 1.8 8 2.9 11.9 1.1 3.9 2.5 8 1.6 12.1-1.6 8.1-8.9 12-16.6 11.5-.3 0-.3.4-.1.5 7 2 14.5-2.6 17-9.2 1.5-3.8 1.1-7.8.1-11.7-1.1-4.2-2.3-8.4-3.2-12.7.1-.1.1-.2.1-.3-.3-1.6-.5-3.3-.7-4.9 1.8 2.6 5.3 3.9 8.6 2.9 4.1-1.2 5.7-6.3 2.9-9.7-2.2-2.7-8.2-2.2-7.8 2.1.2 2.5 2.7 3 4.2 1.9 0-.1.1-.2.1-.3.3-.4.4-.7.5-1.1-.4.7-.9 1.2-1.7 1.3-2 .2-3-2.2-1.9-3.7.4-.6 1.2-1 2.1-1.1.4-.2 1-.1 1.9.1 1.3.4 2.1 1.5 2.5 2.6 1 2.6-.2 5.5-2.8 6.5-3.9 1.5-8.3-1-8.9-5.1-.2-2.6-.1-5.3.2-8 .7-5.5 2.6-10.6 3.9-16 0 0-.3-.2-.4 0zm27.3 106.9c.3-.1.2-.4-.1-.5-1.9-.2-2.8-3.4-3.5-4.9-.6-1.2-1.1-2.7-2.2-3.6-1.4-1.1-3.6-1.2-5-.2 0 0-.1 0-.1.1-.2 0-.4.1-.5.4-.1.2-.2.4-.2.6l-.1.1c-.1.1 0 .2 0 .3-.5 2.3.6 5.2 2.4 6.7 2.8 2.5 6 2 9.3 1zm-22.3-6.5c2.7-1.9 3.4-5.4 2-8.3v-.1c-.1-.3-.6-.1-.6.2 0 1 0 1.9-.1 2.9s-.5 1.9-.9 2.8c-.1.2 0 .4.1.5-.3.5-.6 1.1-.9 1.6-.1.2.2.5.4.4zM27.5 371c-2.3-7.2-8.9-11.3-14.1-16.1-.3-.2-.6-.2-.8-.1-1.4-1.9-3.3-3.5-3.9-5.8-1-4.2 1.4-7.8 5.9-7.6.6 0 .7-.9.1-1-.4-.1-.8-.2-1.1-.2-.1-.2-.2-.3-.4-.3-1.1-.1-2.1-.1-3.2.2-.2 0-.3.1-.3.2-1.1.4-2.2 1-3 2.1-1.5 2-2 4.6-1.6 7.1.9 5.1 5.4 9.3 9.9 12.1 0 .1 0 .3.2.4l.1.1c2.9 2.4 7.6 3.3 9.8 6.6.1.1.2.2.3.2.5.8 1.1 1.6 1.6 2.4.2.1.6 0 .5-.3zm2 6.3c.1 0 .4 0 .5-.1 1.6-1 1.8-2.3 2.2-4 .3-1.3.6-2.5 1.4-3.6.7-1 2.6-2.5 3.9-1.9h.1c.4.3.8.7 1.1 1 .1.1.4 0 .4-.2-.2-3.3-4.6-3.1-6.7-1.7-1.2.8-2.1 2-2.5 3.4-.6 2.1-1 4.7-.9 6.8 0 .3.3.4.5.3zm-1.1.9c.9-1.2-.2-3-.7-4.2-.1-.2-.3-.3-.4-.3l-.1-.1c-.1-.1-.2-.1-.3-.1-.7-.5-1.5-.9-2.4-.4-.5.3-.9.9-1.1 1.5-.8-.8-1.7-1.5-2.7-2.1-.4-.2-1.1.1-1 .6.1 1.4 1 2.8 1.8 3.8.8 1.2 1.4 2.5 3 2.8 1.3.2 3.1-.5 3.9-1.5z" class="st0"></path>  <path d="M41.7 395.6c-.8 1.3-2.7 1.5-3.6 2.7.1-1.2-.3-2.5-1.1-3.5 0 .8-.5 1.6-.8 2.3-.4.8-.5 1.7-.6 2.6-.1.8-.1 1.6.1 2.4.2.8.7 1.5 1.4 1.9.8.4 1.8.4 2.7.1 2.2-.7 4-2.6 4.5-4.9-1.4.9-3.1 1.2-4.7 1 .2 0 .6-.3.7-.5.2-.3.3-.6.5-.9.3-.7.5-1.4.6-2.1.2-.3.3-.7.3-1.1z" class="st1"></path>  <path d="M40 400.5c1.1-1.3 1.5-3 1.7-4.7l-3.6 2.4c-.1-.8-.2-1.5-.2-2.3 0-.8.2-1.5.5-2.2.6-1.1 1.7-1.8 2.8-2.5 1-.7 2.1-1.5 2.4-2.8.9 2.2 1.2 4.7.8 7-.1.6-.2 1.3-.3 1.9-.1.5-.1.9-.1 1.4-.1.4-.3.6-.7.8-.5.3-1 .5-1.6.7-.3.1-.6.2-.9.2-.2 0-.3 0-.5.1H40z" class="st2"></path>  <path d="M28.3 420.3c1.9-3.8 3.1-8.1 3.9-12.3 0 0 .1 0 .1-.1.8-.7 1.6-1.5 2.4-2.2.7-.6 1.3-1.1 1.7-1.9.1-.3-.2-.6-.4-.3-1.1 1.1-2.4 2-3.6 3 .1-.8.2-1.6.3-2.3.6-4.4.8-9.3-.1-13.8.1-.1.2-.3.2-.5-.8-4-1.8-8-2.9-11.9-1.1-3.9-2.5-8-1.6-12.1 1.6-8.1 8.9-12 16.6-11.5.3 0 .3-.4.1-.5-7-2-14.5 2.6-17 9.2-1.5 3.8-1.1 7.8-.1 11.7 1.1 4.2 2.3 8.4 3.2 12.7-.1.1-.1.2-.1.3.3 1.6.5 3.3.7 4.9-1.8-2.6-5.3-3.9-8.6-2.9-4.1 1.2-5.7 6.3-2.9 9.7 2.2 2.7 8.2 2.2 7.8-2.1-.2-2.5-2.7-3-4.2-1.9 0 .1-.1.2-.1.3-.3.4-.4.7-.5 1.1.4-.7.9-1.2 1.7-1.3 2-.2 3 2.2 1.9 3.7-.4.6-1.2 1-2.1 1.1-.4.2-1 .1-1.9-.1-1.3-.4-2.1-1.5-2.5-2.6-1-2.6.2-5.5 2.8-6.5 3.9-1.5 8.3 1 8.9 5.1.2 2.6.1 5.3-.2 8-.7 5.5-2.6 10.6-3.9 16 0 .1.3.3.4 0zM.9 483.4c-.3.1-.2.4.1.5 1.9.2 2.8 3.4 3.5 4.9.6 1.2 1.1 2.7 2.2 3.6 1.4 1.1 3.6 1.2 5 .2 0 0 .1 0 .1-.1.2 0 .4-.1.5-.4.1-.2.2-.4.2-.6l.1-.1c.1-.1 0-.2 0-.3.5-2.3-.6-5.2-2.4-6.7-2.7-2.6-6-2.1-9.3-1zm22.3 6.5c-2.7 1.9-3.4 5.4-2 8.3v.1c.1.3.6.1.6-.2 0-1 0-1.9.1-2.9s.5-1.9.9-2.8c.1-.2 0-.4-.1-.5.3-.5.6-1.1.9-1.6.2-.2-.1-.6-.4-.4zm6.9-15.4c2.3 7.2 8.9 11.3 14.1 16.1.3.2.6.2.8.1 1.4 1.9 3.3 3.5 3.9 5.8 1 4.2-1.4 7.8-5.9 7.6-.6 0-.7.9-.1 1 .4.1.8.2 1.1.2.1.2.2.3.4.3 1.1.1 2.1.1 3.2-.2.2 0 .3-.1.3-.2 1.1-.4 2.2-1 3-2.1 1.5-2 2-4.6 1.6-7.1-.9-5.1-5.4-9.3-9.9-12.1 0-.1 0-.3-.2-.4l-.1-.1c-2.9-2.4-7.6-3.3-9.8-6.6-.1-.1-.2-.2-.3-.2-.5-.8-1.1-1.6-1.6-2.4-.2 0-.6.1-.5.3zm-2.1-6.3c-.1 0-.4 0-.5.1-1.6 1-1.8 2.3-2.2 4-.3 1.3-.6 2.5-1.4 3.6-.7 1-2.6 2.5-3.9 1.9h-.1c-.4-.3-.8-.7-1.1-1-.1-.1-.4 0-.4.2.2 3.3 4.6 3.1 6.7 1.7 1.2-.8 2.1-2 2.5-3.4.6-2.1 1-4.7.9-6.8.1-.2-.2-.4-.5-.3zm1.2-.8c-.9 1.2.2 3 .7 4.2.1.2.3.3.4.3l.1.1c.1.1.2.1.3.1.7.5 1.5.9 2.4.4.5-.3.9-.9 1.1-1.5.8.8 1.7 1.5 2.7 2.1.4.2 1.1-.1 1-.6-.1-1.4-1-2.8-1.8-3.8-.8-1.2-1.4-2.5-3-2.8-1.4-.3-3.1.4-3.9 1.5z" class="st0"></path>  <path d="M15.9 450c.8-1.3 2.7-1.5 3.6-2.7-.1 1.2.3 2.5 1.1 3.5 0-.8.5-1.6.8-2.3.4-.8.5-1.7.6-2.6.1-.8.1-1.6-.1-2.4-.2-.8-.7-1.5-1.4-1.9-.8-.4-1.8-.4-2.7-.1-2.2.7-4 2.6-4.5 4.9 1.4-.9 3.1-1.2 4.7-1-.2 0-.6.3-.7.5-.2.3-.3.6-.5.9-.3.7-.5 1.4-.6 2.1-.3.2-.3.6-.3 1.1z" class="st1"></path>  <path d="M17.6 445c-1.1 1.3-1.5 3-1.7 4.7l3.6-2.4c.1.8.2 1.5.2 2.3 0 .8-.2 1.5-.5 2.2-.6 1.1-1.7 1.8-2.8 2.5-1 .7-2.1 1.5-2.4 2.8-.9-2.2-1.2-4.7-.8-7 .1-.6.2-1.3.3-1.9.1-.5.1-.9.1-1.4.1-.4.3-.6.7-.8.5-.3 1-.5 1.6-.7.3-.1.6-.2.9-.2.2 0 .3 0 .5-.1h.3z" class="st2"></path>  <path d="M29.3 425.2c-1.9 3.8-3.1 8.1-3.9 12.3 0 0-.1 0-.1.1-.8.7-1.6 1.5-2.4 2.2-.7.6-1.3 1.1-1.7 1.9-.1.3.2.6.4.3 1.1-1.1 2.4-2 3.6-3-.1.8-.2 1.6-.3 2.3-.6 4.4-.8 9.3.1 13.8-.1.1-.2.3-.2.5.8 4 1.8 8 2.9 11.9 1.1 3.9 2.5 8 1.6 12.1-1.6 8.1-8.9 12-16.6 11.5-.3 0-.3.4-.1.5 7 2 14.5-2.6 17-9.2 1.5-3.8 1.1-7.8.1-11.7-1.1-4.2-2.3-8.4-3.2-12.7.1-.1.1-.2.1-.3-.3-1.6-.5-3.3-.7-4.9 1.8 2.6 5.3 3.9 8.6 2.9 4.1-1.2 5.7-6.3 2.9-9.7-2.2-2.7-8.2-2.2-7.8 2.1.2 2.5 2.7 3 4.2 1.9 0-.1.1-.2.1-.3.3-.4.4-.7.5-1.1-.4.7-.9 1.2-1.7 1.3-2 .2-3-2.2-1.9-3.7.4-.6 1.2-1 2.1-1.1.4-.2 1-.1 1.9.1 1.3.4 2.1 1.5 2.5 2.6 1 2.6-.2 5.5-2.8 6.5-3.9 1.5-8.3-1-8.9-5.1-.2-2.6-.1-5.3.2-8 .7-5.5 2.6-10.6 3.9-16 0-.1-.3-.2-.4 0zM56.6 532c.3-.1.2-.4-.1-.5-1.9-.2-2.8-3.4-3.5-4.9-.6-1.2-1.1-2.7-2.2-3.6-1.4-1.1-3.6-1.2-5-.2 0 0-.1 0-.1.1-.2 0-.4.1-.5.4-.1.2-.2.4-.2.6l-.1.1c-.1.1 0 .2 0 .3-.5 2.3.6 5.2 2.4 6.7 2.8 2.5 6 2 9.3 1zm-22.3-6.6c2.7-1.9 3.4-5.4 2-8.3v-.1c-.1-.3-.6-.1-.6.2 0 1 0 1.9-.1 2.9s-.5 1.9-.9 2.8c-.1.2 0 .4.1.5-.3.5-.6 1.1-.9 1.6-.1.3.2.6.4.4zm-6.8 15.4c-2.3-7.2-8.9-11.3-14.1-16.1-.3-.2-.6-.2-.8-.1-1.4-1.9-3.3-3.5-3.9-5.8-1-4.2 1.4-7.8 5.9-7.6.6 0 .7-.9.1-1-.4-.1-.8-.2-1.1-.2-.1-.2-.2-.3-.4-.3-1.1-.1-2.1-.1-3.2.2-.2 0-.3.1-.3.2-1.1.4-2.2 1-3 2.1-1.5 2-2 4.6-1.6 7.1.9 5.1 5.4 9.3 9.9 12.1 0 .1 0 .3.2.4l.1.1c2.9 2.4 7.6 3.3 9.8 6.6.1.1.2.2.3.2.5.8 1.1 1.6 1.6 2.4.2.1.6 0 .5-.3zm2 6.3c.1 0 .4 0 .5-.1 1.6-1 1.8-2.3 2.2-4 .3-1.3.6-2.5 1.4-3.6.7-1 2.6-2.5 3.9-1.9h.1c.4.3.8.7 1.1 1 .1.1.4 0 .4-.2-.2-3.3-4.6-3.1-6.7-1.7-1.2.8-2.1 2-2.5 3.4-.6 2.1-1 4.7-.9 6.8 0 .3.3.4.5.3zm-1.1.8c.9-1.2-.2-3-.7-4.2-.1-.2-.3-.3-.4-.3l-.1-.1c-.1-.1-.2-.1-.3-.1-.7-.5-1.5-.9-2.4-.4-.5.3-.9.9-1.1 1.5-.8-.8-1.7-1.5-2.7-2.1-.4-.2-1.1.1-1 .6.1 1.4 1 2.8 1.8 3.8.8 1.2 1.4 2.5 3 2.8 1.3.3 3.1-.4 3.9-1.5z" class="st0"></path>  <path d="M41.7 565.4c-.8 1.3-2.7 1.5-3.6 2.7.1-1.2-.3-2.5-1.1-3.5 0 .8-.5 1.6-.8 2.3-.4.8-.5 1.7-.6 2.6-.1.8-.1 1.6.1 2.4.2.8.7 1.5 1.4 1.9.8.4 1.8.4 2.7.1 2.2-.7 4-2.6 4.5-4.9-1.4.9-3.1 1.2-4.7 1 .2 0 .6-.3.7-.5.2-.3.3-.6.5-.9.3-.7.5-1.4.6-2.1.2-.3.3-.7.3-1.1z" class="st1"></path>  <path d="M40 570.3c1.1-1.3 1.5-3 1.7-4.7l-3.6 2.4c-.1-.8-.2-1.5-.2-2.3 0-.8.2-1.5.5-2.2.6-1.1 1.7-1.8 2.8-2.5 1-.7 2.1-1.5 2.4-2.8.9 2.2 1.2 4.7.8 7-.1.6-.2 1.3-.3 1.9-.1.5-.1.9-.1 1.4-.1.4-.3.6-.7.8-.5.3-1 .5-1.6.7-.3.1-.6.2-.9.2-.2 0-.3 0-.5.1H40z" class="st2"></path>  <path d="M28.3 590.1c1.9-3.8 3.1-8.1 3.9-12.3 0 0 .1 0 .1-.1.8-.7 1.6-1.5 2.4-2.2.7-.6 1.3-1.1 1.7-1.9.1-.3-.2-.6-.4-.3-1.1 1.1-2.4 2-3.6 3 .1-.8.2-1.6.3-2.3.6-4.4.8-9.3-.1-13.8.1-.1.2-.3.2-.5-.8-4-1.8-8-2.9-11.9-1.1-3.9-2.5-8-1.6-12.1 1.6-8.1 8.9-12 16.6-11.5.3 0 .3-.4.1-.5-7-2-14.5 2.6-17 9.2-1.5 3.8-1.1 7.8-.1 11.7 1.1 4.2 2.3 8.4 3.2 12.7-.1.1-.1.2-.1.3.3 1.6.5 3.3.7 4.9-1.8-2.6-5.3-3.9-8.6-2.9-4.1 1.2-5.7 6.3-2.9 9.7 2.2 2.7 8.2 2.2 7.8-2.1-.2-2.5-2.7-3-4.2-1.9 0 .1-.1.2-.1.3-.3.4-.4.7-.5 1.1.4-.7.9-1.2 1.7-1.3 2-.2 3 2.2 1.9 3.7-.4.6-1.2 1-2.1 1.1-.4.2-1 .1-1.9-.1-1.3-.4-2.1-1.5-2.5-2.6-1-2.6.2-5.5 2.8-6.5 3.9-1.5 8.3 1 8.9 5.1.2 2.6.1 5.3-.2 8-.7 5.5-2.6 10.6-3.9 16 0 .1.3.3.4 0zM.9 653.2c-.3.1-.2.4.1.5 1.9.2 2.8 3.4 3.5 4.9.6 1.2 1.1 2.7 2.2 3.6 1.4 1.1 3.6 1.2 5 .2 0 0 .1 0 .1-.1.2 0 .4-.1.5-.4.1-.2.2-.4.2-.6l.1-.1c.1-.1 0-.2 0-.3.5-2.3-.6-5.2-2.4-6.7-2.7-2.6-6-2.1-9.3-1zm22.3 6.5c-2.7 1.9-3.4 5.4-2 8.3v.1c.1.3.6.1.6-.2 0-1 0-1.9.1-2.9s.5-1.9.9-2.8c.1-.2 0-.4-.1-.5.3-.5.6-1.1.9-1.6.2-.2-.1-.6-.4-.4zm6.9-15.4c2.3 7.2 8.9 11.3 14.1 16.1.3.2.6.2.8.1 1.4 1.9 3.3 3.5 3.9 5.8 1 4.2-1.4 7.8-5.9 7.6-.6 0-.7.9-.1 1 .4.1.8.2 1.1.2.1.2.2.3.4.3 1.1.1 2.1.1 3.2-.2.2 0 .3-.1.3-.2 1.1-.4 2.2-1 3-2.1 1.5-2 2-4.6 1.6-7.1-.9-5.1-5.4-9.3-9.9-12.1 0-.1 0-.3-.2-.4l-.1-.1c-2.9-2.4-7.6-3.3-9.8-6.6-.1-.1-.2-.2-.3-.2-.5-.8-1.1-1.6-1.6-2.4-.2 0-.6 0-.5.3zM28 638c-.1 0-.4 0-.5.1-1.6 1-1.8 2.3-2.2 4-.3 1.3-.6 2.5-1.4 3.6-.7 1-2.6 2.5-3.9 1.9h-.1c-.4-.3-.8-.7-1.1-1-.1-.1-.4 0-.4.2.2 3.3 4.6 3.1 6.7 1.7 1.2-.8 2.1-2 2.5-3.4.6-2.1 1-4.7.9-6.8.1-.2-.2-.4-.5-.3zm1.2-.8c-.9 1.2.2 3 .7 4.2.1.2.3.3.4.3l.1.1c.1.1.2.1.3.1.7.5 1.5.9 2.4.4.5-.3.9-.9 1.1-1.5.8.8 1.7 1.5 2.7 2.1.4.2 1.1-.1 1-.6-.1-1.4-1-2.8-1.8-3.8-.8-1.2-1.4-2.5-3-2.8-1.4-.3-3.1.4-3.9 1.5z" class="st0"></path>  <path d="M15.9 619.7c.8-1.3 2.7-1.5 3.6-2.7-.1 1.2.3 2.5 1.1 3.5 0-.8.5-1.6.8-2.3.4-.8.5-1.7.6-2.6.1-.8.1-1.6-.1-2.4-.2-.8-.7-1.5-1.4-1.9-.8-.4-1.8-.4-2.7-.1-2.2.7-4 2.6-4.5 4.9 1.4-.9 3.1-1.2 4.7-1-.2 0-.6.3-.7.5-.2.3-.3.6-.5.9-.3.7-.5 1.4-.6 2.1-.3.3-.3.7-.3 1.1z" class="st1"></path>  <path d="M17.6 614.8c-1.1 1.3-1.5 3-1.7 4.7l3.6-2.4c.1.8.2 1.5.2 2.3 0 .8-.2 1.5-.5 2.2-.6 1.1-1.7 1.8-2.8 2.5-1 .7-2.1 1.5-2.4 2.8-.9-2.2-1.2-4.7-.8-7 .1-.6.2-1.3.3-1.9.1-.5.1-.9.1-1.4.1-.4.3-.6.7-.8.5-.3 1-.5 1.6-.7.3-.1.6-.2.9-.2.2 0 .3 0 .5-.1h.3z" class="st2"></path>  <path d="M29.3 595c-1.9 3.8-3.1 8.1-3.9 12.3 0 0-.1 0-.1.1-.8.7-1.6 1.5-2.4 2.2-.7.6-1.3 1.1-1.7 1.9-.1.3.2.6.4.3 1.1-1.1 2.4-2 3.6-3-.1.8-.2 1.6-.3 2.3-.6 4.4-.8 9.3.1 13.8-.1.1-.2.3-.2.5.8 4 1.8 8 2.9 11.9 1.1 3.9 2.5 8 1.6 12.1-1.6 8.1-8.9 12-16.6 11.5-.3 0-.3.4-.1.5 7 2 14.5-2.6 17-9.2 1.5-3.8 1.1-7.8.1-11.7-1.1-4.2-2.3-8.4-3.2-12.7.1-.1.1-.2.1-.3-.3-1.6-.5-3.3-.7-4.9 1.8 2.6 5.3 3.9 8.6 2.9 4.1-1.2 5.7-6.3 2.9-9.7-2.2-2.7-8.2-2.2-7.8 2.1.2 2.5 2.7 3 4.2 1.9 0-.1.1-.2.1-.3.3-.4.4-.7.5-1.1-.4.7-.9 1.2-1.7 1.3-2 .2-3-2.2-1.9-3.7.4-.6 1.2-1 2.1-1.1.4-.2 1-.1 1.9.1 1.3.4 2.1 1.5 2.5 2.6 1 2.6-.2 5.5-2.8 6.5-3.9 1.5-8.3-1-8.9-5.1-.2-2.6-.1-5.3.2-8 .7-5.5 2.6-10.6 3.9-16 0-.1-.3-.2-.4 0zm27.3 106.8c.3-.1.2-.4-.1-.5-1.9-.2-2.8-3.4-3.5-4.9-.6-1.2-1.1-2.7-2.2-3.6-1.4-1.1-3.6-1.2-5-.2 0 0-.1 0-.1.1-.2 0-.4.1-.5.4-.1.2-.2.4-.2.6l-.1.1c-.1.1 0 .2 0 .3-.5 2.3.6 5.2 2.4 6.7 2.8 2.5 6 2 9.3 1zm-22.3-6.5c2.7-1.9 3.4-5.4 2-8.3v-.1c-.1-.3-.6-.1-.6.2 0 1 0 1.9-.1 2.9s-.5 1.9-.9 2.8c-.1.2 0 .4.1.5-.3.5-.6 1.1-.9 1.6-.1.2.2.5.4.4zm-6.8 15.4c-2.3-7.2-8.9-11.3-14.1-16.1-.3-.2-.6-.2-.8-.1-1.4-1.9-3.3-3.5-3.9-5.8-1-4.2 1.4-7.8 5.9-7.6.6 0 .7-.9.1-1-.4-.1-.8-.2-1.1-.2-.1-.2-.2-.3-.4-.3-1.1-.1-2.1-.1-3.2.2-.2 0-.3.1-.3.2-1.1.4-2.2 1-3 2.1-1.5 2-2 4.6-1.6 7.1.9 5.1 5.4 9.3 9.9 12.1 0 .1 0 .3.2.4l.1.1c2.9 2.4 7.6 3.3 9.8 6.6.1.1.2.2.3.2.5.8 1.1 1.6 1.6 2.4.2 0 .6-.1.5-.3zm2 6.2c.1 0 .4 0 .5-.1 1.6-1 1.8-2.3 2.2-4 .3-1.3.6-2.5 1.4-3.6.7-1 2.6-2.5 3.9-1.9h.1c.4.3.8.7 1.1 1 .1.1.4 0 .4-.2-.2-3.3-4.6-3.1-6.7-1.7-1.2.8-2.1 2-2.5 3.4-.6 2.1-1 4.7-.9 6.8 0 .3.3.4.5.3zm-1.1.9c.9-1.2-.2-3-.7-4.2-.1-.2-.3-.3-.4-.3l-.1-.1c-.1-.1-.2-.1-.3-.1-.7-.5-1.5-.9-2.4-.4-.5.3-.9.9-1.1 1.5-.8-.8-1.7-1.5-2.7-2.1-.4-.2-1.1.1-1 .6.1 1.4 1 2.8 1.8 3.8.8 1.2 1.4 2.5 3 2.8 1.3.2 3.1-.5 3.9-1.5z" class="st0"></path>  <path d="M41.7 735.2c-.8 1.3-2.7 1.5-3.6 2.7.1-1.2-.3-2.5-1.1-3.5 0 .8-.5 1.6-.8 2.3-.4.8-.5 1.7-.6 2.6-.1.8-.1 1.6.1 2.4.2.8.7 1.5 1.4 1.9.8.4 1.8.4 2.7.1 2.2-.7 4-2.6 4.5-4.9-1.4.9-3.1 1.2-4.7 1 .2 0 .6-.3.7-.5.2-.3.3-.6.5-.9.3-.7.5-1.4.6-2.1.2-.3.3-.7.3-1.1z" class="st1"></path>  <path d="M40 740.2c1.1-1.3 1.5-3 1.7-4.7l-3.6 2.4c-.1-.8-.2-1.5-.2-2.3 0-.8.2-1.5.5-2.2.6-1.1 1.7-1.8 2.8-2.5 1-.7 2.1-1.5 2.4-2.8.9 2.2 1.2 4.7.8 7-.1.6-.2 1.3-.3 1.9-.1.5-.1.9-.1 1.4-.1.4-.3.6-.7.8-.5.3-1 .5-1.6.7-.3.1-.6.2-.9.2-.2 0-.3 0-.5.1.1-.1-.3-.1-.3 0z" class="st2"></path>  <path d="M28.3 760c1.9-3.8 3.1-8.1 3.9-12.3 0 0 .1 0 .1-.1.8-.7 1.6-1.5 2.4-2.2.7-.6 1.3-1.1 1.7-1.9.1-.3-.2-.6-.4-.3-1.1 1.1-2.4 2-3.6 3 .1-.8.2-1.6.3-2.3.6-4.4.8-9.3-.1-13.8.1-.1.2-.3.2-.5-.8-4-1.8-8-2.9-11.9-1.1-3.9-2.5-8-1.6-12.1 1.6-8.1 8.9-12 16.6-11.5.3 0 .3-.4.1-.5-7-2-14.5 2.6-17 9.2-1.5 3.8-1.1 7.8-.1 11.7 1.1 4.2 2.3 8.4 3.2 12.7-.1.1-.1.2-.1.3.3 1.6.5 3.3.7 4.9-1.8-2.6-5.3-3.9-8.6-2.9-4.1 1.2-5.7 6.3-2.9 9.7 2.2 2.7 8.2 2.2 7.8-2.1-.2-2.5-2.7-3-4.2-1.9 0 .1-.1.2-.1.3-.3.4-.4.7-.5 1.1.4-.7.9-1.2 1.7-1.3 2-.2 3 2.2 1.9 3.7-.4.6-1.2 1-2.1 1.1-.4.2-1 .1-1.9-.1-1.3-.4-2.1-1.5-2.5-2.6-1-2.6.2-5.5 2.8-6.5 3.9-1.5 8.3 1 8.9 5.1.2 2.6.1 5.3-.2 8-.7 5.5-2.6 10.6-3.9 16 0 0 .3.2.4 0zM.9 823c-.3.1-.2.4.1.5 1.9.2 2.8 3.4 3.5 4.9.6 1.2 1.1 2.7 2.2 3.6 1.4 1.1 3.6 1.2 5 .2 0 0 .1 0 .1-.1.2 0 .4-.1.5-.4.1-.2.2-.4.2-.6l.1-.1c.1-.1 0-.2 0-.3.5-2.3-.6-5.2-2.4-6.7-2.7-2.5-6-2.1-9.3-1zm22.3 6.5c-2.7 1.9-3.4 5.4-2 8.3v.1c.1.3.6.1.6-.2 0-1 0-1.9.1-2.9s.5-1.9.9-2.8c.1-.2 0-.4-.1-.5.3-.5.6-1.1.9-1.6.2-.2-.1-.6-.4-.4zm6.9-15.4c2.3 7.2 8.9 11.3 14.1 16.1.3.2.6.2.8.1 1.4 1.9 3.3 3.5 3.9 5.8 1 4.2-1.4 7.8-5.9 7.6-.6 0-.7.9-.1 1 .4.1.8.2 1.1.2.1.2.2.3.4.3 1.1.1 2.1.1 3.2-.2.2 0 .3-.1.3-.2 1.1-.4 2.2-1 3-2.1 1.5-2 2-4.6 1.6-7.1-.9-5.1-5.4-9.3-9.9-12.1 0-.1 0-.3-.2-.4l-.1-.1c-2.9-2.4-7.6-3.3-9.8-6.6-.1-.1-.2-.2-.3-.2-.5-.8-1.1-1.6-1.6-2.4-.2 0-.6.1-.5.3zm-2.1-6.3c-.1 0-.4 0-.5.1-1.6 1-1.8 2.3-2.2 4-.3 1.3-.6 2.5-1.4 3.6-.7 1-2.6 2.5-3.9 1.9h-.1c-.4-.3-.8-.7-1.1-1-.1-.1-.4 0-.4.2.2 3.3 4.6 3.1 6.7 1.7 1.2-.8 2.1-2 2.5-3.4.6-2.1 1-4.7.9-6.8.1-.2-.2-.4-.5-.3zm1.2-.8c-.9 1.2.2 3 .7 4.2.1.2.3.3.4.3l.1.1c.1.1.2.1.3.1.7.5 1.5.9 2.4.4.5-.3.9-.9 1.1-1.5.8.8 1.7 1.5 2.7 2.1.4.2 1.1-.1 1-.6-.1-1.4-1-2.8-1.8-3.8-.8-1.2-1.4-2.5-3-2.8-1.4-.3-3.1.4-3.9 1.5z" class="st0"></path>  <path d="M15.9 789.6c.8-1.3 2.7-1.5 3.6-2.7-.1 1.2.3 2.5 1.1 3.5 0-.8.5-1.6.8-2.3.4-.8.5-1.7.6-2.6.1-.8.1-1.6-.1-2.4-.2-.8-.7-1.5-1.4-1.9-.8-.4-1.8-.4-2.7-.1-2.2.7-4 2.6-4.5 4.9 1.4-.9 3.1-1.2 4.7-1-.2 0-.6.3-.7.5-.2.3-.3.6-.5.9-.3.7-.5 1.4-.6 2.1-.3.2-.3.6-.3 1.1z" class="st1"></path>  <path d="M17.6 784.6c-1.1 1.3-1.5 3-1.7 4.7l3.6-2.4c.1.8.2 1.5.2 2.3 0 .8-.2 1.5-.5 2.2-.6 1.1-1.7 1.8-2.8 2.5-1 .7-2.1 1.5-2.4 2.8-.9-2.2-1.2-4.7-.8-7 .1-.6.2-1.3.3-1.9.1-.5.1-.9.1-1.4.1-.4.3-.6.7-.8.5-.3 1-.5 1.6-.7.3-.1.6-.2.9-.2.2 0 .3 0 .5-.1-.1 0 .3.1.3 0z" class="st2"></path>  <path d="M29.3 764.8c-1.9 3.8-3.1 8.1-3.9 12.3 0 0-.1 0-.1.1-.8.7-1.6 1.5-2.4 2.2-.7.6-1.3 1.1-1.7 1.9-.1.3.2.6.4.3 1.1-1.1 2.4-2 3.6-3-.1.8-.2 1.6-.3 2.3-.6 4.4-.8 9.3.1 13.8-.1.1-.2.3-.2.5.8 4 1.8 8 2.9 11.9 1.1 3.9 2.5 8 1.6 12.1-1.6 8.1-8.9 12-16.6 11.5-.3 0-.3.4-.1.5 7 2 14.5-2.6 17-9.2 1.5-3.8 1.1-7.8.1-11.7-1.1-4.2-2.3-8.4-3.2-12.7.1-.1.1-.2.1-.3-.3-1.6-.5-3.3-.7-4.9 1.8 2.6 5.3 3.9 8.6 2.9 4.1-1.2 5.7-6.3 2.9-9.7-2.2-2.7-8.2-2.2-7.8 2.1.2 2.5 2.7 3 4.2 1.9 0-.1.1-.2.1-.3.3-.4.4-.7.5-1.1-.4.7-.9 1.2-1.7 1.3-2 .2-3-2.2-1.9-3.7.4-.6 1.2-1 2.1-1.1.4-.2 1-.1 1.9.1 1.3.4 2.1 1.5 2.5 2.6 1 2.6-.2 5.5-2.8 6.5-3.9 1.5-8.3-1-8.9-5.1-.2-2.6-.1-5.3.2-8 .7-5.5 2.6-10.6 3.9-16 0 0-.3-.2-.4 0zm27.3 106.6c.3-.1.2-.4-.1-.5-1.9-.2-2.8-3.4-3.5-4.9-.6-1.2-1.1-2.7-2.2-3.6-1.4-1.1-3.6-1.2-5-.2 0 0-.1 0-.1.1-.2 0-.4.1-.5.4-.1.2-.2.4-.2.6l-.1.1c-.1.1 0 .2 0 .3-.5 2.3.6 5.2 2.4 6.7 2.8 2.5 6 2.1 9.3 1zm-22.3-6.5c2.7-1.9 3.4-5.4 2-8.3v-.1c-.1-.3-.6-.1-.6.2 0 1 0 1.9-.1 2.9s-.5 1.9-.9 2.8c-.1.2 0 .4.1.5-.3.5-.6 1.1-.9 1.6-.1.2.2.6.4.4zm-6.8 15.4c-2.3-7.2-8.9-11.3-14.1-16.1-.3-.2-.6-.2-.8-.1-1.4-1.9-3.3-3.5-3.9-5.8-1-4.2 1.4-7.8 5.9-7.6.6 0 .7-.9.1-1-.4-.1-.8-.2-1.1-.2-.1-.2-.2-.3-.4-.3-1.1-.1-2.1-.1-3.2.2-.2 0-.3.1-.3.2-1.1.4-2.2 1-3 2.1-1.5 2-2 4.6-1.6 7.1.9 5.1 5.4 9.3 9.9 12.1 0 .1 0 .3.2.4l.1.1c2.9 2.4 7.6 3.3 9.8 6.6.1.1.2.2.3.2.5.8 1.1 1.6 1.6 2.4.2 0 .6-.1.5-.3zm2 6.3c.1 0 .4 0 .5-.1 1.6-1 1.8-2.3 2.2-4 .3-1.3.6-2.5 1.4-3.6.7-1 2.6-2.5 3.9-1.9h.1c.4.3.8.7 1.1 1 .1.1.4 0 .4-.2-.2-3.3-4.6-3.1-6.7-1.7-1.2.8-2.1 2-2.5 3.4-.6 2.1-1 4.7-.9 6.8 0 .2.3.4.5.3zm-1.1.8c.9-1.2-.2-3-.7-4.2-.1-.2-.3-.3-.4-.3l-.1-.1c-.1-.1-.2-.1-.3-.1-.7-.5-1.5-.9-2.4-.4-.5.3-.9.9-1.1 1.5-.8-.8-1.7-1.5-2.7-2.1-.4-.2-1.1.1-1 .6.1 1.4 1 2.8 1.8 3.8.8 1.2 1.4 2.5 3 2.8 1.3.2 3.1-.4 3.9-1.5z" class="st0"></path>  <path d="M41.7 904.8c-.8 1.3-2.7 1.5-3.6 2.7.1-1.2-.3-2.5-1.1-3.5 0 .8-.5 1.6-.8 2.3-.4.8-.5 1.7-.6 2.6-.1.8-.1 1.6.1 2.4.2.8.7 1.5 1.4 1.9.8.4 1.8.4 2.7.1 2.2-.7 4-2.6 4.5-4.9-1.4.9-3.1 1.2-4.7 1 .2 0 .6-.3.7-.5.2-.3.3-.6.5-.9.3-.7.5-1.4.6-2.1.2-.2.3-.6.3-1.1z" class="st1"></path>  <path d="M40 909.8c1.1-1.3 1.5-3 1.7-4.7l-3.6 2.4c-.1-.8-.2-1.5-.2-2.3 0-.8.2-1.5.5-2.2.6-1.1 1.7-1.8 2.8-2.5 1-.7 2.1-1.5 2.4-2.8.9 2.2 1.2 4.7.8 7-.1.6-.2 1.3-.3 1.9-.1.5-.1.9-.1 1.4-.1.4-.3.6-.7.8-.5.3-1 .5-1.6.7-.3.1-.6.2-.9.2-.2 0-.3 0-.5.1.1 0-.3-.1-.3 0z" class="st2"></path>  <path d="M28.3 929.6c1.9-3.8 3.1-8.1 3.9-12.3 0 0 .1 0 .1-.1.8-.7 1.6-1.5 2.4-2.2.7-.6 1.3-1.1 1.7-1.9.1-.3-.2-.6-.4-.3-1.1 1.1-2.4 2-3.6 3 .1-.8.2-1.6.3-2.3.6-4.4.8-9.3-.1-13.8.1-.1.2-.3.2-.5-.8-4-1.8-8-2.9-11.9-1.1-3.9-2.5-8-1.6-12.1 1.6-8.1 8.9-12 16.6-11.5.3 0 .3-.4.1-.5-7-2-14.5 2.6-17 9.2-1.5 3.8-1.1 7.8-.1 11.7 1.1 4.2 2.3 8.4 3.2 12.7-.1.1-.1.2-.1.3.3 1.6.5 3.3.7 4.9-1.8-2.6-5.3-3.9-8.6-2.9-4.1 1.2-5.7 6.3-2.9 9.7 2.2 2.7 8.2 2.2 7.8-2.1-.2-2.5-2.7-3-4.2-1.9 0 .1-.1.2-.1.3-.3.4-.4.7-.5 1.1.4-.7.9-1.2 1.7-1.3 2-.2 3 2.2 1.9 3.7-.4.6-1.2 1-2.1 1.1-.4.2-1 .1-1.9-.1-1.3-.4-2.1-1.5-2.5-2.6-1-2.6.2-5.5 2.8-6.5 3.9-1.5 8.3 1 8.9 5.1.2 2.6.1 5.3-.2 8-.7 5.5-2.6 10.6-3.9 16 0 0 .3.2.4 0zm-27.4 63c-.3.1-.2.4.1.5 1.9.2 2.8 3.4 3.5 4.9.6 1.2 1.1 2.7 2.2 3.6 1.4 1.1 3.6 1.2 5 .2 0 0 .1 0 .1-.1.2 0 .4-.1.5-.4.1-.2.2-.4.2-.6l.1-.1c.1-.1 0-.2 0-.3.5-2.3-.6-5.2-2.4-6.7-2.7-2.5-6-2-9.3-1zm22.3 6.5c-2.7 1.9-3.4 5.4-2 8.3v.1c.1.3.6.1.6-.2 0-1 0-1.9.1-2.9s.5-1.9.9-2.8c.1-.2 0-.4-.1-.5.3-.5.6-1.1.9-1.6.2-.2-.1-.5-.4-.4zm6.9-15.4c2.3 7.2 8.9 11.3 14.1 16.1.3.2.6.2.8.1 1.4 1.9 3.3 3.5 3.9 5.8 1 4.2-1.4 7.8-5.9 7.6-.6 0-.7.9-.1 1 .4.1.8.2 1.1.2.1.2.2.3.4.3 1.1.1 2.1.1 3.2-.2.2 0 .3-.1.3-.2 1.1-.4 2.2-1 3-2.1 1.5-2 2-4.6 1.6-7.1-.9-5.1-5.4-9.3-9.9-12.1 0-.1 0-.3-.2-.4l-.1-.1c-2.9-2.4-7.6-3.3-9.8-6.6-.1-.1-.2-.2-.3-.2-.5-.8-1.1-1.6-1.6-2.4-.2 0-.6.1-.5.3zm-2.1-6.2c-.1 0-.4 0-.5.1-1.6 1-1.8 2.3-2.2 4-.3 1.3-.6 2.5-1.4 3.6-.7 1-2.6 2.5-3.9 1.9h-.1c-.4-.3-.8-.7-1.1-1-.1-.1-.4 0-.4.2.2 3.3 4.6 3.1 6.7 1.7 1.2-.8 2.1-2 2.5-3.4.6-2.1 1-4.7.9-6.8.1-.3-.2-.5-.5-.3zm1.2-.9c-.9 1.2.2 3 .7 4.2.1.2.3.3.4.3l.1.1c.1.1.2.1.3.1.7.5 1.5.9 2.4.4.5-.3.9-.9 1.1-1.5.8.8 1.7 1.5 2.7 2.1.4.2 1.1-.1 1-.6-.1-1.4-1-2.8-1.8-3.8-.8-1.2-1.4-2.5-3-2.8-1.4-.2-3.1.5-3.9 1.5z" class="st0"></path>  <path d="M15.9 959.2c.8-1.3 2.7-1.5 3.6-2.7-.1 1.3.3 2.5 1.1 3.5 0-.8.5-1.6.8-2.3.4-.8.5-1.7.6-2.6.1-.8.1-1.6-.1-2.4-.2-.8-.7-1.5-1.4-1.9-.8-.4-1.8-.4-2.7-.1-2.2.7-4 2.6-4.5 4.9 1.4-.9 3.1-1.2 4.7-1-.2 0-.6.3-.7.5-.2.3-.3.6-.5.9-.3.7-.5 1.4-.6 2.1-.3.3-.3.7-.3 1.1z" class="st1"></path>  <path d="M17.6 954.2c-1.1 1.3-1.5 3-1.7 4.7l3.6-2.4c.1.8.2 1.5.2 2.3 0 .8-.2 1.5-.5 2.2-.6 1.1-1.7 1.8-2.8 2.5-1 .7-2.1 1.5-2.4 2.8-.9-2.2-1.2-4.7-.8-7 .1-.6.2-1.3.3-1.9.1-.5.1-.9.1-1.4.1-.4.3-.6.7-.8.5-.3 1-.5 1.6-.7.3-.1.6-.2.9-.2.2 0 .3 0 .5-.1-.1.1.3.1.3 0z" class="st2"></path>  <path d="M29.3 934.4c-1.9 3.8-3.1 8.1-3.9 12.3 0 0-.1 0-.1.1-.8.7-1.6 1.5-2.4 2.2-.7.6-1.3 1.1-1.7 1.9-.1.3.2.6.4.3 1.1-1.1 2.4-2 3.6-3-.1.8-.2 1.6-.3 2.3-.6 4.4-.8 9.3.1 13.8-.1.1-.2.3-.2.5.8 4 1.8 8 2.9 11.9 1.1 3.9 2.5 8 1.6 12.1-1.6 8.1-8.9 12-16.6 11.5-.3 0-.3.4-.1.5 7 2 14.5-2.6 17-9.2 1.5-3.8 1.1-7.8.1-11.7-1.1-4.2-2.3-8.4-3.2-12.7.1-.1.1-.2.1-.3-.3-1.6-.5-3.3-.7-4.9 1.8 2.6 5.3 3.9 8.6 2.9 4.1-1.2 5.7-6.3 2.9-9.7-2.2-2.7-8.2-2.2-7.8 2.1.2 2.5 2.7 3 4.2 1.9 0-.1.1-.2.1-.3.3-.4.4-.7.5-1.1-.4.7-.9 1.2-1.7 1.3-2 .2-3-2.2-1.9-3.7.4-.6 1.2-1 2.1-1.1.4-.2 1-.1 1.9.1 1.3.4 2.1 1.5 2.5 2.6 1 2.6-.2 5.5-2.8 6.5-3.9 1.5-8.3-1-8.9-5.1-.2-2.6-.1-5.3.2-8 .7-5.5 2.6-10.6 3.9-16 0 0-.3-.2-.4 0z" class="st0"></path>  <path fill="#333" d="M33.4 67.4c.4-.3.7-.7 1-1.1.1-.2.3-.4.5-.6.2-.1.5-.2.7-.3.4-.2.6-.6.7-1.1.2.2.4.4.7.5.9.4 1.8.4 2.7.2.9-.2 1.7-.7 2.4-1.3 1.4-1.1 2.7-2.6 3-4.6l.3-1.5-1 1.1-.1.1c.7-1.3 1.1-2.8 1.2-4.3 0-1-.1-2.1-.4-3-.3-1-.7-1.9-1.2-2.8l-.3-.4-.1.5c-.2.8-.7 1.5-1.3 2-.6.5-1.4.9-2.1 1.4-.7.5-1.3 1.1-1.8 1.9-.3.4-.5.9-.5 1.5-.2-.3-.4-.7-.6-.9l-1.1-1.3.5 1.7c.2.7 0 1.5-.3 2.3-.3.8-.8 1.6-.9 2.6-.1.9-.1 1.9.3 2.8.2.4.4.9.6 1.2 0 .1.1.2.2.2-.5.1-.9.4-1.1.7-.1.2-.2.5-.4.7-.2.2-.4.3-.6.4-.5.2-.9.4-1.3.7l-.2.2c.3-2 .6-4.1.7-6.1.4-6.9-.7-13.9-3.2-20.3-.3-.8-.5-1.5-.8-2.3h.1c.3 0 .5-.1.7-.3.4-.3.8-.6 1.1-1 .7-1 .9-2.3 1.2-3.5.3-1.2.7-2.3 1.4-3.2.7-.9 1.6-1.6 2.7-1.8.5-.1 1.1 0 1.5.4.5.3.8.8.7 1.4l-.1 1.2.4-1.1c.3-1 0-2.1-.7-2.9-.7-.8-1.8-1.2-2.8-1.3-2.1-.1-4.2.9-5.5 2.6-1.3 1.7-1.6 3.9-1.5 5.9 0 .7.1 1.4.2 2.1-.2-.8-.5-1.5-.7-2.3v-.1c-.3-1.2-.5-2.5-.6-3.7-.3-3.4.7-6.8 2.7-9.5 1.9-2.7 4.7-4.9 7.9-5.8 2-.6 4.2-.8 6.4-.5-.2.3-.3.7-.3 1-.2 1.1.2 2.2.6 3.1.4 1 1 1.8 1.7 2.6.7.7 1.5 1.4 2.5 1.9 1 .4 2 .6 3 .7 2.1 0 4-.6 5.7-1.8l-.2-.3c-.4.2-1 .1-1.4-.2-.4-.3-.7-.7-.9-1.2-.5-1-.8-2-1.3-3-1-2-2.6-3.9-4.8-4.6-1-.3-2-.2-3 .3-.5.3-.9.6-1.3 1.1-2.2-.5-4.6-.4-6.8.1-.5.1-1 .3-1.5.5.5-.6.9-1.3 1.1-2.1.3-1.1.2-2.3-.1-3.4-.3-1.1-.9-2-1.7-2.8l-.7-.8.3 1c.3.9.4 1.9.3 2.9-.1 1-.4 1.9-.7 2.8-.3.9-.7 1.8-1.1 2.7-.3.5-.6 1.1-.9 1.6-1.3 1-2.4 2.2-3.4 3.6-1 1.5-1.6 3.1-2 4.8-.4 1.7-.4 3.4-.3 5 0-.1 0-.2-.1-.2-.3-.9-.6-1.7-1.1-2.5-.8-1.6-1.9-3.2-3.1-4.6-2.4-2.8-5.5-4.9-8.4-7.1-1.4-1.1-2.7-2.3-3.7-3.8C9.7 10.7 9 9 9.1 7.3c0-1.7.8-3.4 2.1-4.4 1.3-1 3.3-1.1 4.7-.2l1.6.9-1.1-1.4C15 .3 12.5-.3 10.3.2 8.2.7 6.5 2.4 5.6 4.4c-.9 2-1 4.3-.5 6.4.5 2.1 1.6 4.1 2.9 5.8 1.3 1.7 2.9 3.3 4.5 4.6 1.7 1.3 3.5 2.5 5.4 3.6 1.9 1.1 3.8 2 5.5 3.3.8.6 1.6 1.3 2.4 2.1.4.4.7.8 1 1.2l.6.9c.1.3.1.7.2 1l-.1-.1c-.5-.3-1.2-.5-1.7-.2-.3.1-.5.2-.8.3-.3.1-.6.1-.8.2-.3.2-.5.5-.5.8-.9-1-2.1-1.9-3.4-2.3l-.4-.1-.2.4c-.4.7-.3 1.5-.1 2.2.2.7.5 1.2.9 1.8.8 1.1 1.5 2 2.2 3.1.4.5.9 1 1.5 1.3.7.3 1.4.3 2.1.1.7-.2 1.3-.6 1.7-1.1.4-.4.7-.8.9-1.3.2.7.5 1.5.7 2.2 1 3.3 1.8 6.6 2.3 10 .2 1.5.3 3 .4 4.5-.4-.9-.8-1.8-1.5-2.5-1.2-1.6-3-2.6-4.8-2.8-1.8-.2-3.8.3-5.3 1.5-1.4 1.2-2.2 3.2-2 5 .2 1.9 1.4 3.4 2.9 4.4.7.5 1.6.9 2.5 1 .9.1 1.9-.1 2.7-.7.8-.6 1.3-1.6 1.3-2.6s-.5-2-1.4-2.6c-.8-.5-2-.6-2.8 0-.8.6-1.2 1.6-.9 2.5h.1c-.1-.9.4-1.6 1.1-2 .7-.4 1.5-.2 2.1.2.6.4.9 1.2.9 1.9s-.4 1.4-.9 1.9c-1.1 1.1-3.1 1-4.5.1-1.5-.9-2.5-2.5-2.5-4.1 0-1.6.8-3.2 2.1-4.2 1.2-1 2.9-1.4 4.5-1.2 1.6.2 3.2.9 4.3 2.1.9.9 1.5 2 2.1 3.1v4.5c-.3 6.8-1.7 13.5-4.1 20h.1c1.9-4 3.3-8.3 4.1-12.8.4 0 .7-.2 1-.4zm5.4-13c.5-.6 1.1-1.1 1.7-1.6.6-.5 1.3-1.1 1.8-1.8.5-.5.9-1.1 1.2-1.7.3.8.4 1.6.6 2.4.2.9.2 1.9.2 2.8 0 1.7-.3 3.3-.9 5-.8.6-1.8 1-2.8 1.1.4-.5.7-1.1.9-1.7.4-1.1.4-2.3.5-3.3l.1-3.1-.8 3c-.2.7-.8 1.2-1.5 1.6-.5.4-1.1.8-1.5 1.4v-1c-.1-.5-.2-1-.4-1.5.2-.6.6-1.1.9-1.6zm-2.4 9.2c-.2-.4-.3-.8-.4-1.2-.2-.8-.2-1.7 0-2.5s.6-1.5 1-2.4c.2-.4.3-.9.4-1.4.2.4.4.9.5 1.4.2 1 .1 2-.2 2.9h.1c.3-.5.5-1.1.6-1.7.4-.6 1.1-1 1.8-1.3.4-.2.7-.4 1.1-.7-.1.6-.2 1.2-.5 1.8-.4.9-1 1.8-1.8 2.1l-2 .8 2.2.2c1.7.2 3.4-.4 4.8-1.4-.4 1.1-1.2 2-2 2.9-.6.6-1.3 1.1-2.2 1.3-.8.2-1.7.3-2.5-.1-.5 0-.7-.3-.9-.7zm-5.5-34.4c1-1.5 2.8-2.5 4.6-2.5.9 0 1.9.2 2.5.9.4.4.7 1 .8 1.6-.4-.9-1.4-1.5-2.5-1.5-1.4 0-2.6.9-3.4 1.9-.4.5-.7 1.1-.9 1.7-.2.6-.2 1.3-.3 1.9-.1 1.2-.1 2.5-.8 3.5-.3.4-.6.7-1.1.9-.2.1-.4.2-.7.2-.1 0-.1 0-.1-.1v-.3c.1-1 .1-2 .2-2.9.4-2 .6-3.9 1.7-5.3zm15.2-15.7c.8-.6 1.8-.7 2.8-.5 1.1.3 2 1 2.6 1.9.6.9 1 1.9 1.5 2.9.4 1 .8 2 1.5 3 .3.5.7 1 1.3 1.2.3.1.6.2.9.2-1.4.9-3.1 1.2-4.7.9-.9-.1-1.9-.4-2.7-.8-.8-.4-1.5-1-2.1-1.7-1.2-1.4-2.2-3.2-2.2-4.9 0-.3.1-.7.2-1 1 .2 1.9.4 2.8.8v-.1c-.9-.5-1.8-.8-2.7-1 .2-.3.4-.6.8-.9zm-10.6-.7c.2-1 .3-2 .3-3.1V7.8c.3.6.5 1.2.7 1.8.2.9.2 1.9 0 2.9-.2.9-.7 1.8-1.3 2.5-.2.3-.5.6-.8.8-.1 0-.2.1-.3.1.1-.1.2-.2.2-.3.6-.9 1-1.8 1.2-2.8zM27 31.3c-.3-.5-.6-.9-.9-1.3-.7-.9-1.5-1.6-2.3-2.3-1.7-1.4-3.6-2.4-5.4-3.5-1.8-1.1-3.6-2.2-5.2-3.6-1.7-1.3-3.2-2.8-4.5-4.4-1.3-1.6-2.4-3.4-3-5.5-.7-2-.7-4.3.2-6.2C6.8 2.6 8.4 1 10.5.6c1.4-.3 3 0 4.2.8-1.3-.3-2.8 0-3.9.8-1.7 1.1-2.6 3.1-2.7 5.1-.1 2 .6 3.9 1.7 5.4 1.1 1.6 2.5 2.9 4 4s3 2.1 4.4 3.2c1.4 1.1 2.8 2.3 4 3.6 1.3 1.3 2.4 2.7 3.3 4.3.4.8.9 1.6 1.2 2.4.2.4.3.8.5 1.3v.3c-.1-.2-.1-.4-.2-.5zm.5 7.8c-.5.3-1 .6-1.5.7-1.1.2-2.1-.1-3-.9-.9-.8-1.7-1.9-2.2-3-.4-.9-.7-2-.5-2.8 1 .5 1.9 1.2 2.8 2 1 .9 1.8 2 2.4 3.2h.1c-.2-1.2-.8-2.4-1.5-3.4l.7-.7c.1-.2.2-.4.4-.6.2-.1.5-.1.7 0 .4.2.8.4 1.1.6.3.2.6.4 1 .7.3 1.1.6 2.2.9 3.2-.5.3-.9.7-1.4 1zM52 162.2c.9-2 1-4.3.5-6.4-.5-2.1-1.6-4.1-2.9-5.8-1.3-1.7-2.9-3.3-4.5-4.6-1.7-1.3-3.5-2.5-5.4-3.6-1.9-1.1-3.8-2-5.5-3.3-.8-.6-1.6-1.3-2.4-2.1-.4-.4-.7-.8-1-1.2l-.6-.9c-.1-.3-.1-.7-.2-1l.1.1c.5.3 1.2.5 1.7.2.3-.1.5-.2.8-.3.3-.1.6-.1.8-.2.3-.2.5-.5.5-.8.9 1 2.1 1.9 3.4 2.3l.4.1.2-.4c.4-.7.3-1.5.1-2.2-.2-.7-.5-1.2-.9-1.8-.8-1.1-1.5-2-2.2-3.1-.4-.5-.9-1-1.5-1.3-.7-.3-1.4-.3-2.1-.1-.7.2-1.3.6-1.7 1.1-.4.4-.7.8-.9 1.3-.2-.7-.5-1.5-.7-2.2-1-3.3-1.8-6.6-2.3-10-.2-1.5-.3-3-.4-4.5.4.9.8 1.8 1.5 2.5 1.2 1.4 2.9 2.4 4.8 2.6 1.8.2 3.8-.3 5.3-1.5 1.4-1.2 2.2-3.2 2-5-.2-1.9-1.4-3.4-2.9-4.4-.7-.5-1.6-.9-2.5-1-.9-.1-1.9.1-2.7.7-.8.6-1.3 1.6-1.3 2.6s.5 2 1.4 2.6c.8.5 2 .6 2.8 0 .8-.6 1.2-1.6.9-2.5h-.1c.1.9-.4 1.6-1.1 2-.7.4-1.5.2-2.1-.2-.6-.4-.9-1.2-.9-1.9s.4-1.4.9-1.9c1.1-1.1 3.1-1 4.5-.1 1.5.9 2.5 2.5 2.5 4.1 0 1.6-.8 3.2-2.1 4.2-1.2 1-2.9 1.4-4.5 1.2-1.6-.2-3.2-.9-4.3-2.1-.9-.9-1.5-2-2.1-3.1v-4.5c.3-6.8 1.7-13.5 4.1-20h-.1c-1.9 4-3.3 8.3-4.1 12.8-.4.1-.8.3-1.1.5-.4.3-.7.7-1 1.1-.1.2-.3.4-.5.6-.2.1-.5.2-.7.3-.4.2-.6.6-.7 1.1-.2-.2-.4-.4-.7-.5-.9-.4-1.8-.4-2.7-.2-.9.2-1.7.7-2.4 1.3-1.4 1.1-2.7 2.6-3 4.6l-.3 1.5 1-1.1.1-.1c-.7 1.3-1.1 2.8-1.2 4.3 0 1 .1 2.1.4 3 .3 1 .7 1.9 1.2 2.8l.3.4.1-.5c.2-.8.7-1.5 1.3-2 .6-.5 1.4-.9 2.1-1.4.7-.5 1.3-1.1 1.8-1.9.3-.4.5-.9.5-1.5.2.3.4.7.6.9l1.1 1.3-.5-1.7c-.2-.7 0-1.5.3-2.3.3-.8.8-1.6.9-2.6.1-.9.1-1.9-.3-2.8-.2-.4-.4-.9-.6-1.2 0-.1-.1-.2-.2-.2.5-.1.9-.4 1.1-.7.1-.2.2-.5.4-.7.2-.2.4-.3.6-.4.5-.2.9-.4 1.3-.7l.2-.2c-.3 2-.6 4.1-.7 6.1-.4 6.9.7 13.9 3.2 20.3.3.8.5 1.5.8 2.3h-.1c-.3 0-.5.1-.7.3-.4.3-.8.6-1.1 1-.7 1-.9 2.3-1.2 3.5-.3 1.2-.7 2.3-1.4 3.2-.7.9-1.6 1.6-2.7 1.8-.5.1-1.1 0-1.5-.4-.5-.3-.8-.8-.7-1.4l.1-1.2-.4 1.1c-.3 1 0 2.1.7 2.9.7.8 1.8 1.2 2.8 1.3 2.1.1 4.2-.9 5.5-2.6 1.3-1.7 1.6-3.9 1.5-5.9 0-.7-.1-1.4-.2-2.1.2.8.5 1.5.7 2.3v.1c.3 1.2.5 2.5.6 3.7.3 3.4-.7 6.8-2.7 9.5-1.9 2.7-4.7 4.9-7.9 5.8-2 .6-4.2.8-6.4.5.2-.3.3-.7.3-1 .2-1.1-.2-2.2-.6-3.1-.4-1-1-1.8-1.7-2.6-.7-.7-1.5-1.4-2.5-1.9-1-.4-2-.6-3-.7-2.1 0-4 .6-5.7 1.8l.2.3c.4-.2 1-.1 1.4.2.4.3.7.7.9 1.2.4 1 .8 2 1.3 3 1 2 2.6 3.9 4.8 4.6 1 .3 2 .2 3-.3.5-.3.9-.6 1.3-1.1 2.2.5 4.6.4 6.8-.1.5-.1 1-.3 1.5-.5-.5.6-.9 1.3-1.1 2.1-.3 1.1-.2 2.3.1 3.4.3 1.1.9 2 1.7 2.8l.7.8-.3-1c-.3-.9-.4-1.9-.3-2.9.1-1 .4-1.9.7-2.8.3-.9.7-1.8 1.1-2.7.3-.5.6-1.1.9-1.6 1.3-1 2.4-2.2 3.4-3.6 1-1.5 1.6-3.1 2-4.8.4-1.7.4-3.4.3-5 0 .1 0 .2.1.2.3.9.6 1.7 1.1 2.5.8 1.6 1.9 3.2 3.1 4.6 2.4 2.8 5.5 4.9 8.4 7.1 1.4 1.1 2.7 2.3 3.7 3.8 1 1.4 1.7 3.1 1.6 4.8 0 1.7-.8 3.4-2.1 4.4-1.3 1-3.3 1.1-4.7.2L40 163l1.1 1.4c1.4 1.9 3.9 2.5 6.1 2 2.2-.6 3.9-2.2 4.8-4.2zm-33.3-50.1c-.5.6-1.1 1.1-1.7 1.6-.6.5-1.3 1.1-1.8 1.8-.5.5-.9 1.1-1.2 1.7-.3-.8-.4-1.6-.6-2.4-.2-.9-.2-1.9-.2-2.8 0-1.7.3-3.3.9-5 .8-.6 1.8-1 2.8-1.1-.4.5-.7 1.1-.9 1.7-.4 1.1-.4 2.3-.5 3.3l-.1 3.1.8-3c.2-.7.8-1.2 1.5-1.6.5-.4 1.1-.8 1.5-1.4v1c.1.5.2 1 .4 1.5-.1.6-.5 1.2-.9 1.6zm2.5-9.1c.2.4.3.8.4 1.2.2.8.2 1.7 0 2.5s-.6 1.5-1 2.4c-.2.4-.3.9-.4 1.4-.2-.4-.4-.9-.5-1.4-.2-1-.1-2 .2-2.9h-.1c-.3.5-.5 1.1-.6 1.7-.4.6-1.1 1-1.8 1.3-.4.2-.7.4-1.1.7.1-.6.2-1.2.5-1.8.4-.9 1-1.8 1.8-2.1l2-.8-2.2-.2c-1.7-.2-3.4.4-4.8 1.4.4-1.1 1.2-2 2-2.9.6-.6 1.3-1.1 2.2-1.3.8-.2 1.7-.3 2.5.1.5 0 .7.3.9.7zm5.5 34.4c-1 1.5-2.8 2.5-4.6 2.5-.9 0-1.9-.2-2.5-.9-.4-.4-.7-1-.8-1.6.4.9 1.4 1.5 2.5 1.5 1.4 0 2.6-.9 3.4-1.9.4-.5.7-1.1.9-1.7.2-.6.2-1.3.3-1.9.1-1.2.1-2.5.8-3.5.3-.4.6-.7 1.1-.9.2-.1.4-.2.7-.2.1 0 .1 0 .1.1v.3c-.1 1-.1 2-.2 2.9-.4 1.9-.7 3.8-1.7 5.3zm3.4-9.9c.5-.3 1-.6 1.5-.7 1.1-.2 2.1.1 3 .9.9.8 1.7 1.9 2.2 3 .4.9.7 2 .5 2.8-1-.5-1.9-1.2-2.8-2-1-.9-1.8-2-2.4-3.2H32c.2 1.2.8 2.4 1.5 3.4l-.7.7c-.1.2-.2.4-.4.6-.2.1-.5.1-.7 0-.4-.2-.8-.4-1.1-.6-.3-.2-.6-.4-1-.7-.3-1.1-.6-2.2-.9-3.2.5-.4.9-.7 1.4-1zm-18.6 25.6c-.8.6-1.8.7-2.8.5-1.1-.3-2-1-2.6-1.9-.6-.9-1-1.9-1.5-2.9-.4-1-.8-2-1.5-3-.3-.5-.7-1-1.3-1.2-.3-.1-.6-.2-.9-.2 1.4-.9 3.1-1.2 4.7-.9.9.1 1.9.4 2.7.8.8.4 1.5 1 2.1 1.7 1.2 1.4 2.2 3.2 2.2 4.9 0 .3-.1.7-.2 1-1-.2-1.9-.4-2.8-.8v.1c.9.5 1.8.8 2.7 1-.2.3-.5.6-.8.9zm10.5.7c-.2 1-.3 2-.3 3.1v1.9c-.3-.6-.5-1.2-.7-1.8-.2-.9-.2-1.9 0-2.9.2-.9.7-1.8 1.3-2.5.2-.3.5-.6.8-.8.1 0 .2-.1.3-.1-.1.1-.2.2-.2.3-.5.8-.9 1.8-1.2 2.8zm20.9 11.3c1.3.3 2.8 0 3.9-.8 1.7-1.2 2.5-3.1 2.6-5.1.1-2-.6-3.9-1.7-5.4-1.1-1.6-2.5-2.9-4-4s-3-2.1-4.4-3.2c-1.4-1.1-2.8-2.3-4-3.6-1.3-1.3-2.4-2.7-3.3-4.3-.4-.8-.9-1.6-1.2-2.4-.2-.4-.3-.8-.5-1.3v-.3c.1.2.2.3.3.5.3.5.6.9.9 1.3.7.9 1.5 1.6 2.3 2.3 1.7 1.4 3.6 2.4 5.4 3.5 1.8 1.1 3.6 2.2 5.2 3.6 1.7 1.3 3.2 2.8 4.5 4.4 1.3 1.6 2.4 3.4 3 5.5.6 2 .5 4.2-.3 6.2-.9 1.9-2.5 3.5-4.6 3.9-1.3.4-2.9 0-4.1-.8zm-9.5 72c.4-.3.7-.7 1-1.1.1-.2.3-.4.5-.6.2-.1.5-.2.7-.3.4-.2.6-.6.7-1.1.2.2.4.4.7.5.9.4 1.8.4 2.7.2.9-.2 1.7-.7 2.4-1.3 1.4-1.1 2.7-2.6 3-4.6l.3-1.5-1 1.1-.1.1c.7-1.3 1.1-2.8 1.2-4.3 0-1-.1-2.1-.4-3-.3-1-.7-1.9-1.2-2.8l-.3-.4-.1.5c-.2.8-.7 1.5-1.3 2-.6.5-1.4.9-2.1 1.4-.7.5-1.3 1.1-1.8 1.9-.3.4-.5.9-.5 1.5-.2-.3-.4-.7-.6-.9l-1.1-1.3.5 1.7c.2.7 0 1.5-.3 2.3-.3.8-.8 1.6-.9 2.6-.1.9-.1 1.9.3 2.8.2.4.4.9.6 1.2 0 .1.1.2.2.2-.5.1-.9.4-1.1.7-.1.2-.2.5-.4.7-.2.2-.4.3-.6.4-.5.2-.9.4-1.3.7l-.2.2c.3-2 .6-4.1.7-6.1.4-6.9-.7-13.9-3.2-20.3-.3-.8-.5-1.5-.8-2.3h.1c.3 0 .5-.1.7-.3.4-.3.8-.6 1.1-1 .7-1 .9-2.3 1.2-3.5.3-1.2.7-2.3 1.4-3.2.7-.9 1.6-1.6 2.7-1.8.5-.1 1.1 0 1.5.4.5.3.8.8.7 1.4l-.1 1.2.4-1.1c.3-1 0-2.1-.7-2.9-.7-.8-1.8-1.2-2.8-1.3-2.1-.1-4.2.9-5.5 2.6-1.3 1.7-1.6 3.9-1.5 5.9 0 .7.1 1.4.2 2.1-.2-.8-.5-1.5-.7-2.3v-.1c-.3-1.2-.5-2.5-.6-3.7-.3-3.4.7-6.8 2.7-9.5 1.9-2.7 4.7-4.9 7.9-5.8 2-.6 4.2-.8 6.4-.5-.2.3-.3.7-.3 1-.2 1.1.2 2.2.6 3.1.4 1 1 1.8 1.7 2.6.7.7 1.5 1.4 2.5 1.9 1 .4 2 .6 3 .7 2.1 0 4-.6 5.7-1.8l-.2-.3c-.4.2-1 .1-1.4-.2-.4-.3-.7-.7-.9-1.2-.4-1-.8-2-1.3-3-1-2-2.6-3.9-4.8-4.6-1-.3-2-.2-3 .3-.5.3-.9.6-1.3 1.1-2.2-.5-4.6-.4-6.8.1-.5.1-1 .3-1.5.5.5-.6.9-1.3 1.1-2.1.3-1.1.2-2.3-.1-3.4-.3-1.1-.9-2-1.7-2.8l-.7-.8.3 1c.3.9.4 1.9.3 2.9-.1 1-.4 1.9-.7 2.8-.3.9-.7 1.8-1.1 2.7-.3.5-.6 1.1-.9 1.6-1.3 1-2.4 2.2-3.4 3.6-1 1.5-1.6 3.1-2 4.8-.4 1.7-.4 3.4-.3 5 0-.1 0-.2-.1-.2-.3-.9-.6-1.7-1.1-2.5-.8-1.6-1.9-3.2-3.1-4.6-2.4-2.8-5.5-4.9-8.4-7.1-1.4-1.1-2.7-2.3-3.7-3.8-1-1.4-1.7-3.1-1.6-4.8 0-1.7.8-3.4 2.1-4.4 1.3-1 3.3-1.1 4.7-.2l1.6.9-1.1-1.4c-1.4-1.9-3.9-2.5-6.1-2-2.2.6-3.9 2.2-4.8 4.2-.9 2-1 4.3-.5 6.4.5 2.1 1.6 4.1 2.9 5.8 1.3 1.7 2.9 3.3 4.5 4.6 1.7 1.3 3.5 2.5 5.4 3.6 1.9 1.1 3.8 2 5.5 3.3.8.6 1.6 1.3 2.4 2.1.4.4.7.8 1 1.2l.6.9c.1.3.1.7.2 1l-.1-.1c-.5-.3-1.2-.5-1.7-.2-.3.1-.5.2-.8.3-.3.1-.6.1-.8.2-.3.2-.5.5-.5.8-.9-1-2.1-1.9-3.4-2.3l-.4-.1-.2.4c-.4.7-.3 1.5-.1 2.2.2.7.5 1.2.9 1.8.8 1.1 1.5 2 2.2 3.1.4.5.9 1 1.5 1.3.7.3 1.4.3 2.1.1.7-.2 1.3-.6 1.7-1.1.4-.4.7-.8.9-1.3.2.7.5 1.5.7 2.2 1 3.3 1.8 6.6 2.3 9.9.2 1.5.3 3 .4 4.5-.4-.9-.8-1.8-1.5-2.5-1.2-1.4-2.9-2.4-4.8-2.6-1.8-.2-3.8.3-5.3 1.5-1.4 1.2-2.2 3.2-2 5 .2 1.9 1.4 3.4 2.9 4.4.7.5 1.6.9 2.5 1 .9.1 1.9-.1 2.7-.7.8-.6 1.3-1.6 1.3-2.6s-.5-2-1.4-2.6c-.8-.5-2-.6-2.8 0-.8.6-1.2 1.6-.9 2.5h.1c-.1-.9.4-1.6 1.1-2 .7-.4 1.5-.2 2.1.2.6.4.9 1.2.9 1.9s-.4 1.4-.9 1.9c-1.1 1.1-3.1 1-4.5.1-1.5-.9-2.5-2.5-2.5-4.1 0-1.6.8-3.2 2.1-4.2 1.2-1 2.9-1.4 4.5-1.2 1.6.2 3.2.9 4.3 2.1.9.9 1.5 2 2.1 3.1v4.5c-.3 6.8-1.7 13.5-4.1 20h.1c1.9-4 3.3-8.3 4.1-12.8.1-.1.4-.3.7-.5zm5.4-12.9c.5-.6 1.1-1.1 1.7-1.6.6-.5 1.3-1.1 1.8-1.8.5-.5.9-1.1 1.2-1.7.3.8.4 1.6.6 2.4.2.9.2 1.9.2 2.8 0 1.7-.3 3.3-.9 5-.8.6-1.8 1-2.8 1.1.4-.5.7-1.1.9-1.7.4-1.1.4-2.3.5-3.3l.1-3.1-.8 3c-.2.7-.8 1.2-1.5 1.6-.5.4-1.1.8-1.5 1.4v-1c-.1-.5-.2-1-.4-1.5.2-.6.6-1.1.9-1.6zm-2.4 9.1c-.2-.4-.3-.8-.4-1.2-.2-.8-.2-1.7 0-2.5s.6-1.5 1-2.4c.2-.4.3-.9.4-1.4.2.4.4.9.5 1.4.2 1 .1 2-.2 2.9h.1c.3-.5.5-1.1.6-1.7.4-.6 1.1-1 1.8-1.3.4-.2.7-.4 1.1-.7-.1.6-.2 1.2-.5 1.8-.4.9-1 1.8-1.8 2.1l-2 .8 2.2.2c1.7.2 3.4-.4 4.8-1.4-.4 1.1-1.2 2-2 2.9-.6.6-1.3 1.1-2.2 1.3-.8.2-1.7.3-2.5-.1-.5 0-.7-.3-.9-.7zm-5.5-34.4c1-1.5 2.8-2.5 4.6-2.5.9 0 1.9.2 2.5.9.4.4.7 1 .8 1.6-.4-.9-1.4-1.5-2.5-1.5-1.4 0-2.6.9-3.4 1.9-.4.5-.7 1.1-.9 1.7-.2.6-.2 1.3-.3 1.9-.1 1.2-.1 2.5-.8 3.5-.3.4-.6.7-1.1.9-.2.1-.4.2-.7.2-.1 0-.1 0-.1-.1v-.3c.1-1 .1-2 .2-2.9.4-1.9.6-3.8 1.7-5.3zm15.2-15.6c.8-.6 1.8-.7 2.8-.5 1.1.3 2 1 2.6 1.9.6.9 1 1.9 1.5 2.9.4 1 .8 2 1.5 3 .3.5.7 1 1.3 1.2.3.1.6.2.9.2-1.4.9-3.1 1.2-4.7.9-.9-.1-1.9-.4-2.7-.8-.8-.4-1.5-1-2.1-1.7-1.2-1.4-2.2-3.2-2.2-4.9 0-.3.1-.7.2-1 1 .2 1.9.4 2.8.8v-.1c-.9-.5-1.8-.8-2.7-1 .2-.4.4-.7.8-.9zm-10.6-.7c.2-1 .3-2 .3-3.1v-1.9c.3.6.5 1.2.7 1.8.2.9.2 1.9 0 2.9-.2.9-.7 1.8-1.3 2.5-.2.3-.5.6-.8.8-.1 0-.2.1-.3.1.1-.1.2-.2.2-.3.6-.9 1-1.8 1.2-2.8zM27 201c-.3-.5-.6-.9-.9-1.3-.7-.9-1.5-1.6-2.3-2.3-1.7-1.4-3.6-2.4-5.4-3.5-1.8-1.1-3.6-2.2-5.2-3.6-1.7-1.3-3.2-2.8-4.5-4.4-1.3-1.6-2.4-3.4-3-5.5-.6-2-.5-4.2.3-6.2.9-1.9 2.5-3.5 4.6-3.9 1.4-.3 3 0 4.2.8-1.3-.3-2.8 0-3.9.8-1.7 1.2-2.5 3.1-2.6 5.1-.1 2 .6 3.9 1.7 5.4 1.1 1.6 2.5 2.9 3.9 4 1.5 1.1 3 2.1 4.4 3.2 1.4 1.1 2.8 2.3 4 3.6 1.3 1.3 2.4 2.7 3.3 4.3.4.8.9 1.6 1.2 2.4.2.4.3.8.5 1.3v.3c-.2-.1-.2-.3-.3-.5zm.5 7.9c-.5.3-1 .6-1.5.7-1.1.2-2.1-.1-3-.9-.9-.8-1.7-1.9-2.2-3-.4-.9-.7-2-.5-2.8 1 .5 1.9 1.2 2.8 2 1 .9 1.8 2 2.4 3.2h.1c-.2-1.2-.8-2.4-1.5-3.4l.7-.7c.1-.2.2-.4.4-.6.2-.1.5-.1.7 0 .4.2.8.4 1.1.6.3.2.6.4 1 .7.3 1.1.6 2.2.9 3.2-.5.3-.9.6-1.4 1zm24.5 123c.9-2 1-4.3.5-6.4-.5-2.1-1.6-4.1-2.9-5.8-1.3-1.7-2.9-3.3-4.5-4.6-1.7-1.3-3.5-2.5-5.4-3.6-1.9-1.1-3.8-2-5.5-3.3-.8-.6-1.6-1.3-2.4-2.1-.4-.4-.7-.8-1-1.2l-.6-.9c-.1-.3-.1-.7-.2-1l.1.1c.5.3 1.2.5 1.7.2.3-.1.5-.2.8-.3.3-.1.6-.1.8-.2.3-.2.5-.5.5-.8.9 1 2.1 1.9 3.4 2.3l.4.1.2-.4c.4-.7.3-1.5.1-2.2-.2-.7-.5-1.2-.9-1.8-.8-1.1-1.5-2-2.2-3.1-.4-.5-.9-1-1.5-1.3-.7-.3-1.4-.3-2.1-.1-.7.2-1.3.6-1.7 1.1-.4.4-.7.8-.9 1.3-.2-.7-.5-1.5-.7-2.2-1-3.3-1.8-6.6-2.3-9.9-.2-1.5-.3-3-.4-4.5.4.9.8 1.8 1.5 2.5 1.2 1.4 2.9 2.4 4.8 2.6 1.8.2 3.8-.3 5.3-1.5 1.4-1.2 2.2-3.2 2-5-.2-1.9-1.4-3.4-2.9-4.4-.7-.5-1.6-.9-2.5-1-.9-.1-1.9.1-2.7.7-.8.6-1.3 1.6-1.3 2.6s.5 2 1.4 2.6c.8.5 2 .6 2.8 0 .8-.6 1.2-1.6.9-2.5h-.1c.1.9-.4 1.6-1.1 2-.7.4-1.5.2-2.1-.2-.6-.4-.9-1.2-.9-1.9s.4-1.4.9-1.9c1.1-1.1 3.1-1 4.5-.1 1.5.9 2.5 2.5 2.5 4.1 0 1.6-.8 3.2-2.1 4.2-1.2 1-2.9 1.4-4.5 1.2-1.6-.2-3.2-.9-4.3-2.1-.9-.9-1.5-2-2.1-3.1v-4.5c.3-6.8 1.7-13.5 4.1-20h-.1c-1.9 4-3.3 8.3-4.1 12.8-.4.1-.8.3-1.1.5-.4.3-.7.7-1 1.1-.1.2-.3.4-.5.6-.2.1-.5.2-.7.3-.4.2-.6.6-.7 1.1-.2-.2-.4-.4-.7-.5-.9-.4-1.8-.4-2.7-.2-.9.2-1.7.7-2.4 1.3-1.4 1.1-2.7 2.6-3 4.6l-.3 1.5 1-1.1.1-.1c-.7 1.3-1.1 2.8-1.2 4.3 0 1 .1 2.1.4 3 .3 1 .7 1.9 1.2 2.8l.4.4.1-.5c.2-.8.7-1.5 1.3-2 .6-.5 1.4-.9 2.1-1.4.7-.5 1.3-1.1 1.8-1.9.3-.4.5-.9.5-1.5.2.3.4.7.6.9l1.1 1.3-.5-1.7c-.2-.7 0-1.5.3-2.3.3-.8.8-1.6.9-2.6.1-.9.1-1.9-.3-2.8-.2-.4-.4-.9-.6-1.2 0-.1-.1-.2-.2-.2.5-.1.9-.4 1.1-.7.1-.2.2-.5.4-.7.2-.2.4-.3.6-.4.5-.2.9-.4 1.3-.7l.2-.2c-.3 2-.6 4.1-.7 6.1-.4 6.9.7 13.9 3.2 20.3.3.8.5 1.5.8 2.3h-.1c-.3 0-.5.1-.7.3-.4.3-.8.6-1.1 1-.7 1-.9 2.3-1.2 3.5-.3 1.2-.7 2.3-1.4 3.2-.7.9-1.6 1.6-2.7 1.8-.5.1-1.1 0-1.5-.4-.5-.3-.8-.8-.7-1.4l.1-1.2-.4 1.1c-.3 1 0 2.1.7 2.9.7.8 1.8 1.2 2.8 1.3 2.1.1 4.2-.9 5.5-2.6 1.3-1.7 1.6-3.9 1.5-5.9 0-.7-.1-1.4-.2-2.1.2.8.5 1.5.7 2.3v.1c.3 1.2.5 2.5.6 3.7.3 3.4-.7 6.8-2.7 9.5-1.9 2.7-4.7 4.9-7.9 5.8-2 .6-4.2.8-6.4.5.2-.3.3-.7.3-1 .2-1.1-.2-2.2-.6-3.1-.4-1-1-1.8-1.7-2.6-.7-.7-1.5-1.4-2.5-1.9-1-.4-2-.6-3-.7-2.1 0-4 .6-5.7 1.8l.2.3c.4-.2 1-.1 1.4.2.4.3.7.7.9 1.2.4 1 .8 2 1.3 3 1 2 2.6 3.9 4.8 4.6 1 .3 2 .2 3-.3.5-.3.9-.6 1.3-1.1 2.2.5 4.6.4 6.8-.1.5-.1 1-.3 1.5-.5-.5.6-.9 1.3-1.1 2.1-.3 1.1-.2 2.3.1 3.4.3 1.1.9 2 1.7 2.8l.7.8-.3-1c-.3-.9-.4-1.9-.3-2.9.1-1 .4-1.9.7-2.8.3-.9.7-1.8 1.1-2.7.3-.5.6-1.1.9-1.6 1.3-1 2.4-2.2 3.4-3.6 1-1.5 1.6-3.1 2-4.8.4-1.7.4-3.4.3-5 0 .1 0 .2.1.2.3.9.6 1.7 1.1 2.5.8 1.6 1.9 3.2 3.1 4.6 2.4 2.8 5.5 4.9 8.4 7.1 1.4 1.1 2.7 2.3 3.7 3.8 1 1.4 1.7 3.1 1.6 4.8 0 1.7-.8 3.4-2.1 4.4-1.3 1-3.3 1.1-4.7.2l-1.6-.9 1.1 1.4c1.4 1.9 3.9 2.5 6.1 2 2.5-.5 4.2-2.2 5.1-4.2zm-33.3-50c-.5.6-1.1 1.1-1.7 1.6-.6.5-1.3 1.1-1.8 1.8-.5.5-.9 1.1-1.2 1.7-.3-.8-.4-1.6-.6-2.4-.2-.9-.2-1.9-.2-2.8 0-1.7.3-3.3.9-5 .8-.6 1.8-1 2.8-1.1-.4.5-.7 1.1-.9 1.7-.4 1.1-.4 2.3-.5 3.3l-.1 3.1.8-3c.2-.7.8-1.2 1.5-1.6.5-.4 1.1-.8 1.5-1.4v1c.1.5.2 1 .4 1.5-.1.6-.5 1.1-.9 1.6zm2.5-9.1c.2.4.3.8.4 1.2.2.8.2 1.7 0 2.5s-.6 1.5-1 2.4c-.2.4-.3.9-.4 1.4-.2-.4-.4-.9-.5-1.4-.2-1-.1-2 .2-2.9h-.1c-.3.5-.5 1.1-.6 1.7-.4.6-1.1 1-1.8 1.3-.4.2-.7.4-1.1.7.1-.6.2-1.2.5-1.8.4-.9 1-1.8 1.8-2.1l2-.8-2.2-.2c-1.7-.2-3.4.4-4.8 1.4.4-1.1 1.2-2 2-2.9.6-.6 1.3-1.1 2.2-1.3.8-.2 1.7-.3 2.5.1.5 0 .7.3.9.7zm5.5 34.4c-1 1.5-2.8 2.5-4.6 2.5-.9 0-1.9-.2-2.5-.9-.4-.4-.7-1-.8-1.6.4.9 1.4 1.5 2.5 1.5 1.4 0 2.6-.9 3.4-1.9.4-.5.7-1.1.9-1.7.2-.6.2-1.3.3-1.9.1-1.2.1-2.5.8-3.5.3-.4.6-.7 1.1-.9.2-.1.4-.2.7-.2.1 0 .1 0 .1.1v.3c-.1 1-.1 2-.2 2.9-.4 1.9-.7 3.8-1.7 5.3zm3.4-10c.5-.3 1-.6 1.5-.7 1.1-.2 2.1.1 3 .9.9.8 1.7 1.9 2.2 3 .4.9.7 2 .5 2.8-1-.5-1.9-1.2-2.8-2-1-.9-1.8-2-2.4-3.2H32c.2 1.2.8 2.4 1.5 3.4l-.7.7c-.1.2-.2.4-.4.6-.2.1-.5.1-.7 0-.4-.2-.8-.4-1.1-.6-.3-.2-.6-.4-1-.7-.3-1.1-.6-2.2-.9-3.2.5-.3.9-.6 1.4-1zm-18.6 25.6c-.8.6-1.8.7-2.8.5-1.1-.3-2-1-2.6-1.9-.6-.9-1-1.9-1.5-2.9-.4-1-.8-2-1.5-3-.3-.5-.7-1-1.3-1.2-.3-.1-.6-.2-.9-.2 1.4-.9 3.1-1.2 4.7-.9.9.1 1.9.4 2.7.8.8.4 1.5 1 2.1 1.7 1.2 1.4 2.2 3.2 2.2 4.9 0 .3-.1.7-.2 1-1-.2-1.9-.4-2.8-.8v.1c.9.5 1.8.8 2.7 1-.2.4-.5.7-.8.9zm10.5.7c-.2 1-.3 2-.3 3.1v1.9c-.3-.6-.5-1.2-.7-1.8-.2-.9-.2-1.9 0-2.9.2-.9.7-1.8 1.3-2.5.2-.3.5-.6.8-.8.1 0 .2-.1.3-.1-.1.1-.2.2-.2.3-.5.9-.9 1.8-1.2 2.8zm20.9 11.4c1.3.3 2.8 0 3.9-.8 1.7-1.2 2.5-3.1 2.6-5.1.1-2-.6-3.9-1.7-5.4-1.1-1.6-2.5-2.9-4-4s-3-2.1-4.4-3.2c-1.4-1.1-2.8-2.3-4-3.6-1.3-1.3-2.4-2.7-3.3-4.3-.4-.8-.9-1.6-1.2-2.4-.2-.4-.3-.8-.5-1.3v-.3c.1.2.2.3.3.5.3.5.6.9.9 1.3.7.9 1.5 1.6 2.3 2.3 1.7 1.4 3.6 2.4 5.4 3.5 1.8 1.1 3.6 2.2 5.2 3.6 1.7 1.3 3.2 2.8 4.5 4.4 1.3 1.6 2.4 3.4 3 5.5.6 2 .5 4.2-.3 6.2-.9 1.9-2.5 3.5-4.6 3.9-1.3.3-2.9 0-4.1-.8zm-9.5 72c.4-.3.7-.7 1-1.1.1-.2.3-.4.5-.6.2-.1.5-.2.7-.3.4-.2.6-.6.7-1.1.2.2.4.4.7.5.9.4 1.8.4 2.7.2.9-.2 1.7-.7 2.4-1.3 1.4-1.1 2.7-2.6 3-4.6l.3-1.5-1 1.1-.1.1c.7-1.3 1.1-2.8 1.2-4.3 0-1-.1-2.1-.4-3-.3-1-.7-1.9-1.2-2.8l-.3-.4-.1.5c-.2.8-.7 1.5-1.3 2-.6.5-1.4.9-2.1 1.4-.7.5-1.3 1.1-1.8 1.9-.3.4-.5.9-.5 1.5-.2-.3-.4-.7-.6-.9l-1.1-1.3.5 1.7c.2.7 0 1.5-.3 2.3-.3.8-.8 1.6-.9 2.6-.1.9-.1 1.9.3 2.8.2.4.4.9.6 1.2 0 .1.1.2.2.2-.5.1-.9.4-1.1.7-.1.2-.2.5-.4.7-.2.2-.4.3-.6.4-.5.2-.9.4-1.3.7l-.2.2c.3-2 .6-4.1.7-6.1.4-6.9-.7-13.9-3.2-20.3-.3-.8-.5-1.5-.8-2.3h.1c.3 0 .5-.1.7-.3.4-.3.8-.6 1.1-1 .7-1 .9-2.3 1.2-3.5.3-1.2.7-2.3 1.4-3.2.7-.9 1.6-1.6 2.7-1.8.5-.1 1.1 0 1.5.4.5.3.8.8.7 1.4l-.1 1.2.4-1.1c.3-1 0-2.1-.7-2.9-.7-.8-1.8-1.2-2.8-1.3-2.1-.1-4.2.9-5.5 2.6-1.3 1.7-1.6 3.9-1.5 5.9 0 .7.1 1.4.2 2.1-.2-.8-.5-1.5-.7-2.3v-.1c-.3-1.2-.5-2.5-.6-3.7-.3-3.4.7-6.8 2.7-9.5 1.9-2.7 4.7-4.9 7.9-5.8 2-.6 4.2-.8 6.4-.5-.2.3-.3.7-.3 1-.2 1.1.2 2.2.6 3.1.4 1 1 1.8 1.7 2.6.7.7 1.5 1.4 2.5 1.9 1 .4 2 .6 3 .7 2.1 0 4-.6 5.7-1.8l-.2-.3c-.4.2-1 .1-1.4-.2-.4-.3-.7-.7-.9-1.2-.4-1-.8-2-1.3-3-1-2-2.6-3.9-4.8-4.6-1-.3-2-.2-3 .3-.5.3-.9.6-1.3 1.1-2.2-.5-4.6-.4-6.8.1-.5.1-1 .3-1.5.5.5-.6.9-1.3 1.1-2.1.3-1.1.2-2.3-.1-3.4-.3-1.1-.9-2-1.7-2.8l-.7-.8.3 1c.3.9.4 1.9.3 2.9-.1 1-.4 1.9-.7 2.8-.3.9-.7 1.8-1.1 2.7-.3.5-.6 1.1-.9 1.6-1.3 1-2.4 2.2-3.4 3.6-1 1.5-1.6 3.1-2 4.8-.4 1.7-.4 3.4-.3 5 0-.1 0-.2-.1-.2-.3-.9-.6-1.7-1.1-2.5-.8-1.6-1.9-3.2-3.1-4.6-2.4-2.8-5.5-4.9-8.4-7.1-1.4-1.1-2.7-2.3-3.7-3.8-1-1.4-1.7-3.1-1.6-4.8 0-1.7.8-3.4 2.1-4.4 1.3-1 3.3-1.1 4.7-.2l1.6.9-1.1-1.4c-1.4-1.9-3.9-2.5-6.1-2-2.2.6-3.9 2.2-4.8 4.2-.9 2-1 4.3-.5 6.4.5 2.1 1.6 4.1 2.9 5.8 1.3 1.7 2.9 3.3 4.5 4.6 1.7 1.3 3.5 2.5 5.4 3.6 1.9 1.1 3.8 2 5.5 3.3.8.6 1.6 1.3 2.4 2.1.4.4.7.8 1 1.2l.6.9c.1.3.1.7.2 1l-.1-.1c-.5-.3-1.2-.5-1.7-.2-.3.1-.5.2-.8.3-.3.1-.6.1-.8.2-.3.2-.5.5-.5.8-.9-1-2.1-1.9-3.4-2.3l-.4-.1-.2.4c-.4.7-.3 1.5-.1 2.2.2.7.5 1.2.9 1.8.8 1 1.5 2 2.2 3.1.4.5.9 1 1.5 1.3.7.3 1.4.3 2.1.1.7-.2 1.3-.6 1.7-1.1.4-.4.7-.8.9-1.3.2.7.5 1.5.7 2.2 1 3.3 1.8 6.6 2.3 10 .2 1.5.3 3 .4 4.5-.4-.9-.8-1.8-1.5-2.5-1.2-1.4-2.9-2.4-4.8-2.6-1.8-.2-3.8.3-5.3 1.5-1.4 1.2-2.2 3.2-2 5 .2 1.9 1.4 3.4 2.9 4.4.7.5 1.6.9 2.5 1 .9.1 1.9-.1 2.7-.7.8-.6 1.3-1.6 1.3-2.6s-.5-2-1.4-2.6c-.8-.5-2-.6-2.8 0-.8.6-1.2 1.6-.9 2.5h.1c-.1-.9.4-1.6 1.1-2 .7-.4 1.5-.2 2.1.2.6.4.9 1.2.9 1.9s-.4 1.4-.9 1.9c-1.1 1.1-3.1 1-4.5.1-1.5-.9-2.5-2.5-2.5-4.1 0-1.6.8-3.2 2.1-4.2 1.2-1 2.9-1.4 4.5-1.2 1.6.2 3.2.9 4.3 2.1.9.9 1.5 2 2.1 3.1v4.5c-.3 6.8-1.7 13.5-4.1 20h.1c1.9-4 3.3-8.3 4.1-12.8.1-.2.4-.4.7-.6zm5.4-12.9c.5-.6 1.1-1.1 1.7-1.6.6-.5 1.3-1.1 1.8-1.8.5-.5.9-1.1 1.2-1.7.3.8.4 1.6.6 2.4.2.9.2 1.9.2 2.8 0 1.7-.3 3.3-.9 5-.8.6-1.8 1-2.8 1.1.4-.5.7-1.1.9-1.7.4-1.1.4-2.3.5-3.3l.1-3.1-.8 3c-.2.7-.8 1.2-1.5 1.6-.5.4-1.1.8-1.5 1.4v-1c-.1-.5-.2-1-.4-1.5.2-.7.6-1.2.9-1.6zm-2.4 9.1c-.2-.4-.3-.8-.4-1.2-.2-.8-.2-1.7 0-2.5s.6-1.5 1-2.4c.2-.4.3-.9.4-1.4.2.4.4.9.5 1.4.2 1 .1 2-.2 2.9h.1c.3-.5.5-1.1.6-1.7.4-.6 1.1-1 1.8-1.3.4-.2.7-.4 1.1-.7-.1.6-.2 1.2-.5 1.8-.4.9-1 1.8-1.8 2.1l-2 .8 2.2.2c1.7.2 3.4-.4 4.8-1.4-.4 1.1-1.2 2-2 2.9-.6.6-1.3 1.1-2.2 1.3-.8.2-1.7.3-2.5-.1-.5 0-.7-.3-.9-.7zm-5.5-34.4c1-1.5 2.8-2.5 4.6-2.5.9 0 1.9.2 2.5.9.4.4.7 1 .8 1.6-.4-.9-1.4-1.5-2.5-1.5-1.4 0-2.6.9-3.4 1.9-.4.5-.7 1.1-.9 1.7-.2.6-.2 1.3-.3 1.9-.1 1.2-.1 2.5-.8 3.5-.3.4-.6.7-1.1.9-.2.1-.4.2-.7.2-.1 0-.1 0-.1-.1v-.3c.1-1 .1-2 .2-2.9.4-1.9.6-3.8 1.7-5.3zM46.1 353c.8-.6 1.8-.7 2.8-.5 1.1.3 2 1 2.6 1.9.6.9 1 1.9 1.5 2.9.4 1 .8 2 1.5 3 .3.5.7 1 1.3 1.2.3.1.6.2.9.2-1.4.9-3.1 1.2-4.7.9-.9-.1-1.9-.4-2.7-.8-.8-.4-1.5-1-2.1-1.7-1.2-1.4-2.2-3.2-2.2-4.9 0-.3.1-.7.2-1 1 .2 1.9.4 2.8.8v-.1c-.9-.5-1.8-.8-2.7-1 .2-.3.4-.6.8-.9zm-10.6-.7c.2-1 .3-2 .3-3.1v-1.9c.3.6.5 1.2.7 1.8.2.9.2 1.9 0 2.9-.2.9-.7 1.8-1.3 2.5-.2.3-.5.6-.8.8-.1 0-.2.1-.3.1.1-.1.2-.2.2-.3.6-.8 1-1.8 1.2-2.8zM27 370.8c-.3-.5-.6-.9-.9-1.3-.7-.9-1.5-1.6-2.3-2.3-1.7-1.4-3.6-2.4-5.4-3.5-1.8-1.1-3.6-2.2-5.2-3.6-1.7-1.3-3.2-2.8-4.5-4.4-1.3-1.6-2.4-3.4-3-5.5-.7-2-.7-4.2.2-6.2.9-1.9 2.5-3.5 4.6-3.9 1.4-.3 3 0 4.2.8-1.3-.3-2.8 0-3.9.8-1.7 1.2-2.5 3.1-2.6 5.1-.1 2 .6 3.9 1.7 5.4 1.1 1.6 2.5 2.9 3.9 4 1.5 1.1 3 2.1 4.4 3.2 1.4 1.1 2.8 2.3 4 3.6 1.3 1.3 2.4 2.7 3.3 4.3.4.8.9 1.6 1.2 2.4.2.4.3.8.5 1.3v.3c-.1-.2-.1-.3-.2-.5zm.5 7.8c-.5.3-1 .6-1.5.7-1.1.2-2.1-.1-3-.9-.9-.8-1.7-1.9-2.2-3-.4-.9-.7-2-.5-2.8 1 .5 1.9 1.2 2.8 2 1 .9 1.8 2 2.4 3.2h.1c-.2-1.2-.8-2.4-1.5-3.4l.7-.7c.1-.2.2-.4.4-.6.2-.1.5-.1.7 0 .4.2.8.4 1.1.6.3.2.6.4 1 .7.3 1.1.6 2.2.9 3.2-.5.3-.9.7-1.4 1zM52 501.7c.9-2 1-4.3.5-6.4-.5-2.1-1.6-4.1-2.9-5.8-1.3-1.7-2.9-3.3-4.5-4.6-1.7-1.3-3.5-2.5-5.4-3.6-1.9-1.1-3.8-2-5.5-3.3-.8-.6-1.6-1.3-2.4-2.1-.4-.4-.7-.8-1-1.2l-.6-.9c-.1-.3-.1-.7-.2-1l.1.1c.5.3 1.2.5 1.7.2.3-.1.5-.2.8-.3.3-.1.6-.1.8-.2.3-.2.5-.5.5-.8.9 1 2.1 1.9 3.4 2.3l.4.1.2-.4c.4-.7.3-1.5.1-2.2-.2-.7-.5-1.2-.9-1.8-.8-1.1-1.5-2-2.2-3.1-.4-.5-.9-1-1.5-1.3-.7-.3-1.4-.3-2.1-.1-.7.2-1.3.6-1.7 1.1-.4.4-.7.8-.9 1.3-.2-.7-.5-1.5-.7-2.2-1-3.3-1.8-6.6-2.3-9.9-.2-1.5-.3-3-.4-4.5.4.9.8 1.8 1.5 2.5 1.2 1.4 2.9 2.4 4.8 2.6 1.8.2 3.8-.3 5.3-1.5 1.4-1.2 2.2-3.2 2-5-.2-1.9-1.4-3.4-2.9-4.4-.7-.5-1.6-.9-2.5-1-.9-.1-1.9.1-2.7.7-.8.6-1.3 1.6-1.3 2.6s.5 2 1.4 2.6c.8.5 2 .6 2.8 0 .8-.6 1.2-1.6.9-2.5h-.1c.1.9-.4 1.6-1.1 2-.7.4-1.5.2-2.1-.2-.6-.4-.9-1.2-.9-1.9s.4-1.4.9-1.9c1.1-1.1 3.1-1 4.5-.1 1.5.9 2.5 2.5 2.5 4.1 0 1.6-.8 3.2-2.1 4.2-1.2 1-2.9 1.4-4.5 1.2-1.6-.2-3.2-.9-4.3-2.1-.9-.9-1.5-2-2.1-3.1v-4.5c.3-6.8 1.7-13.5 4.1-20h-.1c-1.9 4-3.3 8.3-4.1 12.8-.4.1-.8.3-1.1.5-.4.3-.7.7-1 1.1-.1.2-.3.4-.5.6-.2.1-.5.2-.7.3-.4.2-.6.6-.7 1.1-.2-.2-.4-.4-.7-.5-.9-.4-1.8-.4-2.7-.2-.9.2-1.7.7-2.4 1.3-1.4 1.1-2.7 2.6-3 4.6l-.3 1.5 1-1.1.1-.1c-.7 1.3-1.1 2.8-1.2 4.3 0 1 .1 2.1.4 3 .3 1 .7 1.9 1.2 2.8l.3.4.1-.5c.2-.8.7-1.5 1.3-2 .6-.5 1.4-.9 2.1-1.4.7-.5 1.3-1.1 1.8-1.9.3-.4.5-.9.5-1.5.2.3.4.7.6.9l1.1 1.3-.5-1.7c-.2-.7 0-1.5.3-2.3.3-.8.8-1.6.9-2.6.1-.9.1-1.9-.3-2.8-.2-.4-.4-.9-.6-1.2 0-.1-.1-.2-.2-.2.5-.1.9-.4 1.1-.7.1-.2.2-.5.4-.7.2-.2.4-.3.6-.4.5-.2.9-.4 1.3-.7l.2-.2c-.3 2-.6 4.1-.7 6.1-.4 6.9.7 13.9 3.2 20.3.3.8.5 1.5.8 2.3h-.1c-.3 0-.5.1-.7.3-.4.3-.8.6-1.1 1-.7 1-.9 2.3-1.2 3.5-.3 1.2-.7 2.3-1.4 3.2-.7.9-1.6 1.6-2.7 1.8-.5.1-1.1 0-1.5-.4-.5-.3-.8-.8-.7-1.4l.1-1.2-.4 1.1c-.3 1 0 2.1.7 2.9.7.8 1.8 1.2 2.8 1.3 2.1.1 4.2-.9 5.5-2.6 1.3-1.7 1.6-3.9 1.5-5.9 0-.7-.1-1.4-.2-2.1.2.8.5 1.5.7 2.3v.1c.3 1.2.5 2.5.6 3.7.3 3.4-.7 6.8-2.7 9.5-1.9 2.7-4.7 4.9-7.9 5.8-2 .6-4.2.8-6.4.5.2-.3.3-.7.3-1 .2-1.1-.2-2.2-.6-3.1-.4-1-1-1.8-1.7-2.6-.7-.7-1.5-1.4-2.5-1.9-1-.4-2-.6-3-.7-2.1 0-4 .6-5.7 1.8l.2.3c.4-.2 1-.1 1.4.2.4.3.7.7.9 1.2.4 1 .8 2 1.3 3 1 2 2.6 3.9 4.8 4.6 1 .3 2 .2 3-.3.5-.3.9-.6 1.3-1.1 2.2.5 4.6.4 6.8-.1.5-.1 1-.3 1.5-.5-.5.6-.9 1.3-1.1 2.1-.3 1.1-.2 2.3.1 3.4.3 1.1.9 2 1.7 2.8l.7.8-.3-1c-.3-.9-.4-1.9-.3-2.9.1-1 .4-1.9.7-2.8.3-.9.7-1.8 1.1-2.7.3-.5.6-1.1.9-1.6 1.3-1 2.4-2.2 3.4-3.6 1-1.5 1.6-3.1 2-4.8.4-1.7.4-3.4.3-5 0 .1 0 .2.1.2.3.9.6 1.7 1.1 2.5.8 1.6 1.9 3.2 3.1 4.6 2.4 2.8 5.5 4.9 8.4 7.1 1.4 1.1 2.7 2.3 3.7 3.8 1 1.4 1.7 3.1 1.6 4.8 0 1.7-.8 3.4-2.1 4.4-1.3 1-3.3 1.1-4.7.2l-1.6-.9 1.1 1.4c1.4 1.9 3.9 2.5 6.1 2 2.6-.5 4.3-2.2 5.2-4.2zm-33.3-50c-.5.6-1.1 1.1-1.7 1.6-.6.5-1.3 1.1-1.8 1.8-.5.5-.9 1.1-1.2 1.7-.3-.8-.4-1.6-.6-2.4-.2-.9-.2-1.9-.2-2.8 0-1.7.3-3.3.9-5 .8-.6 1.8-1 2.8-1.1-.4.5-.7 1.1-.9 1.7-.4 1.1-.4 2.3-.5 3.3l-.1 3.1.8-3c.2-.7.8-1.2 1.5-1.6.5-.4 1.1-.8 1.5-1.4v1c.1.5.2 1 .4 1.5-.1.6-.5 1.1-.9 1.6zm2.5-9.2c.2.4.3.8.4 1.2.2.8.2 1.7 0 2.5s-.6 1.5-1 2.4c-.2.4-.3.9-.4 1.4-.2-.4-.4-.9-.5-1.4-.2-1-.1-2 .2-2.9h-.1c-.3.5-.5 1.1-.6 1.7-.4.6-1.1 1-1.8 1.3-.4.2-.7.4-1.1.7.1-.6.2-1.2.5-1.8.4-.9 1-1.8 1.8-2.1l2-.8-2.2-.2c-1.7-.2-3.4.4-4.8 1.4.4-1.1 1.2-2 2-2.9.6-.6 1.3-1.1 2.2-1.3.8-.2 1.7-.3 2.5.1.5 0 .7.3.9.7zm5.5 34.4c-1 1.5-2.8 2.5-4.6 2.5-.9 0-1.9-.2-2.5-.9-.4-.4-.7-1-.8-1.6.4.9 1.4 1.5 2.5 1.5 1.4 0 2.6-.9 3.4-1.9.4-.5.7-1.1.9-1.7.2-.6.2-1.3.3-1.9.1-1.2.1-2.5.8-3.5.3-.4.6-.7 1.1-.9.2-.1.4-.2.7-.2.1 0 .1 0 .1.1v.3c-.1 1-.1 2-.2 2.9-.4 1.9-.7 3.9-1.7 5.3zm3.4-9.9c.5-.3 1-.6 1.5-.7 1.1-.2 2.1.1 3 .9.9.8 1.7 1.9 2.2 3 .4.9.7 2 .5 2.8-1-.5-1.9-1.2-2.8-2-1-.9-1.8-2-2.4-3.2H32c.2 1.2.8 2.4 1.5 3.4l-.7.7c-.1.2-.2.4-.4.6-.2.1-.5.1-.7 0-.4-.2-.8-.4-1.1-.6-.3-.2-.6-.4-1-.7-.3-1.1-.6-2.2-.9-3.2.5-.3.9-.7 1.4-1zm-18.6 25.6c-.8.6-1.8.7-2.8.5-1.1-.3-2-1-2.6-1.9-.6-.9-1-1.9-1.5-2.9-.4-1-.8-2-1.5-3-.3-.5-.7-1-1.3-1.2-.3-.1-.6-.2-.9-.2 1.4-.9 3.1-1.2 4.7-.9.9.1 1.9.4 2.7.8.8.4 1.5 1 2.1 1.7 1.2 1.4 2.2 3.2 2.2 4.9 0 .3-.1.7-.2 1-1-.2-1.9-.4-2.8-.8v.1c.9.5 1.8.8 2.7 1-.2.3-.5.6-.8.9zm10.5.7c-.2 1-.3 2-.3 3.1v1.9c-.3-.6-.5-1.2-.7-1.8-.2-.9-.2-1.9 0-2.9.2-.9.7-1.8 1.3-2.5.2-.3.5-.6.8-.8.1 0 .2-.1.3-.1-.1.1-.2.2-.2.3-.5.9-.9 1.8-1.2 2.8zm20.9 11.4c1.3.3 2.8 0 3.9-.8 1.7-1.2 2.5-3.1 2.6-5.1.1-2-.6-3.9-1.7-5.4-1.1-1.6-2.5-2.9-4-4s-3-2.1-4.4-3.2c-1.4-1.1-2.8-2.3-4-3.6-1.3-1.3-2.4-2.7-3.3-4.3-.4-.8-.9-1.6-1.2-2.4-.2-.4-.3-.8-.5-1.3v-.3c.1.2.2.3.3.5.3.5.6.9.9 1.3.7.9 1.5 1.6 2.3 2.3 1.7 1.4 3.6 2.4 5.4 3.5 1.8 1.1 3.6 2.2 5.2 3.6 1.7 1.3 3.2 2.8 4.5 4.4 1.3 1.6 2.4 3.4 3 5.5.6 2 .5 4.2-.3 6.2-.9 1.9-2.5 3.5-4.6 3.9-1.3.3-2.9 0-4.1-.8zm-9.5 72c.4-.3.7-.7 1-1.1.1-.2.3-.4.5-.6.2-.1.5-.2.7-.3.4-.2.6-.6.7-1.1.2.2.4.4.7.5.9.4 1.8.4 2.7.2.9-.2 1.7-.7 2.4-1.3 1.4-1.1 2.7-2.6 3-4.6l.3-1.5-1 1.1-.1.1c.7-1.3 1.1-2.8 1.2-4.3 0-1-.1-2.1-.4-3-.3-1-.7-1.9-1.2-2.8l-.3-.4-.1.5c-.2.8-.7 1.5-1.3 2-.6.5-1.4.9-2.1 1.4-.7.5-1.3 1.1-1.8 1.9-.3.4-.5.9-.5 1.5-.2-.3-.4-.7-.6-.9l-1.1-1.3.5 1.7c.2.7 0 1.5-.3 2.3-.3.8-.8 1.6-.9 2.6-.1.9-.1 1.9.3 2.8.2.4.4.9.6 1.2 0 .1.1.2.2.2-.5.1-.9.4-1.1.7-.1.2-.2.5-.4.7-.2.2-.4.3-.6.4-.5.2-.9.4-1.3.7l-.2.2c.3-2 .6-4.1.7-6.1.4-6.9-.7-13.9-3.2-20.3-.3-.8-.5-1.5-.8-2.3h.1c.3 0 .5-.1.7-.3.4-.3.8-.6 1.1-1 .7-1 .9-2.3 1.2-3.5.3-1.2.7-2.3 1.4-3.2.7-.9 1.6-1.6 2.7-1.8.5-.1 1.1 0 1.5.4.5.3.8.8.7 1.4l-.1 1.2.4-1.1c.3-1 0-2.1-.7-2.9-.7-.8-1.8-1.2-2.8-1.3-2.1-.1-4.2.9-5.5 2.6-1.3 1.7-1.6 3.9-1.5 5.9 0 .7.1 1.4.2 2.1-.2-.8-.5-1.5-.7-2.3v-.1c-.3-1.2-.5-2.5-.6-3.7-.3-3.4.7-6.8 2.7-9.5 1.9-2.7 4.7-4.9 7.9-5.8 2-.6 4.2-.8 6.4-.5-.2.3-.3.7-.3 1-.2 1.1.2 2.2.6 3.1.4 1 1 1.8 1.7 2.6.7.7 1.5 1.4 2.5 1.9 1 .4 2 .6 3 .7 2.1 0 4-.6 5.7-1.8l-.2-.3c-.4.2-1 .1-1.4-.2-.4-.3-.7-.7-.9-1.2-.4-1-.8-2-1.3-3-1-2-2.6-3.9-4.8-4.6-1-.3-2-.2-3 .3-.5.3-.9.6-1.3 1.1-2.2-.5-4.6-.4-6.8.1-.5.1-1 .3-1.5.5.5-.6.9-1.3 1.1-2.1.3-1.1.2-2.3-.1-3.4-.3-1.1-.9-2-1.7-2.8l-.7-.8.3 1c.3.9.4 1.9.3 2.9-.1 1-.4 1.9-.7 2.8-.3.9-.7 1.8-1.1 2.7-.3.5-.6 1.1-.9 1.6-1.3 1-2.4 2.2-3.4 3.6-1 1.5-1.6 3.1-2 4.8-.4 1.7-.4 3.4-.3 5 0-.1 0-.2-.1-.2-.3-.9-.6-1.7-1.1-2.5-.8-1.6-1.9-3.2-3.1-4.6-2.4-2.8-5.5-4.9-8.4-7.1-1.4-1.1-2.7-2.3-3.7-3.8-1-1.4-1.7-3.1-1.6-4.8 0-1.7.8-3.4 2.1-4.4 1.3-1 3.3-1.1 4.7-.2l1.6.9-1.1-1.4c-1.4-1.9-3.9-2.5-6.1-2-2.2.6-3.9 2.2-4.8 4.2-.9 2-1 4.3-.5 6.4.5 2.1 1.6 4.1 2.9 5.8 1.3 1.7 2.9 3.3 4.5 4.6 1.7 1.3 3.5 2.5 5.4 3.6 1.9 1.1 3.8 2 5.5 3.3.8.6 1.6 1.3 2.4 2.1.4.4.7.8 1 1.2l.6.9c.1.3.1.7.2 1l-.1-.1c-.5-.3-1.2-.5-1.7-.2-.3.1-.5.2-.8.3-.3.1-.6.1-.8.2-.3.2-.5.5-.5.8-.9-1-2.1-1.9-3.4-2.3l-.4-.1-.2.4c-.4.7-.3 1.5-.1 2.2.2.7.5 1.2.9 1.8.8 1.1 1.5 2 2.2 3.1.4.5.9 1 1.5 1.3.7.3 1.4.3 2.1.1.7-.2 1.3-.6 1.7-1.1.4-.4.7-.8.9-1.3.2.7.5 1.5.7 2.2 1 3.3 1.8 6.6 2.3 10 .2 1.5.3 3 .4 4.5-.4-.9-.8-1.8-1.5-2.5-1.2-1.4-2.9-2.4-4.8-2.6-1.8-.2-3.8.3-5.3 1.5-1.4 1.2-2.2 3.2-2 5 .2 1.9 1.4 3.4 2.9 4.4.7.5 1.6.9 2.5 1 .9.1 1.9-.1 2.7-.7.8-.6 1.3-1.6 1.3-2.6s-.5-2-1.4-2.6c-.8-.5-2-.6-2.8 0-.8.6-1.2 1.6-.9 2.5h.1c-.1-.9.4-1.6 1.1-2 .7-.4 1.5-.2 2.1.2.6.4.9 1.2.9 1.9s-.4 1.4-.9 1.9c-1.1 1.1-3.1 1-4.5.1-1.5-.9-2.5-2.5-2.5-4.1 0-1.6.8-3.2 2.1-4.2 1.2-1 2.9-1.4 4.5-1.2 1.6.2 3.2.9 4.3 2.1.9.9 1.5 2 2.1 3.1v4.5c-.3 6.8-1.7 13.5-4.1 20h.1c1.9-4 3.3-8.3 4.1-12.8.1-.2.4-.4.7-.6zm5.4-13c.5-.6 1.1-1.1 1.7-1.6.6-.5 1.3-1.1 1.8-1.8.5-.5.9-1.1 1.2-1.7.3.8.4 1.6.6 2.4.2.9.2 1.9.2 2.8 0 1.7-.3 3.3-.9 5-.8.6-1.8 1-2.8 1.1.4-.5.7-1.1.9-1.7.4-1.1.4-2.3.5-3.3l.1-3.1-.8 3c-.2.7-.8 1.2-1.5 1.6-.5.4-1.1.8-1.5 1.4v-1c-.1-.5-.2-1-.4-1.5.2-.6.6-1.1.9-1.6zm-2.4 9.2c-.2-.4-.3-.8-.4-1.2-.2-.8-.2-1.7 0-2.5s.6-1.5 1-2.4c.2-.4.3-.9.4-1.4.2.4.4.9.5 1.4.2 1 .1 2-.2 2.9h.1c.3-.5.5-1.1.6-1.7.4-.6 1.1-1 1.8-1.3.4-.2.7-.4 1.1-.7-.1.6-.2 1.2-.5 1.8-.4.9-1 1.8-1.8 2.1l-2 .8 2 .3c1.7.2 3.4-.4 4.8-1.4-.4 1.1-1.2 2-2 2.9-.6.6-1.3 1.1-2.2 1.3-.8.2-1.7.3-2.5-.1-.3-.1-.5-.4-.7-.8zm-5.5-34.4c1-1.5 2.8-2.5 4.6-2.5.9 0 1.9.2 2.5.9.4.4.7 1 .8 1.6-.4-.9-1.4-1.5-2.5-1.5-1.4 0-2.6.9-3.4 1.9-.4.5-.7 1.1-.9 1.7-.2.6-.2 1.3-.3 1.9-.1 1.2-.1 2.5-.8 3.5-.3.4-.6.7-1.1.9-.2.1-.4.2-.7.2-.1 0-.1 0-.1-.1v-.3c.1-1 .1-2 .2-2.9.4-2 .6-3.9 1.7-5.3zm15.2-15.7c.8-.6 1.8-.7 2.8-.5 1.1.3 2 1 2.6 1.9.6.9 1 1.9 1.5 2.9.4 1 .8 2 1.5 3 .3.5.7 1 1.3 1.2.3.1.6.2.9.2-1.4.9-3.1 1.2-4.7.9-.9-.1-1.9-.4-2.7-.8-.8-.4-1.5-1-2.1-1.7-1.2-1.4-2.2-3.2-2.2-4.9 0-.3.1-.7.2-1 1 .2 1.9.4 2.8.8v-.1c-.9-.5-1.8-.8-2.7-1 .2-.3.4-.6.8-.9zm-10.6-.7c.2-1 .3-2 .3-3.1v-1.9c.3.6.5 1.2.7 1.8.2.9.2 1.9 0 2.9-.2.9-.7 1.8-1.3 2.5-.2.3-.5.6-.8.8-.1 0-.2.1-.3.1.1-.1.2-.2.2-.3.6-.9 1-1.8 1.2-2.8zM27 540.6c-.3-.5-.6-.9-.9-1.3-.7-.9-1.5-1.6-2.3-2.3-1.7-1.4-3.6-2.4-5.4-3.5-1.8-1.1-3.6-2.2-5.2-3.6-1.7-1.3-3.2-2.8-4.5-4.4-1.3-1.6-2.4-3.4-3-5.5-.6-2-.5-4.2.3-6.2.9-1.9 2.5-3.5 4.6-3.9 1.4-.3 3 0 4.2.8-1.3-.3-2.8 0-3.9.8-1.7 1.2-2.5 3.1-2.6 5.1-.1 2 .6 3.9 1.7 5.4 1.1 1.6 2.5 2.9 3.9 4 1.5 1.1 3 2.1 4.4 3.2 1.4 1.1 2.8 2.3 4 3.6 1.3 1.3 2.4 2.7 3.3 4.3.4.8.9 1.6 1.2 2.4.2.4.3.8.5 1.3v.3c-.2-.2-.2-.4-.3-.5zm.5 7.8c-.5.3-1 .6-1.5.7-1.1.2-2.1-.1-3-.9-.9-.8-1.7-1.9-2.2-3-.4-.9-.7-2-.5-2.8 1 .5 1.9 1.2 2.8 2 1 .9 1.8 2 2.4 3.2h.1c-.2-1.2-.8-2.4-1.5-3.4l.7-.7c.1-.2.2-.4.4-.6.2-.1.5-.1.7 0 .4.2.8.4 1.1.6.3.2.6.4 1 .7.3 1.1.6 2.2.9 3.2-.5.3-.9.7-1.4 1zM52 671.5c.9-2 1-4.3.5-6.4-.5-2.1-1.6-4.1-2.9-5.8-1.3-1.7-2.9-3.3-4.5-4.6-1.7-1.3-3.5-2.5-5.4-3.6-1.9-1.1-3.8-2-5.5-3.3-.8-.6-1.6-1.3-2.4-2.1-.4-.4-.7-.8-1-1.2l-.6-.9c-.1-.3-.1-.7-.2-1l.1.1c.5.3 1.2.5 1.7.2.3-.1.5-.2.8-.3.3-.1.6-.1.8-.2.3-.2.5-.5.5-.8.9 1 2.1 1.9 3.4 2.3l.4.1.2-.4c.4-.7.3-1.5.1-2.2-.2-.7-.5-1.2-.9-1.8-.8-1.1-1.5-2-2.2-3.1-.4-.5-.9-1-1.5-1.3-.7-.3-1.4-.3-2.1-.1-.7.2-1.3.6-1.7 1.1-.4.4-.7.8-.9 1.3-.2-.7-.5-1.5-.7-2.2-1-3.3-1.8-6.6-2.3-9.9-.2-1.5-.3-3-.4-4.5.4.9.8 1.8 1.5 2.5 1.2 1.4 2.9 2.4 4.8 2.6 1.8.2 3.8-.3 5.3-1.5 1.4-1.2 2.2-3.2 2-5-.2-1.9-1.4-3.4-2.9-4.4-.7-.5-1.6-.9-2.5-1-.9-.1-1.9.1-2.7.7-.8.6-1.3 1.6-1.3 2.6s.5 2 1.4 2.6c.8.5 2 .6 2.8 0 .8-.6 1.2-1.6.9-2.5h-.1c.1.9-.4 1.6-1.1 2-.7.4-1.5.2-2.1-.2-.6-.4-.9-1.2-.9-1.9s.4-1.4.9-1.9c1.1-1.1 3.1-1 4.5-.1 1.5.9 2.5 2.5 2.5 4.1 0 1.6-.8 3.2-2.1 4.2-1.2 1-2.9 1.4-4.5 1.2-1.6-.2-3.2-.9-4.3-2.1-.9-.9-1.5-2-2.1-3.1v-4.5c.3-6.8 1.7-13.5 4.1-20h-.1c-1.9 4-3.3 8.3-4.1 12.8-.4.1-.8.3-1.1.5-.4.3-.7.7-1 1.1-.1.2-.3.4-.5.6-.2.1-.5.2-.7.3-.4.2-.6.6-.7 1.1-.2-.2-.4-.4-.7-.5-.9-.4-1.8-.4-2.7-.2-.9.2-1.7.7-2.4 1.3-1.4 1.1-2.7 2.6-3 4.6l-.3 1.5 1-1.1.1-.1c-.7 1.3-1.1 2.8-1.2 4.3 0 1 .1 2.1.4 3 .3 1 .7 1.9 1.2 2.8l.3.4.1-.5c.2-.8.7-1.5 1.3-2 .6-.5 1.4-.9 2.1-1.4.7-.5 1.3-1.1 1.8-1.9.3-.4.5-.9.5-1.5.2.3.4.7.6.9l1.1 1.3-.5-1.7c-.2-.7 0-1.5.3-2.3.3-.8.8-1.6.9-2.6.1-.9.1-1.9-.3-2.8-.2-.4-.4-.9-.6-1.2 0-.1-.1-.2-.2-.2.5-.1.9-.4 1.1-.7.1-.2.2-.5.4-.7.2-.2.4-.3.6-.4.5-.2.9-.4 1.3-.7l.2-.2c-.3 2-.6 4.1-.7 6.1-.4 6.9.7 13.9 3.2 20.3.3.8.5 1.5.8 2.3h-.1c-.3 0-.5.1-.7.3-.4.3-.8.6-1.1 1-.7 1-.9 2.3-1.2 3.5-.3 1.2-.7 2.3-1.4 3.2-.7.9-1.6 1.6-2.7 1.8-.5.1-1.1 0-1.5-.4-.5-.3-.8-.8-.7-1.4l.1-1.2-.4 1.1c-.3 1 0 2.1.7 2.9.7.8 1.8 1.2 2.8 1.3 2.1.1 4.2-.9 5.5-2.6 1.3-1.7 1.6-3.9 1.5-5.9 0-.7-.1-1.4-.2-2.1.2.8.5 1.5.7 2.3v.1c.3 1.2.5 2.5.6 3.7.3 3.4-.7 6.8-2.7 9.5-1.9 2.7-4.7 4.9-7.9 5.8-2 .6-4.2.8-6.4.5.2-.3.3-.7.3-1 .2-1.1-.2-2.2-.6-3.1-.4-1-1-1.8-1.7-2.6-.7-.7-1.5-1.4-2.5-1.9-1-.4-2-.6-3-.7-2.1 0-4 .6-5.7 1.8l.2.3c.4-.2 1-.1 1.4.2.4.3.7.7.9 1.2.4 1 .8 2 1.3 3 1 2 2.6 3.9 4.8 4.6 1 .3 2 .2 3-.3.5-.3.9-.6 1.3-1.1 2.2.5 4.6.4 6.8-.1.5-.1 1-.3 1.5-.5-.5.6-.9 1.3-1.1 2.1-.3 1.1-.2 2.3.1 3.4.3 1.1.9 2 1.7 2.8l.7.8-.3-1c-.3-.9-.4-1.9-.3-2.9.1-1 .4-1.9.7-2.8.3-.9.7-1.8 1.1-2.7.3-.5.6-1.1.9-1.6 1.3-1 2.4-2.2 3.4-3.6 1-1.5 1.6-3.1 2-4.8.4-1.7.4-3.4.3-5 0 .1 0 .2.1.2.3.9.6 1.7 1.1 2.5.8 1.6 1.9 3.2 3.1 4.6 2.4 2.8 5.5 4.9 8.4 7.1 1.4 1.1 2.7 2.3 3.7 3.8 1 1.4 1.7 3.1 1.6 4.8 0 1.7-.8 3.4-2.1 4.4-1.3 1-3.3 1.1-4.7.2l-1.6-.9 1.1 1.4c1.4 1.9 3.9 2.5 6.1 2 2.6-.6 4.3-2.2 5.2-4.2zm-33.3-50.1c-.5.6-1.1 1.1-1.7 1.6-.6.5-1.3 1.1-1.8 1.8-.5.5-.9 1.1-1.2 1.7-.3-.8-.4-1.6-.6-2.4-.2-.9-.2-1.9-.2-2.8 0-1.7.3-3.3.9-5 .8-.6 1.8-1 2.8-1.1-.4.5-.7 1.1-.9 1.7-.4 1.1-.4 2.3-.5 3.3l-.1 3.1.8-3c.2-.7.8-1.2 1.5-1.6.5-.4 1.1-.8 1.5-1.4v1c.1.5.2 1 .4 1.5-.1.6-.5 1.2-.9 1.6zm2.5-9.1c.2.4.3.8.4 1.2.2.8.2 1.7 0 2.5s-.6 1.5-1 2.4c-.2.4-.3.9-.4 1.4-.2-.4-.4-.9-.5-1.4-.2-1-.1-2 .2-2.9h-.1c-.3.5-.5 1.1-.6 1.7-.4.6-1.1 1-1.8 1.3-.4.2-.7.4-1.1.7.1-.6.2-1.2.5-1.8.4-.9 1-1.8 1.8-2.1l2-.8-2.2-.2c-1.7-.2-3.4.4-4.8 1.4.4-1.1 1.2-2 2-2.9.6-.6 1.3-1.1 2.2-1.3.8-.2 1.7-.3 2.5.1.5 0 .7.3.9.7zm5.5 34.4c-1 1.5-2.8 2.5-4.6 2.5-.9 0-1.9-.2-2.5-.9-.4-.4-.7-1-.8-1.6.4.9 1.4 1.5 2.5 1.5 1.4 0 2.6-.9 3.4-1.9.4-.5.7-1.1.9-1.7.2-.6.2-1.3.3-1.9.1-1.2.1-2.5.8-3.5.3-.4.6-.7 1.1-.9.2-.1.4-.2.7-.2.1 0 .1 0 .1.1v.3c-.1 1-.1 2-.2 2.9-.4 1.9-.7 3.8-1.7 5.3zm3.4-9.9c.5-.3 1-.6 1.5-.7 1.1-.2 2.1.1 3 .9.9.8 1.7 1.9 2.2 3 .4.9.7 2 .5 2.8-1-.5-1.9-1.2-2.8-2-1-.9-1.8-2-2.4-3.2H32c.2 1.2.8 2.4 1.5 3.4l-.7.7c-.1.2-.2.4-.4.6-.2.1-.5.1-.7 0-.4-.2-.8-.4-1.1-.6-.3-.2-.6-.4-1-.7-.3-1.1-.6-2.2-.9-3.2.5-.4.9-.7 1.4-1zm-18.6 25.6c-.8.6-1.8.7-2.8.5-1.1-.3-2-1-2.6-1.9-.6-.9-1-1.9-1.5-2.9-.4-1-.8-2-1.5-3-.3-.5-.7-1-1.3-1.2-.3-.1-.6-.2-.9-.2 1.4-.9 3.1-1.2 4.7-.9.9.1 1.9.4 2.7.8.8.4 1.5 1 2.1 1.7 1.2 1.4 2.2 3.2 2.2 4.9 0 .3-.1.7-.2 1-1-.2-1.9-.4-2.8-.8v.1c.9.5 1.8.8 2.7 1-.2.3-.5.6-.8.9zm10.5.7c-.2 1-.3 2-.3 3.1v1.9c-.3-.6-.5-1.2-.7-1.8-.2-.9-.2-1.9 0-2.9.2-.9.7-1.8 1.3-2.5.2-.3.5-.6.8-.8.1 0 .2-.1.3-.1-.1.1-.2.2-.2.3-.5.8-.9 1.8-1.2 2.8zm20.9 11.3c1.3.3 2.8 0 3.9-.8 1.7-1.2 2.5-3.1 2.6-5.1.1-2-.6-3.9-1.7-5.4-1.1-1.6-2.5-2.9-4-4s-3-2.1-4.4-3.2c-1.4-1.1-2.8-2.3-4-3.6-1.3-1.3-2.4-2.7-3.3-4.3-.4-.8-.9-1.6-1.2-2.4-.2-.4-.3-.8-.5-1.3v-.3c.1.2.2.3.3.5.3.5.6.9.9 1.3.7.9 1.5 1.6 2.3 2.3 1.7 1.4 3.6 2.4 5.4 3.5 1.8 1.1 3.6 2.2 5.2 3.6 1.7 1.3 3.2 2.8 4.5 4.4 1.3 1.6 2.4 3.4 3 5.5.6 2 .5 4.2-.3 6.2-.9 1.9-2.5 3.5-4.6 3.9-1.3.4-2.9 0-4.1-.8zm-9.5 72c.4-.3.7-.7 1-1.1.1-.2.3-.4.5-.6.2-.1.5-.2.7-.3.4-.2.6-.6.7-1.1.2.2.4.4.7.5.9.4 1.8.4 2.7.2.9-.2 1.7-.7 2.4-1.3 1.4-1.1 2.7-2.6 3-4.6l.3-1.5-1 1.1-.1.1c.7-1.3 1.1-2.8 1.2-4.3 0-1-.1-2.1-.4-3-.3-1-.7-1.9-1.2-2.8l-.3-.4-.1.5c-.2.8-.7 1.5-1.3 2-.6.5-1.4.9-2.1 1.4-.7.5-1.3 1.1-1.8 1.9-.3.4-.5.9-.5 1.5-.2-.3-.4-.7-.6-.9l-1.1-1.3.5 1.7c.2.7 0 1.5-.3 2.3-.3.8-.8 1.6-.9 2.6-.1.9-.1 1.9.3 2.8.2.4.4.9.6 1.2 0 .1.1.2.2.2-.5.1-.9.4-1.1.7-.1.2-.2.5-.4.7-.2.2-.4.3-.6.4-.5.2-.9.4-1.3.7l-.2.2c.3-2 .6-4.1.7-6.1.4-6.9-.7-13.9-3.2-20.3-.3-.8-.5-1.5-.8-2.3h.1c.3 0 .5-.1.7-.3.4-.3.8-.6 1.1-1 .7-1 .9-2.3 1.2-3.5.3-1.2.7-2.3 1.4-3.2.7-.9 1.6-1.6 2.7-1.8.5-.1 1.1 0 1.5.4.5.3.8.8.7 1.4l-.1 1.2.4-1.1c.3-1 0-2.1-.7-2.9-.7-.8-1.8-1.2-2.8-1.3-2.1-.1-4.2.9-5.5 2.6-1.3 1.7-1.6 3.9-1.5 5.9 0 .7.1 1.4.2 2.1-.2-.8-.5-1.5-.7-2.3v-.1c-.3-1.2-.5-2.5-.6-3.7-.3-3.4.7-6.8 2.7-9.5 1.9-2.7 4.7-4.9 7.9-5.8 2-.6 4.2-.8 6.4-.5-.2.3-.3.7-.3 1-.2 1.1.2 2.2.6 3.1.4 1 1 1.8 1.7 2.6.7.7 1.5 1.4 2.5 1.9 1 .4 2 .6 3 .7 2.1 0 4-.6 5.7-1.8l-.2-.3c-.4.2-1 .1-1.4-.2-.4-.3-.7-.7-.9-1.2-.4-1-.8-2-1.3-3-1-2-2.6-3.9-4.8-4.6-1-.3-2-.2-3 .3-.5.3-.9.6-1.3 1.1-2.2-.5-4.6-.4-6.8.1-.5.1-1 .3-1.5.5.5-.6.9-1.3 1.1-2.1.3-1.1.2-2.3-.1-3.4-.3-1.1-.9-2-1.7-2.8l-.7-.8.3 1c.3.9.4 1.9.3 2.9-.1 1-.4 1.9-.7 2.8-.3.9-.7 1.8-1.1 2.7-.3.5-.6 1.1-.9 1.6-1.3 1-2.4 2.2-3.4 3.6-1 1.5-1.6 3.1-2 4.8-.4 1.7-.4 3.4-.3 5 0-.1 0-.2-.1-.2-.3-.9-.6-1.7-1.1-2.5-.8-1.6-1.9-3.2-3.1-4.6-2.4-2.8-5.5-4.9-8.4-7.1-1.4-1.1-2.7-2.3-3.7-3.8-1-1.4-1.7-3.1-1.6-4.8 0-1.7.8-3.4 2.1-4.4 1.3-1 3.3-1.1 4.7-.2l1.6.9-1.1-1.4c-1.4-1.9-3.9-2.5-6.1-2-2.2.6-3.9 2.2-4.8 4.2-.9 2-1 4.3-.5 6.4.5 2.1 1.6 4.1 2.9 5.8 1.3 1.7 2.9 3.3 4.5 4.6 1.7 1.3 3.5 2.5 5.4 3.6 1.9 1.1 3.8 2 5.5 3.3.8.6 1.6 1.3 2.4 2.1.4.4.7.8 1 1.2l.6.9c.1.3.1.7.2 1l-.1-.1c-.5-.3-1.2-.5-1.7-.2-.3.1-.5.2-.8.3-.3.1-.6.1-.8.2-.3.2-.5.5-.5.8-.9-1-2.1-1.9-3.4-2.3l-.4-.1-.2.4c-.4.7-.3 1.5-.1 2.2.2.7.5 1.2.9 1.8.8 1.1 1.5 2 2.2 3.1.4.5.9 1 1.5 1.3.7.3 1.4.3 2.1.1.7-.2 1.3-.6 1.7-1.1.4-.4.7-.8.9-1.3.2.7.5 1.5.7 2.2 1 3.3 1.8 6.6 2.3 10 .2 1.5.3 3 .4 4.5-.4-.9-.8-1.8-1.5-2.5-1.2-1.4-2.9-2.4-4.8-2.6-1.8-.2-3.8.3-5.3 1.5-1.4 1.2-2.2 3.2-2 5 .2 1.9 1.4 3.4 2.9 4.4.7.5 1.6.9 2.5 1 .9.1 1.9-.1 2.7-.7.8-.6 1.3-1.6 1.3-2.6s-.5-2-1.4-2.6c-.8-.5-2-.6-2.8 0-.8.6-1.2 1.6-.9 2.5h.1c-.1-.9.4-1.6 1.1-2 .7-.4 1.5-.2 2.1.2.6.4.9 1.2.9 1.9s-.4 1.4-.9 1.9c-1.1 1.1-3.1 1-4.5.1-1.5-.9-2.5-2.5-2.5-4.1 0-1.6.8-3.2 2.1-4.2 1.2-1 2.9-1.4 4.5-1.2 1.6.2 3.2.9 4.3 2.1.9.9 1.5 2 2.1 3.1v4.5c-.3 6.8-1.7 13.5-4.1 20h.1c1.9-4 3.3-8.3 4.1-12.8.1-.2.4-.4.7-.6zm5.4-12.9c.5-.6 1.1-1.1 1.7-1.6.6-.5 1.3-1.1 1.8-1.8.5-.5.9-1.1 1.2-1.7.3.8.4 1.6.6 2.4.2.9.2 1.9.2 2.8 0 1.7-.3 3.3-.9 5-.8.6-1.8 1-2.8 1.1.4-.5.7-1.1.9-1.7.4-1.1.4-2.3.5-3.3l.1-3.1-.8 3c-.2.7-.8 1.2-1.5 1.6-.5.4-1.1.8-1.5 1.4v-1c-.1-.5-.2-1-.4-1.5.2-.6.6-1.1.9-1.6zm-2.4 9.1c-.2-.4-.3-.8-.4-1.2-.2-.8-.2-1.7 0-2.5s.6-1.5 1-2.4c.2-.4.3-.9.4-1.4.2.4.4.9.5 1.4.2 1 .1 2-.2 2.9h.1c.3-.5.5-1.1.6-1.7.4-.6 1.1-1 1.8-1.3.4-.2.7-.4 1.1-.7-.1.6-.2 1.2-.5 1.8-.4.9-1 1.8-1.8 2.1l-2 .8 2.2.2c1.7.2 3.4-.4 4.8-1.4-.4 1.1-1.2 2-2 2.9-.6.6-1.3 1.1-2.2 1.3-.8.2-1.7.3-2.5-.1-.5 0-.7-.3-.9-.7zm-5.5-34.4c1-1.5 2.8-2.5 4.6-2.5.9 0 1.9.2 2.5.9.4.4.7 1 .8 1.6-.4-.9-1.4-1.5-2.5-1.5-1.4 0-2.6.9-3.4 1.9-.4.5-.7 1.1-.9 1.7-.2.6-.2 1.3-.3 1.9-.1 1.2-.1 2.5-.8 3.5-.3.4-.6.7-1.1.9-.2.1-.4.2-.7.2-.1 0-.1 0-.1-.1v-.3c.1-1 .1-2 .2-2.9.4-1.9.6-3.8 1.7-5.3zm15.2-15.6c.8-.6 1.8-.7 2.8-.5 1.1.3 2 1 2.6 1.9.6.9 1 1.9 1.5 2.9.4 1 .8 2 1.5 3 .3.5.7 1 1.3 1.2.3.1.6.2.9.2-1.4.9-3.1 1.2-4.7.9-.9-.1-1.9-.4-2.7-.8-.8-.4-1.5-1-2.1-1.7-1.2-1.4-2.2-3.2-2.2-4.9 0-.3.1-.7.2-1 1 .2 1.9.4 2.8.8v-.1c-.9-.5-1.8-.8-2.7-1 .2-.4.4-.7.8-.9zm-10.6-.7c.2-1 .3-2 .3-3.1v-1.9c.3.6.5 1.2.7 1.8.2.9.2 1.9 0 2.9-.2.9-.7 1.8-1.3 2.5-.2.3-.5.6-.8.8-.1 0-.2.1-.3.1.1-.1.2-.2.2-.3.6-.9 1-1.8 1.2-2.8zM27 710.3c-.3-.5-.6-.9-.9-1.3-.7-.9-1.5-1.6-2.3-2.3-1.7-1.4-3.6-2.4-5.4-3.5-1.8-1.1-3.6-2.2-5.2-3.6-1.7-1.3-3.2-2.8-4.5-4.4-1.3-1.6-2.4-3.4-3-5.5-.6-2-.5-4.2.3-6.2.9-1.9 2.5-3.5 4.6-3.9 1.4-.3 3 0 4.2.8-1.3-.3-2.8 0-3.9.8-1.7 1.1-2.5 3.1-2.6 5.1-.1 2 .6 3.9 1.7 5.4 1.1 1.6 2.5 2.9 3.9 4 1.5 1.1 3 2.1 4.4 3.2 1.4 1.1 2.8 2.3 4 3.6 1.3 1.3 2.4 2.7 3.3 4.3.4.8.9 1.6 1.2 2.4.2.4.3.8.5 1.3v.3c-.2-.1-.2-.3-.3-.5zm.5 7.9c-.5.3-1 .6-1.5.7-1.1.2-2.1-.1-3-.9-.9-.8-1.7-1.9-2.2-3-.4-.9-.7-2-.5-2.8 1 .5 1.9 1.2 2.8 2 1 .9 1.8 2 2.4 3.2h.1c-.2-1.2-.8-2.4-1.5-3.4l.7-.7c.1-.2.2-.4.4-.6.2-.1.5-.1.7 0 .4.2.8.4 1.1.6.3.2.6.4 1 .7.3 1.1.6 2.2.9 3.2-.5.3-.9.6-1.4 1zm24.5 123c.9-2 1-4.3.5-6.4-.5-2.1-1.6-4.1-2.9-5.8-1.3-1.7-2.9-3.3-4.5-4.6-1.7-1.3-3.5-2.5-5.4-3.6-1.9-1.1-3.8-2-5.5-3.3-.8-.6-1.6-1.3-2.4-2.1-.4-.4-.7-.8-1-1.2l-.6-.9c-.1-.3-.1-.7-.2-1l.1.1c.5.3 1.2.5 1.7.2.3-.1.5-.2.8-.3.3-.1.6-.1.8-.2.3-.2.5-.5.5-.8.9 1 2.1 1.9 3.4 2.3l.4.1.2-.4c.4-.7.3-1.5.1-2.2-.2-.7-.5-1.2-.9-1.8-.8-1.1-1.5-2-2.2-3.1-.4-.5-.9-1-1.5-1.3-.7-.3-1.4-.3-2.1-.1-.7.2-1.3.6-1.7 1.1-.4.4-.7.8-.9 1.3-.2-.7-.5-1.5-.7-2.2-1-3.3-1.8-6.6-2.3-9.9-.2-1.5-.3-3-.4-4.5.4.9.8 1.8 1.5 2.5 1.2 1.4 2.9 2.4 4.8 2.6 1.8.2 3.8-.3 5.3-1.5 1.4-1.2 2.2-3.2 2-5-.2-1.9-1.4-3.4-2.9-4.4-.7-.5-1.6-.9-2.5-1-.9-.1-1.9.1-2.7.7-.8.6-1.3 1.6-1.3 2.6s.5 2 1.4 2.6c.8.5 2 .6 2.8 0 .8-.6 1.2-1.6.9-2.5h-.1c.1.9-.4 1.6-1.1 2-.7.4-1.5.2-2.1-.2-.6-.4-.9-1.2-.9-1.9s.4-1.4.9-1.9c1.1-1.1 3.1-1 4.5-.1 1.5.9 2.5 2.5 2.5 4.1 0 1.6-.8 3.2-2.1 4.2-1.2 1-2.9 1.4-4.5 1.2-1.6-.2-3.2-.9-4.3-2.1-.9-.9-1.5-2-2.1-3.1v-4.5c.3-6.8 1.7-13.5 4.1-20h-.1c-1.9 4-3.3 8.3-4.1 12.8-.4.1-.8.3-1.1.5-.4.3-.7.7-1 1.1-.1.2-.3.4-.5.6-.2.1-.5.2-.7.3-.4.2-.6.6-.7 1.1-.2-.2-.4-.4-.7-.5-.9-.4-1.8-.4-2.7-.2-.9.2-1.7.7-2.4 1.3-1.4 1.1-2.7 2.6-3 4.6l-.3 1.5 1-1.1.1-.1c-.7 1.3-1.1 2.8-1.2 4.3 0 1 .1 2.1.4 3 .3 1 .7 1.9 1.2 2.8l.3.4.1-.5c.2-.8.7-1.5 1.3-2 .6-.5 1.4-.9 2.1-1.4.7-.5 1.3-1.1 1.8-1.9.3-.4.5-.9.5-1.5.2.3.4.7.6.9l1.1 1.3-.5-1.7c-.2-.7 0-1.5.3-2.3.3-.8.8-1.6.9-2.6.1-.9.1-1.9-.3-2.8-.2-.4-.4-.9-.6-1.2 0-.1-.1-.2-.2-.2.5-.1.9-.4 1.1-.7.1-.2.2-.5.4-.7.2-.2.4-.3.6-.4.5-.2.9-.4 1.3-.7l.2-.2c-.3 2-.6 4.1-.7 6.1-.4 6.9.7 13.9 3.2 20.3.3.8.5 1.5.8 2.3h-.1c-.3 0-.5.1-.7.3-.4.3-.8.6-1.1 1-.7 1-.9 2.3-1.2 3.5-.3 1.2-.7 2.3-1.4 3.2-.7.9-1.6 1.6-2.7 1.8-.5.1-1.1 0-1.5-.4-.5-.3-.8-.8-.7-1.4l.1-1.2-.4 1.1c-.3 1 0 2.1.7 2.9.7.8 1.8 1.2 2.8 1.3 2.1.1 4.2-.9 5.5-2.6 1.3-1.7 1.6-3.9 1.5-5.9 0-.7-.1-1.4-.2-2.1.2.8.5 1.5.7 2.3v.1c.3 1.2.5 2.5.6 3.7.3 3.4-.7 6.8-2.7 9.5-1.9 2.7-4.7 4.9-7.9 5.8-2 .6-4.2.8-6.4.5.2-.3.3-.7.3-1 .2-1.1-.2-2.2-.6-3.1-.4-1-1-1.8-1.7-2.6-.7-.7-1.5-1.4-2.5-1.9-1-.4-2-.6-3-.7-2.1 0-4 .6-5.7 1.8l.2.3c.4-.2 1-.1 1.4.2.4.3.7.7.9 1.2.4 1 .8 2 1.3 3 1 2 2.6 3.9 4.8 4.6 1 .3 2 .2 3-.3.5-.3.9-.6 1.3-1.1 2.2.5 4.6.4 6.8-.1.5-.1 1-.3 1.5-.5-.5.6-.9 1.3-1.1 2.1-.3 1.1-.2 2.3.1 3.4.3 1.1.9 2 1.7 2.8l.7.8-.3-1c-.3-.9-.4-1.9-.3-2.9.1-1 .4-1.9.7-2.8.3-.9.7-1.8 1.1-2.7.3-.5.6-1.1.9-1.6 1.3-1 2.4-2.2 3.4-3.6 1-1.5 1.6-3.1 2-4.8.4-1.7.4-3.4.3-5 0 .1 0 .2.1.2.3.9.6 1.7 1.1 2.5.8 1.6 1.9 3.2 3.1 4.6 2.4 2.8 5.5 4.9 8.4 7.1 1.4 1.1 2.7 2.3 3.7 3.8 1 1.4 1.7 3.1 1.6 4.8 0 1.7-.8 3.4-2.1 4.4-1.3 1-3.3 1.1-4.7.2l-1.6-.9 1.1 1.4c1.4 1.9 3.9 2.5 6.1 2 2.6-.5 4.3-2.2 5.2-4.2zm-33.3-50c-.5.6-1.1 1.1-1.7 1.6-.6.5-1.3 1.1-1.8 1.8-.5.5-.9 1.1-1.2 1.7-.3-.8-.4-1.6-.6-2.4-.2-.9-.2-1.9-.2-2.8 0-1.7.3-3.3.9-5 .8-.6 1.8-1 2.8-1.1-.4.5-.7 1.1-.9 1.7-.4 1.1-.4 2.3-.5 3.3l-.1 3.1.8-3c.2-.7.8-1.2 1.5-1.6.5-.4 1.1-.8 1.5-1.4v1c.1.5.2 1 .4 1.5-.1.6-.5 1.1-.9 1.6zm2.5-9.1c.2.4.3.8.4 1.2.2.8.2 1.7 0 2.5s-.6 1.5-1 2.4c-.2.4-.3.9-.4 1.4-.2-.4-.4-.9-.5-1.4-.2-1-.1-2 .2-2.9h-.1c-.3.5-.5 1.1-.6 1.7-.4.6-1.1 1-1.8 1.3-.4.2-.7.4-1.1.7.1-.6.2-1.2.5-1.8.4-.9 1-1.8 1.8-2.1l2-.8-2.2-.2c-1.7-.2-3.4.4-4.8 1.4.4-1.1 1.2-2 2-2.9.6-.6 1.3-1.1 2.2-1.3.8-.2 1.7-.3 2.5.1.5 0 .7.3.9.7zm5.5 34.4c-1 1.5-2.8 2.5-4.6 2.5-.9 0-1.9-.2-2.5-.9-.4-.4-.7-1-.8-1.6.4.9 1.4 1.5 2.5 1.5 1.4 0 2.6-.9 3.4-1.9.4-.5.7-1.1.9-1.7.2-.6.2-1.3.3-1.9.1-1.2.1-2.5.8-3.5.3-.4.6-.7 1.1-.9.2-.1.4-.2.7-.2.1 0 .1 0 .1.1v.3c-.1 1-.1 2-.2 2.9-.4 1.9-.7 3.8-1.7 5.3zm3.4-10c.5-.3 1-.6 1.5-.7 1.1-.2 2.1.1 3 .9.9.8 1.7 1.9 2.2 3 .4.9.7 2 .5 2.8-1-.5-1.9-1.2-2.8-2-1-.9-1.8-2-2.4-3.2H32c.2 1.2.8 2.4 1.5 3.4l-.7.7c-.1.2-.2.4-.4.6-.2.1-.5.1-.7 0-.4-.2-.8-.4-1.1-.6-.3-.2-.6-.4-1-.7-.3-1.1-.6-2.2-.9-3.2.5-.3.9-.6 1.4-1zm-18.6 25.6c-.8.6-1.8.7-2.8.5-1.1-.3-2-1-2.6-1.9-.6-.9-1-1.9-1.5-2.9-.4-1-.8-2-1.5-3-.3-.5-.7-1-1.3-1.2-.3-.1-.6-.2-.9-.2 1.4-.9 3.1-1.2 4.7-.9.9.1 1.9.4 2.7.8.8.4 1.5 1 2.1 1.7 1.2 1.4 2.2 3.2 2.2 4.9 0 .3-.1.7-.2 1-1-.2-1.9-.4-2.8-.8v.1c.9.5 1.8.8 2.7 1-.2.4-.5.7-.8.9zm10.5.7c-.2 1-.3 2-.3 3.1v1.9c-.3-.6-.5-1.2-.7-1.8-.2-.9-.2-1.9 0-2.9.2-.9.7-1.8 1.3-2.5.2-.3.5-.6.8-.8.1 0 .2-.1.3-.1-.1.1-.2.2-.2.3-.5.9-.9 1.8-1.2 2.8zm20.9 11.4c1.3.3 2.8 0 3.9-.8 1.7-1.1 2.5-3.1 2.6-5.1.1-2-.6-3.9-1.7-5.4-1.1-1.6-2.5-2.9-4-4s-3-2.1-4.4-3.2c-1.4-1.1-2.8-2.3-4-3.6-1.3-1.3-2.4-2.7-3.3-4.3-.4-.8-.9-1.6-1.2-2.4-.2-.4-.3-.8-.5-1.3v-.3c.1.2.2.3.3.5.3.5.6.9.9 1.3.7.9 1.5 1.6 2.3 2.3 1.7 1.4 3.6 2.4 5.4 3.5 1.8 1.1 3.6 2.2 5.2 3.6 1.7 1.3 3.2 2.8 4.5 4.4 1.3 1.6 2.4 3.4 3 5.5.6 2 .5 4.2-.3 6.2-.9 1.9-2.5 3.5-4.6 3.9-1.3.3-2.9 0-4.1-.8zm-9.5 72c.4-.3.7-.7 1-1.1.1-.2.3-.4.5-.6.2-.1.5-.2.7-.3.4-.2.6-.6.7-1.1.2.2.4.4.7.5.9.4 1.8.4 2.7.2.9-.2 1.7-.7 2.4-1.3 1.4-1.1 2.7-2.6 3-4.6l.3-1.5-1 1.1-.1.1c.7-1.3 1.1-2.8 1.2-4.3 0-1-.1-2.1-.4-3-.3-1-.7-1.9-1.2-2.8l-.3-.4-.1.5c-.2.8-.7 1.5-1.3 2-.6.5-1.4.9-2.1 1.4-.7.5-1.3 1.1-1.8 1.9-.3.4-.5.9-.5 1.5-.2-.3-.4-.7-.6-.9l-1.1-1.3.5 1.7c.2.7 0 1.5-.3 2.3-.3.8-.8 1.6-.9 2.6-.1.9-.1 1.9.3 2.8.2.4.4.9.6 1.2 0 .1.1.2.2.2-.5.1-.9.4-1.1.7-.1.2-.2.5-.4.7-.2.2-.4.3-.6.4-.5.2-.9.4-1.3.7l-.2.2c.3-2 .6-4.1.7-6.1.4-6.9-.7-13.9-3.2-20.3-.3-.8-.5-1.5-.8-2.3h.1c.3 0 .5-.1.7-.3.4-.3.8-.6 1.1-1 .7-1 .9-2.3 1.2-3.5.3-1.2.7-2.3 1.4-3.2.7-.9 1.6-1.6 2.7-1.8.5-.1 1.1 0 1.5.4.5.3.8.8.7 1.4l-.1 1.2.1-1.2c.3-1 0-2.1-.7-2.9-.7-.8-1.8-1.2-2.8-1.3-2.1-.1-4.2.9-5.5 2.6-1.3 1.7-1.6 3.9-1.5 5.9 0 .7.1 1.4.2 2.1-.2-.8-.5-1.5-.7-2.3v-.1c-.3-1.2-.5-2.5-.6-3.7-.3-3.4.7-6.8 2.7-9.5 1.9-2.7 4.7-4.9 7.9-5.8 2-.6 4.2-.8 6.4-.5-.2.3-.3.7-.3 1-.2 1.1.2 2.2.6 3.1.4 1 1 1.8 1.7 2.6.7.7 1.5 1.4 2.5 1.9 1 .4 2 .6 3 .7 2.1 0 4-.6 5.7-1.8l-.2-.3c-.4.2-1 .1-1.4-.2-.4-.3-.7-.7-.9-1.2-.4-1-.8-2-1.3-3-1-2-2.6-3.9-4.8-4.6-1-.3-2-.2-3 .3-.5.3-.9.6-1.3 1.1-2.2-.5-4.6-.4-6.8.1-.5.1-1 .3-1.5.5.5-.6.9-1.3 1.1-2.1.3-1.1.2-2.3-.1-3.4-.3-1.1-.9-2-1.7-2.8l-.7-.8.3 1c.3.9.4 1.9.3 2.9-.1 1-.4 1.9-.7 2.8-.3.9-.7 1.8-1.1 2.7-.3.5-.6 1.1-.9 1.6-1.3 1-2.4 2.2-3.4 3.6-1 1.5-1.6 3.1-2 4.8-.4 1.7-.4 3.4-.3 5 0-.1 0-.2-.1-.2-.3-.9-.6-1.7-1.1-2.5-.8-1.6-1.9-3.2-3.1-4.6-2.4-2.8-5.5-4.9-8.4-7.1-1.4-1.1-2.7-2.3-3.7-3.8-1-1.4-1.7-3.1-1.6-4.8 0-1.7.8-3.4 2.1-4.4 1.3-1 3.3-1.1 4.7-.2l1.6.9-1.1-1.4c-1.4-1.9-3.9-2.5-6.1-2-2.2.6-3.9 2.2-4.8 4.2-.9 2-1 4.3-.5 6.4.5 2.1 1.6 4.1 2.9 5.8 1.3 1.7 2.9 3.3 4.5 4.6 1.7 1.3 3.5 2.5 5.4 3.6 1.9 1.1 3.8 2 5.5 3.3.8.6 1.6 1.3 2.4 2.1.4.4.7.8 1 1.2l.6.9c.1.3.1.7.2 1l-.1-.1c-.5-.3-1.2-.5-1.7-.2-.3.1-.5.2-.8.3-.3.1-.6.1-.8.2-.3.2-.5.5-.5.8-.9-1-2.1-1.9-3.4-2.3l-.4-.1-.2.4c-.4.7-.3 1.5-.1 2.2.2.7.5 1.2.9 1.8.8 1.1 1.5 2 2.2 3.1.4.5.9 1 1.5 1.3.7.3 1.4.3 2.1.1.7-.2 1.3-.6 1.7-1.1.4-.4.7-.8.9-1.3.2.7.5 1.5.7 2.2 1 3.3 1.8 6.6 2.3 10 .2 1.5.3 3 .4 4.5-.4-.9-.8-1.8-1.5-2.5-1.2-1.4-2.9-2.4-4.8-2.6-1.8-.2-3.8.3-5.3 1.5-1.4 1.2-2.2 3.2-2 5 .2 1.9 1.4 3.4 2.9 4.4.7.5 1.6.9 2.5 1 .9.1 1.9-.1 2.7-.7.8-.6 1.3-1.6 1.3-2.6s-.5-2-1.4-2.6c-.8-.5-2-.6-2.8 0-.8.6-1.2 1.6-.9 2.5h.1c-.1-.9.4-1.6 1.1-2 .7-.4 1.5-.2 2.1.2.6.4.9 1.2.9 1.9s-.4 1.4-.9 1.9c-1.1 1.1-3.1 1-4.5.1-1.5-.9-2.5-2.5-2.5-4.1 0-1.6.8-3.2 2.1-4.2 1.2-1 2.9-1.4 4.5-1.2 1.6.2 3.2.9 4.3 2.1.9.9 1.5 2 2.1 3.1v4.5c-.3 6.8-1.7 13.5-4.1 20h.1c1.9-4 3.3-8.3 4.1-12.8.4-.1.7-.3 1-.5zm5.4-12.9c.5-.6 1.1-1.1 1.7-1.6.6-.5 1.3-1.1 1.8-1.8.5-.5.9-1.1 1.2-1.7.3.8.4 1.6.6 2.4.2.9.2 1.9.2 2.8 0 1.7-.3 3.3-.9 5-.8.6-1.8 1-2.8 1.1.4-.5.7-1.1.9-1.7.4-1.1.4-2.3.5-3.3l.1-3.1-.8 3c-.2.7-.8 1.2-1.5 1.6-.5.4-1.1.8-1.5 1.4v-1c-.1-.5-.2-1-.4-1.5.2-.7.6-1.2.9-1.6zm-2.4 9.1c-.2-.4-.3-.8-.4-1.2-.2-.8-.2-1.7 0-2.5s.6-1.5 1-2.4c.2-.4.3-.9.4-1.4.2.4.4.9.5 1.4.2 1 .1 2-.2 2.9h.1c.3-.5.5-1.1.6-1.7.4-.6 1.1-1 1.8-1.3.4-.2.7-.4 1.1-.7-.1.6-.2 1.2-.5 1.8-.4.9-1 1.8-1.8 2.1l-2 .8 2.2.2c1.7.2 3.4-.4 4.8-1.4-.4 1.1-1.2 2-2 2.9-.6.6-1.3 1.1-2.2 1.3-.8.2-1.7.3-2.5-.1-.5 0-.7-.3-.9-.7zM30.9 878c1-1.5 2.8-2.5 4.6-2.5.9 0 1.9.2 2.5.9.4.4.7 1 .8 1.6-.4-.9-1.4-1.5-2.5-1.5-1.4 0-2.6.9-3.4 1.9-.4.5-.7 1.1-.9 1.7-.2.6-.2 1.3-.3 1.9-.1 1.2-.1 2.5-.8 3.5-.3.4-.6.7-1.1.9-.2.1-.4.2-.7.2-.1 0-.1 0-.1-.1v-.3c.1-1 .1-2 .2-2.9.4-1.9.6-3.8 1.7-5.3zm15.2-15.7c.8-.6 1.8-.7 2.8-.5 1.1.3 2 1 2.6 1.9.6.9 1 1.9 1.5 2.9.4 1 .8 2 1.5 3 .3.5.7 1 1.3 1.2.3.1.6.2.9.2-1.4.9-3.1 1.2-4.7.9-.9-.1-1.9-.4-2.7-.8-.8-.4-1.5-1-2.1-1.7-1.2-1.4-2.2-3.2-2.2-4.9 0-.3.1-.7.2-1 1 .2 1.9.4 2.8.8v-.1c-.9-.5-1.8-.8-2.7-1 .2-.3.4-.6.8-.9zm-10.6-.7c.2-1 .3-2 .3-3.1v-1.9c.3.6.5 1.2.7 1.8.2.9.2 1.9 0 2.9-.2.9-.7 1.8-1.3 2.5-.2.3-.5.6-.8.8-.1 0-.2.1-.3.1.1-.1.2-.2.2-.3.6-.8 1-1.8 1.2-2.8zM27 880.1c-.3-.5-.6-.9-.9-1.3-.7-.9-1.5-1.6-2.3-2.3-1.7-1.4-3.6-2.4-5.4-3.5-1.8-1.1-3.6-2.2-5.2-3.6-1.7-1.3-3.2-2.8-4.5-4.4-1.3-1.6-2.4-3.4-3-5.5-.6-2-.5-4.2.3-6.2.9-1.9 2.5-3.5 4.6-3.9 1.4-.3 3 0 4.2.8-1.3-.3-2.8 0-3.9.8-1.7 1.1-2.5 3.1-2.6 5.1-.1 2 .6 3.9 1.7 5.4 1.1 1.6 2.5 2.9 3.9 4 1.5 1.1 3 2.1 4.4 3.2 1.4 1.1 2.8 2.3 4 3.6 1.3 1.3 2.4 2.7 3.3 4.3.4.8.9 1.6 1.2 2.4.2.4.3.8.5 1.3v.3c-.2-.2-.2-.3-.3-.5zm.5 7.8c-.5.3-1 .6-1.5.7-1.1.2-2.1-.1-3-.9-.9-.8-1.7-1.9-2.2-3-.4-.9-.7-2-.5-2.8 1 .5 1.9 1.2 2.8 2 1 .9 1.8 2 2.4 3.2h.1c-.2-1.2-.8-2.4-1.5-3.4l.7-.7c.1-.2.2-.4.4-.6.2-.1.5-.1.7 0 .4.2.8.4 1.1.6.3.2.6.4 1 .7.3 1.1.6 2.2.9 3.2-.5.3-.9.7-1.4 1zm19.7 127.3c2.2-.6 3.9-2.2 4.8-4.2.9-2 1-4.3.5-6.4-.5-2.1-1.6-4.1-2.9-5.8-1.3-1.7-2.9-3.3-4.5-4.6-1.7-1.3-3.5-2.5-5.4-3.6-1.9-1.1-3.8-2-5.5-3.3-.8-.6-1.6-1.3-2.4-2.1-.4-.4-.7-.8-1-1.2l-.6-.9c-.1-.3-.1-.7-.2-1l.1.1c.5.3 1.2.5 1.7.2.3-.1.5-.2.8-.3.3-.1.6-.1.8-.2.3-.2.5-.5.5-.8.9 1 2.1 1.9 3.4 2.3l.4.1.2-.4c.4-.7.3-1.5.1-2.2-.2-.7-.5-1.2-.9-1.8-.8-1.1-1.5-2-2.2-3.1-.4-.5-.9-1-1.5-1.3-.7-.3-1.4-.3-2.1-.1-.7.2-1.3.6-1.7 1.1-.4.4-.7.8-.9 1.3-.2-.7-.5-1.5-.7-2.2-1-3.3-1.8-6.6-2.3-10-.2-1.5-.3-3-.4-4.5.4.9.8 1.8 1.5 2.5 1.2 1.4 2.9 2.4 4.8 2.6 1.8.2 3.8-.3 5.3-1.5 1.4-1.2 2.2-3.2 2-5-.2-1.9-1.4-3.4-2.9-4.4-.7-.5-1.6-.9-2.5-1-.9-.1-1.9.1-2.7.7-.8.6-1.3 1.6-1.3 2.6s.5 2 1.4 2.6c.8.5 2 .6 2.8 0 .8-.6 1.2-1.6.9-2.5h-.1c.1.9-.4 1.6-1.1 2-.7.4-1.5.2-2.1-.2-.6-.4-.9-1.2-.9-1.9s.4-1.4.9-1.9c1.1-1.1 3.1-1 4.5-.1 1.5.9 2.5 2.5 2.5 4.1 0 1.6-.8 3.2-2.1 4.2-1.2 1-2.9 1.4-4.5 1.2-1.6-.2-3.2-.9-4.3-2.1-.9-.9-1.5-2-2.1-3.1v-4.5c.3-6.8 1.7-13.5 4.1-20h-.1c-1.9 4-3.3 8.3-4.1 12.8-.4.1-.8.3-1.1.5-.4.3-.7.7-1 1.1-.1.2-.3.4-.5.6-.2.1-.5.2-.7.3-.4.2-.6.6-.7 1.1-.2-.2-.4-.4-.7-.5-.9-.4-1.8-.4-2.7-.2-.9.2-1.7.7-2.4 1.3-1.4 1.1-2.7 2.6-3 4.6l-.3 1.5 1-1.1.1-.1c-.7 1.3-1.1 2.8-1.2 4.3 0 1 .1 2.1.4 3 .3 1 .7 1.9 1.2 2.8l.3.4.1-.5c.2-.8.7-1.5 1.3-2 .6-.5 1.4-.9 2.1-1.4.7-.5 1.3-1.1 1.8-1.9.3-.4.5-.9.5-1.5.2.3.4.7.6.9l1.1 1.3-.5-1.7c-.2-.7 0-1.5.3-2.3.3-.8.8-1.6.9-2.6.1-.9.1-1.9-.3-2.8-.2-.4-.4-.9-.6-1.2 0-.1-.1-.2-.2-.2.5-.1.9-.4 1.1-.7.1-.2.2-.5.4-.7.2-.2.4-.3.6-.4.5-.2.9-.4 1.3-.7l.2-.2c-.3 2-.6 4.1-.7 6.1-.4 6.9.7 13.9 3.2 20.3.3.8.5 1.5.8 2.3h-.1c-.3 0-.5.1-.7.3-.4.3-.8.6-1.1 1-.7 1-.9 2.3-1.2 3.5-.3 1.2-.7 2.3-1.4 3.2-.7.9-1.6 1.6-2.7 1.8-.5.1-1.1 0-1.5-.4-.5-.3-.8-.8-.7-1.4l.1-1.2-.4 1.1c-.3 1 0 2.1.7 2.9.7.8 1.8 1.2 2.8 1.3 2.1.1 4.2-.9 5.5-2.6 1.3-1.7 1.6-3.9 1.5-5.9 0-.7-.1-1.4-.2-2.1.2.8.5 1.5.7 2.3v.1c.3 1.2.5 2.5.6 3.7.3 3.4-.7 6.8-2.7 9.5-1.9 2.7-4.7 4.9-7.9 5.8-2 .6-4.2.8-6.4.5.2-.3.3-.7.3-1 .2-1.1-.2-2.2-.6-3.1-.4-1-1-1.8-1.7-2.6-.7-.7-1.5-1.4-2.5-1.9-1-.4-2-.6-3-.7-2.1 0-4 .6-5.7 1.8l.2.3c.4-.2 1-.1 1.4.2.4.3.7.7.9 1.2.4 1 .8 2 1.3 3 1 2 2.6 3.9 4.8 4.6 1 .3 2 .2 3-.3.5-.3.9-.6 1.3-1.1 2.2.5 4.6.4 6.8-.1.5-.1 1-.3 1.5-.5-.5.6-.9 1.3-1.1 2.1-.3 1.1-.2 2.3.1 3.4.3 1.1.9 2 1.7 2.8l.7.8-.3-1c-.3-.9-.4-1.9-.3-2.9.1-1 .4-1.9.7-2.8.3-.9.7-1.8 1.1-2.7.3-.5.6-1.1.9-1.6 1.3-1 2.4-2.2 3.4-3.6 1-1.5 1.6-3.1 2-4.8.4-1.7.4-3.4.3-5 0 .1 0 .2.1.2.3.9.6 1.7 1.1 2.5.8 1.6 1.9 3.2 3.1 4.6 2.4 2.8 5.5 4.9 8.4 7.1 1.4 1.1 2.7 2.3 3.7 3.8 1 1.4 1.7 3.1 1.6 4.8 0 1.7-.8 3.4-2.1 4.4-1.3 1-3.3 1.1-4.7.2l-1.6-.9 1.1 1.4c1.9 2 4.4 2.6 6.5 2.1zM18.7 961c-.5.6-1.1 1.1-1.7 1.6-.6.5-1.3 1.1-1.8 1.8-.5.5-.9 1.1-1.2 1.7-.3-.8-.4-1.6-.6-2.4-.2-.9-.2-1.9-.2-2.8 0-1.7.3-3.3.9-5 .8-.6 1.8-1 2.8-1.1-.4.5-.7 1.1-.9 1.7-.4 1.1-.4 2.3-.5 3.3l-.1 3.1.8-3c.2-.7.8-1.2 1.5-1.6.5-.4 1.1-.8 1.5-1.4v1c.1.5.2 1 .4 1.5-.1.6-.5 1.1-.9 1.6zm2.5-9.2c.2.4.3.8.4 1.2.2.8.2 1.7 0 2.5s-.6 1.5-1 2.4c-.2.4-.3.9-.4 1.4-.2-.4-.4-.9-.5-1.4-.2-1-.1-2 .2-2.9h-.1c-.3.5-.5 1.1-.6 1.7-.4.6-1.1 1-1.8 1.3-.4.2-.7.4-1.1.7.1-.6.2-1.2.5-1.8.4-.9 1-1.8 1.8-2.1l2-.8-2.2-.2c-1.7-.2-3.4.4-4.8 1.4.4-1.1 1.2-2 2-2.9.6-.6 1.3-1.1 2.2-1.3.8-.2 1.7-.3 2.5.1.5 0 .7.3.9.7zm5.5 34.4c-1 1.5-2.8 2.5-4.6 2.5-.9 0-1.9-.2-2.5-.9-.4-.4-.7-1-.8-1.6.4.9 1.4 1.5 2.5 1.5 1.4 0 2.6-.9 3.4-1.9.4-.5.7-1.1.9-1.7.2-.6.2-1.3.3-1.9.1-1.2.1-2.5.8-3.5.3-.4.6-.7 1.1-.9.2-.1.4-.2.7-.2.1 0 .1 0 .1.1v.3c-.1 1-.1 2-.2 2.9-.4 1.9-.7 3.9-1.7 5.3zm3.4-9.9c.5-.3 1-.6 1.5-.7 1.1-.2 2.1.1 3 .9.9.8 1.7 1.9 2.2 3 .4.9.7 2 .5 2.8-1-.5-1.9-1.2-2.8-2-1-.9-1.8-2-2.4-3.2H32c.2 1.2.8 2.4 1.5 3.4l-.7.7c-.1.2-.2.4-.4.6-.2.1-.5.1-.7 0-.4-.2-.8-.4-1.1-.6-.3-.2-.6-.4-1-.7-.3-1.1-.6-2.2-.9-3.2.5-.3.9-.7 1.4-1zm-18.6 25.6c-.8.6-1.8.7-2.8.5-1.1-.3-2-1-2.6-1.9-.6-.9-1-1.9-1.5-2.9-.4-1-.8-2-1.5-3-.3-.5-.7-1-1.3-1.2-.3-.1-.6-.2-.9-.2 1.4-.9 3.1-1.2 4.7-.9.9.1 1.9.4 2.7.8.8.4 1.5 1 2.1 1.7 1.2 1.4 2.2 3.2 2.2 4.9 0 .3-.1.7-.2 1-1-.2-1.9-.4-2.8-.8v.1c.9.5 1.8.8 2.7 1-.2.3-.5.6-.8.9zm10.5.7c-.2 1-.3 2-.3 3.1v1.9c-.3-.6-.5-1.2-.7-1.8-.2-.9-.2-1.9 0-2.9.2-.9.7-1.8 1.3-2.5.2-.3.5-.6.8-.8.1 0 .2-.1.3-.1-.1.1-.2.2-.2.3-.5.9-.9 1.8-1.2 2.8zm20.9 11.4c1.3.3 2.8 0 3.9-.8 1.7-1.1 2.5-3.1 2.6-5.1.1-2-.6-3.9-1.7-5.4-1.1-1.6-2.5-2.9-4-4s-3-2.1-4.4-3.2c-1.4-1.1-2.8-2.3-4-3.6-1.3-1.3-2.4-2.7-3.3-4.3-.4-.8-.9-1.6-1.2-2.4-.2-.4-.3-.8-.5-1.3v-.3c.1.2.2.3.3.5.3.5.6.9.9 1.3.7.9 1.5 1.6 2.3 2.3 1.7 1.4 3.6 2.4 5.4 3.5 1.8 1.1 3.6 2.2 5.2 3.6 1.7 1.3 3.2 2.8 4.5 4.4 1.3 1.6 2.4 3.4 3 5.5.6 2 .5 4.2-.3 6.2-.9 1.9-2.5 3.5-4.6 3.9-1.3.3-2.9 0-4.1-.8z"></path></svg>