<svg xmlns="http://www.w3.org/2000/svg" xml:space="preserve" viewBox="0 0 1086.6 112.1">  <style>    .st0{fill:#a9c1a3}.st2{fill:#f79764}.st3{fill:#febd64}.st4{fill:#af4c54}.st5{fill:#528cb7}.st6{fill:#6b527c}.st7{fill:#333}  </style>  <path d="M542.4 39.1c-.1 0-.2 0-.2.1-.3.7-.6 1.2-.7 1.9-.6.8-1 1.7-1.6 2.5-.4.6-.8 1.2-1.1 1.8-.1 0-.1.1-.2.1-.9 1.1-1.8 2.2-2.9 3.2-.9.8-1.9 1.5-2.8 2.3-.1 0-.2 0-.3.1-2 1.9-5 2.6-6.9 4.5-.1 0-.2 0-.4.1-3.5 2.3-7.7 2.2-11.5 3.7-1.7.2-3.4.3-5.1.2-1.9-.1-3.7-.7-5.5-1-.4-.1-.9.5-.5.8.2.2.5.4.8.5-.1 0-.2.1-.3.1-.2.1-.3.4-.2.7.3.4.9.7 1.6.8-.1.2-.1.5.1.6.1.1.2.1.4.2 0 .2.1.5.4.6 3.2 1 7.3 2.2 10.6.8.1.1.3.1.4.1 1.9-.5 3.8-1.2 5.6-1.9.1.1.3.1.5.1.8-.3 1.6-.6 2.3-1.1.8-.3 1.6-.7 2.3-1.2l.2-.2c1.5-1.1 3.1-2 4.6-3.1.8-.6 1.6-1.2 2.3-1.9.1 0 .2 0 .3-.2l1.8-1.8c.1-.1.1-.1.1-.2 1.1-1 2.2-2.2 3.1-3.4.9-1.1 1.4-2.4 2.1-3.6l.1-.1c0-.1.1-.1.1-.2.1-.1.1-.2 0-.3.8-1.3 1.3-2.7 1.7-4.2.3-1.1 0-1-1.2-1.4z" class="st0"></path>  <path fill="#f8dfdd" d="M568 17.1v-.3c-.3-2.8-2.1-5.6-4.4-7.2-2.1-1.4-5.5-2.6-8-1.5.3-1.8-.6-3.9-1.8-5.3-1.6-1.9-4.5-2.8-6.9-2.6-.8.1-1.3.3-2.2.1-.6-.1-1.2-.2-1.9-.2-1.3.1-2.6.5-3.7 1.2-1.8 1.1-2.7 2.6-3.2 4.4-.2 0-.4.2-.5.4-.2.7-.2 1.3-.1 2-2.4-.8-4.9-.2-7.1 1.1-1.7.9-2.8 2.2-3.6 3.7-.1.1-.1.1-.2.3-.3.6-.5 1.2-.8 1.8-.2.1-.3.3-.3.5-.6 2.7-.2 5.5 1.1 7.9.8 1.3 1.6 2.1 2.6 2.6.1.3.4.6.9.7 1.1 0 2.1 0 3.2-.2.2 0 .4-.1.5-.3.2-.1.3-.1.5-.2s.4-.2.5-.4c.7-.4 1.3-.8 1.7-1.4 0 3.3 1.2 6.2 3.9 8.4 1.3 1 3 1.3 4.6 1.4 1 .1 1.8.1 2.4-.4 2.7.9 6.6.2 8.8-1.7 1.7-1.5 3.2-4.6 2.9-7 .2.1.3.2.5.3 0 .1.1.2.2.3.2.2.5.4.8.6.2.1.4.1.6.1.1 0 .2.1.2.1.4.3.8.5 1.3.6.5.1 1.1 0 1.6-.2.8-.1 1.7-.4 2.5-1 2.6-1.9 3.1-5.1 3.3-8.1v-.2c.1 0 .1-.2.1-.3z"></path>  <path d="M548.8 34.5c-.1-.2-.4-.4-.7-.4-.9.1-1.5-.3-2.4-.4-.1-.2-.4-.3-.7-.2-.9.5-2.1.2-2.9.7-.6.4-.9 1.2-1.1 1.9-.3 1.7.5 3.2 2.2 3.6.8.2 1.6-.1 2.4-.1.9.1 1.4-.1 2.2-.7 1.8-1.3 1.9-2.7 1-4.4z" class="st2"></path>  <path d="M493 53.2c0-.2-.1-.3-.2-.3.6-2.7-2-6.2-4.6-6.4-.9-.1-1.9.2-2.6.6-1.1.7-1.8 1.2-3.1 1.5-2.4.5-4.7 1.5-6.7 2.9-.1.1-.2.2-.2.4-2.4 1.1-4.4 3.6-5.9 5.7-2 2.8-2.9 6.9-6 8.7-.1 0-.1.1-.2.1-.6 0-1.4.4-2 .1-.4-.2-.9-.9-1-1.3-.3-.7-.1-1.8.7-2 .2 0 .3-.2.3-.4.2-.1.4-.1.7-.2.2-.1.2-.4-.1-.4-1.7-.1-3.2.9-3.8 2.5-.6 1.6.4 3.4 1.8 4.3 1.6 1.1 4.1.6 5.7-.1 1.8-.8 3.2-2.2 4.6-3.5.1 0 .3 0 .4-.1 1.8-1.8 4-2.8 6.4-3.4 1.3-.3 2.7-.5 4.1-.6.7-.1 1.5-.1 2.1-.3h.2c1.3-.2 2.5-.6 3.7-1.2.9-.4 1.9-.8 2.6-1.4.1-.1.2-.2.4-.3l.1-.1c1.4-1.3 2.7-3.1 2.6-4.8z" class="st0"></path>  <path d="M516 75.8s-.1-.1 0 0c-.5-3.2-1.9-6.7-4.5-8.5-.1 0-.1-.1-.2-.1-.7-1.2-2.2-1.9-3.4-2.7-.9-.6-1.8-1-2.7-1.5 0 0 0-.1-.1-.1-2-1.7-3.9-3.4-5.7-5.2-1.1-1.2-2.6-2.4-4.2-3-.6-.7-1.2-1.4-1.8-2-.2-.2-.6-.1-.6.3.1 2.5-1.6 4.7-3.6 6-.3.2-.3.8.1.9 2.4.6 4.6 1.7 6.8 2.7.9.4 1.8.8 2.8 1.2.2.1.5.2.7.2.7.5 1.4.8 2.2 1.2 1.6.7 3.1 1.5 4.6 2.4 1.9 1.2 3.9 2.5 5.5 4.2.2.5.4.9.7 1.4.1.2.3.2.5.2.1.2.2.4.4.5 1.4 3.1 1.4 6.3.4 9.6-1.6 1.9-2.7 3.8-5.4 4.5-1.7.4-3.6.2-5.3-.5-.9-.5-1.7-1.1-2.4-1.8-.1-.2-.2-.5-.3-.8-.5-1.3-.9-2.5-.7-3.9.2-1.3.8-2.5 2-3.1 1.6-.7 3.5-.5 4.4 1.2.1.1.2.2.3.2.1.3.1.6.1.9 0 .2.4.3.4.1.4-2.1-1-4.6-3.3-4.7-2.3-.2-4.4 1.1-5.6 2.9l-.1.1s0 .1-.1.1-.2.1-.3.2c-.2.3-.3.7-.4 1-.6 2.2-.3 4.4 1.2 6.1 0 .1 0 .1.1.2 2.1 2.7 5.5 3.7 8.8 3.5 1.4.2 2.8.2 4.1-.5.2-.1.2-.2.2-.4 4.6-2.9 5.2-8.1 4.4-13z" class="st0"></path>  <path d="M518.6 33.8c-.1-1.1-.4-2.1-.7-3.2 0-.2-.2-.2-.3-.3v-.2c-.5-2-1.9-3.5-2.9-5.2-1.2-1.9-3.1-3.1-4.3-4.9l-.1-.1c-.3-.6-.5-1.1-.8-1.7 0-.2.1-.4.1-.6 0-.3-.4-.3-.5-.1-.4 1.3-.7 2.4-.2 3.6v.1c-.2 1-.2 1.9-.5 2.8v.2c-.3.7-.6 1.4-.9 2-.3.9-.5 1.8-.6 2.7-.1.1-.1.2-.2.3-.2 2-.6 3.9-.3 5.9.2 1.5.2 2.7.8 3.8-.1.1-.1.3 0 .4 1 1.5 2 3 3.1 4.4.7.9 1.3 1.7 1.4 2.9 0 .6 0 1.3-.1 1.9-.1 0-.1.1-.1.2-1.8 6.2-10.6 8-15.9 5.7-.4-.2-.6.3-.3.5.1.1.3.2.4.3 0 .2.1.3.2.4 2.7 1.9 6.1 2.4 9.3 1.9 3.5-.5 6.1-2.1 8.3-4.8 1.4-1.6 2.6-3.5 3.6-5.4.4-.8.8-1.6 1.1-2.5.3-.9.3-1.8.3-2.8.1 0 .2-.1.2-.3.4-2.7.3-5.3-.1-7.9z" class="st0"></path>  <path d="M518.3 62.7c-4.9 1-9.5.8-14.1-.5 4 1 8.3 1.6 12.1.1.2-.1.1-.3-.1-.2-2 .4-4 .5-5.9.4 1.1 0 2.1-.2 3.1-.4.2 0 .2-.4 0-.3-2.7.1-5.2 0-7.7-.6 1.2.2 2.3.2 3.4.1.2 0 .1-.3 0-.3-1.6 0-3.2-.3-4.8-.9 2.2.3 4.4.3 6.6.3.2 0 .2-.2 0-.3-1.9-.3-3.7-.4-5.6-.6 0-.1-.1-.2-.2-.2-2.2-.4-4.3-1.2-6.3-2.3-.4-.2-.8.4-.4.7 0 .1.1.1.2.1.2.1.5.3.7.4-.1.2-.1.4.1.6.2.1.4.2.6.4-.2.1-.3.4 0 .6 1.1.7 2.2 1.2 3.5 1.7-.8-.2-1.7-.5-2.6-.7-.4-.1-.6.5-.2.7.1 0 .2.1.3.1-.3.1-.3.6 0 .7 5.4 2.4 11.9 2.8 17.5 1.1.2-.3.1-.7-.2-.7z" class="st0"></path>  <path d="M489.6 49.5c-.3-.2-.5-.3-.8-.2-.9-.7-2-1-3.1-1.1-2.9-.1-5.7 1-8.1 2.7-.3.2 0 .6.3.5 2.3-1.1 10.3-3.7 10.4.9v.2c-.1.3-.3.5-.5.8 0-1.1-.4-2.2-1.4-3-.2-.2-.6.1-.4.4 1.5 1.5.6 3.4-.5 4.7-.1 0-.2.1-.2.1.6-1.7.1-3.9-1.5-4.9-.3-.2-.5.3-.3.5 1 .7 1.1 2.3.8 3.4-.2.8-.6 1.3-1.1 1.8-.2.1-.4.1-.6.2.4-1.3.1-2.7-1-3.7-.3-.3-.8.2-.5.5 1.1 1.1.5 2.5-.2 3.6h-.2c-.2 0-.3.1-.5.1.1-.8-.1-1.7-.6-2.5-.2-.4-.8-.1-.6.3.4.9.3 1.6-.1 2.4-.5.1-1 .2-1.4.4.1-.6 0-1.3-.4-1.9-.2-.3-.8-.1-.7.3.3 1-.1 1.8-.9 2.4l-.1.1c-.9.5-1.7 1.1-2.5 2-.3.3.1.7.4.4.8-.6 1.6-1.1 2.5-1.4.1 0 .3 0 .4-.1.1 0 .1-.1.2-.1.7-.2 1.5-.4 2.3-.5.2.1.4.1.6-.1 2.4-.4 4.8-.6 6.9-1.7 2.2-1.4 6-5.3 3.4-7.5z" class="st3"></path>  <path d="M534.6 41.4c-.4-4.3-4.5-9-9.2-7.2-1.8.7-3.3 3.2-2.8 5.2.5 1.7 2.4 2.9 4.1 2.5 1.4-.4 2.5-2.2 1.6-3.6-.8-1.2-2.4-.9-2.5.5 0 .2.3.2.3 0 2.3.5 2.3 1.3-.1 2.3l-1.2-.3c-1.3-.6-1.6-1.9-1.3-3.1.4-2 2.6-3 4.5-2.6 2.6.6 4.4 2.9 5 5.4.6 2.8-.2 5.7-1.5 8.2-1.1 2.1-2.3 4.5-4.3 5.9-.6.4-.1 1.4.6 1 2.2-1.4 3.5-4 4.7-6.3 1.5-2.6 2.4-5.2 2.1-7.9zm32.9-5.9c-3.8-3.4-9.2-.4-10.4 4-1.5 6 1.2 11.5 5 16 .4.5 1.3-.2.9-.7-1.7-2.4-3.5-4.7-4.5-7.5-.9-2.7-1.3-6.8.2-9.4 1.6-2.9 6-4 8.4-1.4 1.7 1.8.5 4.6-1.8 5.2-.8.2-1.8.1-2.5-.4-.9-.6-1.2-1.5-.7-2.5 1.2-.7 2.2-.6 2.8.3.2.2.4 0 .3-.2-.7-1.4-2.4-2.1-3.6-.8-1.2 1.4-.4 3.3 1.1 4.1 4.3 1.9 8.2-3.6 4.8-6.7zm65.2 30.1c-.2-2.2-1.3-3.1-3.5-3.3-.2 0-.3.3-.1.4.3.1.6.3.8.4.6 1.1.8 2.9-.8 3.5-1.3.4-2.4-.3-3.3-1.2-1.4-1.4-2.3-3-3-4.8-.1-.2-.2-.3-.3-.4-.3-.6-.7-1-1-1.5.1-.2.1-.3-.1-.5-1.8-3.1-5.1-5.7-8.2-7.4-1.8-1-4.1-1.9-6.4-2.1-1-1.5-2.7-2.7-4.6-2.2-1.8.4-3.3 2.2-3.9 3.8-.8 2.1-.3 4.5.8 6.4.5.8 1 1.5 1.6 2-.3.1-.6.2-.9.4-.7.3-1.3.6-2 .9h-.2c-2.9 1.1-5.8 2.3-8.6 3.7-.2-.2-.4-.3-.8-.1-2.1 1.1-4.2 2.3-6.1 3.7-1.6 1.2-2.8 2.5-4 4-.1 0-.3 0-.4.2-1.7 1.6-2.2 4.2-2.4 6.5-.3 2.6-.1 5.2 1.4 7.4 2.4 3.6 6.6 5.1 10.7 3.2 3.6-1.7 6.5-6.2 3.7-10-1.2-1.6-3.4-2.4-5.3-1.8-1.4.5-2.6 1.8-2 3.3.1.2.4.2.4-.1.1-2.8 3.7-3 5.4-1.5 1.4 1.3 1.7 3.5.9 5.2-1.3 2.7-4.8 4.6-7.8 4.2-2.8-.4-5.3-3-6-5.7-.7-2.8-.4-7.9 1.8-9.9.2-.2.2-.4.1-.6 1.6-1.8 3.7-3.3 5.9-4.6.1.1.3.1.5 0 2.1-1.2 4.3-2.3 6.5-3.3 2.1-.9 4.1-2 6.3-2.7.1 0 .2-.1.3-.2.7-.4 1.5-.7 2.2-1h.1c.4-.1.7-.2 1-.3.4-.1.8-.1 1.2 0 .1.1.2.1.3.2 2.1.8 4.3 1.2 6.5 1.3 1.3.3 2.7.4 4 .8.9.3 1.9.6 2.8 1l.1.1c.9.6 1.8 1.1 2.8 1.6h.1c1.9 1.5 3.4 3.5 5.7 4.4.7.3 1.4.4 2.2.5.1.2.4.4.8.3.4-.1.8-.1 1.2-.2.2.1.4.2.6.1 1.8-.6 3.2-2.2 3-4.1z" class="st0"></path>  <path d="m601.1 58.1-.9-.9c.1-.4-.3-.7-.6-.8l-.2-.2c.2-.3.4-.7.5-1 .1-.4-.1-.7-.4-.8.3-.7-.5-1.3-1.1-.8-.1 0-.1.1-.2.1v-.1c.1-.1.2-.2.3-.4.4-.6-.3-1.4-.8-.8l-.4.4c-.3.1-.6.3-.6.6-1.7 1.7-3.6 3-5.8 4-2.7 1.2-5.7 1.6-8.5 2.5-.2.1-.2.4.1.4h.6c-.6.2-1.3.3-1.9.5-.8.2-.7 1.6.2 1.5 1.8-.2 3.5-.5 5.2-.9l-1.2.6c-.3.2-.4.6-.3.9-.9.5-1.8 1.1-2.7 1.7-.2-.1-.3-.1-.5.1-1.2.8-2.2 1.8-3.1 2.9-1 .9-2 1.9-2.7 3.2-1.2 2.3-1.7 4.9-2 7.5-.1.1-.1.2-.1.4 0 .1 0 .2.1.3v.1c.4 1.6.1 3.3.7 4.9.1.2.3.4.5.4 0 .2.1.3.1.5.1.3.2.4.4.4l.6 1.2c.1.2.2.3.4.3 0 0 .1.1.2.1.2.1.3.2.5.4l.3.3c0 .2.1.4.3.6.3.2.6.3.9.4.1 0 .3.1.4.1.1 0 .1.1.2.1.1.1.2.1.3.2 1.8.6 3.6 1 5.4.7.2.1.4.2.7.1 2.8-.9 5.2-1.9 7.1-4.2 1.4-1.6 1.9-4.1 1-6.1-.1-.2-.1-.3-.2-.5 0-.2-.1-.4-.2-.5-1-1.8-2.6-3.2-4.7-3.7-.7-.1-1.4 0-2 .2-.1-.1-.3-.2-.6 0l-.3.3c-.8.6-1.4 1.3-2 2.2-.4.6.5 1.1.9.5.4-.6 1-1.2 1.6-1.6 2.1-.3 4 1.4 4.6 3.4.6 1.8-.2 4.2-1.5 5.6-.3.2-.5.5-.8.7-.3.2-.3.6-.2.9-.7.3-1.4.6-2.1.8h-.2c-1.5.3-3 .3-4.5.1-.1-.1-.2-.1-.3-.2-.3-.1-.6-.2-1-.3-.8-.4-1.5-1-2.3-1.4-.5-.7-1.1-1.4-1.6-2.1 0-.1-.1-.1-.1-.1 0-.1-.1-.2-.1-.4 0-.1 0-.1-.1-.2-.2-.8-.5-1.6-.7-2.4.1-.1.2-.2.2-.4 0-.5 0-1.1-.1-1.6v-.7c0-.1 0-.1-.1-.2.5-1.9 1-3.7 1.8-5.4.3.1.6 0 .8-.3.8-1.1 1.6-2.1 2.6-3 .2 0 .4 0 .6-.2.4-.4.8-.7 1.3-1 .2.1.4.1.6 0 .1-.1.3-.1.4-.2.4-.2.4-.5.3-.9v-.4c.2 0 .3 0 .5-.1.6-.4 1.3-.8 1.9-1.3.2 0 .4 0 .6-.2.3-.2.5-.4.8-.6.1 0 .3 0 .4-.1.2-.1.4-.2.5-.3.2.1.3.1.5 0 .9-.4 1.8-.9 2.7-1.3.1 0 .3 0 .4-.1.8-.4 1.5-.8 2.2-1.2l.3-.3c.5-.3 1-.6 1.6-.9.2.2.5.3.9.2 1.2-.6 2.4-1.1 3.7-1.4.2.4.4-.4 0-.8z" class="st0"></path>  <path d="M587.2 60.7c-.2-.2-.6-.2-.8-.3-.4-.1-.8-.3-1.2-.4-.9-.3-1.9-.2-2.8-.2-1.1.1-2.1.2-3.2.1-1-.1-2.1-.3-3.1-.4-.1 0-.1 0-.2.1-1.6-.4-3.2-.7-4.7-1.3-1.5-.6-3.1-1.5-4.7-1.8-.1 0-.1 0-.2.1-1.3-.8-2.8-1.3-4.1-2.1-.7-.4-1.3-.8-2-1.2-.6-.4-1.1-1-1.8-1.3h-.1c-.9-.8-1.9-1.6-2.9-2.5-.7-.6-1.4-1.5-2.2-2.1-.3-.7-.8-1.1-1.3-1.6-.4-.5-.7-1-1.1-1.5-.3-.5-.5-.9-.8-1.4-.3-1.2-1.1-2.4-1.6-3.5l-.1-.1v-.2c0-.1-.2-.2-.2-.1-.3.3-.7.4-1.2.5-.1 0-.2.1-.1.2.1.6.2 1.1.4 1.7l.6 1.8c.1.5.3.8.6 1.2.4.6.6 1.2.9 1.8 0 .1.2.2.3.1.4 1.2 1.3 2.3 2 3.3.3.4.6.7.9.9.5.8 1.1 1.5 1.9 2.1.1 0 .1.1.2.1.9 1.2 2.1 2.2 3.3 3 1.6 1.1 3.2 2.2 4.9 3.2.1.1.2 0 .3 0 1.7 1 3.3 2.2 5.1 3 .8.4 1.5.7 2.4.9.5.2 1.5.6 2 .4 1.7.3 3.3.9 5.1 1 .9 0 1.9 0 2.8-.1.3 0 .7 0 .9-.2.8-.1 1.7-.1 2.5-.2.9-.1 1.8-.5 2.6-.9.4-.3 1.8-1.3.7-2.1zm8-6.2c-.3.1-.7.2-1 .4-.3.1-.7.2-1 .3-3.3.8-7 .4-9.8-1.5-1.7-1.2-3.2-2.6-3.7-4.7-.5-2-.2-4.6 1.5-6 .1-.1.2-.2.2-.3 1.3-1.2 1.8-2.9 2.4-4.7.5-1.7.7-3.2.6-4.8.2-3.5-1.5-6.7-2.2-10.1 0-.1-.1-.2-.2-.3.5-.7.8-1.3.8-2.3 0-1.4-.7-2.6-.9-4-.1-.5-.8-.3-.8.1 0 .3 0 .6.1.9 0 1.1-.5 2.1-1.1 3.1-.1 0-.3.1-.4.2-1.7 1.7-3.1 3.1-4.2 5.1-.1.1-.1.2-.2.4s-.1.3-.1.5c-3.4 5.3-4.2 12.6-2.2 18.6.1.2.2.3.4.4.4 1.1.8 2.2 1.6 3.2 1.1 2.2 2.5 4.1 4.4 5.7 0 .1.1.2.2.2.1.1.3.2.4.3 0 .2.1.3.2.4 2.5 1.4 5.2 2.4 8.1 2.4 1.3 0 2.6-.2 3.7-.7.8-.4 1.5-.9 2.4-1.1.5-.1.9-.2 1.4-.4 0 0 .1 0 .1-.1.3-.5-.1-1.5-.7-1.2z" class="st0"></path>  <path d="M557.8 67.9c-5.4-1.2-7.8-7-9.1-11.7 0-.1-.1-.2-.2-.3-.1-1.4-.4-2.8-.7-4.2.1-.1.2-.2.1-.4-.2-.8-.4-1.5-.5-2.3.1-.1.1-.1.1-.3-.1-1.5-.1-2.9-.2-4.4 0-.2-.1-.3-.3-.3.1-1.4-.1-2.8-.3-4.2 0-.1-.2-.2-.3-.2-.7 0-1.4-.1-2.1-.2-.2 0-.4.2-.4.4-.2 4.6-.9 9.2-1.4 13.7v.2c-.3.7-.4 1.4-.6 2.2-.2 1.2-.7 2.4-1.2 3.6-.7 1.7-1.3 3.2-2.3 4.5-.7.8-1.5 1.5-2.3 2.2-1 .8-2.2 1.1-3.3 1.5-.1.1-.2.1-.3.2h-.4c-.3 0-.3.5 0 .4h.4c.1.2.3.2.5.2.2-.1.5-.2.7-.2 2.3-.2 4.5-.8 6.6-1.8-.5 1.8-1.5 3.9-3.1 4.8-.3.1-.5.3-.8.4-.4.2-.3.8.2.7.7-.2 1.3-.5 1.9-1 2.8-1.7 5.1-3.8 6.8-6.8.2.2.3.4.5.7-.2.1-.2.3-.1.5.4.6.9 1 1.4 1.5.3.5.7.9 1.1 1.3.3.2.6.5.9.7 0 .1 0 .2.1.3.6.6 1.3 1 2 1.5.1.1.2.1.3 0 .7.5 1.5 1 2.3 1.4.3.2.6-.2.4-.5-.4-.3-.8-.7-1.2-1-1.3-1.2-2.1-2.7-2.6-4.4 2.3 1.1 4.7 1.6 7.3 1.9.4.3.5-.5.1-.6zm-22.7 6.4c-3.3.7-7.2.9-10.6.3-1.8-.3-3.8-1.5-4.8-3.1-1.3-2-.9-6 2.3-5.6 1.3.9.8 2.8-.6 3.3-.2.1-.2.4.1.4.2 0 .3-.1.5-.1.1.2.3.3.6.1 1.9-1.4 2.1-4.6-.5-5.4-2.6-.8-4.9 2.9-4.7 5.2.1 1.5 1.2 3.2 2.1 4.3 1.2 1.4 3 1.8 4.7 2.3 3.4.9 8.1.2 11-1.7.1.1 0 0-.1 0zm35.8-9.4c0-.1-.1-.1-.2-.2-.1 0-.3-.1-.4-.1h-.6c-.1-.1-.1-.1-.3-.1-.6 0-1 .1-1.5.4-.1 0-.1 0-.2.1-1.7 1.3-1.4 4.1.9 4.5.2 0 .4-.3.2-.4-1.1-.6-1.7-1.8-1.2-2.8.4-.5.9-.8 1.5-.9.1 0 .1-.1.2-.1.3 0 .7 0 1 .1 2 .8 2.5 3.5 1.7 5.2-.6 1.3-1.8 2.4-2.9 3.1-1.5 1-3.1 1.4-4.8 1.5h-1.6c-.1-.1-.1-.1-.2-.1-2-.1-4-.1-6-.5-.1 0-.2.1-.1.2.5.3 1 .5 1.5.6 2 .8 3.8.9 5.9.8.5.1.9.2 1.4.2.7 0 1.4-.2 2-.6.5-.2 1.1-.4 1.6-.7 0 0 .1 0 .1-.1 1.7-.8 3.2-1.9 3.8-3.7V71c.9-2 .5-4.8-1.8-6.1z" class="st4"></path>  <path d="M553 80.5c-.3-.2-.6-.3-.9-.5-.8-1.2-2-2-2.9-3.2-.3-.4-.6-.8-.8-1.3.2-.1.2-.3.1-.5-.2-.3-.3-.5-.5-.8-.8-1.5-1.1-3.1-1-4.8 0-.1 0-.2-.1-.3 0-.7.1-1.5-.1-2.1-.2-.6-.6-1.3-1.1-1.7-.2-.2-.6-.1-.7.2-.2.6-.5 1.2-.8 1.7-.1.1-.2.2-.2.4.2 1.4-.1 2.8-.3 4.2-.1 0-.2.1-.3.3-.5 3.7-3.2 6.4-5.9 8.6-.2.2.1.4.3.3 0 0 .1 0 .1-.1 3.1-.4 5.6-2 7.5-4.4.5 1 1.5 1.9 2.3 2.4 1.5 1.1 3.5 1.7 5.3 1.9.1.1.1-.2 0-.3z" class="st5"></path>  <path d="M543.1 79.8c.1-.4-.5-.5-.6-.2-2 5.4-9.2 9.7-14 4.9-.2-.4-.3-.7-.4-1-.1-.5.1-1.1.3-1.6.5-.4 1-.6 1.3-.7h.2c1.2-.1 2 1.2 1.4 2.2l-.2.2c0 .2.2.4.4.2l.1-.1c.2 0 .4 0 .5-.3.5-1.3.3-2.7-1-3-2.1-1.3-4.5 1.4-3.9 3.9 0 .1.1.2.1.3-.2.2-.3.4-.1.6 1.2 2.4 3.1 4.1 5.9 3.8 1.7-.2 3.3-.8 4.8-1.7.1 0 .2 0 .3-.1l1.2-.9c.5-.4 1-.8 1.5-1.3 0 0 0-.1.1-.1.8-.8 1.2-1.8 1.3-2.8.3-.8.6-1.5.8-2.3zm18.6.6c-2.1-1-3.7.8-3.1 2.8.1.4.8.3.8 0-.2-.8 0-1.7.8-2.1.4-.2.8-.1 1.2.1.3.1.7.4 1 .9.3.5.5 1.1.4 1.7 0 .3-.1.5-.1.8-1.8 1.9-3.8 3-6.4 2.5-1.8-.3-3.9-1.3-5.2-2.6 0-.1 0-.1-.1-.2-.6-.8-1.3-1.5-2-2.3-.1-.1-.4.1-.3.2.2.2.4.5.5.7-.2.1-.2.3-.1.5.1.1.2.3.3.4.2.3.4.5.6.8 0 .1 0 .1.1.2.2.2.4.5.6.7.4.5.8 1 1.4 1.4 1.3.9 2.8 1.6 4.3 1.9 2.8.6 5.3.1 6.6-2.6 1-2 .9-4.7-1.3-5.8z" class="st5"></path>  <path d="M547 78.5c-.4-.7-.9-.5-1.2-1.7-.1-.3-.5-.3-.6-.1-.7 1.2-1.6 1.5-1.4 2.7 0 .6 0 1.1.1 1.7-.1.2 0 .5 0 .7v.6c0 2-.1 4.3.5 6.3-.2.1-.3.2-.3.5.1 2.2 0 4.6.5 6.8-.1.1-.2.2-.2.4.1 1.8.1 3.7.3 5.5-.1.1-.1.2-.1.3-.1.9-.1 1.8 0 2.7-.1.1-.1.1-.1.3-.2 1-.4 2.2-.3 3.2.1 1 .5 1.9.8 2.8.1.5.7.5 1 .1 1-1.6 1.3-3.4.6-5.1 0-.1.1-.2.1-.2 0-1.4-.2-2.8-.3-4.1v-1.1c0-.4 0-.9.1-1.3 0-.2 0-.3-.2-.4.3-2.2.3-4.3.1-6.5.5-.5.3-1.9.4-2.5.2-1.9 0-3.8.1-5.7 0-.1 0-.2-.1-.2.2-1.5.3-3 .4-4.4-.2-.4 0-1-.2-1.3z" class="st6"></path>  <path d="M544.2 92.4c.1-.4.1-.8 0-1.1-.1-.2-.3-.2-.4 0-.3 1.1-1 2.6-1.8 3.5-.9.9-2 1.3-3.3 1.3-1.8-1.2-5.4-.4-5.1 2.2.1 1.1 1.1 2.3 2.2 2.6 1.1.3 2.2-.1 3.2-.7h.1c.4-.2.8-.4 1.2-.7.2-.1.2-.2.3-.3 1.9-1.6 3.3-4 3.7-6.3.1-.2 0-.4-.1-.5zm12.4 4.3c-.6-1-1.9-1-2.9-.9-1.2.1-2.2.4-3.3.1-.6-.2-1.5-.7-2.1-1.4-.1-.1-.1-.2-.2-.2l-.2-.2c-.4-.5-.7-1-.7-1.4 0-.2-.3-.1-.3 0 0 .5.2 1.1.4 1.6-.1.1-.1.3 0 .5 1.5 2.5 4 7.2 7.7 6 0 0 .1 0 .1-.1.4-.1.7-.3 1-.5.8-.8 1.1-2.5.5-3.5z" class="st5"></path>  <path d="M547.1 53.6c-1.1-3.4-1.1-6.8-1.1-10.2.2 2.1.5 4.2.8 6.2 0 .2.3.1.3 0-.2-3.7-.3-7.5-.5-11.2 0-.5-.8-.5-.8 0v.3c-.2-.3-.6-.3-.7.1-.2 0-.4.1-.4.4.2 5-.3 10.2-1.4 15.1 0 .2.2.2.3.1.8-2.9 1.4-5.9 1.7-8.8.1 2.9.4 5.8 1.6 8.5-.1-.2.2-.3.2-.5z" class="st2"></path>  <path d="M544.5 38.4c0-.5-.8-.5-.8 0 0 3.7.1 7.3-.5 11 0 .2.2.3.3.1.7-3.6 1.2-7.3 1-11.1z" class="st2"></path>  <path d="M544.5 91.7c-.1-.4-.8-.3-.7.1.2 1.7-1.5 3.3-2.5 4.5-1.2 1.3-2.6 2-4.4 1.6-.3-.1-.4.4-.1.5 1.8.4 3.6-.1 4.9-1.5 1.2-1.3 3.1-3.1 2.8-5.2zm9.4 6.6c-3.2-1-5.9-3.6-7.5-6.5-.2-.4-.8-.1-.7.3.5 1.8 2.1 3.2 3.5 4.4 1.3 1.2 2.9 2.2 4.7 2.1.1 0 .1-.2 0-.3zm-8-32.3c-.2.5-.4 1.1-.7 1.6-.2.5-.5.9-.7 1.4-.1.3.3.4.4.1.2-.6.5-1 .9-1.5.3-.4.7-.8.7-1.3.1-.4-.4-.7-.6-.3zm.3 1.9c-.3.5-.4 1.1-.7 1.7-.3.6-.6 1.2-1 1.7-.2.2.1.5.3.3.8-.9 1.8-2.1 2-3.3.1-.5-.4-.8-.6-.4zm.1 2.2c-.4.8-.8 1.6-1.5 2.3-.2.2.1.5.3.3.7-.6 1.4-1.3 1.8-2.2.3-.5-.4-.9-.6-.4zm0 2.3c-.1.3-.2.5-.3.8-.1.3-.3.5-.5.7-.2.2.1.5.3.3.2-.2.4-.5.6-.7.2-.2.4-.5.5-.7.1-.4-.5-.8-.6-.4zm.7 1.4c-.2.5-.5 1-.8 1.5-.1.2.1.4.3.2.4-.5.7-1 1.1-1.5.2-.3-.5-.7-.6-.2zm.6 1c-.1.1-.1.3-.2.4-.1.1-.2.3-.2.4-.1.3.2.5.4.2.1-.1.2-.3.2-.4.1-.1.2-.3.3-.4.2-.2-.3-.5-.5-.2zm.6.9c-.3.4-.5.8-.7 1.2-.2.2.2.4.4.2.3-.4.6-.7.9-1.1.1-.4-.3-.6-.6-.3zm.6.8c-.1.1-.2.3-.2.4-.2.3.3.5.5.3.1-.1.2-.2.3-.4.1-.3-.4-.6-.6-.3z" class="st6"></path>  <path d="M618.2 60.1c-.9-1.6-2.5-2.4-4.2-2.9-.2-.4-.5-.7-.5-1.1-.1-.6 0-1.1 0-1.7-.1-.6-1-.6-.9 0 .1.7-.1 1.6 0 2.4-.1 0-.2 0-.2-.1 0 0 0-.1-.1-.1-.6-1-.9-2.1-.6-3.3.2-.6-.7-.8-.9-.2-.4 1.1-.4 2.2-.1 3.2-.4-.1-.9-.2-1.4-.3v-.1c-.7-1.2-.8-2.6.1-3.8.2-.3-.3-.7-.6-.4-1 1-1.5 2.6-1 4-.3-.1-.5-.1-.8-.2-.7-1.7-1-3.6-.2-5.3.9.1 1.8.3 2.6.5 1.8.4 3.5 1 5.1 1.8.4.2.9-.3.5-.7-1.8-1.4-3.8-2.3-6-2.8-1.5-.3-3.1-.7-4.5-.4h-.2c-1.6.3-3.2 1.6-3.5 3.3-.3 2 1.4 3.5 3.1 4.2 2.2.9 4.7 1 7.1 1.5 2.3.5 5.4.8 6.9 2.7.1.4.5.1.3-.2zm-15.8-7c-.4-.9.1-1.8.8-2.4h.2c-.5.7-.9 1.5-1 2.4zm2.6 2c-.4-.1-.9-.3-1.2-.5-.5-1.6-.2-2.9.7-4.2.4-.1.9-.1 1.3-.1-.7 1.4-1.1 3.2-.8 4.8z" class="st3"></path>  <path d="M550.5 14c-.1-.9-1-1.8-1.8-2.2-1.1-.5-2.3.1-3.4.1-1.5-.1-4.1-.3-4.4 1.7-.9-.8-2.2-1.2-3.6-1.3 0-.3 0-.6-.1-.9.4-3.7-5.6-4-8.2-3-1.8.7-3.6 2.1-4.5 3.9-1 2.1-.8 4.4-.5 6.6 0 .3.4.2.5-.1.1-1.7.3-3.4.9-4.9.9-1.5 2.3-2.7 4-3.4 1.4-.5 5.2-1.1 5.9.8 0 .1 0 .1-.1.2-.1.3-.1.6 0 .8-.9.1-1.7.4-2.4.8-2.8 1.8-4 7-1.3 9.4.4.4 1-.2.6-.6-1.4-1.9-.7-5.5 1-6.9 1.3-1.1 7-1.6 7 1.2 0 .1-.1.2-.1.3-3.1.8-5.6 4.1-5.9 7.7-.4 5.7 5.8 12.2 11.5 9.2.3-.2.2-.7-.2-.7-4.3.2-8.5-2.2-9.1-6.8-.6-4.2 3.7-10.6 7.8-6.2-1.3 3.5-1 7.8 1.6 10.6.3.3.8-.1.6-.4-2-3.1-2-7.7-.2-10.9.2-.4.1-.7-.2-1 .6-.5 1.1-1 1.8-1.4.7.5 1.7-.1 1.5-.9.8-.4 1.4-.9 1.3-1.7z" class="st4"></path>  <path d="M560.7 8.3c-1.7-.6-3.8-.7-5.4.4-1.3.9-2 2.7-1.1 4.1 0 .1.1.1.2.2-2.1 0-4.3.8-4.9 2.9-.3 1.2 1.5 1.7 1.9.5.6-2.1 4.2-1.6 5.7-.9 1.7.7 2.9 2.1 4 3.6.3.4 1-.1.8-.6-1.4-2.6-3.1-4.9-6.2-5.4.2-.1.4-.4.3-.7-.3-3.6 4.1-2.5 6.1-1.4 1.6.9 4.6 3.3 4.8 5.3 0 .4.6.5.7.1.5-3.6-4-7.1-6.9-8.1zM543 12.1c-4.8.3-7.9-4.8-4.9-8.8.2-.3-.2-.6-.4-.4-2.2 1.6-2.8 4.3-1.8 6.8.2.5.5 1 .8 1.4-.3.4-.3 1 .3 1.3 1.6 1.1 3.6 1.7 5.6 1.7h.6c1.1-.2 1.1-2.1-.2-2z" class="st4"></path>  <path d="M556.1 8h-.5c0-1.4-.5-2.9-1.2-4.1-.2-.3-.7-.1-.6.3.4 1.6.7 4-.2 5.5-1 1.7-2.7 2.5-4.6 2.5-1.1 0-1.4 1.8-.3 2 1.1.2 2.1 0 3-.4.2.1.5.2.8 0 .4-.3.9-.5 1.3-.8.3-.2.4-.6.2-.9.3-.3.5-.6.8-1 .4-.6.6-1.2.7-1.9h.1c.1 0 .1 0 .2.1.3.1.7-.1.7-.4.1-.5-.1-.8-.4-.9zm-10.6-3c-.1-.5-.9-.3-.8.2.5 2.3-.1 5-1 7.1-.6 1.2 1.2 2 1.7.7 1.1-2.8.9-5.2.1-8z" class="st4"></path>  <path d="M518.4 33.3c-.1-.2-.4-.2-.4 0-.6 2.7 0 5.5-.6 8.3-.6 2.6-1.6 5.6-3 7.8s-3.4 4-5.7 5.3c-2.8 1.6-5.3 1.9-8.3.8h-.2c-.6-.2-1.3-.2-1.9-.3-.9-.1-1.8-.3-2.6-.7-.2-.1-.4.1-.2.3.5.6 1.2.9 1.8 1.2.6.3 1.2.8 1.8 1.1.2.1.4.2.6.2.4.2.7.4 1.1.4h1.6c1.9.3 3.7.1 5.8-.9 2.5-1.2 4.8-3 6.5-5.2 1.9-2.4 2.9-5.5 3.6-8.4.9-3 1.2-7 .1-9.9z" class="st3"></path>  <path d="M518.3 33.1c.1-.1.2-.3.1-.5-.3-1.8-.9-3.6-1.7-5.2-.8-1.7-2.2-2.6-3.4-4-1.1-1.8-2.9-3-3.7-4.9 0-.2.1-.4.2-.6.2-.5-.7-.9-.9-.4-.9 2.2-.6 4.2.7 6.1 2 2.9 3.3 5.7 2.7 9.3 0 .2.3.3.4.1.7-2.4.7-4.7-.3-7-1.1-2.5-3.1-4.1-2.8-6.7.2.5.3 1 .6 1.5.5.9 1.4 1.5 1.9 2.4 1 1.7 2.2 3.3 3.2 5 2.3 4.3 2.3 8.8 2.3 13.6 0 .7 1.2.9 1.3.2.2-2.9.1-6-.6-8.9z" class="st3"></path>  <path d="M515.4 37.5c-.1-.3-.4-.2-.4.1.5 3.3.4 6.3-.7 9.3.4-2.3.1-4.8-.8-7.1-.1-.3-.5-.2-.4.1.8 3.3.5 6.4-.7 9.2.6-2.4.2-5-1.1-7.4-.1-.3-.5 0-.4.2 1.4 3.1 1 6.9-1.1 9.6-.5.6-1.1 1.2-1.8 1.8-2.2 1.2-4.4 2.4-7 2.3h-.4c-.9-.2-1.2 1.1-.4 1.4 2.2.7 4.8 0 7-1.4-.1.5.4 1.1.9.7.2-.1.3-.2.5-.3.1 0 .2 0 .2-.1.5-.4 1.1-.8 1.5-1.3 1.9-1.7 3.4-3.7 4.5-6 1.8-3.7 1.4-7.1.6-11.1zm79.7 16.9c-.7.2-1.3.5-2 .9-.2-.1-.4-.1-.6 0-.2.1-.3.1-.5.2-.1-.1-.3-.2-.6-.1-2 .4-3.9 0-5.8-.7-1.7-.6-3.6-1.4-5-2.7-2.5-2.5-3-6.7-2.3-10 .1-.3-.4-.5-.5-.1-.4 2-.7 4.2-.5 6.2-.9-2.6-1.1-5.5-.8-8.1 0-.3-.4-.3-.5-.1-.5 3.2-.6 6.4.5 9.3-.2-.4-.5-.9-.7-1.4-1.3-3-1.6-7.5-.9-10.7 0-.2-.3-.3-.3-.1-.6 2.1-.9 4.6-.6 7-.4-1.3-.6-2.6-.7-3.9-.4-4.3.4-8.7 2.4-12.6 1.7-3.3 4.2-6.1 5.5-9.6.7 1.9.7 4.2-.5 5.9-.8 1.1-1.9 1.7-2.5 3.1-1 2.2-.8 4.4.3 6.5.1.2.6.1.4-.2-.6-1.5-.8-3.4-.3-5 .6-1.8 1.9-2.6 3-4.1 1.5-2.1 1.1-5.2 0-7.5-.3-.6-1.1-.1-.9.5 0 .1.1.1.1.2-1.7 3.3-4.1 6-5.9 9.2-.1 0-.1.1-.2.1-3.9 5.8-4.2 13.7-1.8 20.1.1.3.4.4.6.5 1.2 2.9 3 5.7 5.3 7.7l.4.4c.1 0 .2 0 .3.1 3.2 2.5 7.4 2.9 11.2 2v-.2c.3-.1.5-.2.8-.3.4-.2.7-.3 1.1-.5.1.1.2.2.3.1.7-.5 1.5-1.1 2.2-1.7.3-.3.2-.5 0-.4z" class="st3"></path>  <path d="M530.7 88.9c2.1.4 3.6 0 5.5-.8 1.2-.5 2.1-1.3 3-2.1h-.3c-2.6 1.5-5.4 3.5-8.4 1.9-1.4-.7-2.3-1.9-2.7-3.4-.2-.8-.2-1.5.2-2.3.2-.6.7-1 1.4-1.2 1.8.1 2.4.8 1.9 2.1-.1.2.1.4.3.2 1.1-1.3.4-3.1-1.4-3.3-2.1-.3-3.7 1.8-3.5 3.8.2 2.2 1.7 4.1 3.6 5 .2.1.3.1.4.1zm30.2-8.8c-1.8-.2-2.8 1.5-2.4 3.1.1.5.8.5 1 .1-.6-.8-.3-2 .8-2.2.9-.2 1.4.3 1.8 1l.2.2c.4.6.5 1.4.4 2.2-.1 1.2-.9 2.4-1.9 3.1-1.8 1.3-4.7 1.4-6.6.2-.1-.1-.3.1-.2.2 3.2 2.8 9.6 1 9.7-3.6.1-1.9-.9-4.1-2.8-4.3z" class="st6"></path>  <path d="M1086.6 83.2c-2.4.1-4.9 0-7.3-.1l-7.3-.4c-2.4-.1-4.9-.2-7.3-.1-2.4 0-4.9-.1-7.3-.1-2.4-.1-4.9-.1-7.3-.1-2.4 0-4.8-.1-7.3-.2-4.9-.2-9.8 0-14.5-.3-1.2-.1-2.5-.1-3.7-.1h-3.6l-7.3-.1-14.6-.2-7.3-.1c-2.4 0-4.9-.1-7.3 0-2.4 0-4.9.2-7.3.2-2.4.1-4.9.1-7.3.1h-7.3c-2.4 0-4.9.1-7.3.1-2.4-.1-4.9-.1-7.3-.2-1.2 0-2.4-.1-3.6-.2-1.2-.1-2.4-.1-3.7-.1-4.9.1-9.7-.1-14.6-.1-2.4-.1-4.9-.1-7.3 0h-7.3c-9.7.1-19.4.5-29.1.6-2.4 0-4.9.1-7.3 0l-7.3-.2c-4.9-.1-9.7-.1-14.6-.2-9.7-.2-19.4-.4-29.1-.7-4.9-.2-9.7-.1-14.6-.2-2.5 0-4.8.1-7.3-.1-2.4-.1-4.9 0-7.3.1-1.2 0-2.4.1-3.6 0h-3.7c-2.4.1-4.8.2-7.3.1-2.4 0-4.9-.1-7.3 0-2.4 0-4.8-.1-7.3 0-2.4.1-4.8 0-7.3 0h-3.7c-1.2 0-2.4-.1-3.6-.2-1.2-.1-2.4-.2-3.7-.2l-3.6.1c-1.2 0-2.4 0-3.6-.1-1.2-.1-2.5-.1-3.7-.1l-7.3.1c-1.2 0-2.4.1-3.6 0l-3.6-.1c-.6 0-1.3 0-1.9.1-.6.1-1.1.1-1.8 0-1.2-.1-2.4-.1-3.7-.1-2.4-.1-4.9 0-7.3 0H700c-2.4-.1-4.9-.2-7.3-.2-4.9 0-9.7.1-14.6 0h-14.6c-4.9 0-9.7-.1-14.6 0-2.4 0-4.8-.1-7.3 0-2.4.1-4.8.2-7.3.1-2.4 0-4.9.1-7.3.2-1.2.1-2.4.2-3.6 0-1.2-.3-2.5.3-3.6 0v.1c1.2.4 2.5-.2 3.6.1 1.2.3 2.4.2 3.7.1 2.4-.1 4.9-.1 7.3-.1 2.4.2 4.9.1 7.3 0h7.3c4.8-.1 9.7.1 14.6.1l14.6.2c4.9.2 9.7.1 14.6.1 2.4 0 4.9.1 7.3.2 2.4.1 4.9.1 7.3.1 2.4 0 4.9 0 7.3.1 1.2 0 2.4.1 3.6.1h1.9c.6-.1 1.2-.1 1.8-.1l3.6.1h3.7l7.3-.1c1.2 0 2.4 0 3.6.1 1.2.1 2.5.2 3.7.1l3.6-.1c1.2 0 2.4.1 3.6.2 1.2.1 2.4.2 3.7.2 1.2 0 2.4-.1 3.6 0 2.4 0 4.9.1 7.3 0 2.4-.1 4.8 0 7.3 0h7.3c2.4.1 4.9 0 7.3-.1h3.6c1.2 0 2.4 0 3.7-.1 2.4-.1 4.9-.2 7.3-.1 1.2 0 2.4.1 3.7.1 1.2 0 2.4-.1 3.6-.1 4.8 0 9.7 0 14.6.1 9.7.2 19.4.3 29.1.4 4.9.1 9.7.1 14.6.1l7.3.1c2.4.1 4.9 0 7.3 0 9.7-.2 19.4-.6 29.1-.6h7.3c2.4 0 4.9 0 7.3.1 4.8.1 9.7.3 14.6.2 1.2 0 2.4 0 3.6.1 1.2.1 2.4.2 3.6.2 2.4.1 4.8.1 7.3.2 2.4.1 4.9 0 7.3 0h14.6c2.4 0 4.9-.2 7.3-.2l14.6.1 14.6.1h10.9c1.2 0 2.4 0 3.6.1 4.9.3 9.7 0 14.6.2 2.4.1 4.9.1 7.3.1h7.3c2.4 0 4.9.1 7.3.1 2.4-.1 4.9 0 7.3 0l7.3.2c2.5.4 4.9.5 7.4.2zM459 83.1l-7.3-.4c-2.4-.1-4.9-.2-7.3-.1-2.4 0-4.9-.1-7.3-.1-2.4-.1-4.9-.1-7.3-.1-2.4 0-4.8-.1-7.3-.2-4.9-.2-9.8 0-14.5-.3-1.2-.1-2.5-.1-3.7-.1h-3.6l-7.3-.1-14.6-.2-7.3-.1c-2.4 0-4.9-.1-7.3 0-2.4 0-4.9.2-7.3.2-2.4.1-4.9.1-7.3.1h-7.3c-2.4 0-4.9.1-7.3.1-2.4-.1-4.9-.1-7.3-.2-1.2 0-2.4-.1-3.6-.2-1.2-.1-2.4-.1-3.7-.1-4.9.1-9.7-.1-14.6-.1-2.4-.1-4.9-.1-7.3 0h-7.3c-9.7.1-19.4.5-29.1.6-2.4 0-4.9.1-7.3 0l-7.3-.2c-4.9-.1-9.7-.1-14.6-.2-9.7-.2-19.4-.4-29.1-.7-4.9-.2-9.7-.1-14.6-.2-2.5 0-4.8.1-7.3-.1-2.4-.1-4.9 0-7.3.1-1.2 0-2.4.1-3.6 0h-3.7c-2.4.1-4.8.2-7.3.1-2.4 0-4.9-.1-7.3 0-2.4 0-4.8-.1-7.3 0-2.4.1-4.8 0-7.3 0h-3.7c-1.2 0-2.4-.1-3.6-.2-1.2-.1-2.4-.2-3.7-.2l-3.6.1c-1.2 0-2.4 0-3.6-.1-1.2-.1-2.5-.1-3.7-.1l-7.3.1c-1.2 0-2.4.1-3.6 0l-3.6-.1c-.6 0-1.3 0-1.9.1-.6.1-1.1.1-1.8 0-1.2-.1-2.4-.1-3.7-.1-2.4-.1-4.9 0-7.3 0h-7.3c-2.4-.1-4.9-.2-7.3-.2-4.9 0-9.7.1-14.6 0H43.2c-4.9 0-9.7-.1-14.6 0-2.4 0-4.8-.1-7.3 0-2.4.1-4.8.2-7.3.1-2.4 0-4.9.1-7.3.2-1.2.1-2.4.2-3.6 0-1.2-.3-2.5.3-3.6 0v.1c1.2.4 2.5-.2 3.6.1 1.2.3 2.4.2 3.7.1 2.4-.1 4.9-.1 7.3-.1 2.4.2 4.9.1 7.3 0h7.3c4.8-.1 9.7.1 14.6.1l14.6.2c5.2.3 10.1.3 14.9.3 2.4 0 4.9.1 7.3.2 2.4.1 4.9.1 7.3.1 2.4 0 4.9 0 7.3.1 1.2 0 2.4.1 3.6.1h1.9c.6-.1 1.2-.1 1.8-.1l3.6.1h3.7l7.3-.1c1.2 0 2.4 0 3.6.1 1.2.1 2.5.2 3.7.1l3.6-.1c1.2 0 2.4.1 3.6.2 1.2.1 2.4.2 3.7.2 1.2 0 2.4-.1 3.6 0 2.4 0 4.9.1 7.3 0 2.4-.1 4.8 0 7.3 0h7.3c2.4.1 4.9 0 7.3-.1h3.6c1.2 0 2.4 0 3.7-.1 2.4-.1 4.9-.2 7.3-.1 1.2 0 2.4.1 3.7.1 1.2 0 2.4-.1 3.6-.1 4.8 0 9.7 0 14.6.1 9.7.2 19.4.3 29.1.4 4.9.1 9.7.1 14.6.1l7.3.1c2.4.1 4.9 0 7.3 0 9.7-.2 19.4-.6 29.1-.6h7.3c2.4 0 4.9 0 7.3.1 4.8.1 9.7.3 14.6.2 1.2 0 2.4 0 3.6.1 1.2.1 2.4.2 3.6.2 2.4.1 4.8.1 7.3.2 2.4.1 4.9 0 7.3 0h14.6c2.4 0 4.9-.2 7.3-.2l14.6.1 14.6.1h10.9c1.2 0 2.4 0 3.6.1 4.9.3 9.7 0 14.6.2 2.4.1 4.9.1 7.3.1h7.3c2.4 0 4.9.1 7.3.1 2.4-.1 4.9 0 7.3 0l7.3.2c2.4.1 4.9.1 7.3 0v-.1c-2.6.2-5 .1-7.5 0zm72-6.4c.8-.2 1.5-.4 2.3-.7.7-.3 1.4-.7 2-1.3-2.6.5-5.1.6-7.7.4-2.5-.1-5.1-.7-6.8-2.4-.8-.8-1.5-1.9-1.6-3-.2-1.1.2-2.4 1.1-2.9.4-.3 1-.4 1.5-.3.5.1.9.5 1 1 .1.5 0 .9-.4 1.3s-1 .6-1.5.9l-1.2.5 1.2.3c1.8.4 3.6-1.1 3.6-2.8 0-.9-.5-1.6-1.1-2.2-.6-.6-1.5-.8-2.3-.6-1.6.4-2.8 1.7-3.3 3.3-.5 1.5-.4 3.3.4 4.8s2.1 2.6 3.5 3.4c1.5.7 3.1 1 4.7 1.1 1.4-.3 3-.5 4.6-.8zm-4.7-.4c-1.5-.1-3-.5-4.3-1.1-1.3-.7-2.5-1.7-3.3-2.9-.8-1.3-1-2.8-.7-4.3.4-1.4 1.5-2.8 3-3.1 1.5-.4 3 1 2.9 2.5 0 .6-.3 1.2-.8 1.6.2-.2.3-.4.4-.6.1-.4.2-.8.1-1.2-.2-.8-.8-1.4-1.6-1.6-.8-.2-1.6 0-2.2.4-1.3.9-1.8 2.5-1.6 3.9.2 1.4.9 2.7 1.9 3.7 1 1 2.3 1.6 3.6 1.9 1.3.3 2.6.5 3.9.5 1.3 0 2.6 0 3.9-.2.6-.1 1.3-.2 1.9-.3.6-.2 1.3-.3 1.8-.5-2.7 1.2-5.9 1.5-8.9 1.3z" class="st7"></path>  <path d="M624.8 69.5c1.3.7 2.8 1.1 4.4.9 1.5-.3 3-1.2 3.6-2.7.7-1.5.2-3.3-.9-4.3-1.1-1.1-2.7-1.4-4.2-1.2l-.8.2.8.2c.6.2 1.2.5 1.8.8.5.4.9.9 1 1.5.1.6-.4 1.2-.9 1.5-.6.3-1.3.2-1.9 0-1.2-.5-2.2-1.4-2.9-2.6-.7-1.1-1.2-2.4-1.8-3.6-1.1-2.5-2.8-4.8-4.8-6.7-2.1-1.9-4.5-3.4-7.1-4.3-1.3-.5-2.7-.9-4-1.1-.2 0-.3 0-.5-.1-.4-.6-1-1-1.7-1.4-.8-.4-1.8-.6-2.8-.4-1.9.4-3.4 2-4 3.8-.3.8-.4 1.6-.4 2.5-.7.7-1.4 1.3-2.1 1.8-3.6 1.3-7.5 1.1-10.8-.4-1.8-.7-3.4-1.9-4.5-3.6-1-1.6-1.2-3.9-.1-5.5.5-.8 1.2-1.5 1.9-2.2.7-.7 1.3-1.6 1.7-2.5.9-1.9 1.4-3.9 1.4-6 .1-2.1-.4-4.1-.9-6-.5-1.8-1.2-3.5-2-5.2l.1-.1c.4-.8.6-1.6.7-2.4.1-1.7-.4-3.4-1.4-4.7l-2-2.5 1.1 3c.3.9.1 2-.4 2.9-.5.9-1.3 1.8-2.1 2.6-1.7 1.7-3.1 3.7-4.1 5.8-2.1 4.3-2.7 9.2-2 13.9.7 4.6 2.5 9.3 6 12.7 2.7 2.8 6.8 4.3 10.6 4-1.1.4-2.3.7-3.4.9-2.4.5-4.9.7-7.3.5-2.5-.2-4.9-.9-7.2-1.8-3.2-1.3-6.2-2.9-9.1-4.7-.8-.8-1.5-1.8-2-2.8-.9-1.7-1.4-3.5-1.8-5.4-.3-1.9-.5-3.8.1-5.7.6-1.8 1.9-3.4 3.7-4.1 1.7-.7 3.8-.4 5 .9 1.2 1.2 1.5 3.4.3 4.6-.6.6-1.4.9-2.2.9-.8 0-1.6-.4-2-1.1-.2-.4-.3-.8-.2-1.2.1-.4.3-.8.6-1 .3-.2.8-.3 1.2-.2.4.1.8.5.9 1h.1c0-1.1-1.4-1.9-2.4-1.2-.5.3-.8.8-1 1.3-.1.6-.1 1.2.2 1.7.5 1 1.6 1.7 2.7 1.8 1.1.1 2.2-.4 3-1.2.8-.8 1.1-2 1-3.1-.1-1.1-.6-2.1-1.4-2.9-1.6-1.5-4.1-1.6-5.9-.7-1.8.9-3.1 2.7-3.7 4.5-.7 1.9-.8 3.9-.6 5.9.2 2 .9 3.9 1.9 5.6.2.4.5.7.8 1.1-.6-.4-1.2-.9-1.8-1.3-3.7-2.9-7-6.5-9-10.9.4-.3.7-.6.9-1 .8-1.4.4-3.2-.7-4.1 1.7-.1 3.5-.8 4.8-1.9 2.1-1.7 3.2-4.4 3.4-7.1.4.4.8.8 1.3 1 .7.4 1.4.7 2.2.8.8.1 1.6.1 2.4-.1.8-.2 1.5-.6 2.2-1.1 1.3-1 2.1-2.5 2.6-3.9.5-1.5.6-3.1.4-4.6-.2-1.5-.6-3-1.3-4.4-.7-1.4-1.5-2.7-2.8-3.7-2.3-1.8-5.5-2.5-8.2-1.6.1-.2.1-.5.1-.6 0-.5-.1-.9-.3-1.3-.2-.8-.6-1.7-1.1-2.4-1-1.5-2.5-2.6-4.1-3.2-1.6-.6-3.5-.7-5.1-.2h-.1.1c-1.7-.3-3.4-.1-5 .5s-3.1 1.6-4.1 3c-.5.7-.9 1.5-1.1 2.3-.1.4-.3.8-.3 1.3 0 .2 0 .4.1.6-2.7-.9-5.9-.2-8.2 1.6-1.2 1-2.1 2.3-2.8 3.7-.7 1.4-1.1 2.8-1.3 4.4-.2 1.5-.1 3.1.4 4.6.5 1.5 1.3 2.9 2.6 3.9.6.5 1.4.9 2.2 1.1.8.2 1.6.2 2.4.1.8-.1 1.5-.5 2.2-.8.5-.2.9-.6 1.2-.9.2 2.7 1.4 5.3 3.5 7 1.4 1.1 3.1 1.7 4.8 1.9-1.1.9-1.4 2.8-.6 4.1.3.4.6.6 1 .8-2 4.5-5.3 8.1-9.1 11.1-.6.5-1.2.9-1.8 1.3.3-.3.5-.7.8-1.1 1.1-1.7 1.7-3.7 1.9-5.6.2-2 0-4-.6-5.9-.7-1.9-1.9-3.6-3.7-4.5-1.8-.9-4.3-.8-5.9.7-.8.8-1.3 1.8-1.4 2.9-.1 1.1.2 2.3 1 3.1.8.8 1.9 1.2 3 1.2s2.2-.7 2.7-1.8c.2-.5.3-1.1.2-1.7-.1-.6-.5-1-1-1.3-1-.7-2.4.1-2.4 1.2h.1c.1-.5.4-.8.9-1 .4-.2.9-.1 1.2.2.3.2.6.6.6 1 .1.4 0 .8-.2 1.2-.4.7-1.2 1.2-2 1.1-.8 0-1.7-.3-2.2-.9-1.1-1.2-.9-3.4.3-4.6 1.2-1.2 3.3-1.5 5-.9 1.7.7 3.1 2.3 3.7 4.1.6 1.8.4 3.8.1 5.7-.3 1.9-.9 3.7-1.8 5.4-.5 1-1.2 1.9-2 2.8-2.9 1.9-5.9 3.5-9.1 4.7-2.3.9-4.7 1.5-7.2 1.8-2.5.2-4.9 0-7.3-.5-1.2-.2-2.3-.5-3.4-.9 3.8.3 7.8-1.2 10.6-4 3.5-3.4 5.3-8 6-12.7.7-4.7.1-9.6-2-13.9-1-2.1-2.5-4.1-4.1-5.8-.8-.8-1.6-1.7-2.1-2.6-.5-.9-.7-2-.4-2.9l1.1-3-2 2.5c-1.1 1.3-1.6 3-1.4 4.7.1.8.3 1.7.7 2.4l.1.1c-.8 1.7-1.4 3.4-2 5.2-.6 1.9-1 3.9-.9 6 0 2.1.5 4.1 1.4 6 .5.9 1.1 1.8 1.7 2.5.7.8 1.4 1.4 1.9 2.2 1.1 1.6.9 3.8-.1 5.5-1 1.7-2.7 2.8-4.5 3.6-3.4 1.5-7.3 1.7-10.8.4-.7-.6-1.5-1.2-2.1-1.8 0-.8-.1-1.7-.4-2.5-.6-1.8-2.1-3.3-4-3.8-1-.2-2 0-2.8.4-.7.3-1.2.8-1.7 1.4-.2 0-.3 0-.5.1-1.4.2-2.7.6-4 1.1-2.6 1-5 2.5-7.1 4.3-2 1.9-3.7 4.2-4.8 6.7-.6 1.2-1.1 2.5-1.8 3.6s-1.7 2.1-2.9 2.6c-.6.2-1.3.3-1.9 0-.6-.3-1-.9-.9-1.5 0-.6.5-1.2 1-1.5.5-.4 1.1-.7 1.8-.8l.8-.2-.8-.2c-1.4-.3-3.1.1-4.2 1.2-1.1 1.1-1.6 2.8-.9 4.3.7 1.5 2.1 2.4 3.6 2.7 1.5.3 3.1-.2 4.4-.9 2.7-1.4 4.5-3.6 6.9-5.1 1.5-1 3.2-1.7 4.9-2.2.2 0 .5 0 .7-.1 1.8-.1 3.6-.3 5.4-.6 1.8-.3 3.6-.9 5.1-1.8C495.7 62 501 64.3 506 67c2.5 1.4 5 3 6.9 5.1.9 1.1 1.7 2.3 2.2 3.6.5 1.3.7 2.7.7 4.1 0 2.8-1.5 5.6-4 7.1-1.2.8-2.6 1.2-4 1.1-1.4-.1-2.8-.6-3.9-1.5s-2-2.1-2.3-3.5c-.3-1.4-.1-2.9.8-4s2.4-1.7 3.7-1.2c1.3.5 2 2.1 1.5 3.3l-.7 1.4 1.1-1.1c1.2-1.2 1.1-3.1.3-4.4-.9-1.4-2.6-2-4.1-1.9-3.2.1-5.9 2.7-6.4 5.9-.2 1.5.1 3.2.8 4.5.8 1.4 2 2.4 3.3 3.2 2.6 1.6 5.8 2.2 8.8 1.7 1.5-.3 3-.9 4.2-1.8 1.2-1 2.1-2.3 2.7-3.7 1.1-2.9 1.2-6 .6-8.9-1-4.9-4.4-9.1-8.7-11.4 2.6.6 5.3.7 7.9.2 2.2-.4 4.3-1.2 6.3-2s4-1.8 5.9-2.9c3.8-2.1 7.4-4.7 10.4-8.1 2.5-2.9 4.4-6.3 5.2-10-.2 2.4-.5 4.8-.8 7.1-.4 3-.9 5.9-1.7 8.8-.8 2.8-2.1 5.6-4.2 7.6s-5 3.3-7.8 2.7l-.2.8c1.9.5 4 .6 5.9.3 1.8-.2 3.4-.8 5-1.6-1.2 3-3.9 5.4-7 6.2l-1.4.3c2.6-.4 5-1.4 7.2-2.8 1.5-1 2.7-2.2 3.9-3.5 0 2.6-.6 5.1-1.8 7.3-1.2 2.3-3 4.3-5.2 5.8l-2.4 1.6 2.8-.7c1.5-.4 3.1-.7 4.5-1.4.1-.1.2-.1.4-.2 0 .1-.1.2-.1.2-.2.3-.4.6-.5.9-1.5 2.3-3.6 4.3-6.2 5-1.3.4-2.7.4-3.9.1-1.3-.3-2.5-1-2.9-2.2-.2-.6-.2-1.2 0-1.7.3-.5.8-.9 1.4-.9.6 0 1.2.4 1.3.9.1.6-.2 1.3-.8 1.4l-1.2.3 1.2.1h.1c.7 0 1.3-.3 1.7-.8.4-.5.5-1.3.3-1.9-.2-.6-.6-1.2-1.2-1.5-.6-.3-1.3-.4-1.9-.2-1.3.3-2.3 1.4-2.6 2.7-.3 1.3-.1 2.6.4 3.8.5 1.2 1.5 2.2 2.7 2.8 1.2.6 2.6.5 3.8.2 2.4-.6 4.6-1.9 6.3-3.7 1-1 1.8-2.2 2.4-3.5.1-.3.3-.6.4-1 .1-.4.2-.7.2-1.1v-.6c.3-.2.5-.4.8-.6v7.9c0 1.1 0 2.2.1 3.3v.1c-.5 1.9-1.1 3.7-2.5 4.8-.7.6-1.6.9-2.5.8-.9-.1-1.9-.5-2.9-.4-1.1.1-2 .9-2.4 2-.4 1.1 0 2.3.8 3.1.8.8 2 1 3 .7 1-.3 1.8-.8 2.6-1.4 1.4-1.1 2.8-2.4 3.7-4 .1-.2.2-.5.4-.7v.1c.1 2.8.4 5.6.2 8.3-.1 1.4-.4 2.7-.5 4.2-.1 1.4.3 3 1.4 4.1l.1.1.2.1.1-.1.1-.1c1-1.1 1.2-2.7 1.2-4.1-.1-1.4-.5-2.8-.5-4.2-.2-2.8.2-5.5.3-8.3v-.3c.1.3.3.7.5 1 1 1.6 2.3 2.9 3.7 4 .8.6 1.6 1.1 2.6 1.4 1 .3 2.2.1 3-.7.8-.7 1.2-2 .8-3.1-.4-1-1.3-1.8-2.4-2-1.1-.1-2 .3-2.9.4-.9.1-1.8-.2-2.5-.8-1.4-1.2-2-3-2.5-4.8l-.1-.2c0-1.1.1-2.1.1-3.2 0-2.7.1-5.4 0-8.1.6.5 1.3.9 2 1.2 1.4.7 2.9 1.1 4.4 1.5l1.5.4-1.3-.9c-1.1-.8-2-1.7-2.9-2.7-.8-1-1.6-2.1-2.2-3.3-1.1-2.2-1.8-4.7-1.8-7.2 1.1 1.3 2.3 2.5 3.7 3.5 2.2 1.5 4.7 2.6 7.3 3l.2-.9c-2.8-.7-5.3-2.8-6.6-5.4 3.2 1.5 7 1.8 10.4.8l-.2-1c-2.8.5-5.7-.7-7.8-2.7-2.1-2-3.4-4.8-4.2-7.6-.9-2.9-1.3-5.8-1.7-8.8-.3-2.4-.5-4.7-.8-7.1.8 3.7 2.7 7.1 5.2 10 2.9 3.3 6.6 6 10.4 8.1 1.9 1.1 3.9 2 5.9 2.9 2 .9 4.1 1.6 6.3 2 2.6.5 5.3.4 7.9-.2-4.3 2.3-7.7 6.5-8.7 11.4-.6 2.9-.5 6 .6 8.9.6 1.4 1.4 2.8 2.7 3.7 1.2 1 2.7 1.6 4.2 1.8 3 .5 6.2-.1 8.8-1.7 1.3-.8 2.5-1.8 3.3-3.2.8-1.4 1.1-3 .8-4.5-.4-3.1-3.2-5.8-6.4-5.9-1.5-.1-3.2.5-4.1 1.9-.8 1.3-.9 3.2.3 4.4l1.1 1.1-.7-1.4c-.5-1.2.2-2.8 1.5-3.3s2.9.1 3.7 1.2c.9 1.1 1.1 2.7.8 4-.3 1.4-1.2 2.6-2.3 3.5-1.1.9-2.5 1.4-3.9 1.5-1.4 0-2.8-.4-4-1.1-2.4-1.5-3.9-4.3-4-7.1-.1-1.4.2-2.8.7-4.1.5-1.3 1.3-2.5 2.2-3.6 1.9-2.2 4.4-3.7 6.9-5.1 5-2.8 10.3-5 15.6-7.3 1.5 1 3.3 1.5 5.1 1.8 1.8.3 3.6.4 5.4.6.2 0 .5 0 .7.1 1.7.5 3.4 1.3 4.9 2.2 2.1 1.8 3.9 4 6.6 5.4zm-40.6-12.3c-2.2-.7-4.1-1.9-5.8-3.6-1.6-1.6-3-3.5-4-5.5-1.1-2-1.9-4.3-2.2-6.6-.4-2.3-.4-4.7.1-6.9.4-2.3 1.2-4.5 2.3-6.5 1.1-2 2.5-3.9 4.1-5.5.8-.8 1.7-1.7 2.4-2.8.3-.4.5-.9.6-1.5.2.7.3 1.4.3 2.2 0 .7-.2 1.4-.5 2.1-.3.7-.7 1.3-1.2 1.9-.5.6-.9 1.3-1.3 2s-.7 1.5-.8 2.3c-.3 1.6-.1 3.2.5 4.7h.1c-.5-1.5-.5-3.1-.1-4.5.2-.7.5-1.4.9-2.1.4-.6.9-1.2 1.4-1.8.4-.5.8-1.1 1.2-1.7.5 1.7 1 3.4 1.3 5.2.4 1.9.7 3.9.6 5.8-.1 1.9-.4 3.8-1.2 5.6-.4.9-.9 1.7-1.5 2.4-.6.8-1.3 1.6-1.8 2.5-1 1.9-.7 4.2.3 5.9 1 1.8 2.6 3.2 4.4 4.2 3.2 1.6 7 1.7 10.2.3-1.5 1.1-3.2 1.9-5 2.6-1.8 0-3.6-.2-5.3-.7zM555.9 8.3c2.8-.3 5.6.5 7.8 2 1.2.8 2.3 1.8 3 3.1.7 1.3 1 2.8 1 4.2 0 2.9-1 5.9-3.1 7.7-1.9 1.8-5.2 1.5-7.4-.2v-.6c-.1-1.5-.5-3-1.2-4.3-.7-1.3-1.8-2.4-3-3.2-1.1-.6-2.5-.9-3.8-.8.5-.7 1-1.3 1.5-1.7.6-.6 1.3-1 2.1-1.3.4-.2.9-.2 1.3-.1s.8.4 1.2.6c.7.4 1.4.9 2.2 1.4l.1-.1c-.2-1-1-1.8-1.9-2.2-.5-.2-1-.1-1.5-.2h-.4c-.2-.7-.2-1.5.1-2.2.1-.4.4-.7.6-1 .2-.3.5-.4.9-.7.2.1.3-.1.5-.4zm-10.5 10.4c-.3-.6-.7-1.1-1.2-1.5-.6-.5-1.3-.8-2.1-1h-.3c0-.8-.4-1.5-.9-2.1.2-.3.4-.5.7-.7.3-.3.7-.5 1-.7.4-.2.8-.4 1.3-.4s.9.2 1.3.5h.3c.9-.3 1.7-.3 2.5 0 .6.2 1.2.7 1.8 1.3-.6.7-.9 1.5-.9 2.4h-.2c-.7.1-1.4.4-2.1.8-.5.4-.9.8-1.2 1.4zm-9.8-11.2c0-.3.2-.7.3-1.1.3-.8.6-1.5 1-2.2.8-1.4 2-2.5 3.6-3.2 1.5-.6 3.3-.7 4.8-.3h.1c1.6-.3 3.2 0 4.7.6s2.7 1.6 3.6 2.9c.5.6.8 1.3 1.1 2.1.1.4.3.7.3 1.1 0 .4 0 .5-.3.8-1.4 1-2 3-1.3 4.5-.3 0-.6-.1-.9-.1-1 0-1.9.4-2.6 1-.2-.8-.8-1.6-1.6-2-1-.4-2.3-.3-3.1.4-.4-.2-.9-.2-1.3-.3-.5-.1-1.1-.2-1.6 0s-1 .5-1.3 1c-.2.3-.3.6-.4.9-.7-.6-1.7-1-2.6-1-.3 0-.6 0-.9.1.8-1.5.1-3.6-1.3-4.5-.3-.1-.3-.3-.3-.7zm-9.4 17.9c-2.1-1.8-3.1-4.8-3.1-7.7 0-1.5.3-2.9 1-4.2.7-1.3 1.8-2.3 3-3.1 2.2-1.5 5-2.4 7.8-2 .1.2.3.4.5.6.4.3.7.4.9.7.2.3.4.6.6 1 .3.7.3 1.5.1 2.2h-.4c-.5 0-1 0-1.5.2-.9.3-1.7 1.2-1.9 2.2l.1.1c.8-.6 1.5-1 2.2-1.4.4-.2.7-.5 1.2-.6.4-.1.9 0 1.3.1.8.3 1.5.8 2.1 1.3.5.4.9.9 1.4 1.5-1.3-.1-2.6.2-3.8.8-1.4.7-2.4 1.9-3.1 3.3-.7 1.4-1 2.9-1.1 4.4v.7c-2.2 1.4-5.3 1.7-7.3-.1zm8.4-.8c.1-2.7 1.2-5.5 3.6-6.9 1.2-.7 2.5-1 3.8-.7 1.3.2 2.5 1 3.1 2.3l.1.2h.5l.1-.2c.4-1.3 1.6-2.2 3-2.5 1.4-.3 2.8 0 4 .7 1.2.7 2.1 1.8 2.7 3.1.6 1.3.8 2.7.9 4 0 2.7-1 5.6-3 7.4-2.1 1.8-5.1 2.6-7.8 1.8h-.1c-2.8.8-5.8 0-7.8-1.8-2.2-1.8-3.2-4.7-3.1-7.4zm7.4 9.9c1.1 0 2.3-.1 3.3-.5h.1c1 .4 2.2.6 3.3.6.6 1.2.6 2.6 0 3.5-.6 1-1.9 1.6-3.2 1.5h-.3c-.6.3-1.3.3-2 0-.6-.3-1.1-.8-1.3-1.4-.4-1.2-.5-2.5.1-3.7zm-35.5 20.3c1.8-.9 3.4-2.4 4.4-4.2 1-1.7 1.3-4 .3-5.9-.5-.9-1.1-1.7-1.8-2.5-.6-.8-1.1-1.6-1.5-2.4-.8-1.7-1.1-3.7-1.2-5.6-.1-1.9.2-3.9.6-5.8.4-1.7.9-3.5 1.3-5.2.3.6.7 1.2 1.2 1.7.5.6 1 1.2 1.4 1.8.4.6.7 1.3.9 2.1.4 1.5.4 3-.1 4.5h.1c.6-1.4.8-3.1.5-4.7-.1-.8-.4-1.6-.8-2.3-.4-.7-.9-1.4-1.3-2-.5-.6-.9-1.2-1.2-1.9-.3-.7-.5-1.4-.5-2.1 0-.7.1-1.5.3-2.2.1.5.3 1 .6 1.5.6 1.1 1.5 2 2.4 2.8 1.7 1.6 3 3.4 4.1 5.5 1.1 2 1.9 4.2 2.3 6.5.4 2.3.5 4.7.1 6.9-.4 2.3-1.2 4.5-2.2 6.6-1.1 2-2.4 3.9-4 5.5s-3.6 2.9-5.8 3.6c-1.7.5-3.5.8-5.3.6-1.7-.7-3.4-1.5-5-2.6 3.2 1.5 7.1 1.4 10.2-.2zm-22.8 5.8c-1.7.2-3.5.3-5.3.4-1.8.2-3.6.5-5.3 1.1-1.7.7-3.3 1.7-4.4 3.2l.1.1c1.3-1.3 2.9-2 4.5-2.5.8-.2 1.6-.4 2.4-.5-1.1.4-2.2.9-3.2 1.5-2.5 1.4-4.4 3.7-6.9 4.9-1.2.6-2.6.9-3.9.7-1.3-.2-2.5-1-3-2.1-.6-1.1-.3-2.6.6-3.6.7-.8 1.7-1.2 2.8-1.2-.3.2-.7.4-1 .6-.6.4-1.1 1.1-1.1 1.8-.1.8.5 1.4 1.1 1.8.7.3 1.4.3 2.1.1 1.3-.5 2.4-1.5 3.2-2.6.8-1.1 1.4-2.4 2-3.6 2.4-4.8 6.7-8.5 11.7-10.3 1.2-.4 2.5-.8 3.8-1 1.3-.2 2.6-.3 3.7.2s1.9 1.5 1.8 2.7c-.1 1.1-.8 2.1-1.7 2.8.2-.6.2-1.2 0-1.8-.1-.3-.2-.6-.2-.9 0-.3 0-.6-.1-.9-.2-.6-.7-1.1-1.4-1.2l-.1.1c.2.6.4 1 .7 1.4.2.2.4.4.5.7.1.3.1.5 0 .8l-.5 1.5c-.1.4-.2.8-.2 1.2-.6.4-1.3.6-2 .9.2-.2.3-.4.4-.7.2-.7.3-1.4.1-2.1-.1-.3-.2-.6-.2-1 0-.3.1-.7.1-1 0-.3-.2-.7-.4-1-.2-.3-.6-.5-1-.5v.1c.4.5.4 1 .6 1.5.1.3.3.6.4.9.1.3 0 .6 0 .9-.2.6-.3 1.2-.5 1.7-.1.4-.3.9-.5 1.3-.3.1-.7.2-1 .2.1-.1.1-.2.2-.2.3-.5.4-1.1.2-1.6-.1-.3-.2-.5-.2-.8v-.8c-.2-.5-.7-.9-1.3-.9l-.1.1c.2.6.3.9.6 1.2.1.2.4.3.5.5.1.2.1.5 0 .7-.2.4-.4.8-.6 1.1l-.4 1c-.4.1-.8.1-1.2.2h-.1c.1-.1.2-.3.3-.5.1-.4.1-.8-.1-1.2-.1-.2-.2-.4-.1-.6 0-.2.1-.4.1-.6 0-.4-.3-.8-.8-.9h-.1c-.1.5-.1.8.1 1.1.1.1.3.3.3.5.1.2 0 .4-.1.5-.2.3-.3.7-.4 1v.9c-.6.1-1.1.2-1.6.4 0-.1.1-.1.1-.2.1-.3 0-.5-.1-.8-.2-.3-.4-.5-.2-.7.2-.3.1-.6-.1-.8l-.7-.6v.8c-.1.3 0 .4.3.6.2.2.1.4-.1.7-.1.2-.2.4-.2.6 0 .2.1.3.2.6-.2.1-.5.1-.7.2-1.3.5-2.5 1.1-3.5 2.1l.1.1c1-.9 2.3-1.5 3.5-1.8 1.3-.4 2.6-.6 4-.7 2.7-.3 5.5-.7 7.9-2.4 1.1-.9 2.2-2.1 2.4-3.7.1-.8-.1-1.6-.6-2.3-.4-.7-1.1-1.1-1.8-1.5-1.1-.5-2.3-.5-3.5-.4.5-.4 1-.6 1.5-.8.8-.3 1.7-.4 2.4-.1 1.6.5 2.8 1.8 3.5 3.3.7 1.5.8 3.4.2 5-.6 1.6-2 2.9-3.6 3.7-1.5.7-3.2 1.1-4.9 1.4zm-6.5-4.6s.1-.1.1 0h-.1zm60.4-5c-2.8 3.2-6.3 5.9-9.9 8.3-1.8 1.2-3.7 2.2-5.7 3-2 .8-4.2 1.2-6.3 1.5-4.2.6-8.6.3-12.6-1.4v.1c1.2.8 2.6 1.3 4 1.7 2 1 3.8 2.5 5.2 4.2 1.9 2.2 3.1 4.8 3.7 7.6.5 2.8.4 5.8-.7 8.4-.6 1.3-1.3 2.4-2.4 3.3-1.1.9-2.4 1.4-3.7 1.6-2.7.5-5.7-.1-8.1-1.5-1.2-.7-2.3-1.6-2.9-2.8-.7-1.2-1-2.6-.8-3.9.3-2.7 2.7-5.1 5.5-5.2 1.3-.1 2.8.4 3.5 1.5.5.7.7 1.7.5 2.5-.2-1.1-1-2.1-2-2.4-1.5-.5-3.2.2-4.1 1.4-.9 1.2-1.2 2.9-.8 4.3.3 1.5 1.2 2.8 2.4 3.7 1.2.9 2.6 1.5 4.1 1.6 1.5.1 3-.3 4.3-1.1 2.6-1.5 4.4-4.4 4.5-7.5.1-3-1-6.1-3-8.4-2-2.3-4.6-3.8-7.2-5.2-5.1-2.7-10.5-4.7-15.8-6.8 1.5-1 2.8-2.3 3.5-4 .4-.9.6-1.8.6-2.8 3 3.8 7.7 6.3 12.5 7.1 1.3.2 2.5.3 3.8.3 1.3 0 2.5-.1 3.7-.3 2.5-.3 4.9-.8 7.3-1.6 2.4-.7 4.7-1.7 6.9-2.9s4.3-2.5 6.3-4.1c3.8-3.1 7.2-7.1 8.6-11.9.3.2.6.3.9.4.2.1.4.1.6.2-1.3 4.3-3.5 8-6.4 11.1zm2.3 34.8c-1.7 1.8-4 2.8-6.3 3.2-1.2.2-2.4.1-3.3-.4-1-.5-1.8-1.4-2.2-2.4-.5-1-.7-2.2-.5-3.3.2-1.1 1-2.1 2.1-2.4.5-.1 1.1-.1 1.6.1s.9.7 1.1 1.3c.2.5.1 1.1-.3 1.6-.1.2-.3.3-.5.4.3-.4.4-.8.4-1.3-.1-.9-1-1.5-1.8-1.5-.9-.1-1.7.5-2.1 1.2-.4.7-.5 1.6-.2 2.4.3.8.8 1.4 1.4 1.9.6.5 1.4.8 2.1 1 1.5.4 3 .4 4.5-.1 1.5-.4 2.8-1.2 3.9-2.2 1.1-1 1.9-2.2 2.6-3.5 0-.1.1-.2.1-.2-.1.3-.2.5-.3.8-.5 1.1-1.3 2.3-2.3 3.4zm0 14.1c-.8.6-1.7 1-2.6 1.1-.9.1-1.8-.3-2.3-.9-.6-.6-.9-1.5-.7-2.2.2-.8.8-1.6 1.7-1.8.9-.2 1.8.2 2.8.3 1 .2 2.1-.1 2.9-.6.7-.4 1.3-1.1 1.8-1.8-.2.6-.3 1.1-.5 1.7-.8 1.5-1.7 3.1-3.1 4.2zm9.2-4.2c.9.5 1.9.8 2.9.6 1-.2 1.9-.5 2.8-.3.9.2 1.5 1 1.7 1.8.2.8-.1 1.6-.7 2.2-.5.6-1.4 1-2.3.9-.9-.1-1.8-.5-2.6-1.1-1.4-1.1-2.4-2.7-3-4.3-.2-.5-.4-1.1-.5-1.7.4.9 1 1.5 1.7 1.9zm-2.9-8.8c0 .8-.1 1.6-.1 2.4l-.1 1.2c-.1.6-.1 1.2 0 1.7 0 1-.1 2-.1 3 0 2.8-.1 5.6.1 8.4.1 1.4.5 2.8.5 4.1.1 1.3-.3 2.7-1.1 3.6-.8-1-1-2.3-.9-3.5.1-1.3.5-2.7.6-4.1.3-2.8.1-5.6 0-8.4-.1-1.2-.1-2.3-.2-3.5v-1.3l-.1-.8c-.1-.9-.1-1.9-.2-2.8-.2-2.7-.4-5.3-.7-8 .6-.6 1.1-1.2 1.5-2 .4.7.9 1.2 1.4 1.7-.2 2.9-.4 5.6-.6 8.3zm-.8-9.9zm2.4-1.6c.6 1.3 1.4 2.4 2.3 3.5.6.7 1.3 1.3 2.1 1.8-1.1-.2-2.1-.5-3.1-.9-1.4-.7-2.6-1.7-3.2-3l-.2-.4-.2-.4-.3.4-.2.4c-.7 1.3-2 2.2-3.3 2.8-.7.3-1.3.5-2.1.7 1.5-1.3 2.7-3 3.5-4.8 1.1-2.5 1.6-5.2 1.2-7.9.4-.5.9-1.1 1.2-1.7l1.2 1.8c-.5 2.5-.1 5.3 1.1 7.7zm1.1-17.5c.8 2.9 2.1 5.8 4.3 8.1 1 1 2.3 1.9 3.6 2.4-2.2-.2-4.3-.8-6.2-1.8l-1.2-.6.4 1.2c.6 1.9 1.9 3.6 3.4 4.9-.8-.4-1.7-.8-2.4-1.3-2.1-1.4-3.9-3.3-5.2-5.5l-.3-.4-.2.5-.1.1c-1.3 2.2-3 4.1-5.1 5.5-1.5 1-3.1 1.8-4.8 2.3 2.5-1.2 4.5-3.5 5.5-6.1l.2-.6-.6.3c-1.7.9-3.6 1.5-5.5 1.7-.5.1-1.1.1-1.6.1 1.6-.5 3.2-1.4 4.4-2.6 2.2-2.2 3.5-5.1 4.3-8 .8-2.9 1.2-6 1.5-9 .3-3 .4-5.9.5-8.9.5.1 1 .1 1.5 0h-.1c.5.2 1 .3 1.5.2.1 2.9.3 5.8.5 8.6.5 2.9.9 5.9 1.7 8.9zm37 8.4c-2.6 1.4-5.2 3-7.2 5.2s-3.2 5.3-3 8.4c.1 3.1 1.9 6 4.5 7.5 1.3.8 2.8 1.2 4.3 1.1 1.5-.1 3-.7 4.1-1.6 1.2-.9 2.1-2.2 2.4-3.7.3-1.5.1-3.1-.8-4.3-.9-1.2-2.6-1.9-4.1-1.4-1 .4-1.8 1.3-2 2.4-.2-.8 0-1.8.5-2.5.7-1.1 2.2-1.6 3.5-1.5 2.7.1 5.1 2.5 5.5 5.2.2 1.3-.1 2.7-.8 3.9-.7 1.2-1.7 2.1-2.9 2.8-2.4 1.4-5.3 2-8.1 1.5-1.4-.2-2.7-.8-3.7-1.6-1.1-.8-1.9-2-2.4-3.3-1.1-2.6-1.2-5.6-.7-8.4.5-2.8 1.8-5.5 3.7-7.6 1.5-1.7 3.2-3.2 5.2-4.2 1.4-.4 2.7-1 4-1.7v-.1c-4 1.7-8.4 2-12.6 1.4-2.1-.3-4.3-.7-6.3-1.5s-3.9-1.8-5.7-3c-3.6-2.4-7-5.1-9.9-8.3-2.8-3.1-5-6.7-6.1-10.8.2 0 .4-.1.6-.2.3-.1.6-.2.8-.4 1.4 4.6 4.7 8.6 8.5 11.6 2 1.6 4.1 2.9 6.3 4.1 2.2 1.2 4.5 2.2 6.9 2.9 2.4.7 4.8 1.3 7.3 1.6 1.2.1 2.5.3 3.7.3 1.3 0 2.5-.1 3.8-.3 4.8-.8 9.5-3.2 12.5-7.1 0 1 .3 1.9.6 2.8.7 1.7 2 3 3.5 4-5.5 2.1-10.8 4.2-15.9 6.8zm31.8-4.2c-1.7-.7-3.5-1-5.3-1.1-1.8-.2-3.6-.2-5.3-.4-1.7-.2-3.4-.6-5-1.4-1.6-.8-2.9-2-3.6-3.7-.6-1.6-.5-3.5.2-5s1.9-2.8 3.5-3.3c.8-.2 1.6-.2 2.4.1.5.2 1.1.5 1.5.8-1.1-.1-2.3-.1-3.5.4-.7.3-1.3.8-1.8 1.5-.5.6-.7 1.5-.6 2.3.2 1.6 1.2 2.8 2.4 3.7 2.4 1.7 5.2 2.1 7.9 2.4 1.3.2 2.7.4 4 .7 1.3.4 2.5.9 3.5 1.8l.1-.1c-1-1-2.2-1.7-3.5-2.1-.2-.1-.5-.2-.7-.2.1-.2.2-.4.2-.6 0-.2-.1-.4-.2-.6-.2-.2-.3-.5-.1-.7.3-.2.3-.4.3-.6v-.8l-.7.6c-.2.2-.3.5-.1.8.2.3 0 .5-.2.7-.1.3-.2.5-.1.8 0 .1.1.1.1.2-.5-.1-1.1-.3-1.6-.4.1-.3.1-.6 0-.9-.1-.3-.2-.6-.4-1-.1-.2-.1-.4-.1-.5.1-.2.2-.3.3-.5.2-.3.2-.6.1-1.1h-.1c-.5.2-.7.5-.8.9 0 .2.1.4.1.6 0 .2-.1.4-.1.6-.2.4-.2.8-.1 1.2.1.2.2.3.3.5h-.1c-.4-.1-.8-.1-1.2-.2l-.4-1c-.2-.4-.4-.7-.6-1.1-.1-.2-.1-.5 0-.7.1-.2.3-.4.5-.5.3-.3.4-.7.6-1.2l-.1-.1c-.6 0-1.1.4-1.3.9-.1.3 0 .6 0 .8 0 .3-.1.5-.2.8-.2.5-.1 1.2.2 1.6.1.1.1.2.2.2-.4-.1-.7-.2-1-.2-.2-.5-.3-.9-.5-1.3-.2-.5-.3-1.1-.5-1.7-.1-.3-.1-.6 0-.9.1-.3.3-.6.4-.9.2-.6.2-1 .6-1.5v-.1c-.4-.1-.8.2-1 .5-.2.3-.4.7-.4 1 0 .4.1.7.1 1 0 .3-.1.6-.2 1-.2.7-.2 1.4.1 2.1.1.2.3.5.4.7-.7-.2-1.4-.5-2-.9-.1-.4-.1-.8-.2-1.2l-.5-1.5c-.1-.3-.1-.6 0-.8.1-.3.3-.5.5-.7.3-.4.5-.8.7-1.4l-.1-.1c-.7.1-1.2.6-1.4 1.2-.1.3 0 .7-.1.9 0 .3-.1.6-.2.9-.2.6-.2 1.3 0 1.8-.9-.8-1.5-1.8-1.7-2.8-.2-1.2.6-2.2 1.8-2.7 1.1-.5 2.4-.4 3.7-.2 1.3.2 2.6.5 3.8 1 5 1.8 9.3 5.5 11.7 10.3.6 1.2 1.2 2.5 2 3.6s1.8 2.2 3.2 2.6c.7.2 1.4.3 2.1-.1.6-.3 1.2-1 1.1-1.8 0-.8-.5-1.4-1.1-1.8-.3-.2-.6-.4-1-.6 1.1.1 2.1.5 2.8 1.2.9 1 1.2 2.4.6 3.6-.5 1.1-1.8 1.9-3 2.1-1.3.2-2.6-.1-3.9-.7-2.5-1.2-4.4-3.5-6.9-4.9-1-.6-2.1-1.1-3.2-1.5.8.1 1.6.3 2.4.5 1.7.5 3.3 1.3 4.5 2.5l.1-.1c-.9-1.5-2.6-2.5-4.3-3.2zm-4.3-6.1h.1-.1z" class="st7"></path>  <path d="M569.9 64.6c-.8-.2-1.7 0-2.3.6-.6.5-1.1 1.3-1.1 2.2 0 1.8 1.8 3.2 3.6 2.8l1.2-.3-1.2-.5c-.6-.2-1.2-.5-1.5-.9-.4-.4-.6-.9-.4-1.3.1-.5.5-.9 1-1 .5-.1 1 0 1.5.3.9.6 1.2 1.8 1.1 2.9-.1 1.1-.8 2.2-1.6 3-1.7 1.7-4.3 2.3-6.8 2.4-2.6.2-5.1.1-7.7-.4.6.6 1.3.9 2 1.3.7.3 1.5.6 2.3.7 1.6.3 3.1.5 4.7.4 1.6-.1 3.2-.4 4.7-1.1 1.4-.8 2.8-1.9 3.5-3.4.8-1.5.9-3.2.4-4.8-.6-1.2-1.8-2.6-3.4-2.9zm2.2 7.7c-.8 1.3-1.9 2.3-3.3 2.9-1.3.7-2.8 1-4.3 1.1-3 .2-6.3-.2-8.9-1.6.5.3 1.2.4 1.8.5.6.1 1.3.3 1.9.3 1.3.2 2.6.2 3.9.2 1.3 0 2.6-.1 3.9-.5 1.3-.3 2.6-.9 3.6-1.9 1-.9 1.8-2.2 1.9-3.7.2-1.4-.3-3-1.6-3.9-.6-.4-1.5-.6-2.2-.4-.8.2-1.4.9-1.6 1.6-.1.4-.1.8.1 1.2.1.2.2.4.4.6-.4-.4-.8-.9-.8-1.6-.1-1.4 1.4-2.8 2.9-2.5 1.5.3 2.6 1.6 3 3.1.3 1.7.1 3.3-.7 4.6zM561.3 80c-.6-.1-1.3-.1-1.9.2-.6.3-1 .8-1.2 1.5-.2.6-.1 1.4.3 1.9s1 .8 1.7.8h.1l1.2-.1-1.2-.3c-.6-.1-.9-.8-.8-1.4.1-.6.7-.9 1.3-.9.6 0 1.1.4 1.4.9.3.5.3 1.2 0 1.7-.4 1.2-1.7 1.9-2.9 2.2-1.3.3-2.7.2-3.9-.1-2.6-.7-4.7-2.7-6.2-5-.2-.3-.4-.6-.5-.9-.1-.2-.2-.3-.2-.4l-.1-.1v-.1l-.1-.1c-.1-.1-.2-.1-.3 0l-.1.1v.5c0 .4.1.7.2 1.1.1.4.3.7.4 1 .6 1.3 1.4 2.5 2.4 3.5 1.7 1.7 3.8 3.1 6.3 3.7 1.2.3 2.6.4 3.8-.2 1.2-.6 2.1-1.6 2.7-2.8.5-1.2.7-2.5.4-3.8-.5-1.4-1.5-2.6-2.8-2.9zm-13.1 0s0-.1 0 0zm14.5 6.1c-.5 1-1.3 1.9-2.2 2.4-1 .5-2.2.6-3.3.4-2.3-.3-4.6-1.4-6.3-3.2-1-1-1.8-2.2-2.2-3.6-.1-.3-.2-.5-.3-.8 0 .1.1.2.1.2.7 1.3 1.5 2.5 2.6 3.5s2.4 1.8 3.9 2.2c1.4.4 3 .5 4.5.1.7-.2 1.4-.5 2.1-1 .6-.5 1.2-1.1 1.4-1.9.3-.8.2-1.7-.2-2.4s-1.2-1.3-2.1-1.2c-.8.1-1.7.6-1.8 1.5-.1.5.1.9.4 1.3-.2-.1-.4-.2-.5-.4-.4-.4-.5-1-.3-1.6.2-.5.6-1 1.1-1.3.5-.2 1.1-.3 1.6-.1 1.1.3 1.8 1.4 2.1 2.4.1 1.4-.1 2.5-.6 3.5z" class="st7"></path></svg>