<svg xmlns="http://www.w3.org/2000/svg" xml:space="preserve" viewBox="0 0 186.3 461.1">  <style>    .st0{fill:#913b2a}.st1{fill:#a4422c}.st9{fill:#261d17}.st10{fill:#1c1b16}.st20{fill:#904533}.st29{fill:#843c2d}.st45{fill:#3e1b0e}.st46{fill:#b5472b}.st49{fill:#a94028}.st52{fill:#a4402c}.st58{fill:#8e4232}.st59{fill:#7a421b}.st76{fill:#593528}.st79{fill:#803b2c}.st88{fill:#873e2e}.st109{fill:#963e2d}.st121{fill:#723a24}.st131{fill:#6c2e1c}  </style>  <path d="M146.3 453.3c-.2-.2-.5-.4-.7-.6-6.6-8.5-6.6-8.5-15.5-2.5-.9.6-2.2.9-2.5 2.2-.6.8-1.3 1.2-2.1.2-1.2-1.3-2.5-.3-3.4.2-3.6 2.1-7.2 2-10.9.6-3.9-.9-1.5-5.2-3.8-6.9-.8-2-2.6-2.8-4.3-3.9-2.4-1.5-3.8-3.5-2.5-6.5.5-.8 2.9 1.6 2.1-1.7-2.1-8-4.9-15.8-7.4-23.7-5.2-16.4-10.8-32.7-17.6-48.6-.6-1.4-1.2-2.8-.4-4.3 1.3-1.9 3-.2 4.5-.6 1.1-.3 1.7-1.1 1.5-2.2-.2-1.4-1.1-1.1-2.2-.8-2 .6-3.4 1.5-4.1 3.6-2.7.2-3.2-1.8-4-3.6-4.5-10.3-8.7-20.7-12.5-31.3-3.9-8.6-7.8-17.3-9.6-26.8 0-.5-1 .2-.4.1.3-.1.4 0 .4.3.3 1.3.2 2.4-1.4 2.4-1.3 0-1.6-1.1-1.5-2.1.2-2.1.6-4.2.7-6.4.7-2.6-.3-4.9-.9-7.3-4.2-14.6-7.9-29.4-11.5-44.1-1.5-6-2.3-12.2-3.8-18.2-.7-.5-.9-1.1-.7-1.9-.3-11.5-2-22.9-1.8-34.5.2-9.8 1.4-19.4 3.1-29 .4-2.5 1.1-4.9 4.1-5.6 2.3 1.8 1.5 4.2 1 6.4-3.3 17-3.6 33.8.4 50.8 1.9 8 2.5 16.4 3.9 24.5.5 5.8 1.3 11.6 4.8 16.5 1.4 4.1 2.4 8.2 3.2 12.4-.1 5.1 2.4 9.5 3.6 14.3 3.3 13.3 6.9 26.5 12.2 39.8-.4-4.2-2.2-8.1-.3-11.9 3-1.2 3.3 1.1 3.5 3 .3 2.4 1.2 2.7 3.1 1.5 2.8-.7 3.3 1.2 3.9 3.3 1.8 5.9 1.3 12.1 2.6 18.1.6 2.7.9 5.4 2.2 7.9 1.7 5.4 4.2 10.6 6.2 15.9.9 5.5 3.3 10.4 5.4 15.4 4.3 10.1 7 20.8 12.3 30.4 5.1 9.3 9 19.2 14.1 28.6 1.6 2.9 3.8 4.9 6.8 6.3 3.1 1.5 6.4 2.8 9 5.2 2 1.8 3.7 1.5 4-1.5.2-2.3 1-4.5 2-6.6.6-1.2 1.4-2.4 3-2.1 1.9.3 2.4 1.8 2.3 3.3-.2 3.5-.5 6.9-.6 10.4-.1 3 .2 5.1 4.1 3.9 4.6-1.4 3.7 3 5.1 5.1.3 1 .3 1.9-.1 2.9-2.8 3.4-5.7.1-8.6-.3z" class="st0"></path>  <path d="m42 89.9-.3-1.2c-3-5.5-6.8-10.2-11.8-14.1-4.2-3.3-8.7-6.4-10.9-11.7 0-1.5.6-2.8 1.9-3.2 4.8-1.6 6.5-5.2 7.2-9.7.1-.8.5-1.6 1-2.3 2.6-2.5 4.9-1.8 7.1.5 1.1 1.2 2 2.6 3.8 2.9 8.1 6.2 17.8 7 27.3 8.4 1.9 3.4.9 7 .4 10.5-.2 2.6-1.6 4.6-3.2 6.5-1 2.2-2.5 3.8-5 4.1-3.2-2.3.5-5-.5-7.5.1-.5.3-.9.8-1.2-.4 0-.6.4-.8.6-4.2 5.6-7.5 11.7-10.1 18.3-.7 1.8-1.3 3.8-3.3 4.8-.7.2-1.4.1-2-.3-.6-1.7-.6-3.7-1.6-5.4z" class="st1"></path>  <path fill="#774227" d="M124.3 12.4c2.5 7.6 4.5 15.4 7.8 22.7 3.2 7.2 3 14.7 3.2 22.1.1 1.6-.2 3.2-1.1 4.6-2.9 4.8-1.5 9.4 3.3 11.8 1.6.8 3.2 1.8 4.1 3.5.1.4 0 .9-.1.8-6.1-2.9-10.9 1.9-16.3 2.8-.9.1-1.6 0-2.4-.4-.5-3.8 2.6-4.7 5-6.1 3.1-1.8 3.5-3.7 1.1-6 2.1 2 1.7 4.8-.8 5.6-.8.3-1.6.1-2.5.1-5 .4-5.2.8-3.5 5.8.5.8 1.6 1.1 1.5 2.3-.4 1.2-1.3 2-2.5 2.5-1.7.2-3.3-.2-4.9-.6-.8-.5-1.7-.8-2-1.9-.1-.4-.1-.6-.1-.6-.4 1.2.8 1.9 1.4 2.8 0 .8-.4 1.3-1.1 1.7-1.3.7-2.7 1.2-4.2.5-2.3-6.7-1.5-9.4 3.5-12.6-6.7-.8-8.7-2-9.2-5.9 2.5-.9 4.4.9 6.6 1.4 2 .5 3.9.8 5.9.1 11.5-2.4 14.9-9.2 13.8-18.6.5 3.9-1.1 5.8-4.9 4.7-1.2-.4-1.7 0-2.5.5-1.2.8-2.5 1.4-3.4-.1-.9-1.5-.1-2.8 1.1-3.9.8-.6 1.7-1 2.4-1.7 5.7-5 6.1-8.2 1.8-14.4-.6-.8-1.2-1.6-1.7-2.4-.6-1-.9-2.1-1.5-3.1-1.5 2.3-3.1 3.7-5.5 1-.3-.3-.5-.7-.7-1.1.1-2.6 4.1-4.8.8-7.7-1.9-2.6-4.2-4.8-7.6-5.2-.8-.1-1.6 0-2.5.1-1.5.2-3.6 1.6-4.2-.6-.5-1.8 1.7-2.5 3.1-3.3.7-.4 1.5-.6 2.4-.7 1.6.2 2.8-.9 4.2-1.2 1.4-.4 3.7-2.5 3.7 1.4 0 .5.3-.1.4-.1 4.2-2.7 3 1.1 3.5 2.9 1.9-1.2 2.6-3.1 4.6-3.5z"></path>  <path fill="#dec5ac" d="M36.8 3.1c.3-.3.6-.5.8-.8 4.5 0 2.1 3.1 2.3 5.2.6-4.7 3.2-6.1 7.9-6.4C55.2.6 61.9 2 68 6c2.5 1.6 5.8 1.5 7.7 4.3 0 .4-.1.7-.1 1.1-3 2-5.7.2-8.5-.7-3-1-4.4-.1-4.2 3.1.1.8 0 1.6 0 2.5 0 7.9 0 7.9-7.5 9.6 2.4.6 4.5-2.9 6.7 0 .2 1.4-.8 2.2-1.7 3-1.1.9-2.2 1.8-3.6 2.4-5.6 1.4-6.4.9-6.9-4.2-2.3 3.6 1.1 6.8 1.2 10.5-.2 1.1-.7 1.9-1.8 2.3-5.3.4-3.3-4.1-4.3-6.5-.2-.5-.3-.9-.4-1.4-.3-7.4-.6-14.8.1-21.4-.4 1 0 3.3-2.2 4.3-2.9.5-4.2-1.5-5.6-3.4-.8-2-1.6-4-1.4-6.2.4-.9.8-1.5 1.3-2.2z"></path>  <path fill="#693c30" d="M157.6 408.4c1.3 2.2 1.2 4.7 1.7 7.1-.6 1.8-.2 3.7.7 5.1 2.3 3.7.2 4.4-2.8 4.9-.4.2-.9.2-1.4.3-.5-.1-.9-.3-1.2-.6-2.8-6-5.4-12.1-7.7-18.3 0-3.8-1.4-7-3.6-10-3.8-6.3-3.2-13.7-5.7-20.4-1.6-4.3-3.3-8.6-3.1-13.3-1.3-3.2-.9-6.8-2.6-10-1.3-2.3 1-3.6 2.8-4.3 2.5-1 2.7 1.1 2.9 2.7.4 3.3 2.9 5.9 2.8 9.4 0 1.4 1.6.1 2.5.4 2.1.8 2.1 2.9 2.5 4.6 2.6 12.6 6.3 24.9 8.9 37.5.4 1.7 1 3.9 3.3 4.9z"></path>  <path fill="#35231a" d="M50.5 429.1c7.4-2.1 3.7-5.9 2.4-10.5-3-10.5-4.7-21.3-7.3-31.9-6.8-28-7.6-56.5-6.9-85.1.3-14-1-28.1-2-42.1-.2-2.1-.1-4.3-.1-6.5-.2-.8-.5-1.9.5-2.1 1.2-.3 1.7.9 1.8 1.8.4 4.8 1.5 9.4 1.5 14.3-.1 12.7 2.3 25.3 2.3 38-1.2 12.4-.8 24.8.2 37.1.8 9.5 2.1 19.1 4 28.5 2.6 13 4.9 26 7.4 39.1 1.5 7.6 4.1 14.5 12.4 17 2.7.8 5.6.9 8.1 2.1 1.2.9 1.8 2 1.3 3.5-4.2 2.8-8.3.9-12.4-.3-2.2-.6-4.2-1.9-6.6-2.1-1.9-.5-3.7.7-5.6.2-.5-.2-.8-.6-1-1z"></path>  <path fill="#825034" d="M61.4 26.8c-2.4-3.7-3.6 0-5.2 1-.8.5-1.3 1.8-2.4.9-1.1-.8-.5-1.7.4-2.4 1.5-1.1.1-3.2 1.6-4.8.8 5.9 4.4 1.4 6.9 2.5-1.8-4.3-1-8.5-1.1-12.6 0-2.5.5-3.6 3.5-2.5 3.3 1.3 6.7 3 10.5 2.5-2.2 4.2-5.1 1.3-7.7.6-1.9-.5-2.9-1.5-2.8 1.7.2 3.7-.6 7.4-1 11.2-.4 3.8 3.1 5.4 4.4 8.6 2.1-13.2 8.5-22 22-24.2 4.5-.6 9-2.1 13.6-.5 1.2 3.1-1.1 3.1-3 3.4-2.2.3-4.4-.4-6-.5-1.2-.2-.4 1-.6.4-.1-.2.1-.2.5-.2 2.6-.2 3.9 1 1.9 2.9-2.8 2.6-5.1 6.1-9.4 6.8-2.4 0-4.3 1.6-6.6 1.8.8.4 1.9.4 2 1.6-.3 1-1.1 1.5-1.9 2-3.8 1.4-6.5 3.6-6.5 8-.1 1.6-.6 3.2-2 3.7-4 1.5-5.3 4.3-4.3 8.3-5.3.1-6.8-1-7.9-6.2.2-.5.5-.7 1-.9.5-.5 1.7 1.2 1.4-.1-.4-1.8-1.4-3.6-2.5-5.2-1.2-1.6-1.9-3.4-.6-5.4 2.8-.7 3.2 1.7 4.4 3.2-1.3-1.7-2-3.6-2.6-5.6z"></path>  <path fill="#6d3f33" d="M138.6 331.5c1.7 2.2.7 4.7.9 7.1-.4.5-.4 1.3-.7 1.8-.5.8-1 1.6-2.1 1.4-4.7-3.3-4.2-8.8-4.7-13.4-.5-4.5-1.6-8.6-3.3-12.7-2.5-6.2-2.8-12.9-4.6-19.2-2.5-9-2.7-18.2-4.8-27.2-1.1-4.9-1.1-9.8-1.4-14.7-.3-5.7-.7-11.5-2.6-17.1-1.6-4.8-1.8-9.6 1.8-13.9 2 2 2.6 4.6 3 7.1 1.3 7.8 3.5 15.5 4.7 23.3 3.2 23.6 5.6 47.3 10.6 70.7.5 2.4 1.5 4.7 2.4 7 0 .1.3.1.4.1.3 0 .3-.2.4-.3z"></path>  <path fill="#41271d" d="M123.6 254.7c-2.5-9.8-3.1-20-6.2-29.7-.1-.4-.6-.8-.9-1.1-1.8-1.5-2-3.8-2.5-5.8-2.4-8.4-4.7-16.9-8.1-25-1.2-3-.9-6.2-1.4-9.3-.8-5-2.3-9.6-4.6-14.1-2.6-4.2-2.9-9.6-6.8-13.1-1.1-2.3-4.4-2.7-4.8-5.6 1-1.4 2.4-2.2 3.9-2.9 4.9-1.2 8.5-3.8 10.5-8.7 1.8-4.3 6.2-7.2 7-12.1.2-.4.5-.8.8-1.2 6.7-5.3 7.8-13.5 10.4-20.9.7-1.9.3-5.4 2.9-4.9 2.8.5 1.6 3.8 1.3 6-.7 5.5-3.3 10.4-5.5 15.4-1.2 2.6-2.2 5.1-2 8-.1.4-.3.9-.6 1.3-.7.9-1.8 1.2-2.8 1.6-.6.3-1.1.5-1.8.5-3.2 2-4.9 5.2-6.8 8.2-1.8 2.7-3.4 5.3-6.7 6.9-4.5 2.2-1.9 6.3-.8 9.1 2.9 7.3 5.4 14.8 9.4 21.6.5.8.8 1.8.9 2.8 1.4 12.2 5.5 23.7 9.1 35.3 2.7 8.8 4.6 17.8 6.9 26.7.7 3.2-.4 6.5.6 9.7.5.7-.3 1.5-1.4 1.3z"></path>  <path d="M105.3 447.6c-13.6 7.5-27.2 4.8-40.9.3-3.4-1.1-7-1.9-10.7-1.8-5.4.2-9.2-2.8-12.3-6.8-1-1.3-.8-2.3.2-3.5 2.5-2.9 5.1-5.6 8.9-6.8l.2.3c.3 4-3.5 4.5-5.1 6.4 2-1 4.6-1.6 7.1-2.5 2.7-.8 4.4 0 5.2 2.8.7 2.4 1.5 4.7 3.5 6.3 2.6 1.8 5.3 3.3 8.3 4.3 9.4 1.8 18.8 2.7 28-1.2 2.6-1.1 5.9-2.9 8.3.8.1.7-.2 1.1-.7 1.4z" class="st9"></path>  <path d="M165.3 439.3c1.8 3 5.9 3.7 6.7 7.9.8 4.4.9 9.1-1.9 11.9-3.6 3.6-8.6 2-12.6-.8.4-2.7-2.1-4.7-2-7.4-.7-4.1 1.1-7.2 4-9.8 2-.5 2.9-4.6 5.8-1.8z" class="st10"></path>  <path fill="#41332b" d="M123.6 254.7c1.8-3.5-1-7.5 1-11 1.7 11.2 4.5 22.2 4.5 33.8 0 6.2 2 12.3 3.3 18.5 1.3 6.1 2.8 12.2 2.6 18.6-.2 5.9 2.4 11.3 3.7 16.9-.2 1.2.3 2.7-1.3 3.3-4.3-12.5-5-25.7-8.4-38.3-1.5-5.7-2.3-11.6-2.2-17.5.1-8.3-1.7-16.2-3.2-24.3z"></path>  <path fill="#c29058" d="M123.7 82c-.4-.6-.7-1.2-1.1-1.9h-.1c3.6-2 8.7-.5 11.3-5 1-1.6 2.7.1 4 .2 1.5.1 1.8 2.8 3.8 1.7.9.4.7 1.3.9 2-.4 2.4-1.7 4.3-2.7 6.2 7-.7 10.2 3.1 9.4 11.7 4.3-.3 8.6 0 12 3 .1.7.2 1.3.3 2-.6.6-1.7.5-2.2 1-4.1 4.6-7.6 1.8-11-.8-1.3-1-2.7-1.3-4.1-1.6-1.2-.5-1.9-1.4-2.3-2.6-.5-2.5 1.8-4.7.8-7.5-1.8 2.6-4 2.6-6.5 1.1-1.7-1.8-4.5-2.7-4.9-5.7 2-1 4.2-1.9 5-4.6-1.5.7-1.9 2.3-2.9 3.1-.8.6-2.4 1.4-2.5.7-.7-4.7-4.3-1.2-6.2-2.4-.4.1-.7-.2-1-.6z"></path>  <path fill="#86512a" d="M144.6 100.1c1.8-1.1 3.2 0 4.4 1 2.9 2.3 2.9 2.3 5.8.3 2.1 1.5-1.5 2.7.1 4.4 2.3-1 2.3-6.6 6.6-3.7 5.3 2 8.6 6.8 13 9.9.3 1.8-.7 2.4-2.3 2-.9-.2-1.7-.9-2.8-.7-4.7 1-4.7 1-5-3.7 0 1.8-.5 3.1-1.1 4.4-.5 1.5.7 2 1.7 2.5 4 2.3 6.8 6 10.2 9.1 1.4 1.2 3.3 3.2 0 4.8-6.5-3.5-11.3-9.3-17.8-12.8-1.4-.7-2.7-2-2.4-4 .4-1.3 2.8-.6 2.5-2.6.4-1.1 1.8-1.3 2.3-2.4-2-.2-1.8 1.5-2.3 2.6-1.6 1.7-2.8-1.4-4.4-.3-1.2-.3-1.9-1.1-2.5-2.1-1.1-2.1-3.2-3.2-4.7-4.9-.7-1.2-2.1-2.1-1.3-3.8z"></path>  <path fill="#2e251e" d="M138.4 339.7c.4-.4.7-.8 1.1-1.2 7.5 22.9 12.1 46.5 18 69.8-2 .4-5-1.9-4.9-4.7.4-5.9-2.7-10.9-3.8-16.4-1.7-8.7-4.1-17.3-6.2-25.9-2.2-1.3-1.7-3.8-2.3-5.8 0-3.5-1-6.8-1.9-10.1-.5-1.8-.8-3.8 0-5.7z"></path>  <path fill="#3c2319" d="M37.8 150c-3.8 2.4-3 6.7-3.9 10.1-4.3 17-3.2 34.2-1.4 51.5.3 2.4 1 4.9-.5 7.2-2.8-15.4-3-31-1.8-46.6.2-3.1.6-6.3.7-9.4 0-1-.4-2.2 0-3 4.6-9.1 3.9-19.2 5-28.9.3-2.8 2.9-3.9 4.1-6 .7-.6 1.4-1.2 2-1.8 2.8.7 3 1 1.4 4-2.2 4.1-4.3 8.1-4.3 12.8 0 .6.1 1.3.2 1.9 0 1.8 2.2 1.8 2.7 3.2 0 .8-.5 1.2-1 1.6-1.7.7-2 2.5-3.2 3.4z"></path>  <path fill="#85493b" d="m36.7 5.4 1.2 5.7c-.3 3-2.8 1-4.1 1.5-4.4 1.8-7.2 5.5-10.1 8.6-5.6 6-11.9 11.6-15.6 19.3-1.3 2.7-1.9 5.2-2.1 8-.1 1.8.5 5-3.4 3.6-2.5-4.7 0-8.9 1.2-13.2 2-5.2 4.8-9.9 8.9-13.7 2.8-1.6 4.2-4.5 6.1-7l10.8-9c2.8-.4 3.5-4.8 7.1-3.8z"></path>  <path fill="#37231a" d="M3.8 38.9c.3 4.5-2.5 8.9-.1 13.4 1.1.6 1.9 1.6 2.9 2.4 2.1 1.5 4.1 3.2 6.6 4 2.2 1.5 5.6 1.4 6.5 4.7 4.8 5.5 10.7 9.7 15.9 14.9 2.9 2.9 5.7 6 6.1 10.4-9.4-12.4-21.9-21.4-34.6-30.1-8.8-6-8.9-10.2-3.3-19.7z"></path>  <path fill="#bd8c55" d="M162.5 114c.3-1.8.7-3.5 1-5.3.2-.8-.4-2.3 1.1-2.2 1.2.1 1.7 1.1 1.4 2.6-.3 1.6-.1 3.4-.1 5.8 2-2.6 3.9-5.8 6.9-1.6.4.6 1.3-.5 1.7-1.2 1.5-.1 2 .7 1.9 2.1 1.2 2.9 3.7 5 4.6 8.1 1 3.5 1.9 7-1.7 9.8-.3 0-.7-.1-.9-.2-.4-6.2-7.6-7.8-8.8-13.5-3.5.3-5.5-1.7-7.1-4.4z"></path>  <path fill="#784337" d="M41.8 305.6c-1.3-1.2-.9-2.7-.9-4.2-.1-16.2-2.4-32.3-3.1-48.6-.1-2.3-.8-.3-1.2.2-1.3-3.7-.2-7.5-.6-11.2 1.1-.2 1.4.7 1.6 1.4 2.9 9.2 5.1 18.7 7.7 28 .2.8.2 1.6-.1 2.4-4.6 2.7-2.9 7-2.4 10.6.9 6.3.2 12.5.3 18.7-.1 1.1-.5 2.1-1.3 2.7z"></path>  <path d="M174.1 142c-1.2 2.7-2.4 5.3-3.5 8-1.5 1.4-3.5 2.6-3.1 5.2-.8 2.3-3.5 3.3-4 5.8-3.9 2.8-7.4 6-10.3 10-1.4 1.9-2.9 3.4-5.3 1.3-1.9-2.9-2.2-6.6-4.2-9.5-.2-1.8-.5-3.7 2-4.2 2.5 2.2 2 6.1 5 8.5.8-4.8 5.6-5.6 8-8.9 4.7-4.8 7.3-11 11.8-16 .8-.8 1.2-2 2.4-2.4 1.4.2.9 1.4 1.2 2.2z" class="st20"></path>  <path fill="#47271c" d="M44.7 273.7c-1.1-8.6-4.7-16.5-6.5-24.9-.5-2.4-.6-5-2.3-7-1.6-6.9-2.9-13.9-3.2-21 2.7 5.1 3 11 4.4 16.5 4.3 16.3 8.6 32.6 12.9 48.8.4 1.6 1.4 3.1-.2 4.5-3-4.2-3.4-9.4-5.2-14-.2-.9-.4-1.9.1-2.9z"></path>  <path fill="#814c22" d="M161.2 100.1c-3.9-.8-7.6-2.8-11.9-1.6-2 .6-1.9-.9-1.7-2.4 1.4-8.4-2.7-11.7-10.7-8.9 2.9-2 2.4-6.2 5.5-8v.1c1.8 1.9 2.6 4.6 5.1 5.9 1.1 1.3 4.1 1.1 3.1 4 .4.3 1.1.7 1.1 1-.1 5.9 5.2 5.9 8.6 8 .3.6.6 1.3.9 1.9z"></path>  <path fill="#744938" d="M75.7 10.4c-4.5-2.1-9-4-13.3-6.3-5.8-3.1-12-2.3-17.9-1.4-3.9.6-3.9 4.8-3.7 8.3-4.4-1.9 1.7-7.1-3.2-8.6 8.6-3.5 17.2-2.9 25.7.3 4.3 1.6 8.3 3.7 12.5 5.7 1.2.5 2.9 1.4-.1 2z"></path>  <path fill="#46332a" d="M41.8 124.3c-.6.3-1.3.5-1.9.8 1.1-3.1 1.7-6.2 1-9.6-1.3-6.3 1.7-12.2 1.9-18.4.6-.6.1-1.8 1-2.2.6 0 1.2.1 1.8.1.8.1 1.3.6 1.6 1.3 1.3 2.9-2.7 4.7-1.5 7.6 0 4.6.2 9.1-.6 13.7-.4 2.7-1.5 4.8-3.3 6.7z"></path>  <path fill="#6d3d2e" d="M147.6 178c-6.3 4.7-17.5 4.9-22.8-.3-3.1-3-6.5-5-10.2-6.9-.4-.5-.3-.9.1-1.3 2.1-1.1 3.8.3 5.5 1.2 3.3 1.8 6.3 4.3 9.9 5.5 4.2 1.4 8.6 2.7 12.7-.4 1.4-.9 2.7-1.8 4.4-.7 1.1.9.4 1.9.4 2.9z"></path>  <path fill="#c08f67" d="M124.3 12.4c-1.3 2.2-3.4 3.8-4 6.4-3.9-1.5-.7-4-1-6-2.3-.9-3.2 2.7-5.4 1.4-.3-1.5 2.3-.7 2-2.2-2.8-1.6-4.2 3.9-7.2 1.4-1.2-1.2-3.2-2-1.8-4.3.5-.2.9-.1 1.3.2 3.7 1.5 7.5-.6 11.3 0 2.2.3 4.1.6 4.8 3.1z"></path>  <path fill="#613e32" d="M115.6 167c2-.9 3.6 3 5.1.9 1.1-1.6-.2-4-.8-6-1.8-6.1-5.1-11.4-9.6-15.8-1.6-1.5-2.5-3-1.2-4.5 1.2-1.3 2.9-.4 4.3.7 2 1.7 4.6 2.6 5.4 5.4-.2.2-.3.4-.5.5-2.3.2-3.4-1.9-4.9-2.8-.1-.8-.4-.5-.1-.2 6.2 6.9 10.1 14.6 9.9 24.1-.2.5-.5.8-.9 1.1-3.1 1.1-5.2-.5-6.9-2.8.1-.1.1-.4.2-.6z"></path>  <path fill="#3e1a0c" d="M174.1 142c-.2-.7-.4-1.3-.7-2 0-3.4 1.1-6.6 2.1-9.8 1.2-1.1.7-2.3-.2-3-4.3-3.5-7.4-8.6-12.9-10.5-2.9-1-1.5-1.8.1-2.6 4.6 3.7 10 6.2 13.6 11.1 1.6 2.1 2.9 3.9 2.3 6.6-1.4 3.4-2.8 6.8-4.3 10.2z"></path>  <path d="M165.3 439.3c-2.5-1.4-2.8 2.3-4.8 2.1-.8-.1-1.3-.6-1.6-1.3 1-5.4-.6-10.2-3.5-14.7.3-.3.7-.6 1-1 3.7 0 5.8 2.5 8.3 4.7 2.8 2.5 1.1 5.7 1.7 8.5-.3.6-.7 1.1-1.1 1.7z" class="st29"></path>  <path d="M166.5 437.6c0-1.7-3.7.4-2.3-1.7 3.6-5.2-1-6.6-3.5-8.9-1.2-1.1-2.8-1.8-4.2-2.6.9-1.9 2.4.4 3.7-.6-.2-2.7-4-5.2-.9-8.3 2.2 4.9 2.8 10.5 7.6 14.2.9.8 3.4 5.4-.4 7.9z" class="st10"></path>  <path fill="#be935b" d="M160.3 98.1c-1.3-.3-2.5-.7-3.8-.9-3.1-.4-8.3 1.1-4.5-5.3.3-.5-.9-1.9-1.4-2.9 3.3 1.7 6.6 3.4 9.8 5.3 1.7 1.1 2.3 2.7-.1 3.8z"></path>  <path fill="#3b2017" d="M147.6 178c-1.1-.6-.2-1.4-.2-2.2-.4-1.3 0-2.4.6-3.5.2-.1.3-.3.5-.4 2.4 1.4 2.9-.9 4.1-2 3.4-3.3 5.5-8.1 10.9-9-4.7 6.3-10 12-15.9 17.1z"></path>  <path fill="#844e28" d="M179.4 132c2.3-5.9 1.7-11.3-3.3-15.5-2-1.6.6-1.6.3-2.4 3.1 1.5 3.4 5.3 5.9 7.3 3.6 4.7 2.8 9.9-2 12.8-1.1-.3-.7-1.4-.9-2.2z"></path>  <path fill="#221913" d="M127.5 452.5c2.3-4.7 6.8-7.3 11.1-7.7 3.8-.3 5.1 4.7 6.9 8-5.8-7.4-11.9-5.2-18-.3z"></path>  <path fill="#bc9663" d="M180.4 134.2c3-3.9 4.5-8.1 2-12.8 2.8 2.1 4.9 10.2 3.4 12.7-1.8 2.9-3.6 2.3-5.4.1z"></path>  <path fill="#c0975d" d="M108.1 9.2c-.5 0-1 .1-1.4.1-.8.7-1.5.6-2.3 0-4.6 0-9.1-.1-13.7-.1 6.3-3.5 13.9-3.6 17.4 0z"></path>  <path d="M108.6 446.5c2.5 1.4-.5 4.3 1.7 5.8 3.6 2.7 7.9.9 11.7 1.7-7 4.4-12.3 2.4-16.7-6.4l.3-.3c1.6 1.8 1.5-2.1 3-.8z" class="st9"></path>  <path fill="#5b3c32" d="M156.4 451.3c-.1 2.4 4.5 4.1 1.1 7-3.9-1.3-8.1-1.9-11.2-4.9 2.7-1.7 5.4 2.6 8.2 0 1.2-.1-.1-2.7 1.9-2.1z"></path>  <path fill="#866255" d="M114.6 169.6v1.3c-1.9-.6-3.8-1-5.7-1.7-1.4-.5-2.8-1.3-2.1-3.3.7-1.9 2.2-1.9 3.7-1.5 1.9.4 3.8.9 5.1 2.7-2.2 2.1-4.2-.4-6.2-.3-.8-.2-.4 1.1-.4.4 0-.1.1-.2.3-.1 2.1.2 4.3 0 5.3 2.5z"></path>  <path fill="#654133" d="M118.9 147.7c3.7.2.5-2.8 1.8-3.8h.8c2.6 3.9 3.5 8.2 2.5 12.8-3.4-.7-5.1-3.3-5.6-8.5l.5-.5z"></path>  <path fill="#a07450" d="M147.6 85.2c-4 0-5.1-2.5-5.1-5.9 3.1.7 6.6 1.2 5.1 5.9z"></path>  <path fill="#6e5348" d="M112.6 133c.4-.3.7-.7 1.1-1 3.4 3.4 7.2 6.5 6.9 12l.1-.1c-3.9-2.7-6.3-6.6-8.1-10.9z"></path>  <path fill="#a97966" d="M121.9 454c-4 .2-8.3 2-11.7-1.7 4.3.8 8.5 1.9 12.7-.6 1-.6 2.2-.7 2.5 1-1.2.4-2.3.9-3.5 1.3z"></path>  <path fill="#4d3026" d="M18.8 18.2c-1.1 3.2-2.1 6.4-6.1 7 1.5-2.8 3.4-5.3 6.1-7z"></path>  <path fill="#44261d" d="M36.7 5.4c-2.8.5-3.8 4.3-7.1 3.9 2.2-2.2 3.9-5.1 7.2-6.1 0 .7-.1 1.4-.1 2.2z"></path>  <path fill="#36190e" d="M167.5 155.1c-1.1-3-.1-4.8 3.1-5.2-.3 2.3-1.9 3.7-3.1 5.2z"></path>  <path d="M43.9 94.8c-.1.8-.1 1.8-1 2.2.3-2.4-1.8-4.6-.8-7.1 2.5.9 1.4 3.2 1.8 4.9z" class="st45"></path>  <path d="M155.5 425.4c5.2 4.3 6.5 9.4 4 15.1-1.6 3.3-3.8 6.4-5 9.9-1.5 0-1.2-.9-1.3-2-.2-1.9-.9-2.6-3.2-1.6-3.9 1.8-6.2-.6-5.6-5.2.4-3.5.8-7 1.1-10.5.1-1 .1-2.1-1.2-2.4-1.3-.3-1.5.8-1.9 1.8-.9 2.1-1.8 4.2-2 6.6-.3 4.2-2.1 5.2-5.3 2.5-3.8-3.3-8.7-4.5-12.7-7.3-3.5-2.4-5.4-6.3-6.8-10-4.7-12.7-12.6-23.9-17.1-36.8-2.3-6.7-4.9-13.4-7.5-20-1.7-4.3-3.9-8.3-4.4-13 1-1.3 2.5-1.8.5-4.1-3.9-4.7-4.8-10.8-5.2-16.8-.2-2.9 1.6-3.8 4.3-2.7.6.2 1.3.5 1.8.9 1.9 1.7 4.1 4 6.5 2.5 2.2-1.3 1.2-4.6 1.4-7 .7-8.4-1.8-16-6.4-23-1.5-2.3-2.3-4.8-1.4-7.6.3-1 .5-2 .1-2.9-3.2-7.1-2.7-14.9-3.8-23.1-2.3 2-1.4 4-1.4 5.7 0 3.9 0 7.7-2.7 10.8-.9 1-1.8 2.1-3.4 1.5-1.5-.6-1.8-2-1.3-3.3.8-2.3.3-4-1.3-5.9-2.3-2.7-1-6.4-2.2-9.6-1.8-4.7-2.5-9.4-.8-14.5 1.2-3.8 1.2-7.9.2-11.8-.8-3.3-.3-6.5.4-9.8 2-10.3 2.7-20.8.7-31.2-.5-2.7.1-4.9.9-7.3 1.1-3.5 1.5-6.9-2-9.4-.9-7.1.8-13.8 3.4-20.3 1.4-3.6 4.2-.4 6.1-1.3.5 0 .9.2 1.2.5 1.3 1.4 1.7 3.3 2.2 5 .3 1.9 1.4 3.1 3.3 3.1 3.7.1 3.8 1.7 2.1 4.4-.5.8-1.4 1.5-.9 2.7 1.8 1 3.5-.3 5.2-.5 2.3-.2 2.6-1.3 1.9-3.4-1-2.8-2.7-5.4-3.2-8.3.4-2.8-1.7-5.4-.8-8.3.6-.8 1.2-1.5 2.2-1.8 4.5 3.2 4.7 8.6 6.7 13.1 3.8 10.8 5.6 22 7 33.3.1 1 .1 2 .5 2.9 2.7 5.8 1.7 11.8 1.9 17.9.2 7.4-.5 15.1 2.1 22.3.1.3.4.6.3.9-2.9 7.9.9 15.1 2.4 22.5 2.4 12 4.2 24.2 8.5 35.8.7 1.9 2.4 5.1-.5 6.1-2.8.9-3.4-2.7-4.2-4.6-2.7-6.6-5.1-13.3-6.4-20.4-.4-2.1-.8-4.2-2.7-5.9 1.6 12.3-1.9 25.7 7.5 36.5 3 7.1 6 14.2 7.8 21.7 1.4 7.3 2.9 14.6 4.8 21.8.6 2.1 2.9 5.4-1.6 6.8-.6.2.2 1 .3 1.6.6 3.3.6 6.6 1.1 9.9.1.9-.1 2.1-1.3 2.4-.9.2-1.5-.6-2-1.2-1.6-2.1-3.3-4-5.6-5.6-3.2-2.2-6-4.2-10.4-3.7-3.1.4-4.4-2.9-5.2-4.1 1.5 1.6 2.6 4.7 2.9 8.3.2 2.5 2.2 4.8 3.8 6.9 9.6 12.7 20.1 24.6 32 35.3.6.6 1.3 1.1 1.7 1.8.7.9 1.7 1.8 1 3.1-.5 1-1.7 1.2-2.6 1-5.5-.9-10.9 0-16.2 1.5-1.9.5-2.7-.8-3.3-2.3-.8-2-1.3-4.1-1.5-6.2-.4.5 0 1.1 0 1.8 1 10 1.7 10.4 11.1 7.8 5.2-1.4 10.5-3.4 16.1-1.8 2 0 3.7 1.2 5.3 2.5z" class="st46"></path>  <path fill="#bc4d31" d="M71.7 183.9c4.5 2.1 5.1 4.9 2.5 11.6-.5 1.4-1.3 2.3-.8 4.1 2.5 8.8 1.5 17.7.6 26.6-.7 6.8-2.8 13.3-.5 20.3.8 2.4.3 5.9-.9 8.2-2.8 5.5.2 10.1 1.3 15 .8 3.4-.3 7.5 3.6 10 .9.6 0 2.5-.6 3.7-.4.9-1.1 1.9 0 2.6 1.6 1 1.9-.8 2.5-1.5 3.4-3.8 2.4-8.5 2-12.8-.2-1.8-.3-3.2 1.3-4.3.9-.6 1.8-.8 2.8-.1 1.6 1.1.5 2.7.7 4 1 6.3-.3 12.9 3.1 18.8.5.8 1.1 2.1.8 2.8-3 7.3 2.5 11.8 5.4 17.2 1 1.9 1.9 4.3 1.8 6.4-.4 5.7-.4 11.3.1 17 .1.7-.8 1.7-.9 1.5-2-2.7-6.4 1.6-7.9-2.9-.6-1.9-3.2-3-4.8-2.4-2.1.8.1 2.9-.1 4.3-.7 4.4 2 7.9 3 11.7.2.8.4 1.9 1 2.2 5.9 2.9 2.4 3.8-1 4.8-2.2-5.2-4.8-10.3-6-16-.7-2.7-1.5-5.3-2-8-2.9-3.6-1.1-8-1.8-11.9-.5-2.7-1.9-5.2-1.7-8.1.1-1.1-1.5-.8-2.5-1-.9-.8-.9-1.7-.6-2.7.7-1.3 1.4-2.5 2.4-3.5 1.3-1 3.3 0 4.5-1.2-.2-1.8-1.2-1.5-2.2-1.3-2.8.6-3.4-1-2.7-3.1.7-1.9.8-3.4-.7-4.9-.7-.7-1.1-1.8-.9-2.8 1.3-6.1-1.9-11.1-4-16.4-1-8-2.2-16.1-2.7-24.1-.1-1.8-.3-3.6.2-5.4.3-4.8.2-9.5.1-14.3-.3-11.8.4-23.6 2.2-35.3.6-3.2.8-6.5 3.4-8.8z"></path>  <path fill="#863827" d="M71.7 183.9c-3.5 14.4-4.2 29.1-4.1 43.9-.8 5-.8 10 0 15-1.2 4.5.1 9 .4 13.4.4 5.5 1.8 10.9 1.6 16.5.2 2.1 1.6 4 .7 6.2-1.2 4.1-.2 8.2.6 12.1.9 4.5 1.3 9.1 1.7 13.6v2.9c-.2 1.6-.7 3-2.6 2.8-1.8-.2-1.3-1.9-1.4-3.1-.3-1.7 1-4.1-2-4.7-1.7-.4-2.8-1.6-2.7-3.1.9-8.4-3.1-16-4.7-23.9-1.1-5.3-2.1-11.1-4.7-16.2-1.2-2.3-1.6-4.7-.4-7.2.2-.4.7-1 .5-1.3-4.4-4.8-2-10.8-3-16.1-.2-.9.3-2-.6-2.8-3-2.5-4.5-5.5-2.9-9.4.2-.6-.8-1.4-1-2.2 1.3-3.8 4.6-3.7 7.7-4.3.5.2.8.4 1.1.8-.2 2.1-1.3 4.3.8 6.1.2.4.3.8.3 1.3-.3 1.7-1.8 3.5.3 5.1 1 2.6 1.6 5.2 1.8 7.6-.2-16.8 1.2-33.7 4.1-50.5 1.1-6.5 2.7-13 6-18.8 1.4-2.5 2.9-4.9 6.2-4.8-1.2 7.1-3.3 14-3.7 21.1z"></path>  <path d="M45.6 275.8c1.1 5 3.8 9.6 4.1 14.9.9 2.5-.2 4.8-.7 7.3 2.3.5 1.1-2 2.4-2.4 2.8 9.2 6.2 18.3 10.2 27.1-.7 4.7 2 8.5 3.4 12.6 1.5 4.2 2.3 8.6 3.6 12.8.5 1.8 1.1 3.9-.1 5.8-4.3 1.3-5-2.1-6-4.8-1.2-3.4-1.1-7.2-3.6-10.4 0 5.7-.9 11.5 1.1 17.1 2 5.7 3.1 11.5 3.3 17.5.1 4.1.3 8.3 1.2 12.4.9 4.1.7 8.3-1.8 12-2.5 0-2.2-2.1-2.4-3.6-1.2-8.6-5-16.7-5.3-25.6-.2-4.3-3.9-5.3-6.9-6.8-3.3-5.3-2.1-11.3-2.6-16.9-1.4-16.6-2.8-33.3-2.7-49.9 0-5.1-.9-10.2-.3-15.2.3-2.1.6-4 3.1-3.9z" class="st49"></path>  <path fill="#b94c30" d="M68.7 353.6c-2-9.1-4.7-18-7.8-26.7-.4-1-2.7-3.5.8-4.2 4.3 10.6 8.6 21.2 12.8 31.8.7 1.7 1.2 3.1 3.2 3.1-.2 1.4.3 2.6.8 3.8C86 377.8 91.7 395 97 412.1c2.4 7.7 6.3 15 6.8 23.3.1 1.1 1.3 2.2 2.3 3.6-2.7.6-3.5-2.4-5.5-2.6-1.1-.7-1.5-1.9-2.2-2.9-5-8.4-9.3-17.1-13.9-25.7-4.8-9-6.9-19.2-10.2-28.9-1.9-5.5-3.1-11.1-4.6-16.7-.4-2.4-1.3-4.7-1.5-7.2 0-.6.2-1.1.5-1.4z"></path>  <path fill="#853a2b" d="M99.6 433.4c1.1.7 1 1.9 1 3 .5 2.9 1.2 5.5 4.7 6.1 2.1.4 2.5 2.4 3.2 4.1-.8.8-1.6 2-3 .8-1.3-3.9-4.1-1.9-6-1-9.7 4.5-19.7 3.6-29.8 2-.4-.1-.8-.5-1.3-.7 1.7-2.5 1.9-2.9 5.3-2.1 5.4 1.2 10.8-1.4 16.3.1 1 .3 2.5-.7 3.6-1.9-1.1-1.6-2.5-3-4.3-3.8-8.4-6.2-14.9-14.4-23.4-20.5-.7-5.8.1-6.9 6-8.1.3-.1.7.3.7.1 0-.5-.3-.9-.3-1.4.1-1.9.8-3.6 1.6-5.1.7-1.3 1.8-1.9 3.3-1.3 3.8 1.6 7.5 3.3 9 7.8 1.1 3.4 2.7 6.8 3.9 10.2 1.9 5 5.3 8.6 9.5 11.7z"></path>  <path d="M47.8 220.8c2 .3 3.5 2.5 2.3 3.3-3.4 2.4-.7 3.4.5 5 2.4 3.4 3.9 7.1 2.3 11.4-.2.5 0 1.3.2 1.9 2.1 5.7 1.1 12 3.2 17.6 1.5 4.2 1.5 9 3 12.9 1.7 4.6 2.4 9.6 4.6 14.1 1.2 2.4 2.7 7 1.3 10.7-.9 2.3.9 3.3 1.6 4.8.1 3.7-.3 7.5 1.7 11 .6 1.1 1 3.3-1.1 3.7-1.7.3-2.1-1.4-2.4-2.6-4.3-13.8-9-27.5-12.2-41.7-.9-4.1-3.3-7.8-2.9-12.2-.3-7.3-2.7-14.1-4.3-21.1-1.1-5-2.4-10-1.3-15.1 1.7-.5 1.9-2.8 3.5-3.7z" class="st52"></path>  <path fill="#b74d32" d="M45.7 223.8c-1.9 5.2-.2 10.3 1 15.2 1.7 6.8 2.5 13.7 3.9 20.6.1.3-.5.8-.8 1.2l-3-12.9c-1.5-3.5-3.7-6.8-3.1-11.1.2-1.5-1.2-2.6-1.8-3.9-2.1-12.2-4.9-24.4-6.3-36.7-1.5-13.4-2-26.9 1.8-40.1.6-2 .4-3.9.5-5.9.1-2.1-.4-4.7 3.2-3.9.6.6.9 1.4 1.4 2.1.7.9 1.8 1.4 2.2 2.6.5 4.6-1.7 8.7-2.2 13.1-1.4 13.1-2.1 26.1.8 39 1.4 6.1.5 12.6 3.2 18.5.1.6-.2 1.5-.8 2.2z"></path>  <path fill="#5a2d21" d="M77.7 357.5c-.8-2.5-.8-2.5 1.6-3.2.2 0 .4 0 .5-.1 1.2-1.6 2.1-4.3 4.5-1.3 1.5 1.9.6 3.8-.6 5.4-2 2.7-3.3-.3-5-.7-.3 0-.7 0-1-.1z"></path>  <path d="M41.8 232.8c1.5.6 2.6 2.1 2.6 3.4 0 4.1 1.9 7.6 2.4 11.5-2.3-3.2-5.6-6-4-10.6.5-1.6-2.1-2.5-1-4.3z" class="st52"></path>  <path fill="#bb7862" d="M154.5 450.4c.1-4.1 2.6-7 5-9.9.4.3.7.6 1.1.9-2.7 2.7-4.5 5.9-4.1 9.9-.9.7-.8 1.7-.9 2.7 0 .2-.3.4-.5.6l-.6-1.2c-.1-1 0-2 0-3z"></path>  <path d="M78.7 328.6c1.2 2.5 2.4 5 2 8-2-2.4-2.1-5.1-2-8z" class="st46"></path>  <path fill="#b3452a" d="M41.8 124.3c3.1-6.8 2.7-14 2.9-21.2 4.5-2 4.6-6.7 5.5-10.4 1.4-5.7 4.4-9.8 9.4-12.6 1.5-1.1 3.3-2 3.9-4 1 .4 1.4 1.2 1.6 2.1.4 2.1-1.3 4.8 1.9 6.1.9.2 1.6.5 2.1 1.3.8 1.5 2.6 1.3 3.7 2.4.5 3.1-2.4 5.1-2.4 8 0 .4 0 .9-.1 1.3 0 .2-.1.4-.1.7-.5 3 2 3.9 3.8 5.2 2.4 1.7 3.1 3.7 1.5 6.3-2.2 3.6-1.9 6.9 1.4 9.7 1.2 1 1.2 2.2 1.1 3.6-.1 2.1-.2 4.3.9 6.2.1.4.2.9.1 1.4-.3 1.3-.3 2.5.4 3.7 1.5 2.6.5 4.3-2 5.3-2.4-.4-4.1 1-5.7 2.5-1.5 1.4-3.2 2.3-5.4 2.3-2.1 0-4-.4-4.9-2.6-.9-2.2.7-3.4 2-4.6 1-.9 2.1-1.6 3.4-3.4-3.4 1.5-5.5 3.4-8 4.8-2 1.2-4.3 2.8-6.2.5-1.8-2.2.3-3.9 1.7-5.6.9-1.1 2.2-2 3.2-3.7-3.2 1.6-5.7 1.5-6.3-2.9-1.3 6-4.9 9.8-8.9 13.3-1.2 1-2.6 2.3-4.4 1-1.1-6 2.8-10.4 4.9-15.4.6-1.2 1.3-2.4-1-1.3z"></path>  <path fill="#a94d37" d="M5.8 55.3c-1.4-.5-2-1.6-2.1-3 .3-.5 1-1.1 1-1.6-.9-11.6 7.5-18.2 13.7-26.1 2.8-3.5 7-5.7 9.2-9.7 1.5-2.8 5.7-1.6 7-5.1.6-1.5 1.4 2.6 3.2 1.2 1.3 1.5 2.5 3.1 4.8 3.2.8 1.4.1 2.7-.4 4.1-.5.8-1.2 1.4-2 1.9-4.5 2.9-6.8 7.5-9 12.1-2.1 1.6-2.5 3.7-1.7 6.1.1.7 0 1.4-.2 2.1-.7 1.9-2.7 3-3.2 4.9-.9 3.5-3.3 4.1-6.4 3.9-3.4-.2-4.8-2.2-5.1-4.1 1.5 2.7 0 4.1-4.2 3.2 3.5 4 9 4.6 14.2 1.9 1.7-.9 2.9-2.9 5.2-2.2-.7 2.6-1.1 5.4-2.1 7.9-.9 2.1-2.5 3.9-5 4.1-2 .2-2.8 1.4-2.9 3.2-1.7-2.5-5.5-1.5-7-4.2-1.8-2.2-4.4-2.9-7-3.8z"></path>  <path d="M29.8 48.3c-4.2 4-9.1 5.8-14.9 5-1-.1-2.2-.1-2.8-.6-1.5-1.3-4.4-2.4-3.5-4.7 1.1-2.6 3.5-1 5.4.5-.1-1 0-1.3-.1-1.5-.8-1.8-3-4.3-.5-5.2 3.1-1.1 2.1 2.3 2.5 4 .5 2.4 2.2 2.8 4.1 2.5 1.6-.2 3.8 1.3 4.3-2.2.3-2.1 2.9-3.8 4.5-5.7 1.1.5.6 3.8 3.1 1.6 4.5 1.4 6.8 5.1 9.2 8.8 0 .8-.6 1.2-1.2 1.5-2.5.5-3.4-1.5-4.4-3-1.7-2.4-3.5-2.9-5.7-1z" class="st58"></path>  <path d="M66.8 85.1c-3.5-1.2-3.7-1.8-2.2-7.1-.6-1.2-.1-2.4.8-3 2.1-1.3 1.9-3.1 1.4-5 1.3-3.1-.4-6.5.9-9.6.6-1 1.5-1.1 2.5-1 .4 0 .8.3 1.2.2-.5-.1-.8-.5-1.1-.9-.3-2.5-2.2-4.5-2.6-7-.2-1.3-.2-2.5.2-3.7.5-1.2.8-2.6 2.6-2.2C73 52 75.9 57.6 83.7 58.2c.9.1 1.6 1.2 1.3 2.3-.3 1.1-1.2 1.4-2.2 1.7-2.1.6-4.2-.6-6.4-.1-1.2.6-2.4 1-3.6 1.5-1.9.8-3.1 2.1-2.1 4.2.9 2.1 2 4.2 5.1 3.5 1.5-.3 3-2.7 4.6-.1.1 3.4-2 4.6-4.9 4.9-8.2 1-8.4 1.2-8.7 9z" class="st59"></path>  <path fill="#854133" d="M59.6 80.2c-.2.3-.2.7-.5.9-6.2 4.5-7.4 11.5-9.6 18.1-.6 1.9-.5 6.1-4.8 4-1.2-1-1.5-2.1 0-3 1.6-.9 2.1-2.3 2-4 2-8.4 6.6-15.4 11.2-22.5.4-.6 1-.9 1.7-.5 2.5 2.4-1.8 4.6 0 7z"></path>  <path fill="#3a1b11" d="M70.7 58.2c.7.6 1.3 1.1 2.3 1.9-2 .1-3.7.2-5.3.3-9.8-.8-19.7-1.4-27.8-8.2.3-.3.5-.7.8-1 1.8-.8 3.1.5 4.6 1.1 6.1 2.7 12.4 4.3 19 4.5 2.2.1 4.5-.4 6.4 1.4z"></path>  <path d="M59.8 73.2c-5.4 7.1-9.3 14.9-12.9 23-.4-.4-.8-.8-1.1-1.2 3.3-6.5 5.5-13.6 9.9-19.4 1.9-2.5 3.9-4.8 6.5-7.8.3 3.1-1.9 3.8-2.4 5.4z" class="st45"></path>  <path fill="#cd9463" d="M66.7 70.1c1.9 1.9 2.6 3.6-.4 5.2-1 .5-1.5 1.6-1.8 2.8-.9-.3-.9-1.1-1-1.8 1-2.2 3.2-3.7 3.2-6.2z"></path>  <path fill="#b64d30" d="M92.7 149c-1.3.7-2.5 1.5-3.8 2.2-1.3-1.5-.3-3.3-.6-4.9-.1-.9-.2-1.7-.1-2.6.4-2 0-3.8-.4-5.7-.1-.7-.1-1.4.2-1.9 1.9-3.7 1.9-3.7-.8-6.1-.5-.4-.7-1.1-.9-1.7.3-1.8 1.1-3.4.9-5.2 2.4-3.8-1.1-7.5-.4-11.2-.3-2.1-2-3.7-2-5.8.1-2 .7-3.8 1-5.8.3-1.2.8-2.4 1.6-3.3.6-.6 1.3-1.2 2.2-1.2 9.8 0 16.8-6.6 24.9-10.5.4-.3.8-.7 1.2-1 .1-.6.6-.7 1-1 1.8-.2 3.5.2 5.1 1 4-1.7 6.5.8 8.9 3.3 2.7 4.5 2.5 9.4 1.7 14.3-.5 3.1-2.1 5.9-2.5 9-.2 1.5.4 4-1.7 4.1-1.7.1-3-1.7-3.4-3.7 0-2.2.7-4.2 1.2-6.3.9-3.9.3-7.5-3.2-11.6.3 13.5-5.3 23.8-12 33.7-3.1 6.1-7.3 11.6-11 17.4-1.8 2.3-5 2.8-7.1 4.5z"></path>  <path fill="#dfc09b" d="M124.6 32.3c.9 1.2 2 2.2 2.7 3.5 4.2 7 2.7 12.5-4.5 16.6-1.2.7-2.8 1.2-1.8 2.7 1.4 2.2 1.9-.2 2.8-.8 1.2-.9 2.4-2.5 2.7.9.1.9 4.3-1.2 4.2-3-.1-1.4-1.8-2.6-.3-4.1 5.6 10.5.6 19.3-12.6 22.2-3.3 1.1-2.1-1.4-2.1-2.7 0-4-.6-7.3-4.8-9.3-3.4-1.6-5.9-1.1-7.1 2.4-.4 1.3.1 3.1-1.6 3.9-2.7-3.1-7.2-.3-10-3.1-1.8-2.8-1.9-5.5.6-7.9 1.3-1.2 1.5-2.8 1.4-4.5-1.7-4.2 1-4.7 4.1-5 2-2 3.7-4.3 6.4-5.5 2.8-1.1 3.2.7 3.4 2.8-.4 2-2.4 2.9-3.1 4.8 1.2-1.7 3.4-2.6 3.3-5 .3-4.8 1.5-5.5 7-4.3 1.9 1.7 4.2 2.4 6.5 3.3 1.4.5 3.4.4 3.5 2.7.1 2.2-1.5 2.6-3 3.4 1.5-.7 3.3-1.1 3-3.5-.2-1.7-1.4-2-2.7-2.4-3.3-1-6.4-2.4-8.9-4.9-.3-.4-.6-.8-.8-1.2-2-3.5 0-6.6 1.1-9.8.4-1.2 1.1-1.9 2.5-1.6 2-.6 3.1.6 3.8 2.1.8 1.7-1.3 1.9-1.9 3-.5.8-1.1 1.6-1.6 2.4 1 3.4 2.6 4.8 5.9 2.2.5-.6 1.2-.6 1.9-.3z"></path>  <path fill="#ddc7ac" d="M104.7 68.2c2 4.3 6.8 3.3 10 5.3-3.4 2.9-5.9 6.1-3.3 10.8.2.4-.4 1.2-.6 1.8-5.6 5.7-12.6 8.4-20.4 8.8-2.6.1-4.6-1.5-6-3.7 1.3-5.7-2.9-10.3-3-15.8.1-9.4 1.7-12.2 8.7-14.8 3.3 3.3 8.2 1.4 11.8 3.9 1.7.7 2.4 2 2.8 3.7z"></path>  <path fill="#ddb572" d="M70.7 46.3c-1.3 0-1.9.7-2.1 1.9-.9 0-1.6-.1-.8-1.3-2-4.2-1.6-7.4 3.5-8.7 2-.5 2.1-2.2 2.3-3.8 2.5-2.5 5.7-4.5 7.1-8.1.7-.4 1.3-.7 2-1.1 2.1-1 1.9-3.9 4-4.9 4.7-.5 6.3-5.4 10.5-6.6-.9-2.1-2.8-.7-3.5-1.8 3.5-1.5 7.7.6 10.8-2.5h2.3c.7 1.3 1.3 2.7 2 4-1.7 1.5-4.4 1.5-5.8 3.6 2.5.6 4.5-2.1 6.9-.8-.1 1.1-.9 1.6-1.7 2.1-2.6 1.1-4.6 2.8-6.2 5.2-1.1 1.6-2.7 2.8-4.7 3.3-1.1.1-2.1-.4-3.2-.4-4.8 3.6-7 9.6-11.8 13.3-2.5 1.9-4.7 3.9-7.5 3.5.2-.1 1-.2 1.3.8.4 1.1-.2 1.9-1.1 2.5-1.5 1-2.9.3-4.3-.2z"></path>  <path fill="#e2cab0" d="M107.6 17.3c.7-.4 1.4-.8 2.2-1.3 4.9 1 7.3 3.5 6.7 6.7-.6.5-1.3.9-1.9 1.4-1 3.3-4.1 6.4-1 10.2v-.1c.5 1 1.9 1.8 1 3.2-3.2-.3-6.5-.6-6 4.3-.4 0-.7-.2-.9-.5-.8-.9-.6-3.2-2.9-2-3.2.7-5 3-6.1 5.9-1.6.8-5.3-1.4-4.1 3.1-5.6-.4-5.9-.7-5.5-5.8.1-1.7-.1-3.3-.3-5-.4-3.3.7-5.9 3.8-7.4 2.8-1.1 5-3.6 8.6-3 1.6.3 2.4-1.5 2.8-2.9.7-2.4 2.4-4.5 3.6-6.8z"></path>  <path fill="#d59e70" d="M104.7 68.2c-1.4-.5-2-1.8-2.6-2.9-.7-.3-.8-.7-.2-1.1 1.4-2.9-1.1-8.3 5.1-8 1.3.1 2.6-2.6 3-.9 1 3.9 7.4 2.5 6.7 7.8-.3 2.3-1.1 5 .9 7.1-4.8 2.6-8.6-1.1-12.9-2z"></path>  <path fill="#3c1d12" d="M84.7 91.1c5.1 5 10.6 2.3 15.7.5 3.6-1.3 6.9-3.6 10.4-5.4 1.2-.3 2.4-.7 3.6-1-6.7 5.7-13.6 10.8-22.8 11.4-1.3.1-2.6.4-3.9.6-2.2 1.2-3.8.5-4.7-1.6-.6-1.7-1.1-3.8 1.7-4.5z"></path>  <path fill="#c49056" d="M122.6 80.2c-2.5-1.1-3.6-3.1-2.9-5.6.6-2.4 3.2-1.1 4.7-1.8.6-.2 1.3-.3 1.9-.1 2 .8 3.3.3 3.3-2 0-3.8-2.8 1.1-3.3-1.5 1.1-.8 2.5-1.9 4.1-3 2.2 4.4 1.1 7.7-2.9 9.5-2.3 1.1-3.1 3.2-4.9 4.5-.1 0 0 0 0 0z"></path>  <path fill="#492215" d="M129.7 88c-2.1-2.4-5-3.3-8-3.9.3-1.1 1.2-1.6 2.1-2.1.3 0 .6.1.9.2 2.5 1.1 5 2.1 7.1 4 1.7 1.6 3.4 3.2 5 4.8 2.5 1.9 4.7 4 5.9 7 .6.7 1.3 1.4 1.9 2.1.7 1 1.3 1.9 2 2.9.3.3.4.5.3.8-.1.3-.2.4-.3.4-3.8-.3-5.9-3.1-8.2-5.7-3-3.3-5.3-7.4-8.7-10.5z"></path>  <path fill="#946957" d="M124.6 32.3c-.5.3-1 .7-1.5 1-1.6 1.1-3.3 3.4-4.8 2.6-1.7-.9-1.7-3.6-1.4-5.7.3.1.7.2 1 .3.6 2.7 1.8 3.4 3.6.9.7-.9.3-2.2 1.2-3.1.6 1.4 1.2 2.7 1.9 4z"></path>  <path fill="#f0ceb7" d="M122.7 28.3c0 1.4.7 3-.8 4.1-.9.6-2.1 1.6-2.9 1.4-1.6-.4-1.3-2-1.1-3.3 3.9 3.4 3.2-.5 3.8-2.4 0-.1.3-.3.3-.2.2.1.4.3.7.4z"></path>  <path fill="#af7b65" d="m116.6 83.2-1 1c-3.2-1.8-2.4-4-.8-6.4 1.9 1.6-1.5 4.5 1.8 5.4z"></path>  <path fill="#633d31" d="M60.4 40.5c-1.6-1.1-1.8-3.1-2.7-4.6-1-1.7-1.1-4.2-4.3-3.6-3.3.6-2.3 3.1-2.8 4.9-3-4-4-8.1-.2-13 .8 3.5 0 9.1 6.2 6.1 3.1 2.5 5.6 5.3 4.6 9.7-.2.2-.5.3-.8.5z"></path>  <path d="M45.8 32.4c-2.5-3-1.9-6.7-2.1-10.2-.1-1.6.9-3.9-2.1-4 0-1.4.3-2.7 1.1-3.9.9-2.2 1.8-4.4 3.1-7.6v25.7z" class="st76"></path>  <path fill="#e1bfa6" d="M61.3 40.1c-.5-3.7-2.7-6.7-4.6-9.7 1-.7 2-1.4 3-2 .2.2.3.4.2.6-.1.2-.2.3-.2.3 0 5.3 4.9 8.7 5 14-1.7-.6-2.2-2.4-3.4-3.2z"></path>  <path fill="#e9c1a9" d="M59.7 29.1v-.8c.6-.5 1.1-1 1.7-1.4 3 2.2 2.3 6.5 5.3 8.8-4.1-.6-3.6-5.6-7-6.6z"></path>  <path d="M49.5 39.5c.1 1.1 0 2.1-1.5 1.7-1.3-.3-2.5-1-2.4-2.6v-6.3c1.4 1.4 1.3 3.2 1.3 5 .1 1.7 1.1 2.3 2.6 2.2z" class="st76"></path>  <path d="M123.6 338.6c-1-6.2-4-11.8-6-17.6-.5-1.4-1.3-2.7-1.1-4.2-1.6-2-4.4-4.7-1.8-6.7 2.7-2 5.5.8 6.7 3.3 2.2 4.6 5.8 8.6 7.3 14.2.8-3 .2-5.3-.4-7.6-.4-1.5-1.7-3.5 1.2-4.2 1.4 3.5 3.2 6.6 3.4 10.9.2 5.1.4 10.8 4.4 15.1 3 4.5 2.8 9.8 4 14.8.4 1.7.9 3.3 1.3 5-.7 1.2-1.3 2.3-3 1.7-2.4-.8-.2-1.9-.3-2.9-.5-3.8-3.8-6.7-2.8-11.9-2.2 2.1-5.7 1.9-2.7 5.7 1.6 2 1.2 5.6 1.6 8.5-2.3.5-2.8-1.6-3.9-2.8-3-4.7-4.6-9.8-5.7-15.2-.3-2.2-.7-4.4-2.2-6.1z" class="st79"></path>  <path d="m132.6 359.5 3 3c.7 9 5.3 17.1 6.1 26.1.3 2.7 1.1 5.5 2.9 7.8 1.3 3.2 1.5 6.8 3 10 3 6.2 5.7 12.5 8 19-2-.3-4-.7-5.9-1-2.2-7.6-7.1-13.8-10.5-20.7-3-6.1-3-13.1-3.7-19.8-.5-4.8-.3-9.4-3-13.8-2-3.2-1.4-7.1.1-10.6z" class="st29"></path>  <path d="M147.5 406.4c-4-2.4-1.9-6.7-3-10 1.7 3.2 4.3 6 3 10z" class="st79"></path>  <path fill="#953d29" d="M45.6 275.8c-3.2 1.8-2.2 5.2-2.2 7.6.5 16.1 1 32.2 2.4 48.2.9 10 .8 20.1 2.8 29.9.8.8 1.5 1.8 1.7 3 1.1 8 3.6 15.8 4 23.9.3 6 4.4 11.1 3.9 17.2-.1 1.1.4 2.3.3 3.4-1.3 9.2 4.5 13.4 11.7 16.6 1.8.8 4.4.9 4.2 3.9-3.1-.6-6.2-1.1-9.2-1.9-8.5-2.4-11.3-9.3-12.5-16.8-3.2-19.9-7.8-39.6-10.4-59.6-1.2-9.3-1.4-18.6-1.7-27.9-.2-5.9-1-11.9 1-17.7.2-9.5.2-19-1-28.5-.4-3 .3-5 3.9-3.4.5.7.8 1.4 1.1 2.1z"></path>  <path fill="#b64c30" d="M74.6 429.5c-2.1-2.8-5.9-2.3-8.4-4.4-4.8-3.9-9.8-6.8-8.9-14.9.6-5.9-.3-12.3-4-17.9-1.2-1.8-.1-5.4-.6-8.2-1.4-7.5-2.6-15.1-3.8-22.7 5.2.1 7.9 2.1 7.8 7.1-.2 7.4 3.2 13.8 4.4 20.8.4 2.6-.4 5.7 1.7 8 2.6 5 .9 10.7 2.1 15.9.5 2.1.5 4.2 1.9 6 9.2 4.9 15.4 13.2 22.9 20-1.8 1.5-1.9 1.6-3.5.5-3.6-2.4-7-5.1-10.5-7.5-.4-.8-.8-1.7-1.1-2.7z"></path>  <path fill="#9f3e2a" d="M75.6 432.3c5.1-.4 6.9 4.8 10.9 6.4 1.1.4 1.7 2.4 3.2.6 3.3-.7 4.1 3 6.5 3.9.5.2-.4 1.7-1.1 1.8-2.4.3-4.4 1.6-7.2 1.6-6.4 0-12.9-.7-19.2.9-2.9-.7-5.4-2.2-7.7-4.1-1.4-2.2-3.3-4.5-3.3-7.1-.1-3.6-2.1-3.8-4.7-3.6-.6-3.1 2.5-2.9 3.8-4.2 2 .3 4 .5 5.9 1.7 3.9 2.2 8.4 2.5 12.9 2.1z"></path>  <path fill="#9c5c4b" d="M56.7 428.4c-.7 2-3 2.3-4 4.1.6.5.6 1.1.1 1.7-2.5 1.2-5.1 2.4-8.2 2 1.3-3.1 4.9-4 6.1-6.9l6-.9z"></path>  <path fill="#c09251" d="M80.6 26.2c.4 5.1-3.4 6.5-7.1 8.1-.2-5 2.7-7.2 7.1-8.1z"></path>  <path fill="#c08f57" d="M86.7 20.3c-.3 1.2-.6 2.5-1.1 3.7-.5 1.4-1.1 3.1-3 1.2-1.3-1.9-3 .4-5.1-.4 2.9-2.5 6.1-3.5 9.2-4.5z"></path>  <path fill="#8d3d2d" d="M129.6 315.6c-1.7 1.3-.6 2.7 0 4 1.4 3 1.3 6 .3 9.6-2-1.3-2.7-2.8-3.5-4.6-1.6-4.2-5-7.5-6.7-11.7-.6-1.6-2.9-3.3-4.4-2.4-1.9 1.2.1 3.2.6 4.8.2.5.4.9.6 1.4-3.7-3.5-6.7-7.3-7-12.8-.3-6.7-1-13.5-1.8-20.2-.3-2.6 1.1-4.8 1.6-7.4 6.5 10.5 6.1 23.7 13.9 33.6-.6-2.5-.9-5.1-1.7-7.5-5.5-15.3-7.3-31.4-10.8-47.1-.3-1.4-.4-2.8-1.5-4.1-1.1-1.3-.8-2.7.8-3.8.5-.4 2.1-1.1 1.4-1.3-5.1-1.9-1.7-5.8-1.6-8.3.3-5.7-2.9-11.2-1.2-16.9 1.5-5.5-.5-10.3-1.7-15.5-1.4-6.6-1.8-13.5-3.3-20.3-1.2-5.4-3-10.7-3.1-16.3 3.1 3.9 4.6 8.5 4.9 13.2.6 9 4.6 17 7 25.4 1.5 5.4 3.3 10.7 4.1 16.2-2.5 9.9 2.2 19.1 2.8 28.6.3 4.8-.7 9.7.7 14.5 1.7 6.1 1.9 12.3 2.4 18.5.4 4.6 3 9.1 3.5 14.1.5 5.7 2.4 11 3.7 16.3z"></path>  <path fill="#926857" d="M141.4 356.4c-2.7-4.6-1.8-10.1-4-14.8.4-.6.7-1.2 1.1-1.9.7 5.6 3.9 10.8 2.9 16.7z"></path>  <path d="M121.5 130.9c-1.6.3-3.2-.1-4.7-.7-1.3-6.5 3.5-11.2 5.3-16.7 1.3-4.1 2.5-8.1 1.8-12.6-1 5.5-3.4 10.6-5.3 15.7-1.6 4.1-2.9 8.8-7.9 10.4 1.3-6.9 6.6-11.9 8.8-18.4 1.4-4.2 2.2-8.5 1.5-12.9-.3-2 .4-3.4 2-4 2.1-.8 1.5 1.6 2.2 2.4 4.5 5.5 1.7 11.2.4 16.9.1 4.2-2.6 7.7-3 12.3 2.6-.4 4.1-2.7 6.4-2.7 1.7 0 3.7-.1 4.4 1.6.7 2-1.3 2.7-2.7 3.4-.6.3-1.3.4-2.1.4 2.5 1 6.2 1.3 3.2 5.3-3.5.3-6.8-1.4-10.3-.4z" class="st88"></path>  <path fill="#be824f" d="M89.7 146.1c-.3 1.7-.5 3.4-.8 5.1 1.7 1.5 4.3 2.1 5 4.7-.4.7-.7 1.3-1.1 2-1.1-.3-1.8-1.1-1.9 1.2-.2 4.5-5.2 6.4-9.1 3.9-.3 0-.7-.1-1-.1-2.9-1.6-3.1-2.2-2-6.5 1.7-1.3.4-3.4 1.2-4.9 1.3-.4 1.4-.7.6-1.7-1.1-1.5-1.1-3.1-.2-4.6 1.2-1.9 3.1-2.3 5.2-1.8 1.7.4 2.6 2 4.1 2.7z"></path>  <path fill="#eaccb5" d="M116.6 131.2c.2 1-.1 2.2.9 2.9 1.3 1.9 3.1 3.4 4.6 5.1 4.6 4.8 4.3 10.8 3.8 16.8-.1.2-.3.4-.5.6-.2.2-.4.3-.6.5-.5.3-.9.2-1.4-.1-.9-4.3-.4-9-3-12.9-1.1-4.7-5.5-7.5-6.9-12 .8-1.6 2.2-.5 3.1-.9z"></path>  <path d="M92.7 149c8.2-5.5 11.5-15 18-22 1.3 4.4-2.7 6.4-4.4 9.2-3.4 5.5-5.6 12.3-13.6 12.8z" class="st88"></path>  <path fill="#bf8b76" d="M52.8 434.2c0-.6 0-1.1-.1-1.7 1.5-.5 3.1-.9 5-1.5-1.1 4.8 2 8.3 3.1 12.4-2.4-1.7-3.5-4.3-4-7-.5-2.6-1.7-3.1-4-2.2z"></path>  <path fill="#834e29" d="M131.7 86.2c-2.7-.7-5.3-1.6-7.1-4 2.5.2 4.8-.8 7.3-1.5.8 1.6-2.4 2.2-.5 4 2.9-.9 2.9-4.9 5.7-5.9 1.3 5.3.6 6.2-5.4 7.4z"></path>  <path fill="#865232" d="M142.6 98c-2.5-1.9-4.3-4.3-5.9-7 3.3 2 5-.3 6.6-2.6 1.9 3.6.8 6.6-.7 9.6z"></path>  <path fill="#a1422b" d="M131.6 131.1c1.1-3.3-1.3-3.5-3.4-3.6-1.1-.1-2.6 1-2.8-.6-.3-1.9 1.6-1.6 2.9-1.7 1.8-.2 3.6-.6 4.7-2.3-3.1-1.9-5.6-.8-8.1 1.2-.6.5-1.2 2.4-2.7.6-.8-1-1.4-1.6-.8-3 1.5-3.5 2.9-7 4.3-10.5-.4 2 2.8 1.1 2.5 3.3-.7-4.9 2.3-8.7 3-13.1.7-4.6 1-9-1.4-13.3 3.1.6 4.5 3.4 6.1 5.5 3.2 4 6.5 7.8 10.7 10.9 2 .7 3.2 2.6 4.9 3.6.5 1 1.2 1.8 2.2 2.2.6.9 2.3 1.2 1.9 2.8.4 2.6 2.4 3.7 4.4 4.9 5.8 3.3 10.7 7.8 15.6 12.4 1.4 3.7-.6 6.7-2.1 9.8-5.1 6-8.5 13.2-14 19-3.6-2.4-4.2-5.2-2.2-9.3 2.1-4.1 4.5-8.1 5.1-12.8.2-1.7.7-3.6-.6-5.6-3.1 1.7-3.5 4.8-4.6 7.6-1.1 2.7-.5 6.5-4.7 7.2-1.3-5.4 1.4-13.5 6-18.7-1.7.8-2.2 2.9-3.5 4.3-.5.6-1.1 1.2-1.6 1.8-4.3 5-4.2 5-10.3 2.7-3.7-2.2-8.3-2.3-11.5-5.3z"></path>  <path fill="#bd8e51" d="M157.4 111.2c-.2-.6-.8-1.3-.7-1.8.4-2 1.6-3.2 3.7-3.2.8 0 2-.1 1.7 1-.4 1.6-.8 3.7-3.3 3.5-.4 0-.9.3-1.4.5z"></path>  <path fill="#56220c" d="M155.6 113c-.6-.9-2.2-1.2-1.9-2.8 1.7-1.5 2.3 1.5 3.8 1h.1c.5.8 1.5 2.2 1.4 2.2-1.3 1.1-2.2-.7-3.4-.4z"></path>  <path fill="#4e1f11" d="M151.4 108c-2.6.1-3.5-2.2-4.9-3.6 0-.4.1-.9.1-1.3 1.7 1.5 4.1 2.4 4.8 4.9z"></path>  <path fill="#9e3f28" d="M89.7 146.1c-1 .3-1.7.1-2.6-.7-1.8-1.6-3.9-1.8-5.7 0-1 1-1.2 2.7-.3 3.7 1.6 1.8 3-1.2 5.2-.4-1.7 2.2-3.6 3.7-6.4 3.4-1.6 2.2-4.7.9-6.5 2.7-1.7.5-3.3.5-4.8-.5-2.2-2.6-4.8-1.5-7.4-.7-3.8 1.5-8.2-.5-11.9 1.8-1.3-.4-1.6-1.5-1.8-2.6 0-.4.2-.8.4-1.2 1-1.4 0-2.1-.9-2.9-2.5-2.5-5.6-4.2-8.3-6.4-.2-.4-.4-.8-.7-1.2 7.1-3.6 11.9-8.9 12.2-17.4.2.1 9.9 4.5 10.6 4.8-2.1 2.1-4 4-5.9 6-1 1.1-3.1 2.3-1.4 4 1.2 1.3 2.7.3 4-.6 2.7-1.9 5.5-3.7 8.3-5.5.8-.5 1.6-1.7 2.5-.5.8 1 .6 2.3-.3 3.2-1.3 1.2-2.8 2.3-4.2 3.4-.9.7-2.1 1.1-1.4 2.7.6 1.1 1.3 1.7 2.6 1.9 3.7.6 5.9-1.7 8.1-3.9 1.7-1.7 3.1-2.4 4.7 0 .5.7 1.3.8 2 1 1.1 1.6 2.8 1.6 4.4 1.8 1.8.2 3.8 0 4.5 2.3.3.5.6 1.2 1 1.8z"></path>  <path fill="#6c3425" d="M38.6 142.2c3.6 1.1 6.5 3.1 9.1 5.8-.1 1.4 1.5 2.8-.1 4.1l.1-.1c-.5.6-1.1.7-1.8.5-1.1-.4-1.3-1.8-2.2-2.4-1.1-.1-2.4.1-2.8-1.4 1.3-.8 1.8-1.9 1.1-3.4-1.4-.7-4 0-3.4-3.1z"></path>  <path fill="#e5a68e" d="M42.1 145.2c1.8 0 2.3 1.5 2.1 2.6-.4 1.8-1.9 1.2-3.2.8v-2.4c.4-.4.7-.7 1.1-1z"></path>  <path d="M5.8 55.3c3.6-1.3 5.7 1.9 8.5 3 .4.2-.9.9-1.6 1-3.2.2-4.6-2.6-6.9-4z" class="st1"></path>  <path fill="#b34a2e" d="M152.6 146.1c2.8-2.3 2.8-5.8 3.8-8.9 1.1-3.4 2.6-8.1 6-7.4 3.4.7 1.1 5.4 1.1 8.3 0 3.9-2.6 6.8-4.2 9.9-1.9 4-2.9 7.3.1 10.9-2.2 3.5-7.6 4.3-8.1 9.4-.1.6-1.6 1.4-1.8.3-.5-3.4-5.1-5.6-3.1-9.8.5-4.9 3.1-8.9 6.2-12.7z"></path>  <path fill="#572c1e" d="M152.6 146.1c-1.4 4.6-3.9 8.7-6.1 12.9-2.6.5-1.8 2.5-1.9 4.1.2 2.7 3.5 5.1 1 8.2-.7.3-1.4.4-2.1 0-1.4-.9-1.6-2.6-3.5-3.6-3.1-1.7-.8-4.9 0-7.4.3-.4.7-.4 1.2-.2 3.7.7 2.9-2.9 3.6-4.3 2.5-4.8 6.1-9.8 2-15.6 2.5-.6 4.5-1.5 4.9-4.5.2-1.8 1.9-3 2.8-4.6 1.3-3.1 3.3-5.2 7.7-4.9-7.6 4.9-8.2 12.6-9.6 19.9z"></path>  <path fill="#f0b8a0" d="M145.5 170.9c1.4-2.8-2.9-5-.9-7.8 3.2 2.1 2.5 5.9 3.9 8.8-.6.6-.3 2.3-1.6 2.1-1.5-.3-2-1.6-1.4-3.1z"></path>  <path fill="#e0c6ad" d="M140.4 160c-.3 2.4-.5 4.8-.8 7.2 1.4.2 1.1-2.5 2.2-1.7 1.6 1.2 1.8 3.3 1.5 5.3.1 1.7 1.8 3.3.4 5.2-.7 2.5-2.3 3.2-4.8 3.1-5.4 0-10.3-1.5-14.8-4.5-3-2-5.9-4.1-9.5-5.1-2.1-.9-4.1-1.9-6.5-2.9 2.8-1.4 5.1 1.4 7.5.3 1.7 2.6 4 3.5 7 3 2.7 1.4 5.5-1.1 7.2 0-1.7-.6-4.5.9-7.3.1-.6-10.9-5.2-20-12.8-27.8 3.8.8 5.6 4.3 8.6 6 2.2 2.7 2.4 6.5 5.2 8.7.4 0 .8.1 1.1.1 2.3.5 4.5.8 3.7 4.4-.4 2 1.6 1.3 2.7 1.1.7-.1-.1-1 .1-.4.1.3 0 .3-.3.4-.9.2-1.9.1-2.2-.8-.6-1.7 2.7-8 4.5-8.3 3.3-.6 5.9.4 6.7 4.1.2.9.7 1.6.6 2.5z"></path>  <path d="M143.7 176c1.3-1.8-3-3.2-.4-5.2.7 0 1.5 0 2.2.1.8.8.9 3.9 3 1 .5 1.6-.2 2.8-1.1 3.9-1.3-.8-2.5.1-3.7.2z" class="st20"></path>  <path fill="#9c3c29" d="M132.6 359.5c1.9 11.2 4.7 22.4 5.5 33.7.6 9.1 5.8 15.2 9.9 22.3 1.6 2.7 2.1 5.8 1.7 8.9-6.1-1.9-11.7.7-17.3 2.4-7.9 2.4-9.4 1.9-10.6-6.3-.3-2.3.1-4.6-.8-6.9-.3-.8-.1-1.7 1-1.9 1-.2 1.5.5 1.7 1.4 0 .2 0 .3.1.5.7 3.2.3 7.9 3 8.9 1.9.8 5.8-.9 8.8-1.6 1.8-.4 3.6-.8 5.4-.2 1.6.5 3.2.9 5.6.4-2.8-3-5.3-5.7-7.9-8.2-5.6-5.5-12.3-9.9-16.5-16.7-4.3-6.8-10.4-12.2-14.4-19.3-1.1-1.9-2-3.5-1.2-6 .9-3.1-4.1-3.8-3.6-7.1.1-.7-.6-1.4-1-2.5 1.9.3 2.5 1.4 3 2.5 1.7 3.7 3.8 5.8 8.7 5 5-.7 8 4.3 11.7 6.9 1.2.9 1.8 2.6 3.2 3.8-1.7-5 1-10.8-3.5-15.1 2.4-1.1 2.7 1.7 4.9 1.2l-6-27c1.6.7 1.8 2.2 2.3 3.6 1.6 5.8 3.3 11.8 6.3 17.3z"></path>  <path d="M68.7 153.1c1.4 1.6 3.3.7 5 .9 2.4-.6 5.1-1.9 6.1 2-.7 2.4-1.1 4.9 1 6.9-1.6 3.3-3.4-1.2-5 0-5.7 4.4-7.3 10.7-9.3 17.4-1.9 6.7-2.6 13.4-3.6 20.2-1.7 10.9-1.8 22-2.4 33-.1 1.9-1.6 3.7-1.2 6-1.1-3.3-2.3-6.5-3.4-9.8-.6-1.6 1-1.6 1.7-2.4 1.3-1.4 1.6-2.8-.7-3.6-1.2-1.9-2-3.8-1-6v-1c-.8-2.3 1.1-4.9-1-7.1-1.3.1-1.1 2.7-2.8 1.9-1.2-.5-1.2-1.9-1.3-3-.1-3.3-1.2-6.8 2.3-9.5 1.7-1.3.5-3.7.8-5.8-.4 1.6.2 3-.2 4.5-.7 2.4-3.8 4-5.3 2.8-1.5-1.1-1.5-7.8 0-9.6 2.2-1.4 2.6-3.6 2.6-6 0-4-.6-7.9-.3-11.9.1-1.4.2-3.3 2.2-3.3 1.7 0 1.8 1.6 2.2 2.9 1.7 5.7 3.2 11.4 2.4 17.5-.4 2.8.5 5.8 1.7 8.5 1-3.7 1.6-7.3 1.9-11 .4-6.2.2-12.5 2.3-18.6 1.5-4.3 2.1-8.9 1.7-13.6-.2-2.7 1.2-3.3 3.6-2.3z" class="st52"></path>  <path fill="#c27f52" d="M93.6 166.1c.7 1.6 1.5 3.3 2.1 4.9 2.7 7.2 2.2 8.1-5.4 9.2-1.4.2-3.1-.1-4-1.4-1-1.5.8-1.8 1.4-2.6l2.4-3.6c-2.8-1-8.1 1.9-6.6-4.7.5-3.5 3.9-4.2 6.1-6 1.8-1.4 2.5.3 2.6 2 .2 2-1.6 3-2.3 4.3 1.2-.7 1.5-2.8 3.7-2.1z"></path>  <path fill="#89481e" d="M93.6 166.1c-2.5.9-3.4 4-7 4.8 2.1-3 5.7-4.6 4.2-9-2.5 2-4.9 4-7.3 6-1.2-1.4-1.5-3.1-1.9-4.9 3.2 1.7 5.5-.5 8-2 .9-.6.8-1.2.3-2.1-.5-.9-3.3-1-1.2-2.6 1.5-1.1 3.1-.2 4 1.6-.6 2.9 1.8 5.4.9 8.2z"></path>  <path d="M69.7 278.7c.8-2-1.6-4 0-6 2.3 3.9 5.7 7.3 4.1 12.6-.6 2.1-.4 4.4 1.9 6.2 2.7 2.1-1.6 3.9-.7 6.3 1.8 1.6 2.3-3.2 4.3-1 1 1.1 2.3 2.4 1.9 3.8-.4 1.6-1.9 2-3.6 1.5-.9-.3-1.9-.3-2.9-.5-1.5-.5-2-1.7-2.1-3.1-.4-6.6-2.9-13-2.9-19.8z" class="st46"></path>  <path d="M69.7 278.7c2.5 5.5 2.5 11.5 3.9 17.2.4 1.9 0 4 1.1 5.8 0 1.4 0 2.9-2 3-1.5-1.7-1.7-4-1.9-6-.3-5.4-1.8-10.6-2.5-16-.1-1.4.2-2.9 1.4-4z" class="st0"></path>  <path d="M67.7 242.8c-1.6-5-1.6-10 0-15v15z" class="st46"></path>  <path fill="#9a3b28" d="M48.8 191.9c-1.4 0-1.7.7-1.1 1.9.4.9 1.5 1.9 1.3 2.5-.5 1.5-1.6 3.6.4 3.7 2 .1 4-1.5 3.2-4.7-.5-1.8.2-3.8 1.1-5.7 1.1 3.1 2.3 7 .2 9.2-3.6 3.9-1.6 8-1.7 12.1.7-1.5 1.4-3 2.4-5.2 1.7 4 4.1 7.3 1.1 11.2-2.7 1.2-6 1.2-8 4-.3 1.3-.1 2.9-2.1 3-5.2-17.7-6.6-35.7-5.6-53.9.4-6.7 2.5-13.3 3.8-19.9 1.4 0 2 .8 2 2.1.6 1.1.2 2.6 1.2 3.6 2.9 2.9.7 6.3.6 9.3-.1 4.9-1.6 9.8 1.9 14.3.2.3 0 .9-.2 1.4-.7 1.1-1.7.6-2.6.5.4 1.1 1.7.8 2.3 1.6 2.9 3 1.6 6-.2 9zm7.9 31.9c.8.1 1.4-2.4 1.9-.6.5 1.4 2.3 3.6 0 5-.9.5-2.2.5-2.9 1.6-2.5-2.4.1-4.1 1-6zm-1-6c.3 2 .7 4 1 6-2.3-1.6-4.8-3.3-1-6z"></path>  <path d="M66.7 419.4c-5.5-2.6-2.7-8.1-3.8-12.1-.9-3-.2-6.5-.2-9.8 1.4-12.7.3-25.4-2.8-37.6-1.6-6.1-1.3-12.3-2.9-18.2-.7-2.4 1.2-4.3.9-7.7 4.5 4.6 4.9 9.4 5.8 14 .6 2.8 1.3 5.6 5 5.6v1c-.3 2.6 1.1 4.7 2 7 3.3 10.7 6.5 21.4 9.9 32 2.1 6.8 4.9 13.3 8.5 19.6 3.8 6.6 7.1 13.5 10.6 20.2-5.5-.5-7.7-4.9-9.6-8.9-2.3-4.6-3.8-9.7-5.4-14.7-1.4-4.4-6.1-3.2-8.7-5.6-.9-.8-2.4 6.2-.9 8.8-2.1 1.5-3.7-2.9-6.2-.3-2 2-2.3 4.2-2.2 6.7z" class="st109"></path>  <path d="M70.7 361.5c-1.4-2.1-4-3.9-2-7 1.4 2.2 1.8 4.6 2 7z" class="st49"></path>  <path d="M82.3 411.9c-.5 1-1.2 2-2.5 2.1-1 .1-1.4-.9-1.4-1.7-.1-1.6 1.2-1.8 2.3-1.8.9-.1 1.6.2 1.6 1.4z" class="st109"></path>  <path fill="#c08953" d="M84.7 91.1c-2.7 3.9-1 5.6 3 6.1-.3 1-.7 2-1 3-2.8-.2-5-2.6-7.7-1.7.9.4 2.3-.2 3.5.4 1.5.7 2.9 1.3 3.2 3.4.2 1.4-1.9 2.7 0 3.9.7 2 2.7 3.6 2.1 6-2.9 1.4-5.3-1.3-7.9-.8 2.8.5 5.9.6 6.9 4.4 1 3.5-.3 5.9-3.1 7.7 1.3-.2 2.3-3.3 4-.4.5 1.8.4 3.5-.9 5-.8.2-1.3 1.1-1 1.7 1.2 2.5-1.1 3.5-2.2 5-.4.3-.8.5-1.2.6-2-1.2-3.9-2.5-3.5-5.3-1.8-3.4-2.1-6.6 1.6-9.1.9-.6 1.5-1.4 1-2.5-.4-.9-1.4-.6-2.2-.7-5.4-.8-7.1-4.3-3.9-8.5 1.5-1.9 1.6-4.8 4.4-5.8.6-.2 0-.9.3-.3 0 0-.1.1-.3.2-1.5.6-3 1.7-4.7.7-2.7-1.6-6.5-2.4-5.2-7 1.6-2.5 4-4.3 5.8-6.4-1.9 1.7-3.5 4-5.8 5.4-1.1-3.4 1.6-5.5 3-8 .4-.9 1.3-1.2 2.4-2-2.6 1-4.5 1.6-6.4-.2-.7-.3-1.3-.6-2-1-1.4-2.2-2.4-4.7-.4-6.8 1.9-2 3.7-4.8 7.7-3.4 2.8 1 5-.7 5.9-3.8.3-.3.7-.4 1.2-.4 2 .9-1 3.6 1.5 4.3-.1 2.3.2 4.5 1.6 6.6 1.8 3.2 2.1 6.5.3 9.7z"></path>  <path fill="#8b4824" d="M69.8 97.1c2.1 6.5 3.8 7 14.5 4.2-3.7 2.1-5.7 4.6-7.6 7.2-1.6 2.2-2.9 4.2-1.2 6.7 2 2.9 4.3 1.3 6.5-.2 1.2 3.5 2.1 6-2.2 8-2.8 1.2-.5 4.7-1 7.1-3.5-2.6-.4-7.5-2.1-9.2-2.3-2.4-4.8-5.4-3.7-7.6 2.9-5.8 1.7-9.2-3.6-12.3-1.2-.7-1.1-2.7.4-3.9zm9 33c1.3 1.6 2.6 3.3 3.9 4.9.3 2.9-1.8 3.9-3.9 4.9-1.5 1.1-.8-.4-1.1-.9 1-1.7 3-3.1.1-5.2-1.9-1.3-.2-2.6 1-3.7z"></path>  <path fill="#7d4218" d="M68.7 86.1c2.9.6 5.7.3 8.3-1.7-.8 2.2-2.1 3.6-4.3 3.9-1.4-.7-4.1 1.1-4-2.2z"></path>  <path fill="#7f4214" d="M69.7 96.2c1.7-3 5.1-4.6 6.9-7.6-.6 4.2-4.1 6.2-6.9 8.7v-1.1z"></path>  <path fill="#3b281f" d="M40 19.3c-1.4 6.8-5.7 12.5-7.5 19.2-.4 1.3-.6 2.5-.5 3.8-.7 1.1-1.3 2.2-3.1 2.2v-4.3c0-.7.1-1.3.1-2-.3-2.3.1-4.3 1.7-6.1 1.4-5.3 4.3-9.9 9.3-12.8z"></path>  <path d="M30.6 32.2c-.4 2.1-.4 4.2-1.7 6.1-1.8-2.7-1.8-4.9 1.7-6.1z" class="st58"></path>  <path fill="#bf904e" d="M70.7 46.3c1.3-1.2 4.2 1.2 4.7-2.1-1.2-.9-2.8 1-4.3-.9C82.7 42.2 86.5 32.2 93 25.2c.1-.1.3 0 .5 0 .1.1.2.2.3.4 1.2 2.4-.7 3.7-2 5-2.4 2.5-3.7 5.3-3.1 9 .7 3.5-2.3 6.9 0 10.6.9 1.4-.9 1.8-2.1 1.3-1.7-.6-2.3-2.3-3.1-3.7-.6-.3-.9.2-1.2.6-1.3 2.9.2 4.4 2.7 5.4 2.6 1 5.8 1.5 5.2 5.4-.4 2.5-5.2 5.1-8.4 4.8-2-.2-3.9-.7-5.5-2.1-.1-.2-.2-.4-.4-.6 2.7-2.4 5.7 1.6 8.8-.8-2.4-3.5-6.9-2-9.9-3.9-4.3-2.7-2.6-7-4.1-10.3z"></path>  <path fill="#bf8355" d="M80.6 71.2h-.7c-3.1.6-6.2 3.7-9.3-.5-3-4.1-2.4-6.7 2.4-8.4.9-.3 1.8-.8 2.7-1.2h-.1c1.1 1 2.6 1.4 3.7 2.3.7.6.9 1.4.5 2.2-.3.7-1 .7-1.7.6-2.5-.3.6.4-.1.4 1.6 1.8-.5 1.7-1.2 2.4 1.4-.3 2.8-1.3 4 .4.6.7.4 1.3-.2 1.8z"></path>  <path fill="#b08e69" d="M63.7 58c1.4-2.2 1.4-5.5 4.9-5.8.4 2.1 3.2 3.4 2.1 6.1-2.3-.2-4.7-.2-7-.3z"></path>  <path fill="#b97c4d" d="M78.8 139.9c1.3-1.6 2.6-3.3 3.9-4.9 3.5-2.4 3.8-2.2 6 3.1.9 2 1.9 4 0 6-2-1.4-4.4-1.3-6.5-1.1-2.8.2-2.8-1.6-3.4-3.1z"></path>  <path fill="#964d26" d="M88.6 138.1c-.7-.4-2.4.4-2.2-1 .7-4.5-1.8-2.7-3.8-2.1-.1-1.3.6-2.1 1.6-2.8 2-1.5 1.2-2.4-.7-2.8-1-.2-3 1.5-2.6-1.2.3-1.8 1.8-.5 2.8-.4 1 .1 2 .2 3 .2 2.1 2.3 2.1 2.3 5.7-.7-.1 4.3-2.1 7.5-3.8 10.8zm-.9-15c-2.5-1.3-3.7 2.7-6.3 1.7 1.3-1.2 2.4-2.3 3.5-3.4 2-2 1.7-4.3.5-6.4-1.1-2-3.1-3.1-5.4-2.4-1.3.3-2.6 1-3.4-.6-.2-.3 0-1 .3-1.3 1-.9 2.2-.6 3.3-.3 2.6.6 5.1 1.2 7.7 1.8 1.3 2.2-.8 5.1 2 7.2.9.7-.7 2.9-2.2 3.7z"></path>  <path fill="#874e1f" d="M85.7 106.2c-.6.5-1.2 1-2.2 1.9-.2-3 3.6-6.1-.6-8.3-2.7-1.4-5.9.2-8.5-1.8 4.3-.8 8.4-.1 12.3 2.3.4 2.1-.8 3.9-1 5.9z"></path>  <path d="M80.6 71.2c-.3-2.3-1.6-2.1-3.2-1.4-1.3.6-2.5 1.8-4.1.9-.3-3.7 2.8-2.6 4.7-2.8-1.1-2.2-4.6-.8-4.9-4.1 2.3-.3 3.7 2.6 6.2 1.3-.3-1.9-3.2-1.9-3.6-3.9 2.8.7 5.3 2 8.5 1.4 2.8-.6 4.8-2.1 5.1-4.3.3-2.2-2.2-2.7-4.3-3.2-4.7-1.2-5.7-3.7-3.2-7.8 1.2.8.7 2.4 1.5 3.8-.3-2.2-1.2-4.1.5-5.7 1.5 1.7.3 5.2 3.6 5.7-.8-8-1.6-16 4.8-22.5.8-.8 1.6-1.7 1.6-2.9 1.1-.2 2.2-.6 2.8.8-.1 2.2-1.9 3.4-2.9 5-7.2 3-.8 10-4.1 14.3-.3.4 3.3 1.8 5.1 2.7 1.1 2.2 2.1 4.2-.9 5.8-3.3 1.8-1.4 4.6-1.1 7.1-.7.7-1.5.5-2.3.1-.2.2-.4.5-.7.6-5.8 2.5-8.6 6.7-7 13.2-1.1.3-2.1.6-3.4.9-.3-2 3-2.9 1.3-5z" class="st59"></path>  <path d="M114.6 37.5c-.3-1.1-.7-2.1-1-3.2 2.7 2.2 5.4 4.2 8.8 5 2.2.5 3.4 1.9 3.8 4.1.4 2.4-2 2.1-3.2 3.1-1 .9-1.9 1.7-3.1 2.8-1-2.8.3-3.6 2.5-4 1.3-.2 2.2-.8 2.2-2.2-.1-1.5-1.2-1.7-2.4-1.9-2.9-.7-5.3-2.2-7.6-3.7z" class="st121"></path>  <path fill="#6c3f2b" d="M90.4 61.3c.8 0 1.5-.1 2.3-.1.8.3 2 .9 2.2.7 4.2-5 4.9.8 7 2.2.1.4.1.8.2 1.1-1.7-.2-2.9-1.4-5-1-2.6.7-5.4 0-6.7-2.9z"></path>  <path fill="#6c4536" d="M107.6 41.3c.3.2.6.3.9.5 1.7 1.7 1.3 3.4-.8 3.5-2.5.1-2.1 1.7-2.7 3.6-1.8-4-.2-6.1 2.6-7.6z"></path>  <path d="M113.6 34.3c-4.2-3.8-1.2-7 1-10.2.3 3.5-2.6 6.7-1 10.2z" class="st121"></path>  <path fill="#745143" d="M98.7 45.2c.5-3.6 1.8-6.2 6.1-5.9-2.8 1.2-4.3 3.7-6.1 5.9z"></path>  <path fill="#dcbb91" d="M93.5 31.3c.5-2 1.2-3.8 2.9-5 2.9-1.4 4.6-3.9 6.5-6.4 1-1.2 2.6-2.6 4.6-2.6 1.9 3.4-2.5 4.6-2.6 7.6-.1 2.5-1.9 5.6-6.2 3.4-.8-.5-3.4 1.9-5.2 3z"></path>  <path fill="#6b4739" d="M140.4 160c-1.4-.5-1.4-1.7-1.5-2.9-.3-2.6-2.7-2.1-4.2-2.7-1.7-.6-2.6.5-3.2 2.2-.6 1.8-1.6 3.4-2.4 5.1 1.7.9 2.2-1.1 3.8-1.3-.6 3.2-2.2 4.3-4.9 3.4-3-1-.3-2.2-.1-3.2.8-2.9-3.5-1.1-3.2-3.5 3.8-2.4 7.2-5.6 11.8-6.5 3.5 2.2 4.5 5.6 4.8 9.4h-.9z"></path>  <path fill="#3e241a" d="M131.6 131.1c4 1.3 7.9 2.7 11.9 4 1.4 1.3 4.1 1.7 3 4.6-7.6-5.1-16.1-7.4-25-8.8 3.4-1.9 6.7-.9 10.1.2z"></path>  <path fill="#6e4b3e" d="M124.6 155.8c1.6-3.5-.1-13.4-2.8-16.1-1.7-1.7-4-2.8-4.3-5.6 7.2 3.9 9.8 10.5 9.5 18.7 2.5-1 3.5-2.9 5.5-2.7-1.4 3.5-3.4 6.3-7.9 5.7z"></path>  <path fill="#804a3d" d="M146.5 139.7c.1-2.2-2.2-2.9-3-4.6 5.8 4.5 7.7-1.8 11.1-4-1.2 3.5-2.4 7-3.7 10.6-1.4-.5-2.6-1.1-3.9-1.6l-.3-.1-.2-.3z"></path>  <path fill="#eac9b3" d="M124.6 155.8c3.8-.4 5.6-3.4 7.9-5.8 1.3.1 2.7-.5 3.9.5v1.5c-4.9-.6-6.9 5.7-11.8 5v-1.2z"></path>  <path d="M79.7 156c-1.5-2.3-4-1.5-6.1-2 1-3.8 4.3-.5 6.1-2 .1 1.3 2.5 2.7 0 4z" class="st131"></path>  <path d="M48.8 191.9c0-3 2.4-6.3-1-8.9-.5-.9 0-1.3.7-1.7-.1-1 .2-2.6-.2-2.8-6.2-2.5-1.7-7.5-2-11-.2-2.7-.7-6.4 1.2-9.3.5-.8-1.3-1.3-1.8-2.1.5-1.1 1.4-1.4 2.6-1.2 3.7-3.4 8.3-1.3 12.4-2 1.6.8 3.8.4 5 2.2.8 2.3-.3 5.3 0 6.8 1.5 6.1-3.1 10.6-2.9 16.6.2 6.5-.2 13.5-1.6 20.1-.2 1-.1 2.7-1.6 2.7-1.5.1-2.7-1.3-2.6-2.5.3-3.8-2.1-7.3-.7-11.2 1.1-3.2-.2-6.6-1-9.7-.6-2.4-1.4-4.9-2.1-8.1-2.3 3.2-1.4 6.1-1.2 8.8.3 4.3.6 8.6-1.2 12.8-.6 1.3-1.3.7-2 .5z" class="st46"></path>  <path d="M65.7 155.2c-1.8-.5-4.1.4-5-2.2 2.7-1.2 5.4-3.5 8 .1-1 .6-3.2-.3-3 2.1z" class="st131"></path>  <path fill="#e3a58b" d="M48.4 154.9c-.7.7-1.4 1.5-2.6 1.2-1.5-1.3-.9-2.7 0-4 .7-.1 1.3-.1 2-.2.2 1 1 1.9.6 3z"></path>  <path fill="#e4bca5" d="M47.7 152c.6-1.4-2.4-2.8.1-4.1 1.4.8 2.7 2 2.4 3.6-.1 1-1.6.4-2.5.5z"></path>  <path fill="#67483c" d="M122.6 170c3.7-1.1 7.4-1.7 12 1.5-4.7-.7-8.3-1-11.8.2-1.1.4-.2-1.1-.2-1.7.1 0 0 0 0 0z"></path>  <path fill="#613d30" d="M135.2 164.4c-1.9-2.1-1.1-4.4-1.7-7.5 3.4 2.7 1.2 5.3 1.7 7.5z"></path>  <path fill="#8e4b20" d="M95.5 174.6c-.1.9-.6 1.8-1.4 1.7-1.5-.2-1.4-1.6-1.4-2.7 0-.9.3-1.7 1.4-1.3 1 .4 1.5 1.2 1.4 2.3z"></path>  <path fill="#e0886d" d="M48.5 181.3c-.2.6-.5 1.1-.7 1.7-1.3-.1-2.8-.2-2.8-2 0-.6.5-1.4 1-1.7 2-.9.9 2.3 2.5 2z"></path>  <path d="M66.5 363.4c-4.3-2.9-1.9-7.4-3.3-11.1 2.2 3.5.7 7.9 3.3 11.1z" class="st49"></path>  <path fill="#7b4614" d="M68.1 82.5c4.9-2.7 9.2-3.7 13.1-.8 3.1 2.4 1.9 5.8.2 10-.4-4.1 2.2-7.7-2.5-9.8-3.6-1.6-6.5 1.6-10.8.6z"></path>  <path fill="#c4905c" d="M83.7 45.3c-.4 2.9.2 5.5 3 7.7-5.6.8-5.1-2.6-5-5.7 0-1.4.7-2 2-2z"></path></svg>