<svg xmlns="http://www.w3.org/2000/svg" xml:space="preserve" viewBox="0 0 405 55.9">  <style>    .st0{fill:#4d89b4}.st1{fill:#a9c1a3}.st2{fill:#febd64}.st3{fill:#333}  </style>  <path d="m365.8 35.9 6.8.1s6.6.4 10.6-2c1.6-.8 5.6-2.7 4.3-6.3-.4-1.2-1.6-2.7-3.6-2.4-1.4.7-1.9.3-3.2 4.4-1 .6-2.8 2-3.6 2.2-.8.2-4.6 1.7-7 2.1-2.5.5-3.6.9-4 1.3-.3.4-.3.6-.3.6z" class="st0"></path>  <path d="m382.8 39.2-6.8-2.3s-6.5-.7-8.4-.2c-1.9.5-4.6.9-4.6.9s0-.4.4-.6c.4-.2 2.4-1.1 2.4-1.1l.1-.4-1.5.6.1-.6s2.2-1.1 2.4-4.7h.1s4.1-1.8 5.2-3.6c1-1.8 1-4.7-1.4-6.8-1.4-1.1-3.4-2.4-7-1.5-2.8.6-8 1.8-8.8 5.3-.1 2.1-.2 5 3.1 5.9 2.6.3 3 .1 3 .1s.7 2.8 1.7 4c.9 1.2 1 1.5 1 1.5l-.4.8s-2.2 1.9-2.9 2.2c-.7.2-1.6.6-1.6.6s-6.1 3-7.9 5.4c-1.5 2-3.3 4.6-3.2 7.5 0 .6.1.9.1 1.1.1.2.1.4.2.5.1.1.1.1.1.2.3.8.7 1.5 1.2 2.2 0-.1-.1-.2-.1-.4-.4-1.5-1-3 .4-6.9.9-1.7 2.3-4.7 7.4-7.2.2 0 .3.9.3.9 0 .1.3 4.1.3 4.2 0 .1.6 2.8 2.8 4.3 1.7 1.1 4.4 2.2 7.1.1 1.8-1.5 3.6-3.6 2.6-6-1.3-2.4-2.5-3.5-4.7-3.1-1.3.5-2.7 1.1-2.5 3.1.2 1 .8 2.2 2.6 1.5-.8-.3-1.6-1-1.4-1.8.2-.9 1.4-1.9 3.3-.8.8.4 1.9 1.4 1.2 3.3-.4 1.1-2 3.2-4.3 3.4-.9 0-3.2.3-4.8-3.8-.5-1.5-.7-2.9-.7-2.9s-.3-1.9-1-2.7c.9-.3 7.5-3.5 12.5-3.1 3.8.1 7.8.5 12.7 2.7 1.8 1.1 3.9 2.2 4.8 5.4.2 1.3 0 3.5-1.1 4.6-1.1 1.1-3.1 2.6-5.3 1.3-2.1-1.2-1.8-3.5-1.8-3.5s.3-2 1.3-2.2c.6-.2 1.7.1 1.8 1.7 0 1.7-.4 2.2-.4 2.2s0 .9.5.4c.5-.6 2-2.7.3-4.7s-3-.9-3.8.2c-.8 1.2-1.4 2.8-.1 5.3 1.3 2.4 4.7 1.9 5.1 1.8.4-.1 3.5-.7 4.8-5.2 1.2-4.8-6.4-9.1-6.4-9.1z" class="st1"></path>  <path d="M367.6 18.6s-.8-3.8-.8-4.5c-.1-.7-.4-4.9.1-6.1.4-1.3.5-3.8 1.8-5 1.4-.6 4.1-1.4 4.4 1.5-.3 1.7-1.2 3.5-1.2 3.5s2.1-.7 3-2.8c.2-1.6-.6-4-2.4-4.6-1-.3-3.2-1.1-7.5 2.9-1.8 1.9-4.6 5.3-4.9 9.5-.5 2.8-.6 6.5-.5 6.9.4-.1.5-.1.5-.1l2.8-.7c-.1-.2 3.2-.8 4.7-.5zm37.3 22.2c-1.3 1.9-3.9 3.6-6.3 3.5-1-.1-1.8-.5-2.4-1.3-.4-.5-.5-1.3-1.3-1.2-.4.1-.7.2-1.1.2-.9-.1-1.3-.9-1.6-1.7-.3-.9-.7-1.9-1.9-1.3-.4.2-.7.4-1 .5-.8.2-1.4-.3-2-.9-.3-.3-.6-.7-.8-1-.2-.2-.3-.6-.5-.8-.5-.5-1.1-.3-1.5.1-.3.4-.3.8 0 1.1.4.2.6.1.6-.3-.1-.6.7-.7.8-.2.3 1.7-2.4 1.7-2.4 0 0-.9.7-1.6 1.5-1.8 1.1-.3 1.4.6 1.9 1.3.4.6.9 1.3 1.5 1.7.6.4 1.2-.1 1.7-.4.8-.4 1.5-.3 2 .4.3.4.4.9.5 1.3.1.5.3.8.8 1.1.5.2.6.1 1-.1.7-.3 1.4-.3 1.8.4.5.8.7 1.6 1.7 1.9.7.3 1.6.1 2.3-.1 1.7-.5 3.1-1.6 4.3-2.9.3 0 .6.3.4.5zm-37.8-14.7c-.7-1.4-2.2-2.4-3.8-2.5-1.6 0-3.2.9-3.9 2.3-.2-.7.1-1.4.5-1.9s1-.9 1.6-1.2c2.6-1.3 5.8-1.3 8.5-.1.8.4 1.5.9 2 1.6.8 1.4.2 3.2-1 4.3-.5.5-4 2.7-4 1.5 0-.6.5-1.4.6-2-.1-.7-.2-1.4-.5-2z" class="st2"></path>  <path d="m39.3 35.9-6.8.1s-6.6.4-10.6-2c-1.6-.8-5.6-2.7-4.3-6.3.4-1.2 1.6-2.7 3.6-2.4 1.4.7 1.9.3 3.2 4.4 1 .6 2.8 2 3.6 2.2.8.2 4.6 1.7 7 2.1 2.5.5 3.6.9 4 1.3.3.4.3.6.3.6z" class="st0"></path>  <path d="m22.2 39.2 6.8-2.3s6.5-.7 8.4-.2c1.9.5 4.6.9 4.6.9s0-.4-.4-.6c-.4-.2-2.4-1.1-2.4-1.1l-.1-.4 1.5.6-.1-.6s-2.2-1.1-2.4-4.7H38s-4.1-1.8-5.2-3.6c-1-1.8-1-4.7 1.4-6.8 1.4-1.1 3.4-2.4 7-1.5 2.8.6 8 1.8 8.8 5.3.1 2.1.2 5-3.1 5.9-2.6.3-3 .1-3 .1s-.7 2.8-1.7 4c-.9 1.2-1 1.5-1 1.5l.4.8s2.2 1.9 2.9 2.2c.7.2 1.6.6 1.6.6s6.1 3 7.9 5.4c1.5 2 3.3 4.6 3.2 7.5 0 .6-.1.9-.1 1.1-.1.2-.1.4-.2.5-.1.1-.1.1-.1.2-.3.8-.7 1.5-1.2 2.2 0-.1.1-.2.1-.4.4-1.5 1-3-.4-6.9-.9-1.7-2.3-4.7-7.4-7.2-.2 0-.3.9-.3.9 0 .1-.3 4.1-.3 4.2 0 .1-.6 2.8-2.8 4.3-1.7 1.1-4.4 2.2-7.1.1-1.8-1.5-3.6-3.6-2.6-6 1.3-2.4 2.5-3.5 4.7-3.1 1.3.5 2.7 1.1 2.5 3.1-.2 1-.8 2.2-2.6 1.5.8-.3 1.6-1 1.4-1.8-.2-.9-1.4-1.9-3.3-.8-.8.4-1.9 1.4-1.2 3.3.4 1.1 2 3.2 4.3 3.4.9 0 3.2.3 4.8-3.8.5-1.5.7-2.9.7-2.9s.3-1.9 1-2.7c-.9-.3-7.5-3.5-12.5-3.1-3.8.1-7.8.5-12.7 2.7-1.8 1.1-3.9 2.2-4.8 5.4-.2 1.3 0 3.5 1.1 4.6 1.1 1.1 3.1 2.6 5.3 1.3 2.1-1.2 1.8-3.5 1.8-3.5s-.3-2-1.3-2.2c-.6-.2-1.7.1-1.8 1.7 0 1.7.4 2.2.4 2.2s0 .9-.5.4c-.5-.6-2-2.7-.3-4.7s3-.9 3.8.2c.8 1.2 1.4 2.8.1 5.3-1.3 2.4-4.7 1.9-5.1 1.8-.4-.1-3.5-.7-4.8-5.2-1.1-4.8 6.4-9.1 6.4-9.1z" class="st1"></path>  <path d="M37.5 18.6s.8-3.8.8-4.5c.1-.7.4-4.9-.1-6.1-.4-1.3-.5-3.8-1.8-5-1.4-.6-4.1-1.4-4.4 1.5.3 1.6 1.2 3.5 1.2 3.5s-2.1-.7-3-2.8c-.2-1.6.6-4 2.4-4.6 1-.3 3.2-1.1 7.5 2.9 1.8 1.9 4.6 5.3 4.9 9.5.5 2.8.6 6.5.5 6.9-.4-.1-.5-.1-.5-.1l-2.8-.7c.1-.2-3.2-.8-4.7-.5zM.2 40.8c1.3 1.9 3.9 3.6 6.3 3.5 1-.1 1.8-.5 2.4-1.3.4-.5.5-1.3 1.3-1.2.4.1.7.2 1.1.2.9-.1 1.3-.9 1.6-1.7.3-.9.7-1.9 1.9-1.3.4.2.7.4 1 .5.8.2 1.4-.3 2-.9.3-.3.6-.7.8-1 .2-.2.3-.6.5-.8.5-.5 1.1-.3 1.5.1.3.4.3.8 0 1.1-.4.2-.6.1-.6-.3.1-.6-.7-.7-.8-.2-.3 1.7 2.4 1.7 2.4 0 0-.9-.7-1.6-1.5-1.8-1.1-.3-1.4.6-1.9 1.3-.4.6-.9 1.3-1.5 1.7-.6.4-1.2-.1-1.7-.4-.8-.4-1.5-.3-2 .4-.3.4-.4.9-.5 1.3-.1.5-.3.8-.8 1.1-.5.2-.6.1-1-.1-.7-.3-1.4-.3-1.8.4-.5.8-.7 1.6-1.7 1.9-.7.3-1.6.1-2.3-.1-1.7-.5-3.1-1.6-4.3-2.9-.3 0-.6.3-.4.5zM38 26.1c.7-1.4 2.2-2.4 3.8-2.5 1.6 0 3.2.9 3.9 2.3.2-.7-.1-1.4-.5-1.9s-1-.9-1.6-1.2c-2.6-1.3-5.8-1.3-8.5-.1-.8.4-1.5.9-2 1.6-.8 1.4-.2 3.2 1 4.3.5.5 4 2.7 4 1.5 0-.6-.5-1.4-.6-2 0-.7.2-1.4.5-2z" class="st2"></path>  <path d="M350.9 42.3c-12.4-.3-24.8-.5-37.2-.7l-9.3-.2-9.3-.1c-3.1-.1-6.2 0-9.3 0-1.5 0-3.1-.1-4.6-.1h-4.7c-3.1.1-6.2.2-9.3.1-3.1-.1-6.2.1-9.3.2h-18.7c-3.1 0-6.2.2-9.3.1-3.1 0-6.2-.1-9.3 0-3.1 0-6.2-.4-9.3-.3l-4.6.1c-1.5 0-3.1-.1-4.6-.1l-74.4-.6-18.7-.2H90.4c-3.1.1-6.2 0-9.3 0-3.1 0-6.2.1-9.3.2-1.6 0-3.1-.1-4.6 0h-4.7c-1.6 0-3.1 0-4.7.1-1.5.1-3.1.2-4.6-.1v.1c1.5.3 3.1.2 4.7.1 1.5-.1 3.1 0 4.6 0h4.6c1.5 0 3.1.1 4.7.1 3.1 0 6.2-.1 9.3-.1 3.1 0 6.2.1 9.3 0 12.4.2 24.8.2 37.2.3 6.2 0 12.4 0 18.6.1 6.2.2 12.4.2 18.6.2 3.1 0 6.2 0 9.3.1.8 0 1.6.1 2.4 0 .8 0 1.5-.1 2.3-.1h4.7c3.1 0 6.2 0 9.3-.1h9.3c1.5 0 3.1.1 4.7.1l4.7-.1c3.1-.1 6.2.3 9.3.3 3.1-.1 6.2 0 9.3 0h4.7c1.6 0 3.1-.1 4.6 0l4.7.1h4.7c3.1 0 6.2.1 9.3.1 3.1 0 6.2-.2 9.3-.1 3.1 0 6.2 0 9.3-.1h4.6c1.5 0 3.1.1 4.7.1 3.1 0 6.2-.1 9.3 0h9.3l9.3.1c12.2.3 24.6.4 37 .4z" class="st3"></path>  <path d="M52.5 44.9c-.7-.7-1.4-1.4-2.2-2-.8-.6-1.6-1.1-2.6-1.6l-.2-.1-.1.2c-.5 1.8-.4 3.7-.6 5.5-.3 1.7-1.6 3.2-3.1 4.1-.8.5-1.6.8-2.5.9-.8.1-1.7-.1-2.6-.4-1.6-.6-3-2-3.8-3.5-.4-.5-.4-1.3-.3-2 .1-.7.4-1.4.8-2 .8-1.2 2.1-2.1 3.5-1.8.7.1 1.4.4 1.9.8.5.5.7 1.1.7 1.8 0 .3-.1.7-.2.9-.1.3-.4.5-.7.6-.2.1-.4.1-.6.1.4-.2.6-.5.8-.9.1-.5.1-1.1-.3-1.6-.3-.5-1-.7-1.5-.7s-1 .1-1.5.2c-.5.2-.9.4-1.3.7-.4.5-.7 1.2-.7 1.9s.3 1.3.6 1.9c.7 1.1 1.7 2 2.8 2.6 1.1.4 2.4.5 3.5 0s1.9-1.5 2.4-2.6.8-2.2 1-3.3c.1-.6.2-1.1.3-1.7.2-.5.5-1 .7-1.5l.1-.1.2-.3c-2.8-1.3-5.8-2.4-8.9-2.9-3.1-.6-6.3-.5-9.3.1-3 .6-6.2 1.3-8.8 3.1-1.3.9-2.4 2.1-3 3.6-.6 1.5-.5 3.2.1 4.7.6 1 1.5 1.9 2.7 2.4 1.1.5 2.5.5 3.6 0 .1-.1.3-.1.4-.2.2-.1.3-.2.4-.3.2-.2.4-.5.6-.7.3-.5.6-1.1.7-1.7.1-.6 0-1.3-.2-1.9-.3-.6-.6-1.1-1.2-1.5h-.2c-.5 0-1 .1-1.4.4-.4.4-.6.9-.6 1.3-.1.9.1 1.8.3 2.6v.1c-.3-.3-.5-.6-.6-.9-.3-.7-.3-1.5-.1-2.2.2-.7.6-1.4 1.3-1.8.6-.4 1.3-.3 1.9.2.6.5 1 1.1 1.3 1.8.2.7.3 1.5.1 2.2-.2.7-.5 1.5-1 2.1-.4.5-1.2.8-1.9 1-1.5.4-3.1 0-4.4-1-.6-.5-1.2-1.1-1.6-1.8-.5-.7-.8-1.4-.9-2.1-.2-1.5.4-3.1 1.4-4.3 1-1.3 2.2-2.4 3.5-3.3 3.2-1.7 6.7-2.8 10.3-3.2 3.6-.4 7.3 0 10.8 1l.6.2-.3-.5c-.2-.3-.4-.5-.7-.8-.3-.2-.5-.4-.8-.5H41h.1l-.4-.2-.1-.2h.3l.1-.1c0 .1.1.2.1.3.2.3.4.5.6.7.4.4.9.8 1.4 1.2.5.4 1 .7 1.6.9.6.2 1.1.4 1.7.6 2.2.9 4.1 2.3 6 3.8v-.1c-1.9-1.5-3.8-2.9-6-3.9-.5-.2-1.1-.5-1.7-.7-.5-.2-1-.6-1.5-.9-.5-.4-.9-.8-1.3-1.2-.2-.2-.4-.4-.5-.6-.1-.2-.1-.5 0-.6l-.1-.1c.6-.6 1.1-1.3 1.5-2 .5-.9 1-1.9 1.1-3 .8.2 1.6.3 2.5.1.9-.1 1.8-.5 2.5-1.1.7-.7 1.1-1.6 1.3-2.5.2-.9.2-1.9-.1-2.8-.3-.9-.9-1.7-1.6-2.4-.7-.6-1.5-1.1-2.3-1.5-.2-.1-.5-.2-.7-.3.2-1.9.2-3.8-.1-5.7-.2-2-.8-3.9-1.5-5.7-.8-1.8-2-3.5-3.4-4.9C39.1 1.9 37.2 1 35.4.2 34.2-.1 33 0 32 .6c-.5.3-.9.8-1.2 1.3-.2.2-.3.5-.4.8l-.3.8c-.2.5-.1 1.1 0 1.5.2.5.4.9.7 1.3.6.8 1.4 1.4 2.3 1.9l.5.3-.1-.5c-.2-.6-.4-1.1-.6-1.7-.2-.5-.3-1.1-.4-1.6-.1-.5 0-1 .3-1.4.3-.4.7-.6 1.2-.7.8 0 1.7.3 2.5.6.5 1.1.8 2.2 1 3.3.3 1.3.4 2.6.6 4 .1.7.1 1.4 0 2-.1.7-.3 1.3-.4 2-.2 1.3-.4 2.6-.5 4-.6.1-1.2.3-1.7.5-1.6.7-3.1 2.1-3.7 3.9-.3.9-.4 1.9-.1 2.8.2.9.8 1.7 1.5 2.4 1.2 1.2 2.8 2 4.3 2.5.1 1 .3 2.1.8 3 .2.5.6.9 1 1.3.2.2.5.3.7.4v.3l-1.4-.5-.4-.1c-.7-.4-1.5-.6-2.3-.9l-3.2-.9c-2.1-.6-4.1-1.4-6-2.4-.9-.5-1.9-1.1-2.3-1.9-.2-.4-.3-.9-.5-1.5s-.5-1.1-.9-1.6c-.9-.9-2.1-1.3-3.3-1-1.2.3-2.1 1.3-2.4 2.4-.2.6-.3 1.2-.3 1.8 0 .6.2 1.1.4 1.6.5 1 1.4 1.7 2.3 2.4.9.6 1.9 1.2 2.9 1.6 1 .5 2 .9 3.1 1.1 2 .4 4.1.5 6.2.5-.3 0-.5 0-.8.1-3.7.3-7.3 1.5-10.6 3.2-1.4 1-2.7 2.1-3.7 3.5-1 1.3-1.8 3.1-1.6 4.9.2.9.5 1.7 1 2.4s1.1 1.4 1.7 1.9c1.4 1.1 3.3 1.6 5 1.2 3.9-.7 4.9-6.3 1.9-8.6-.4-.3-.8-.5-1.3-.6-.5 0-1 .1-1.4.4-.8.5-1.3 1.3-1.6 2.2-.3.9-.2 1.8.1 2.7.2.4.4.8.8 1.1l.3.3c.1 0 .1.1.3.1.1 0 .3 0 .4-.1.2-.2.2-.4.2-.5v-.5c-.2-.8-.4-1.6-.3-2.4 0-.4.2-.7.4-.9.2-.2.5-.2.9-.3.3.3.7.7.8 1.2.2.5.3 1 .2 1.5-.1.5-.3 1-.6 1.5-.1.2-.3.4-.5.7l-.3.3c-.1.1-.2.1-.3.2-1 .4-2.2.4-3.2 0s-1.8-1.2-2.4-2.2c-.3-.7-.4-1.4-.5-2.2 0-.8.1-1.5.3-2.2.5-1.4 1.6-2.6 2.8-3.5 2.5-1.8 5.6-2.5 8.6-3.1 3-.6 6.2-.7 9.2-.2 3 .5 5.9 1.6 8.7 2.9-.2.5-.5.9-.7 1.4-.2.6-.3 1.2-.4 1.7-.2 1.1-.5 2.2-1 3.2s-1.2 1.9-2.2 2.4c-1 .5-2.2.4-3.2 0-1-.6-2-1.4-2.6-2.4-.3-.5-.5-1.1-.5-1.6 0-.6.2-1.1.5-1.5.6-.5 1.6-.8 2.4-.8.4 0 .8.2 1 .5.2.3.2.7.2 1.1-.2.3-.4.5-.6.7-.3.1-.6.1-.8-.1l-.4.5c.6.5 1.5.9 2.4.6.4-.1.8-.5 1-.9.2-.4.3-.8.3-1.3 0-.8-.3-1.7-.9-2.3-.6-.6-1.4-.9-2.2-1-.8-.1-1.7.1-2.4.5s-1.3 1-1.7 1.7c-.4.7-.8 1.4-.9 2.2-.1.8-.1 1.7.5 2.4v-.1c.9 1.7 2.3 3.1 4.1 3.8.9.3 1.8.6 2.8.4 1-.1 1.8-.5 2.6-1 1.6-1 2.9-2.5 3.3-4.4.1-.5.1-1 .1-1.4 0-.5 0-.9.1-1.4.1-.8.1-1.7.3-2.5 1.7.8 3.3 1.9 4.6 3.3.7.7 1.3 1.5 1.8 2.3.5.8.9 1.7 1.3 2.7h.1c-.3-.9-.7-1.9-1.2-2.7-.3-.8-.9-1.6-1.6-2.3zm-11.2-7.7s0 .1 0 0c-2.2-.6-4.5-.9-6.8-1 1.5 0 2.9-.1 4.4-.3v.2c.6.1 1.2.3 1.7.6.2.2.5.3.7.5zM33.9 1.8c-.6.2-1.3.5-1.7 1-.4.6-.5 1.3-.4 1.9.1.6.3 1.2.5 1.8.1.3.3.6.4.9-.6-.4-1.1-.8-1.6-1.3-.3-.4-.5-.8-.7-1.2-.2-.4-.2-.9-.1-1.3.1-.3.2-.5.2-.8.2-.3.3-.5.5-.8.3-.5.7-.9 1.1-1.2.9-.6 2.1-.7 3.2-.4l1.3.6.7.3.6.4c.4.3.8.5 1.2.8l1 1c1.3 1.4 2.4 3 3.2 4.8.8 1.8 1.3 3.6 1.7 5.6.3 1.8.5 3.7.5 5.6-.1 0-.2-.1-.4-.1l-.1-2.5c-.1-.9-.2-1.9-.4-2.8-.4-1.9-.9-3.7-1.7-5.5-.8-1.7-2-3.3-3.5-4.6l-1.2-.9c-.4-.2-.8-.5-1.3-.7-.9-.3-1.8-.6-3-.6zm4.6 12.8v-2.1c0-.7.1-1.4.2-2.1.1-1.4.1-2.8-.2-4.2-.3-1-.7-2-1.3-2.8l.6.3c.4.3.8.5 1.1.8 1.4 1.2 2.5 2.7 3.3 4.3.9 1.6 1.4 3.4 1.9 5.2.2.9.3 1.8.5 2.8l.3 2.4c-1.3-.4-2.6-.7-3.9-.9-.9-.1-1.8-.2-2.7-.1-.3 0-.5 0-.8.1.5-1.1.9-2.4 1-3.7zm-6.1 10.9c-.2-.8-.2-1.7.1-2.5.5-1.6 1.7-3.1 3.2-3.8.8-.4 1.7-.6 2.5-.6.9 0 1.8.1 2.6.3 1.7.4 3.4.8 5 1.6.8.4 1.5.9 2.1 1.4.6.6 1.1 1.3 1.4 2 .2.4.2.8.3 1.2 0 .4 0 .8-.1 1.2-.1.8-.4 1.6-1 2.2-.6.6-1.3 1-2.2 1.2-.8.2-1.6.2-2.4.1 0-.5 0-1-.1-1.6-.2-.5-.4-1-.7-1.5-.6-.9-1.6-1.5-2.7-1.6-.6 0-1.1.1-1.6.4-.5.3-.9.8-1.1 1.4-.2 1.1-.2 2.1-.2 3.2-1.4-.7-2.8-1.6-3.9-2.8-.5-.2-1-1-1.2-1.8zm6.5 7.9c-.4-.9-.5-1.9-.6-3v-1.5c0-.5 0-1.1.1-1.5.2-.9 1-1.5 2-1.6 1-.1 2 .4 2.5 1.3.6.9.6 1.9.4 2.9-.3 1.8-1.2 3.4-2.2 5l-.4.4h-.2c.1-.6.1-1.2 0-1.7l-.3-.9v-.9c.1-.6.2-1.2.2-1.7v-1.7h-.1c-.4.5-.6 1.1-.7 1.7-.1.6 0 1.2.1 1.8.1.3.1.6.1.9 0 .3-.1.6-.1.9 0 .6.1 1.1.5 1.6-.3-.2-.5-.4-.8-.6-.1-.5-.3-.9-.5-1.4zm-16.1.8c-1-.4-2-.9-2.9-1.5-.9-.6-1.7-1.3-2.2-2.3-.5-.9-.4-2.1 0-3 .4-1 1.2-1.8 2.1-1.9 1-.2 2 .2 2.7.9.3.3.6.8.7 1.3.1.5.2 1.1.5 1.6.6 1.1 1.7 1.7 2.6 2.2 2 1 4.1 1.7 6.2 2.3 1.1.3 2.1.4 3.2.7.8.2 1.7.3 2.4.7l.4.4c.1.1.1.2.2.2 0 0 0 .1 0 0 0 0 0-.1.1-.1v.2c-4.4-.1-8.8-.1-13-.7-1-.2-2-.5-3-1z" class="st3"></path>  <path d="M16.1 39.4c.8-.1 1.3-.8 1.7-1.2.4-.5.7-1.1 1.1-1.3.3-.3.9-.1 1.3.2.3.2.4.9-.1 1.2-.2.1-.5.1-.8.1-.3-.1-.5-.3-.3-.5l-.1-.1c-.1.1-.2.3-.1.5s.2.3.4.3c.3.1.6.2 1 0 .7-.3.9-1.4.2-2-.3-.2-.6-.4-.9-.5-.2-.1-.4-.1-.6-.1-.2 0-.4.1-.6.2-.7.4-1 1-1.4 1.4-.4.5-.7.9-1.2 1h-.3c-.1 0-.2 0-.3-.1-.2-.1-.5-.3-.8-.4-.2-.1-.3-.1-.6-.1-.2 0-.5.1-.6.2-.3.3-.5.6-.6.9-.3.6-.3 1.2-.6 1.7s-.8.8-1.4.6c-.3-.1-.6-.2-.9-.2-.3-.1-.7 0-1 .2-.5.4-.7 1.1-1.2 1.4-.4.4-1 .6-1.5.6-1.1.1-2.3-.3-3.3-.9-1-.6-2-1.4-2.7-2.4h-.1c.5 1.1 1.4 2.1 2.5 2.8.7.6 1.3.8 1.9 1.1.6.2 1.3.3 2 .2.7-.1 1.3-.5 1.7-1 .5-.5.6-1.1 1-1.5.4-.4 1-.1 1.6.1.3.1.7.1 1 0 .3-.1.6-.4.8-.6.4-.6.6-1.2.8-1.7.1-.2.3-.5.5-.6.1-.1.3-.1.6.1.2.1.5.3.8.4.2.1.4.1.6.1.2-.1.3 0 .5-.1zm14-35.9zm354.1 36c-3.3-1.7-6.9-2.8-10.6-3.2-.3 0-.5 0-.8-.1 2.1 0 4.1-.1 6.2-.5 1.1-.2 2.2-.7 3.1-1.1 1-.5 2-1 2.9-1.6.9-.6 1.8-1.4 2.3-2.4.3-.5.4-1.1.4-1.6 0-.6-.1-1.1-.3-1.7-.3-1.1-1.2-2.1-2.4-2.4-1.2-.2-2.5.2-3.3 1-.4.4-.7 1-.9 1.6-.2.6-.3 1.1-.5 1.5-.5.8-1.4 1.4-2.3 1.9-1.9 1-3.9 1.8-6 2.4l-3.2.9c-.8.2-1.6.5-2.3.9l-.6.2-1.4.5v-.3c.3-.1.5-.3.7-.4.4-.4.8-.8 1-1.3.5-1 .7-2 .8-3 1.6-.5 3.1-1.3 4.3-2.5.7-.7 1.2-1.5 1.5-2.4.3-.9.2-1.9-.1-2.8-.6-1.8-2.1-3.1-3.7-3.9-.6-.2-1.1-.4-1.7-.5-.1-1.4-.2-2.7-.5-4-.1-.7-.3-1.3-.4-2-.1-.7-.1-1.4 0-2 .2-1.4.3-2.7.6-4 .2-1.1.6-2.2 1-3.3.8-.4 1.7-.6 2.5-.6.5.1 1 .4 1.2.7.3.4.4.9.3 1.4 0 .5-.2 1.1-.4 1.6s-.4 1-.6 1.7v.4l.5-.3c.9-.5 1.7-1.1 2.3-1.9.3-.4.6-.8.7-1.3.1-.5.2-1 0-1.5l-.3-.8c-.1-.3-.2-.5-.4-.8-.3-.5-.7-.9-1.2-1.3-1-.7-2.2-.8-3.4-.5-1.8.8-3.6 1.6-5.1 3.1-1.4 1.4-2.6 3.1-3.4 4.9-.8 1.8-1.3 3.8-1.5 5.7-.2 1.9-.3 3.8-.1 5.7-.3.1-.5.2-.7.3-.8.4-1.6.9-2.3 1.5-.7.6-1.3 1.4-1.6 2.4-.3.9-.3 1.9-.1 2.8.2.9.6 1.9 1.3 2.5.7.7 1.6 1 2.5 1.1.8.1 1.7 0 2.5-.1.1 1.1.6 2.1 1.1 3 .4.7.9 1.4 1.5 2l-.1.1c.1.2.2.4 0 .6-.1.2-.3.4-.5.6-.4.4-.9.8-1.3 1.2-.5.4-.9.7-1.5.9-.6.2-1.1.4-1.7.7-2.2 1-4.1 2.5-6 3.9v.1c1.9-1.4 3.9-2.8 6-3.8.5-.2 1.1-.4 1.7-.6.6-.2 1.1-.6 1.6-.9.5-.4.9-.7 1.4-1.2.2-.2.4-.4.6-.7.1-.1.1-.2.1-.3l.1.1h.3l-.1.2-.1.4h.1-.1c-.3.2-.6.3-.8.5-.3.2-.5.4-.7.8l-.3.5.6-.2c3.5-1.1 7.2-1.4 10.8-1 3.6.4 7.1 1.6 10.3 3.2 1.3.9 2.6 2 3.5 3.3 1 1.3 1.6 2.8 1.4 4.3-.2.8-.4 1.5-.9 2.1-.4.7-1 1.3-1.6 1.8-1.2 1-2.8 1.4-4.4 1-.7-.2-1.5-.5-1.9-1-.5-.6-.8-1.3-1-2.1-.2-.7-.2-1.5.1-2.2.2-.7.7-1.4 1.3-1.8.6-.5 1.3-.5 1.9-.2.6.4 1 1.1 1.3 1.8.2.7.2 1.5-.1 2.2-.2.3-.4.7-.6.9v-.1c.2-.8.4-1.7.3-2.6-.1-.5-.2-1-.6-1.3-.4-.4-1-.4-1.4-.4h-.2c-.6.4-.9 1-1.2 1.5-.2.6-.3 1.2-.2 1.9.1.6.4 1.2.7 1.7.2.3.4.5.6.7.1.1.2.2.4.3.1.1.3.2.4.2 1.2.5 2.5.5 3.6 0s2-1.4 2.7-2.4c.6-1.5.6-3.2.1-4.7-.6-1.5-1.7-2.7-3-3.6-2.6-1.8-5.8-2.5-8.8-3.1-3.1-.6-6.3-.7-9.3-.1-3.1.6-6.1 1.6-8.9 2.9l-.1.1.1.1c.3.5.6 1 .7 1.5.2.5.2 1.1.3 1.7.2 1.2.5 2.3 1 3.3.5 1.1 1.3 2.1 2.4 2.6 1.1.6 2.4.4 3.5 0 1.1-.6 2.2-1.4 2.8-2.6.3-.6.6-1.2.6-1.9s-.2-1.4-.7-1.9c-.4-.4-.9-.6-1.3-.7-.5-.2-1-.3-1.5-.2-.5 0-1.1.2-1.5.7-.3.5-.3 1.1-.3 1.6.2.3.4.7.8.9-.2 0-.4 0-.6-.1-.3-.1-.5-.3-.7-.6-.1-.3-.2-.6-.2-.9 0-.7.3-1.3.7-1.8.5-.5 1.2-.7 1.9-.8 1.4-.2 2.7.6 3.5 1.8.4.6.7 1.3.8 2 .1.7.1 1.4-.3 2-.8 1.5-2.1 2.9-3.8 3.5-.8.3-1.7.5-2.6.4-.9-.1-1.7-.5-2.5-.9-1.5-.9-2.8-2.4-3.1-4.1-.2-1.8-.1-3.7-.6-5.5l-.1-.2-.2.1c-.9.4-1.7 1-2.6 1.6-.8.6-1.6 1.3-2.2 2-.7.7-1.3 1.5-1.8 2.4-.5.8-.9 1.8-1.2 2.7h.1c.3-.9.7-1.8 1.3-2.7.5-.8 1.1-1.6 1.8-2.3 1.3-1.3 2.9-2.4 4.6-3.3.2.8.3 1.6.3 2.5 0 .5 0 .9.1 1.4 0 .4 0 .9.1 1.4.4 1.9 1.7 3.4 3.3 4.4.8.5 1.7.9 2.6 1 1 .1 1.9-.1 2.8-.4 1.8-.7 3.2-2.1 4.1-3.8v.1c.5-.7.6-1.6.5-2.4-.1-.8-.4-1.5-.9-2.2-.4-.7-1-1.3-1.7-1.7-.7-.4-1.6-.6-2.4-.5-.8.1-1.6.4-2.2 1-.6.6-.9 1.5-.9 2.3 0 .4.1.8.3 1.3.2.4.6.7 1 .9.9.3 1.8-.1 2.4-.6l-.4-.5c-.2.2-.5.2-.8.1-.3-.1-.5-.4-.6-.7 0-.4 0-.8.2-1.1.2-.3.6-.4 1-.5.8 0 1.8.2 2.4.8.4.4.5 1 .5 1.5 0 .6-.2 1.1-.5 1.6-.6 1-1.5 1.8-2.6 2.4-1 .4-2.2.5-3.2 0s-1.7-1.4-2.2-2.4c-.5-1-.8-2.1-1-3.2-.1-.6-.2-1.1-.4-1.7-.2-.5-.5-1-.7-1.4 2.8-1.3 5.6-2.4 8.7-2.9 3.1-.5 6.2-.5 9.2.2 3 .6 6.1 1.3 8.6 3.1 1.2.9 2.3 2 2.8 3.5.2.7.4 1.5.3 2.2 0 .7-.2 1.5-.5 2.2-.6.9-1.4 1.8-2.4 2.2-1 .4-2.2.4-3.2 0-.1-.1-.2-.1-.3-.2l-.3-.3c-.2-.2-.4-.4-.5-.7-.3-.5-.5-1-.6-1.5-.1-.5 0-1.1.2-1.5.2-.4.5-.9.8-1.2.3 0 .7.1.9.3.2.2.4.6.4.9.1.8-.1 1.6-.3 2.4v.5c0 .1 0 .3.2.5.1.1.3.2.4.1.1 0 .2-.1.3-.1l.3-.3c.3-.3.6-.7.8-1.1.4-.9.4-1.8.1-2.7-.3-.9-.7-1.7-1.6-2.2-.4-.3-.9-.4-1.4-.4-.5.1-1 .3-1.3.6-3 2.2-2 7.9 1.9 8.6 1.7.4 3.7 0 5-1.2.7-.6 1.3-1.2 1.7-1.9.5-.7.9-1.6 1-2.4.2-1.8-.5-3.6-1.6-4.9-.7-1.5-2-2.6-3.4-3.6zm-15.2-5c1.1-.2 2.1-.4 3.2-.7 2.1-.5 4.3-1.2 6.2-2.3 1-.5 2-1.1 2.6-2.2.3-.6.4-1.2.5-1.6.1-.5.4-.9.7-1.3.7-.7 1.7-1.1 2.7-.9 1 .2 1.8 1 2.1 1.9.4 1 .5 2.1 0 3-.5 1-1.3 1.7-2.2 2.3-.9.6-1.9 1.1-2.9 1.5-1 .4-2 .8-3.1.9-4.3.6-8.7.6-13 .7v-.2l.1.1c0 .1 0 0 0 0 0-.1.1-.1.2-.2l.4-.4c.8-.2 1.6-.4 2.5-.6zm-2.7-28.2c-.3 1.4-.4 2.8-.2 4.2.1.7.1 1.4.2 2.1v2.1c.1 1.3.4 2.6 1 3.9-.3 0-.5-.1-.8-.1-.9 0-1.8 0-2.7.1-1.3.2-2.7.4-3.9.9l.3-2.4c.2-.9.3-1.8.5-2.8.5-1.8 1-3.6 1.9-5.2.9-1.6 1.9-3.1 3.3-4.3.3-.3.7-.5 1.1-.8l.6-.3c-.6.6-1 1.6-1.3 2.6zm-6.5 7.6c.4-1.9.9-3.8 1.7-5.6.8-1.8 1.9-3.4 3.2-4.8l1-1c.4-.3.8-.6 1.2-.8l.6-.4.7-.3 1.3-.6c1-.3 2.3-.2 3.2.4.4.3.8.7 1.1 1.2.2.2.2.5.4.7.1.3.2.5.2.8.1.4.1.9-.1 1.3s-.4.8-.7 1.2c-.4.5-1 1-1.6 1.3.1-.3.3-.6.4-.9.2-.6.4-1.1.5-1.8.1-.6 0-1.3-.4-1.9-.4-.6-1.1-.8-1.7-1-1.1 0-2 .3-2.9.6-.5.2-.9.5-1.3.7-.4.3-.8.5-1.2.9-1.5 1.3-2.6 2.9-3.5 4.6-.8 1.7-1.3 3.6-1.7 5.5-.2.9-.3 1.9-.4 2.8l-.1 2.5c-.1 0-.2.1-.4.1 0-1.7.2-3.6.5-5.5zm-1.5 16c-.8-.2-1.6-.6-2.2-1.2-.6-.6-.9-1.4-1-2.2-.1-.4-.1-.8-.1-1.2.1-.4.1-.8.3-1.2.2-.8.7-1.5 1.4-2 .6-.6 1.3-1.1 2.1-1.4 1.6-.8 3.3-1.3 5-1.6.9-.2 1.8-.3 2.6-.3.9 0 1.8.2 2.5.6 1.6.7 2.8 2.2 3.2 3.8.2.8.3 1.7.1 2.5-.2.8-.7 1.5-1.2 2.2-1.1 1.1-2.5 2-3.9 2.8.1-1.1.1-2.1-.2-3.2-.2-.6-.6-1.1-1.1-1.4-.5-.3-1.1-.4-1.6-.4-1.1.1-2.1.7-2.7 1.6-.3.4-.5.9-.7 1.5-.1.5-.2 1-.1 1.6-.8-.3-1.6-.3-2.4-.5zm3 .1c-.2-1-.2-2 .4-2.9.5-.9 1.6-1.4 2.5-1.3 1 .1 1.8.7 2 1.6.1.4.1 1 .1 1.5v1.5c-.1 1-.2 2-.6 3-.2.5-.4.9-.7 1.3-.2.2-.5.4-.8.6.3-.5.5-1.1.5-1.6 0-.3-.1-.6-.1-.9 0-.3.1-.6.1-.9.2-.6.2-1.2.1-1.8-.1-.6-.3-1.2-.7-1.7h-.1v1.7c.1.6.1 1.1.2 1.7.1.3.1.6 0 .9l-.3.9c-.1.6-.1 1.1 0 1.7h-.2l-.4-.4c-.7-1.5-1.6-3.1-2-4.9zm2.9 6.7c.5-.3 1.1-.5 1.7-.6v-.2c1.5.2 2.9.2 4.4.3-2.3.1-4.6.4-6.8 1.1l.1-.1c.1-.2.3-.3.6-.5z" class="st3"></path>  <path d="M404.7 40.3c-.8 1-1.7 1.8-2.7 2.4-1 .6-2.2 1-3.3.9-.5-.1-1.1-.3-1.5-.6-.4-.3-.7-1-1.2-1.4-.2-.2-.7-.3-1-.2-.3 0-.6.2-.9.2-.6.2-1.1-.2-1.4-.6-.3-.5-.3-1.1-.6-1.7-.1-.3-.3-.6-.6-.9-.2-.1-.4-.2-.6-.2-.2 0-.4.1-.6.1-.3.1-.6.3-.8.4-.1 0-.2.1-.3.1h-.3c-.4-.1-.8-.5-1.2-1-.4-.5-.7-1.1-1.4-1.4-.2-.1-.4-.1-.6-.2-.2 0-.4 0-.6.1-.4.1-.6.3-.9.5-.6.6-.4 1.6.2 2 .4.2.7.1 1 0 .2-.1.3-.2.4-.3.1-.2 0-.4-.1-.5l-.1.1c.2.3 0 .5-.3.5-.3.1-.6.1-.8-.1-.4-.3-.4-1-.1-1.2.4-.3 1-.5 1.3-.2.4.2.7.8 1.1 1.3.4.5.9 1.1 1.7 1.2h.6c.2 0 .4-.1.6-.1.3-.1.6-.3.8-.4.3-.1.4-.1.6-.1.2.1.4.3.5.6.3.5.4 1.1.8 1.7.2.3.5.5.8.6.3.1.7.1 1 0 .6-.2 1.2-.5 1.6-.1.4.4.6 1 1 1.5s1.1.8 1.7 1c.7.1 1.4.1 2-.2.6-.2 1.2-.5 1.7-.9 1.1-.8 2-1.8 2.5-2.9zM374.6 3.5h.1z" class="st3"></path></svg>