<svg xmlns="http://www.w3.org/2000/svg" xml:space="preserve" viewBox="0 0 64.8 185">  <path fill="#333" d="M61.1 21.4c-1.9-.6-4-.1-5.7.9-1.7 1-3.1 2.4-4 4.1-.9 1.7-1.4 3.6-1.7 5.4-.3 1.6-.7 3.3-1.4 4.7-.9.5-1.7 1-2.5 1.6.1-.2.1-.5.2-.7 1.7-2.2 2.6-5.2 2.4-8.1-.1-1.5-.5-3-1.2-4.4-.6-1.4-1.5-2.6-2.6-3.6l-.4-.4-.1.5c-.4 1.5-.8 3-1 4.5-.3 1.5-.4 3.2.1 4.7.5 1.6 1.4 2.8 1.9 4.2.2.7.4 1.4.5 2.1 0 .5 0 1-.1 1.5-1.2.9-2.2 2.1-3 3.3-1.5 2-2.5 4.4-2.9 6.8-.1-.4-.3-.8-.4-1.2 1.3-2.9 2-6.1 2.1-9.4 0-1.7-.1-3.3-.4-4.9-.3-1.6-.7-3.2-1.3-4.8l-.6-.9-.3.8c-.5 1.7-1.1 3.4-1.6 5.1-.5 1.7-.9 3.5-.9 5.4 0 1.8.4 3.6 1 5.4.6 1.7 1.3 3.2 2.1 4.8-.1.5-.1 1-.2 1.6-.9.1-1.8.5-2.5 1s-1.2 1.1-1.8 1.5c-.6.4-1.3.7-2 .5l-.1-10.8-.1-9c1.1-2 1.1-4.5 2.1-6.4 1-2 2.8-3.4 4.6-4.9 1.8-1.4 3.8-2.8 5.2-4.7 1.4-1.9 1.9-4.4 2.1-6.7l.1-1.1-.7.7c-1.1 1-2.8 1.2-4.3 2S38.9 14.6 38 16c-.9 1.4-1.5 3-1.9 4.6-.3 1.4-.5 2.7-.7 4.1-.5.6-1 1.3-1.3 2.1-.9 2.1-.7 4.3-1.3 6.3l-.1-9.9v-5.8c0-.6.1-1.2.3-1.8.4-1.7 1.2-3.4 1.6-5.1.5-1.8.4-3.6 0-5.4-.4-1.8-1.1-3.4-2-5V0v.1c-.8 1.6-1.6 3.3-2 5-.4 1.8-.5 3.6 0 5.4.4 1.8 1.2 3.4 1.6 5.1.2.6.2 1.2.3 1.8V25l-.1 8.1c-.6-2-.4-4.2-1.3-6.3-.3-.8-.8-1.4-1.3-2.1-.2-1.4-.4-2.7-.7-4.1-.4-1.6-1-3.2-1.9-4.6-.9-1.4-2.2-2.7-3.7-3.5-1.6-.8-3.2-1.1-4.3-2L18 9.7l.1 1.1c.3 2.3.7 4.8 2.1 6.7 1.4 1.9 3.4 3.3 5.2 4.7 1.8 1.4 3.6 2.9 4.6 4.9.9 1.9.9 4.4 2.1 6.4l-.1 9-.1 10.8c-.7.2-1.4-.1-2-.5-.6-.4-1.1-1-1.8-1.5s-1.6-.8-2.5-1c0-.5-.1-1.1-.2-1.6.8-1.5 1.6-3.1 2.1-4.8.6-1.7 1-3.5 1-5.4 0-1.8-.4-3.6-.9-5.4-.5-1.7-1-3.4-1.6-5.1l-.3-.8-.3.9c-.6 1.5-1 3.1-1.3 4.8-.3 1.6-.5 3.3-.4 4.9.1 3.2.7 6.5 2.1 9.4-.1.4-.3.8-.4 1.2-.4-2.4-1.4-4.8-2.8-6.8-.9-1.2-1.9-2.3-3-3.3-.1-.5-.1-1-.1-1.5 0-.7.2-1.5.5-2.1.5-1.4 1.5-2.6 1.9-4.2.5-1.6.4-3.2.1-4.7-.2-1.5-.7-3-1-4.5l-.1-.5-.4.4c-1.1 1-2 2.3-2.6 3.6-.6 1.4-1.1 2.8-1.2 4.4-.2 2.9.6 5.9 2.4 8.1 0 .3.1.5.2.7-.8-.6-1.7-1.1-2.5-1.6-.7-1.5-1.1-3.1-1.4-4.7-.3-1.8-.8-3.7-1.7-5.4-.9-1.7-2.3-3.1-4-4.1-1.7-1-3.8-1.5-5.7-.9l-4 1.2 3.9-.2c.7 0 1.3.2 1.9.7.6.4 1 1 1.3 1.7.6 1.4.8 3 1.2 4.6.2.8.5 1.6.9 2.3.4.7 1 1.3 1.6 1.9 1.2 1.1 2.6 1.9 4 2.7 2.7 1.5 5.1 3.4 7 5.8-.3-.1-.6-.1-.9 0-.7-.7-1.8-1.2-2.8-1.4-1.1-.2-2.2-.3-3.3-.2-1.1 0-2.1 0-3.2-.1-1-.1-2-.4-2.8-1l-1.2-.9.6 1.3C8.8 41 9.8 42 11 42.8c1.1.8 2.5 1.4 3.9 1.6 1.4.2 2.9-.2 4.1-.9.6-.4 1.1-.8 1.7-1 .4-.2.8-.3 1.3-.2 1.7 2.4 2.9 5.1 3.5 8-.7-.1-1.4-.1-2.1.1l-.4.1v.3c-1.2 0-2.4.2-3.4.8-1.2.6-2.2 1.6-3 2.7-.7 1.1-1.2 2.4-1.5 3.7-.3 1.3-.6 2.6-.8 3.8l-.3 1.6 1.1-1.3c1.5-1.8 3.5-3.2 5.3-4.9l1.2-1.2-.1.2c-.5 1.2-.6 2.6-.3 3.8.3 1.3.9 2.4 1.8 3.4.8.9 1.8 1.7 2.8 2.4.9.6 1.8 1 2.8 1.4.1.5.2 1 .4 1.4.6 1.6 1.7 3 2.8 4.3l-.1 12.7v1c-.1-.5-.3-.9-.6-1.3-.4-.8-.9-1.5-1.3-2.2-.8-1.4-.5-3.1-1-4.8-.5-1.7-1.3-3.2-2.3-4.6-1-1.4-2.3-2.6-3.9-3.4l-.5-.3-.1.8c-.2 1.3-.1 2.7.1 4 .2 1.3.7 2.6 1.4 3.8.7 1.1 1.6 2.2 2.6 3 .9.7 1.8 1.3 2.9 1.8.1.1.1.2.2.3.9 1.5 2.1 2.5 2.6 4.1l-.1 30.4c-.4-1.4-1.4-2.6-2.7-3.4-.2-.1-.3-.2-.5-.3 0-1.2-.1-2.4-.3-3.6-.3-1.3-.8-2.6-1.7-3.8-.8-1.2-1.9-2.1-3.2-2.7-1.3-.6-2.8-.8-4.2-.6l-.4.1.1.4c.5 1.7 1.3 3.2 2.2 4.6 1 1.4 2 2.7 3.3 3.9 1.3 1.2 2.9 1.9 4.3 2.7 1.4.7 2.5 1.9 3.1 3.4v10.4c-1.2-.7-2-1.9-2.6-3.1-.7-1.3-1.1-2.8-1.8-4.1-.7-1.4-1.6-2.6-2.5-3.9-.9-1.3-1.7-2.5-2.5-3.8l-.4-.6-.2.7c-.8 2.7-.6 5.8.7 8.4.7 1.3 1.7 2.4 2.8 3.3 1.1.7 2.4 1.2 3.7 1.2.3.4.6.7.9 1.1.5.5 1.2.9 1.9 1.1l-.2 42.5c-.7.4-1.3.8-1.9 1.2-.7.4-1.5.8-2.2 1.2-1.5.8-2.9 2-3.9 3.5-1 1.4-1.7 3-2.7 4.2-1 1.2-2.6 2.1-4 1.8l-2.6-.5 2.3 1.3c1.4.8 3.1.6 4.4.1 1.4-.5 2.5-1.5 3.5-2.5s1.9-2 3-2.9c.7-.6 1.4-1 2.2-1.3-.2.3-.4.6-.5 1-.3.8-.6 1.5-1 2.2-.8 1.3-2.1 2.3-3.5 2.8l-1.9.6h2c3 0 5.9-1.2 8-3.3 2.1 2.1 5.1 3.3 8 3.3h1.6l-1.5-.5c-1.5-.4-2.8-1.4-3.6-2.8-.4-.7-.7-1.4-1-2.2-.2-.4-.5-.9-.8-1.3 1 .3 1.9.9 2.7 1.5 1.1.9 2 1.9 3 2.9s2.1 1.9 3.5 2.4c1.3.5 2.9.6 4.2-.1l1-.5-1.1.2c-1.6.3-3.2-.7-4.3-1.9-1.1-1.2-1.8-2.8-2.8-4.2-.9-1.4-2.3-2.5-3.8-3.4-.7-.4-1.5-.8-2.2-1.2-.7-.4-1.4-.9-2.1-1.3l-.1-42.6c.8-.2 1.5-.6 2-1.1.3-.3.6-.7.9-1.1 1.3 0 2.6-.5 3.7-1.2 1.2-.8 2.2-1.9 2.8-3.3 1.3-2.6 1.5-5.7.7-8.4l-.2-.7-.4.6c-.8 1.3-1.6 2.6-2.5 3.8-.8 1.3-1.7 2.5-2.5 3.9s-1.2 2.8-1.8 4.1c-.7 1.3-1.4 2.6-2.8 3.3v-10.3h.1c.6-1.6 1.8-2.8 3.2-3.5 1.4-.8 3-1.5 4.3-2.7 1.3-1.2 2.3-2.5 3.3-3.9.9-1.4 1.7-2.9 2.2-4.6l.1-.4-.4-.1c-1.4-.3-2.9 0-4.2.6-1.3.6-2.4 1.6-3.2 2.7-.8 1.1-1.3 2.5-1.7 3.8-.3 1.2-.4 2.4-.3 3.6-.2.1-.3.2-.5.3-1.4.9-2.5 2.3-2.8 3.9V88.3c.4-1.7 1.7-2.7 2.6-4.2.1-.1.1-.2.2-.3 1-.4 2-1 2.9-1.8 1-.9 1.9-1.9 2.6-3 .7-1.1 1.2-2.4 1.4-3.8.2-1.3.3-2.7.1-4l-.1-.6-.5.3c-1.6.8-2.8 2.1-3.9 3.4-1 1.4-1.9 2.9-2.3 4.6-.5 1.7-.2 3.4-1 4.8-.4.7-.8 1.4-1.3 2.2-.3.5-.5 1-.6 1.5v-1.2L33 73.1c1.1-1.3 2.1-2.7 2.8-4.3.2-.5.3-.9.4-1.4.9-.4 1.9-.9 2.8-1.4 1-.7 2-1.5 2.8-2.4.8-1 1.5-2.1 1.8-3.4.3-1.3.2-2.6-.3-3.8l-.1-.4 1.2 1.2c1.8 1.6 3.8 3.1 5.3 4.9l1.1 1.3-.3-1.7c-.2-1.3-.4-2.6-.8-3.8-.3-1.3-.8-2.5-1.5-3.7-.7-1.2-1.8-2.1-3-2.7-1.1-.5-2.3-.8-3.4-.8v-.3l-.4-.1c-.7-.2-1.4-.2-2.1-.1.6-2.9 1.8-5.7 3.5-8 .4 0 .9.1 1.3.2.6.3 1.1.6 1.7 1 1.2.7 2.7 1.1 4.1.9 1.4-.2 2.7-.8 3.9-1.6 1.1-.8 2.2-1.8 2.8-3.1l.6-1.3-1.2 1c-.8.6-1.8.9-2.8 1-1 .1-2.1.1-3.2.1s-2.2 0-3.3.2c-1 .2-2 .6-2.8 1.4H43c1.9-2.4 4.3-4.3 7-5.8 1.4-.8 2.8-1.6 4-2.7.6-.5 1.1-1.2 1.6-1.9.4-.7.7-1.5.9-2.3.4-1.6.6-3.2 1.2-4.6.3-.7.8-1.3 1.3-1.7.6-.4 1.2-.7 1.9-.7l3.9.2-3.7-1.1zM37 38.6c-.2-1.7-.1-3.5.4-5.2.4-1.4.9-2.8 1.5-4.1.3 1.3.6 2.5.8 3.8.2 1.6.3 3.2.3 4.8 0 3.1-.4 6.1-1.1 9.1-.3-1.1-.7-2.1-.9-3.2-.5-1.7-.8-3.5-1-5.2zm-.3-17.8c.5-1.5 1.2-3 2.1-4.3.9-1.3 2-2.4 3.4-3.2 1.1-.6 2.4-.9 3.6-1.7-.1 2-.4 4-1.5 5.6-1.3 1.9-3.3 3.2-5.3 4.4-1.2.7-2.4 1.6-3.3 2.6.3-1 .6-2.2 1-3.4zm-10.9.9c-2-1.2-4-2.4-5.3-4.4-1.1-1.7-1.3-3.6-1.5-5.6 1.2.8 2.6 1.1 3.6 1.7 1.3.7 2.5 1.9 3.4 3.2.9 1.3 1.6 2.7 2.1 4.3.4 1.1.7 2.3 1.1 3.5-1-1.1-2.2-2-3.4-2.7zm-1 16.1c0-1.6.1-3.2.3-4.8.2-1.3.5-2.5.8-3.8.6 1.3 1.1 2.7 1.5 4.1.5 1.7.6 3.5.4 5.2-.2 1.7-.5 3.5-.9 5.2-.3 1.1-.6 2.1-.9 3.2-.8-3-1.2-6-1.2-9.1zm-7.2-8.6c.1-1.4.5-2.8 1-4.1.5-1.1 1.1-2.2 1.9-3.2.5 1.3.9 2.5 1.1 3.9.2 1.5 0 3.1-.6 4.4-.6 1.4-1.4 2.7-1.9 4.2-.2.7-.3 1.5-.2 2.3-.5-1.1-.9-2.2-1.1-3.3-.3-1.4-.3-2.8-.2-4.2zm-6.6 4c-1.2-1.1-2-2.4-2.3-4-.3-1.5-.3-3.2-.9-4.7-.3-.8-.8-1.5-1.4-2.1-.1 0-.1-.1-.2-.1 1 .1 1.9.5 2.7 1 1.5.9 2.8 2.2 3.7 3.6 1 1.5 1.4 3.3 1.9 5 .4 1.5.9 3.1 1.8 4.4-.4-.2-.8-.4-1.3-.6-1.4-.7-2.8-1.5-4-2.5zm7.6 9.6c-1.2.6-2.4.8-3.7.9-1.3 0-2.7-.3-3.7-1.1-.7-.5-1.3-1.2-1.7-2 .6.3 1.3.5 2 .6 1.1.2 2.3.2 3.3.1 1.1-.1 2.1-.2 3.2-.1.9.1 1.8.3 2.6.7h-.1c-.7.3-1.3.6-1.9.9zM26.5 81c-.9-.9-1.6-1.9-2.2-3-.6-1.1-1-2.2-1.3-3.4-.2-1-.3-2.1-.3-3.1 1.3.6 2.5 1.5 3.4 2.6 1.1 1.3 1.7 2.9 1.9 4.5.1.8.1 1.6.2 2.5.1.6.2 1.2.4 1.8-.7-.6-1.4-1.2-2.1-1.9zm-5.4 27.6c-.8-1.3-1.3-2.7-1.6-4.1 1.1 0 2.2.2 3.2.7 1.1.6 2 1.4 2.8 2.4.8 1 1.4 2.2 1.8 3.4.4 1 .6 2.1.8 3.2-1.2-.7-2.4-1.4-3.5-2.1-1.4-.9-2.6-2-3.5-3.5zm2 13.7c-.5-1.2-.9-2.5-1.1-3.8-.1-1.1-.1-2.2 0-3.3.8 1 1.6 2 2.2 3 .8 1.3 1.5 2.6 2 4 .6 1.4 1.1 2.8 1.8 4.2.1.2.3.4.4.6-2.4-.7-4.3-2.6-5.3-4.7zm15.4-.1c.6-1.4 1.2-2.8 2-4 .7-1.1 1.5-2 2.2-3 .1 1.1.2 2.2 0 3.3-.2 1.3-.6 2.6-1.1 3.8-1 2.2-2.9 4.1-5.4 4.7.1-.2.3-.4.4-.6.8-1.4 1.3-2.8 1.9-4.2zm-1-11.2c.4-1.2 1-2.4 1.8-3.4s1.7-1.8 2.8-2.4c1-.5 2.1-.8 3.2-.7-.3 1.4-.8 2.9-1.6 4.1-.9 1.4-2.1 2.6-3.4 3.5-1.1.8-2.3 1.4-3.5 2.1.1-1 .3-2.1.7-3.2zm-.8-32.4c.2-1.6.8-3.2 1.9-4.5.9-1.1 2.1-2 3.4-2.6 0 1-.1 2.1-.3 3.1-.3 1.2-.7 2.4-1.3 3.4-.6 1.1-1.3 2.1-2.2 3-.6.7-1.4 1.3-2.2 1.9.2-.6.4-1.2.4-1.8.2-.9.2-1.7.3-2.5zm-4.4-63.1c-.5-1.8-1.2-3.4-1.7-5.1-.5-1.7-.4-3.5 0-5.3.4-1.7 1.1-3.4 1.9-4.9.8 1.6 1.5 3.2 1.9 5 .4 1.7.4 3.6-.1 5.3-.4 1.7-1.2 3.4-1.7 5.1 0 .2-.1.3-.1.5-.1-.2-.2-.4-.2-.6zM20.2 57c-1.5 1.3-3.2 2.2-4.7 3.5.2-.8.4-1.5.6-2.3.4-1.2.8-2.4 1.4-3.5 1.1-2 3.2-3.4 5.6-3.8.1 1.1-.1 2.2-.6 3.3-.5 1.1-1.3 2-2.3 2.8zm6 8.3c-.9-.7-1.8-1.6-2.5-2.5-.7-.9-1.2-1.9-1.5-3-.3-.9-.3-1.9 0-2.9 1.4.4 2.8 1.1 3.9 2.2 1.2 1.2 1.9 2.8 2.1 4.4.1.8.1 1.7.2 2.5 0 .3.1.6.1.9-.8-.5-1.6-1-2.3-1.6zm3.6 3.1c-.5-1.5-.5-3.2-1-4.9-.5-1.7-1.3-3.2-2.5-4.5-1.1-1.3-2.6-2.4-4.3-2.9l-.3-.1 1.2-1.5c.6-.9 1-2.1 1-3.2 1.3-.2 2.7 0 3.8.7.6.4 1.2.9 1.9 1.3s1.5.6 2.3.2l-.2 19.3c-.7-1.5-1.5-2.9-1.9-4.4zm7.6 106.3c1.5.8 2.8 1.9 3.7 3.3.9 1.4 1.6 2.9 2.8 4.3.6.6 1.2 1.2 2 1.6.5.2 1 .4 1.5.4-1 .2-2 .1-3-.3-1.3-.5-2.4-1.4-3.3-2.4-1-1-1.9-2-3-2.9-1.1-.9-2.4-1.6-3.9-1.8l-1.4-.2 1.3.6c.7.3 1.1 1 1.4 1.7.3.7.6 1.5 1 2.2.6 1 1.5 1.8 2.5 2.4-2.4-.3-4.8-1.5-6.4-3.3l-.1-.1h-.3l-.1.1c-1.6 1.7-3.8 2.8-6.1 3.2.9-.6 1.7-1.3 2.3-2.3.5-.7.7-1.5 1-2.2.3-.7.7-1.3 1.4-1.6l2-.9-2.2.2c-1.5.2-2.8.9-3.9 1.8s-2.1 2-3.1 2.9c-1 1-2.1 1.8-3.3 2.3-.5.2-1 .3-1.5.3.1 0 .1 0 .2-.1.8-.4 1.5-1 2.1-1.6 1.2-1.3 1.9-2.9 2.8-4.3.9-1.4 2.2-2.4 3.6-3.2.7-.4 1.4-.8 2.2-1.2.8-.4 1.4-.9 2.1-1.3l.2-.1v-.3l.3-56.6.4 56.6v.1l.1.1c.7.4 1.4.9 2.2 1.3 1 .5 1.7.9 2.5 1.3zm5.2-114.8c-.3 1.1-.8 2.1-1.5 3-.7.9-1.5 1.7-2.5 2.5-.7.6-1.5 1.2-2.3 1.7.1-.3.1-.6.1-.9.1-.9.1-1.7.2-2.5.2-1.6.9-3.2 2.1-4.4 1.1-1.1 2.4-1.8 3.9-2.2.2.8.2 1.8 0 2.8zm4.7-5.2c.6 1.1 1 2.2 1.4 3.5.2.7.4 1.5.6 2.3-1.5-1.3-3.2-2.2-4.7-3.5-.9-.8-1.7-1.7-2.2-2.8-.5-1-.7-2.2-.6-3.3 2.3.4 4.4 1.8 5.5 3.8zm-6.4-3.5c0 1.2.4 2.3 1 3.2.3.5.7 1 1.2 1.5l-.4.1c-1.7.5-3.2 1.6-4.3 2.9-1.1 1.3-2 2.8-2.5 4.5-.5 1.7-.4 3.4-1 4.9-.5 1.5-1.3 2.9-2 4.4l-.1-19.4c.7.3 1.6.1 2.3-.2.7-.4 1.3-.9 1.9-1.3 1.2-.5 2.6-.8 3.9-.6zm5.9-9.9c1-.1 2.1 0 3.2.1s2.2.1 3.3-.1c.7-.1 1.4-.3 2-.6-.4.8-1 1.5-1.7 2-1.1.8-2.4 1.1-3.7 1.1-1.3-.1-2.6-.3-3.7-.9-.6-.3-1.2-.7-1.9-.8h-.1c.8-.5 1.7-.7 2.6-.8zm-3-11c-.6-1.3-.8-2.9-.6-4.4.2-1.3.6-2.6 1.1-3.9.8 1 1.4 2.1 1.9 3.2.5 1.3.9 2.7 1 4.1.1 1.4.1 2.8-.2 4.2-.2 1.1-.6 2.2-1.1 3.3 0-.8 0-1.5-.2-2.3-.5-1.6-1.4-2.9-1.9-4.2zm14.7-8c-.7.6-1.1 1.3-1.4 2.1-.6 1.6-.6 3.2-.9 4.7-.3 1.6-1.1 2.9-2.3 4-1.2 1.1-2.6 1.8-4 2.5-.4.2-.8.4-1.3.6.8-1.4 1.3-2.9 1.8-4.4.5-1.8.9-3.5 1.9-5 .9-1.5 2.2-2.8 3.7-3.6.8-.5 1.8-.8 2.7-1-.1 0-.2.1-.2.1z"></path></svg>